<?xml version="1.0" standalone="no"?>
<!DOCTYPE svg PUBLIC "-//W3C//DTD SVG 20010904//EN"
 "http://www.w3.org/TR/2001/REC-SVG-20010904/DTD/svg10.dtd">
<svg version="1.0" xmlns="http://www.w3.org/2000/svg"
 width="719.000000pt" height="1280.000000pt" viewBox="0 0 719.000000 1280.000000"
 preserveAspectRatio="xMidYMid meet">
<metadata>
Created by potrace 1.16, written by Peter Selinger 2001-2019
</metadata>
<g transform="translate(0.000000,1280.000000) scale(0.100000,-0.100000)"
fill="#000000" stroke="none">
<path d="M0 10770 c0 -1994 0 -2030 19 -2030 11 0 22 6 24 13 4 9 8 8 17 -3 9
-11 13 -12 17 -2 2 6 18 12 34 12 22 0 29 5 29 20 0 12 7 20 16 20 41 0 44 19
44 254 0 219 -1 226 -20 226 -17 0 -20 7 -20 49 0 30 -5 51 -12 53 -19 7 16
38 42 38 11 0 32 11 45 25 21 20 25 34 25 80 0 43 3 55 15 55 20 0 65 45 65
65 0 8 5 15 10 15 6 0 10 9 10 20 0 17 7 20 40 20 l40 0 0 110 c0 103 -1 110
-20 110 -18 0 -20 7 -20 80 l0 80 40 0 c40 0 40 0 40 38 0 26 6 42 20 52 21
15 28 70 10 70 -15 0 -12 29 4 46 8 8 22 14 30 14 11 0 16 9 16 30 0 23 -4 30
-20 30 -13 0 -20 7 -20 20 0 13 -7 20 -20 20 -11 0 -20 5 -20 10 0 6 9 10 20
10 13 0 20 7 20 20 0 17 7 20 40 20 38 0 40 2 40 30 0 28 2 30 40 30 l40 0 0
100 0 100 40 0 c38 0 40 2 40 30 0 23 4 30 20 30 13 0 20 7 20 20 0 11 5 20
10 20 6 0 10 16 10 35 0 38 36 85 65 85 8 0 15 5 15 10 0 6 14 10 30 10 28 0
30 2 30 40 0 38 2 40 30 40 28 0 30 3 30 36 0 38 18 64 44 64 9 0 16 8 16 20
0 11 5 20 10 20 6 0 10 14 10 30 0 22 5 30 18 30 10 0 24 9 32 20 10 14 26 20
52 20 31 0 38 4 38 20 0 13 7 20 20 20 13 0 20 -7 20 -20 0 -16 7 -20 30 -20
23 0 30 4 30 20 0 11 5 20 10 20 6 0 10 -9 10 -20 0 -11 5 -20 10 -20 6 0 10
7 10 15 0 9 16 31 35 50 26 27 43 35 70 35 28 0 35 4 35 20 0 17 7 20 40 20
38 0 40 2 40 30 l0 30 80 0 c73 0 80 2 80 20 0 11 -4 20 -10 20 -15 0 -12 70
4 86 8 8 26 14 40 14 22 0 26 4 26 30 l0 30 240 0 240 0 0 35 0 35 205 0 c130
0 205 4 205 10 0 6 -169 11 -482 12 l-483 3 380 5 c357 5 337 5 -315 10 -446
3 -35 6 1149 8 1014 1 1842 0 1840 -2 -3 -3 -448 -6 -991 -7 -542 -1 -992 -5
-999 -10 -8 -5 135 -7 331 -4 190 2 337 2 328 -1 -18 -6 -25 -34 -9 -34 5 0
14 -13 21 -29 6 -17 19 -32 28 -34 10 -3 4 -5 -13 -6 -16 -1 -61 -6 -100 -11
-163 -24 -155 -24 -155 -1 0 14 -6 21 -20 21 -11 0 -20 5 -20 10 0 23 -39 9
-47 -17 -8 -23 -15 -27 -59 -30 -88 -7 -119 -7 -143 -3 -16 4 -27 -1 -35 -15
-16 -30 -27 -34 -52 -23 -12 6 -35 7 -50 4 -24 -6 -26 -10 -21 -46 5 -41 -5
-50 -61 -50 -14 0 -21 -4 -17 -11 10 -14 -26 -39 -47 -33 -21 6 -25 -25 -6
-44 9 -9 9 -15 0 -24 -9 -9 -12 -8 -12 7 0 18 -1 18 -18 -1 -10 -11 -22 -33
-26 -49 -9 -37 -40 -79 -88 -123 -21 -19 -38 -41 -38 -50 0 -18 -29 -41 -53
-42 -12 0 -16 -6 -14 -22 2 -13 2 -17 0 -10 -3 6 -7 12 -9 12 -12 0 -50 -24
-60 -38 -6 -9 -18 -13 -26 -10 -9 4 -22 -4 -33 -18 -10 -14 -24 -23 -32 -20
-7 3 -13 1 -13 -4 0 -6 -7 -10 -15 -10 -8 0 -15 -4 -15 -10 0 -19 -50 -59 -67
-53 -12 5 -15 2 -10 -10 4 -11 1 -17 -8 -17 -7 0 -19 -16 -25 -35 -6 -19 -15
-35 -20 -35 -10 0 -40 -57 -40 -75 0 -7 -6 -15 -13 -18 -9 -3 -16 -31 -20 -77
-3 -39 -11 -78 -17 -85 -6 -7 -11 -59 -11 -119 0 -58 -4 -108 -9 -111 -12 -7
-10 -67 3 -83 7 -9 7 -16 -1 -24 -7 -7 -12 -21 -12 -31 0 -11 -10 -39 -22 -63
-18 -37 -19 -48 -10 -69 15 -33 15 -72 1 -81 -6 -3 -9 -20 -6 -37 2 -17 -4
-49 -13 -71 -19 -44 -35 -250 -19 -240 5 3 9 -15 9 -40 0 -25 -4 -46 -10 -46
-6 0 -10 -26 -10 -59 0 -38 -4 -61 -12 -63 -19 -7 -25 -297 -7 -329 15 -27 29
-129 18 -129 -7 0 -3 -86 6 -127 3 -12 -1 -66 -9 -120 -15 -109 -14 -286 2
-306 8 -9 9 -60 5 -155 -6 -141 -6 -142 -30 -142 -20 0 -23 -5 -23 -35 0 -33
-2 -35 -35 -35 -33 0 -35 2 -35 35 0 24 -5 35 -15 35 -12 0 -15 -13 -15 -60 0
-47 3 -60 15 -60 8 0 15 -9 15 -20 0 -13 -7 -20 -20 -20 -18 0 -20 -7 -20 -80
0 -73 2 -80 20 -80 17 0 20 -7 20 -40 0 -53 -47 -100 -99 -100 -11 0 -26 -8
-33 -17 -19 -26 -100 -81 -131 -88 -15 -4 -27 -10 -27 -14 0 -4 -15 -22 -33
-41 -18 -19 -49 -57 -68 -85 -19 -27 -36 -52 -39 -55 -14 -14 -71 -114 -76
-135 -3 -13 -14 -31 -25 -41 -10 -9 -19 -27 -19 -39 0 -12 -9 -30 -20 -40 -11
-10 -20 -27 -20 -38 0 -11 -6 -28 -14 -36 -8 -9 -26 -50 -40 -91 -15 -41 -36
-90 -47 -108 -10 -18 -19 -42 -19 -53 0 -11 -9 -39 -20 -61 -11 -23 -20 -49
-20 -58 0 -9 -4 -20 -9 -25 -4 -6 -28 -48 -52 -95 -24 -47 -52 -101 -64 -120
-23 -40 -45 -98 -45 -121 0 -9 -7 -22 -15 -29 -8 -7 -15 -25 -15 -39 0 -15 -7
-36 -15 -47 -8 -10 -15 -34 -15 -52 0 -19 -6 -35 -14 -38 -8 -3 -24 -26 -35
-52 -30 -67 -44 -82 -69 -75 -17 4 -22 13 -22 39 l0 34 -80 0 -80 0 0 -70 c0
-43 -4 -70 -11 -70 -26 0 -39 -30 -39 -89 0 -58 -1 -61 -25 -61 -22 0 -25 4
-25 35 0 28 -4 35 -20 35 -16 0 -20 7 -20 30 0 17 -4 30 -10 30 -5 0 -10 18
-10 40 l0 40 40 0 c38 0 40 2 40 30 0 28 -2 30 -40 30 -38 0 -40 -2 -40 -30 0
-28 -2 -30 -40 -30 l-40 0 0 40 0 40 -40 0 c-22 0 -40 5 -40 10 0 6 -13 10
-30 10 l-30 0 0 60 c0 51 -3 60 -18 60 -10 0 -24 9 -32 20 -8 11 -22 20 -32
20 -17 0 -18 -136 -18 -3130 l0 -3130 3595 0 3595 0 0 6400 0 6400 -3595 0
-3595 0 0 -2030z m3645 870 c-3 -5 -12 -10 -18 -10 -7 0 -6 4 3 10 19 12 23
12 15 0z m-670 -39 c-3 -6 -14 -9 -25 -8 -10 1 -16 5 -14 9 3 4 14 8 25 8 11
0 18 -4 14 -9z m928 -28 c-7 -2 -19 -2 -25 0 -7 3 -2 5 12 5 14 0 19 -2 13 -5z
m507 -274 c0 -5 -7 -9 -15 -9 -15 0 -20 12 -9 23 8 8 24 -1 24 -14z m70 -101
c0 -5 -10 -6 -21 -3 -16 5 -19 4 -14 -5 5 -9 4 -11 -4 -6 -6 4 -8 12 -5 18 5
8 1 9 -11 4 -15 -5 -16 -4 -6 8 10 12 18 13 37 4 13 -6 24 -15 24 -20z m160
11 c0 -5 -7 -9 -16 -9 -10 0 -14 -6 -11 -14 3 -8 -2 -24 -12 -35 -17 -20 -19
-20 -27 -4 -11 25 -12 67 -2 74 12 8 68 -2 68 -12z m-40 -184 c0 -9 -50 -10
-53 0 -3 7 5 10 24 7 16 -2 29 -5 29 -7z m120 -20 c0 -28 -4 -35 -20 -35 -16
0 -20 7 -20 35 0 28 4 35 20 35 16 0 20 -7 20 -35z m-1535 -35 c8 6 20 8 27 4
19 -12 48 -12 48 0 0 6 5 5 12 -2 7 -7 20 -12 30 -12 10 0 18 -4 18 -10 0 -5
13 -7 29 -5 22 2 31 -2 39 -20 8 -17 17 -22 31 -18 12 3 21 1 21 -4 0 -15 41
-29 72 -25 17 2 30 11 34 24 6 21 7 21 25 -3 10 -13 19 -19 19 -13 0 15 40 10
51 -7 6 -9 9 -10 9 -2 0 7 10 17 21 24 17 9 20 8 13 -3 -6 -10 -5 -11 8 -1 8
7 18 10 21 6 4 -3 7 0 7 8 1 10 4 8 11 -4 10 -18 12 -18 30 -1 10 9 19 12 19
6 0 -6 10 -9 21 -7 12 2 34 -2 49 -10 21 -11 30 -11 40 -2 10 9 11 9 5 -2 -6
-11 -4 -13 10 -7 15 5 16 4 5 -9 -9 -11 -9 -15 -1 -15 7 0 20 -7 28 -16 12
-12 27 -14 54 -10 35 6 95 -13 87 -27 -2 -4 6 -13 17 -22 11 -9 13 -13 5 -9
-8 4 6 -14 33 -39 26 -26 47 -56 47 -68 0 -11 7 -27 15 -35 8 -9 15 -25 16
-37 0 -12 2 -29 5 -37 2 -8 7 -30 10 -48 4 -18 11 -32 18 -31 27 3 34 -3 39
-41 3 -23 11 -48 18 -56 6 -8 13 -29 14 -47 2 -18 8 -50 15 -72 20 -65 26
-168 17 -298 -4 -67 -6 -132 -4 -144 2 -13 1 -23 -3 -23 -7 0 -23 -38 -21 -52
1 -8 -47 5 -75 20 -10 6 -62 17 -114 26 -172 28 -392 0 -374 -49 4 -9 0 -15
-10 -15 -9 0 -16 -2 -16 -4 0 -2 -3 -12 -7 -22 -5 -13 -3 -15 8 -9 18 11 139
13 139 2 0 -4 10 -2 23 5 26 15 40 17 125 22 34 3 62 1 62 -4 0 -4 11 -10 25
-12 13 -3 22 -2 20 2 -2 4 9 7 24 6 16 -1 27 -5 24 -9 -3 -5 3 -8 13 -7 41 5
65 0 58 -11 -4 -8 1 -9 17 -5 24 7 24 7 -1 -8 -25 -15 -25 -15 -2 -16 12 0 22
-6 22 -14 0 -8 6 -17 13 -19 7 -3 4 -6 -7 -6 -11 -1 -16 -6 -13 -15 4 -9 -3
-17 -16 -21 -14 -4 -17 -8 -9 -12 8 -3 5 -11 -12 -24 -24 -19 -50 -19 -96 -2
-71 27 -191 43 -251 34 -66 -11 -137 -40 -158 -64 -7 -9 -18 -14 -24 -10 -6 3
-7 1 -3 -5 4 -7 1 -12 -6 -12 -8 0 -14 -9 -14 -19 0 -19 1 -19 27 0 40 28 49
23 12 -7 -18 -14 -33 -31 -33 -37 0 -7 5 -5 10 5 6 10 18 14 30 11 12 -3 20 0
20 6 0 7 4 10 9 7 4 -3 16 3 26 14 23 26 55 26 55 1 0 -36 32 -59 91 -66 50
-6 59 -5 78 16 11 12 21 29 21 37 0 22 35 9 38 -15 4 -29 50 -43 127 -39 85 5
85 5 85 16 0 13 -33 13 -46 0 -13 -13 -46 -2 -38 12 4 5 11 5 18 -1 14 -12 26
-5 26 15 0 7 -8 10 -20 7 -11 -3 -20 -1 -20 4 0 6 16 8 36 6 28 -3 43 2 60 18
29 27 59 19 60 -18 1 -16 11 -97 23 -182 23 -168 26 -254 11 -310 -24 -92 -38
-171 -39 -226 -1 -62 -9 -112 -19 -130 -3 -5 -5 -24 -3 -41 1 -18 -4 -36 -13
-43 -9 -8 -16 -18 -16 -25 0 -16 -52 -117 -72 -140 -10 -11 -18 -24 -18 -28 0
-12 -161 -168 -172 -168 -5 0 -7 -4 -4 -8 7 -12 -61 -55 -74 -47 -7 5 -9 21
-5 46 4 21 5 39 3 39 -3 0 -28 -35 -56 -78 -99 -151 -319 -342 -392 -342 -12
0 -40 -5 -64 -11 -80 -20 -275 45 -369 123 -109 91 -276 278 -281 315 -2 9
-10 17 -20 19 -23 3 -96 64 -181 150 -85 87 -82 83 -129 168 -48 89 -70 211
-61 336 6 76 8 305 4 595 0 55 4 113 10 128 6 16 11 41 11 57 0 16 5 32 10 35
6 3 10 24 10 45 0 47 15 90 32 90 7 0 22 19 32 42 18 38 18 51 8 182 -15 179
-12 219 21 282 14 28 29 74 33 103 4 28 11 54 15 57 5 3 9 22 9 42 0 40 14 71
27 59 4 -5 1 -12 -7 -17 -8 -5 -11 -12 -7 -17 13 -13 27 20 21 49 -4 20 2 39
23 70 16 24 33 52 39 62 14 27 126 93 229 137 17 7 44 12 60 11 29 -1 29 -1 5
7 l-25 8 27 8 c16 4 36 4 45 1 10 -4 14 -4 10 0 -11 11 25 33 54 34 15 0 30 7
33 16 5 13 9 14 21 4 12 -10 18 -10 30 0z m1455 -26 c0 -9 -5 -14 -12 -12 -18
6 -21 28 -4 28 9 0 16 -7 16 -16z m40 -34 c0 -5 -4 -10 -10 -10 -5 0 -10 5
-10 10 0 6 5 10 10 10 6 0 10 -4 10 -10z m-505 -180 c3 -5 1 -10 -4 -10 -6 0
-11 5 -11 10 0 6 2 10 4 10 3 0 8 -4 11 -10z m-1544 -43 c-10 -9 -11 -8 -5 6
3 10 9 15 12 12 3 -3 0 -11 -7 -18z m2173 -23 c6 -15 4 -15 -11 -3 -10 7 -20
15 -22 16 -2 2 3 3 11 3 9 0 19 -7 22 -16z m6 -34 c0 -5 -2 -10 -4 -10 -3 0
-8 5 -11 10 -3 6 -1 10 4 10 6 0 11 -4 11 -10z m30 -31 c0 -18 -2 -20 -15 -9
-13 11 -13 15 -3 21 18 12 18 12 18 -12z m-2820 -63 c0 -23 -16 -27 -17 -5 -1
10 2 19 8 19 5 0 9 -6 9 -14z m3420 -706 l0 -70 40 0 c38 0 40 2 40 30 0 28 2
30 40 30 38 0 40 -2 40 -30 l0 -30 80 0 80 0 0 40 0 40 40 0 40 0 0 -40 0 -40
-40 0 -40 0 0 -40 0 -40 80 0 80 0 0 -40 0 -40 40 0 40 0 0 -80 0 -80 40 0 40
0 0 -80 0 -80 40 0 40 0 0 -80 0 -80 40 0 40 0 0 -80 0 -80 40 0 40 0 0 -80 0
-80 40 0 40 0 0 -80 c0 -47 4 -80 10 -80 6 0 10 -33 10 -80 l0 -80 30 0 30 0
0 -70 0 -70 40 0 c33 0 40 -3 40 -20 0 -11 5 -20 10 -20 6 0 10 -26 10 -59 0
-42 5 -64 16 -76 14 -14 15 -34 9 -160 -5 -109 -4 -145 5 -145 29 0 40 -29 40
-104 0 -74 1 -76 25 -76 24 0 25 -2 25 -69 0 -46 4 -71 13 -74 9 -4 8 -8 -3
-17 -11 -9 -12 -13 -2 -17 9 -3 12 -44 12 -154 l0 -149 -40 0 -40 0 0 -80 0
-80 -80 0 -80 0 0 -150 c0 -143 -1 -150 -20 -150 -17 0 -20 7 -20 50 0 43 -3
50 -20 50 -18 0 -20 -7 -20 -60 0 -53 -2 -60 -20 -60 -17 0 -20 7 -20 50 0 28
-4 50 -9 50 -14 0 -23 -37 -16 -60 4 -11 2 -20 -4 -20 -6 0 -11 5 -11 10 0 6
-9 10 -20 10 -16 0 -20 7 -20 31 0 17 -4 38 -8 47 -5 9 -6 28 -2 42 l6 25 8
-22 c4 -13 14 -23 22 -23 8 0 14 -4 14 -10 0 -5 18 -10 40 -10 l40 0 0 40 c0
38 -2 40 -30 40 -24 0 -30 4 -30 21 0 15 -5 19 -15 15 -38 -14 -45 3 -45 104
0 105 -3 110 -53 105 -24 -3 -27 0 -27 30 0 27 -5 35 -31 45 -41 17 -91 113
-78 149 11 29 3 61 -17 61 -8 0 -14 6 -14 14 0 8 -5 16 -11 18 -5 2 -11 18
-11 35 -1 25 -6 32 -28 36 -31 7 -50 42 -50 92 0 19 -4 35 -10 35 -5 0 -10 11
-10 25 0 14 -4 25 -10 25 -5 0 -10 7 -10 15 0 8 -4 15 -10 15 -5 0 -10 8 -10
18 0 10 -13 28 -28 39 -17 12 -36 42 -46 70 -9 26 -23 62 -31 78 -8 17 -16 55
-17 85 -1 30 -7 58 -12 62 -16 11 -15 128 1 144 8 8 10 14 4 14 -6 0 -11 20
-11 45 0 25 -5 45 -11 45 -10 0 -4 160 8 203 3 12 -2 17 -17 17 -17 0 -20 4
-15 18 4 9 10 26 13 37 3 11 10 24 16 28 8 6 7 10 -1 14 -7 2 -13 16 -13 29 0
17 -6 24 -20 24 -11 0 -20 7 -20 15 0 8 5 15 10 15 6 0 10 9 10 20 0 11 -6 20
-14 20 -8 0 -18 9 -21 20 -3 11 -10 20 -14 20 -21 0 -31 61 -31 195 0 138 -1
145 -20 145 -11 0 -20 5 -20 10 0 6 -8 10 -18 10 -26 0 -42 20 -42 52 0 21 -5
28 -19 28 -10 0 -22 7 -25 16 -4 10 -13 13 -26 9 -24 -8 -26 7 -4 26 13 10 17
10 25 -2 6 -10 9 -1 9 29 0 23 -4 42 -10 42 -5 0 -10 9 -10 20 0 11 -4 20 -10
20 -5 0 -10 8 -10 18 0 11 -10 24 -22 30 -13 6 -17 11 -10 11 6 1 12 10 12 20
0 11 6 22 13 25 10 5 10 7 0 12 -9 4 -13 35 -13 105 l0 99 -30 0 -30 0 0 70 0
70 30 0 30 0 0 -70z m-1200 -77 c13 -13 12 -14 -7 -8 -41 12 -78 18 -102 18
-17 -1 -20 1 -10 7 19 13 101 0 119 -17z m-120 -13 c0 -5 -8 -10 -17 -10 -15
0 -16 2 -3 10 19 12 20 12 20 0z m-90 -187 c42 -13 58 -22 57 -34 -1 -16 -5
-15 -41 3 -22 11 -70 23 -106 26 -53 5 -59 7 -35 13 48 11 63 10 125 -8z m-80
-54 c0 -5 -9 -9 -20 -9 -19 0 -27 20 -13 33 7 8 33 -11 33 -24z m-1630 -139
c6 0 10 -9 10 -20 0 -25 -12 -26 -33 -2 -21 23 -35 63 -29 81 3 9 11 1 24 -22
10 -20 23 -37 28 -37z m3117 -2 c-3 -8 -6 -5 -6 6 -1 11 2 17 5 13 3 -3 4 -12
1 -19z m-3077 -62 c0 -8 7 -17 15 -20 13 -5 16 -24 14 -106 -1 -85 -4 -99 -15
-89 -8 7 -19 31 -25 56 -6 24 -15 46 -20 49 -12 7 -11 94 1 94 6 0 10 7 10 15
0 8 5 15 10 15 6 0 10 -6 10 -14z m2032 -1326 c22 -11 45 -17 49 -14 5 3 9 1
9 -5 0 -5 18 -20 40 -32 22 -13 39 -28 37 -33 -2 -6 -33 -23 -68 -37 -35 -15
-77 -33 -94 -39 -16 -7 -39 -21 -50 -30 -11 -10 -44 -25 -74 -35 -37 -12 -70
-33 -102 -64 -59 -58 -76 -112 -90 -284 -7 -93 -15 -139 -29 -167 -11 -22 -20
-47 -20 -56 0 -35 -43 -140 -69 -167 -22 -24 -143 -103 -216 -141 -11 -6 -94
-60 -184 -120 -104 -69 -170 -120 -180 -138 -9 -17 -32 -55 -52 -86 -20 -32
-48 -82 -63 -112 -15 -30 -32 -63 -38 -74 -5 -10 -28 -54 -51 -98 -23 -43 -52
-91 -65 -106 l-22 -27 5 105 c4 58 13 167 21 242 18 178 18 363 -1 474 -22
128 -83 372 -100 397 -18 29 -9 81 13 72 13 -5 14 8 8 102 -3 59 -9 127 -12
150 -5 34 -3 44 10 49 30 12 67 -5 78 -36 10 -30 31 -38 57 -21 10 6 18 5 25
-4 19 -23 183 -58 271 -58 71 0 88 4 131 28 84 48 144 88 144 96 0 4 11 10 25
13 14 4 23 10 20 15 -2 5 6 12 19 15 13 3 41 23 62 44 22 22 50 43 64 47 14 4
41 20 60 35 21 16 54 30 83 34 26 4 45 11 42 17 -4 5 6 9 22 10 75 2 102 6
117 18 10 8 28 11 45 8 23 -5 30 -2 34 13 7 26 36 26 89 0z m2358 -204 c0 -58
-7 -86 -21 -86 -5 0 -9 32 -9 70 0 56 3 70 15 70 11 0 15 -13 15 -54z m-4890
30 c0 -3 -4 -8 -10 -11 -5 -3 -10 -1 -10 4 0 6 5 11 10 11 6 0 10 -2 10 -4z
m4397 -818 c-3 -8 -6 -5 -6 6 -1 11 2 17 5 13 3 -3 4 -12 1 -19z m-5588 -1035
c0 -10 -4 -27 -9 -38 -7 -16 -9 -13 -9 18 -1 20 4 37 9 37 6 0 10 -8 9 -17z
m3111 -1673 c160 -21 237 -36 260 -50 13 -8 10 -24 -22 -112 -20 -57 -66 -175
-103 -263 -37 -88 -73 -181 -81 -207 -8 -26 -19 -50 -24 -53 -5 -3 -57 -11
-117 -17 -94 -10 -113 -16 -143 -40 -58 -47 -65 -41 -88 75 -26 123 -72 543
-72 650 l0 37 123 0 c67 0 187 -9 267 -20z"/>
<path d="M2827 9864 c22 -10 -12 -34 -69 -49 -29 -7 -61 -17 -70 -20 -29 -11
-21 11 8 24 15 6 25 14 22 16 -8 8 -77 -30 -78 -43 0 -7 5 -10 10 -7 6 3 10 1
10 -5 0 -7 -8 -9 -20 -5 -11 3 -20 2 -20 -4 0 -5 -9 -13 -20 -16 -11 -3 -20
-11 -20 -16 0 -5 9 -9 20 -9 11 0 20 -7 20 -15 0 -8 -4 -15 -10 -15 -5 0 -10
-5 -10 -11 0 -8 12 -10 36 -6 44 7 53 15 34 27 -23 14 -7 20 33 11 38 -9 54 2
17 12 -41 11 -20 26 30 21 41 -4 49 -2 44 11 -4 10 0 15 11 15 9 0 13 5 10 10
-9 15 82 12 147 -5 30 -8 68 -12 82 -9 15 2 41 -2 59 -10 54 -23 67 -26 67
-13 0 7 7 3 15 -7 11 -15 18 -17 26 -9 6 6 18 9 25 6 8 -3 14 0 14 6 0 21 -43
60 -74 66 -17 4 -67 15 -112 26 -44 11 -103 19 -130 18 -27 -1 -65 1 -84 4
-19 4 -29 4 -23 1z"/>
<path d="M2815 9626 c-62 -20 -110 -50 -111 -69 -1 -9 5 -17 13 -17 11 0 13
-7 9 -25 -5 -18 -3 -23 7 -19 8 3 25 0 40 -5 17 -7 28 -7 32 -1 4 6 15 10 26
10 13 0 19 6 17 17 -5 29 26 25 43 -5 15 -26 23 -30 80 -35 60 -6 66 -5 87 19
12 14 22 32 22 40 0 21 11 17 50 -16 19 -16 40 -34 47 -40 7 -5 16 -10 22 -10
5 0 12 -7 15 -16 3 -8 11 -12 17 -9 7 5 1 18 -17 36 -15 16 -23 29 -17 29 11
0 63 -38 75 -55 5 -7 8 -6 8 1 0 6 -17 28 -39 50 -110 111 -147 128 -281 131
-66 2 -120 -2 -145 -11z m245 -23 l25 -14 -25 8 c-14 4 -64 8 -113 7 -91 -1
-104 4 -40 17 48 9 120 1 153 -18z m-50 -34 c0 -5 -9 -9 -20 -9 -19 0 -26 11
-14 23 8 8 34 -3 34 -14z"/>
<path d="M2850 9480 c0 -5 4 -10 9 -10 6 0 13 5 16 10 3 6 -1 10 -9 10 -9 0
-16 -4 -16 -10z"/>
<path d="M3950 9381 c0 -10 19 -25 25 -20 1 2 -3 10 -11 17 -8 7 -14 8 -14 3z"/>
<path d="M3098 9354 c-4 -3 -55 -9 -115 -13 l-108 -8 100 -1 c70 -1 107 3 125
13 14 8 20 14 14 15 -6 0 -13 -3 -16 -6z"/>
<path d="M3898 9263 c7 -3 16 -2 19 1 4 3 -2 6 -13 5 -11 0 -14 -3 -6 -6z"/>
<path d="M4058 9263 c6 -2 18 -2 25 0 6 3 1 5 -13 5 -14 0 -19 -2 -12 -5z"/>
<path d="M3020 8878 c0 -6 -3 -9 -6 -5 -4 3 -27 -8 -53 -26 -25 -18 -86 -50
-135 -73 -50 -22 -91 -45 -94 -52 -2 -6 6 -15 17 -21 26 -14 39 -9 146 59 22
14 45 30 51 36 7 6 25 21 40 35 40 34 59 59 45 59 -6 0 -11 -5 -11 -12z"/>
<path d="M2567 8786 c-3 -7 3 -32 14 -56 14 -31 22 -40 32 -32 6 5 21 12 32
15 18 4 18 5 -2 6 -16 1 -27 11 -37 35 -16 39 -32 52 -39 32z"/>
<path d="M3846 8778 c63 -74 112 -118 139 -123 27 -5 28 -5 10 7 -11 7 -49 41
-86 76 -64 61 -101 84 -63 40z"/>
<path d="M3140 8780 c0 -5 16 -22 36 -37 20 -15 45 -36 56 -46 10 -10 23 -15
28 -12 6 4 10 1 10 -4 0 -6 7 -11 15 -11 9 0 26 -9 38 -21 29 -28 82 -49 121
-49 17 0 55 14 85 30 30 17 59 30 65 30 19 0 106 86 106 104 0 10 -5 15 -12
13 -7 -3 -37 -14 -65 -23 -29 -10 -53 -22 -53 -26 0 -5 -4 -7 -9 -4 -5 3 -14
-1 -21 -9 -7 -8 -18 -15 -25 -15 -8 0 -15 -5 -17 -11 -5 -16 -87 -23 -103 -9
-8 7 -19 9 -25 5 -6 -4 -9 -1 -8 7 2 8 -4 12 -15 10 -9 -2 -16 2 -15 8 2 6
-19 20 -47 32 -27 11 -64 27 -82 34 -36 16 -63 18 -63 4z"/>
<path d="M3638 8773 c7 -3 16 -2 19 1 4 3 -2 6 -13 5 -11 0 -14 -3 -6 -6z"/>
<path d="M4240 8729 c0 -6 -7 -9 -14 -6 -8 3 -33 -2 -55 -11 -52 -22 -74 -66
-75 -153 l-1 -66 22 37 c13 21 30 40 38 44 8 3 15 12 15 19 0 8 6 20 14 26 8
7 22 27 31 46 9 19 22 35 29 35 15 0 28 24 19 34 -10 10 -23 7 -23 -5z"/>
<path d="M2896 8624 c-8 -21 2 -40 30 -54 13 -7 24 -17 24 -22 0 -4 6 -8 13
-8 7 0 28 -16 47 -35 19 -19 37 -35 41 -35 4 0 5 15 2 34 -6 38 14 60 29 32 7
-12 13 -14 22 -7 11 10 60 2 191 -29 6 -1 19 -2 30 -1 11 1 -34 18 -100 36
-184 52 -264 79 -262 88 3 15 -61 16 -67 1z"/>
<path d="M3833 8559 c-5 -5 -30 -12 -54 -14 -24 -3 -75 -9 -114 -14 -38 -5
-113 -15 -165 -22 -52 -7 -98 -15 -102 -18 -11 -9 211 -1 249 9 24 6 35 4 44
-7 11 -12 14 -12 21 1 17 31 30 17 23 -24 -8 -46 -3 -48 39 -17 17 13 50 34
74 47 44 25 49 35 31 60 -9 12 -12 13 -16 1 -4 -9 -8 -10 -12 -2 -5 8 -10 8
-18 0z"/>
<path d="M3085 8440 c3 -5 11 -10 16 -10 6 0 7 5 4 10 -3 6 -11 10 -16 10 -6
0 -7 -4 -4 -10z"/>
<path d="M3680 8410 c0 -5 5 -10 10 -10 6 0 10 5 10 10 0 6 -4 10 -10 10 -5 0
-10 -4 -10 -10z"/>
<path d="M3160 8385 c0 -2 10 -10 23 -16 20 -11 21 -11 8 4 -13 16 -31 23 -31
12z"/>
<path d="M3220 8350 c0 -5 10 -10 23 -10 18 0 19 2 7 10 -19 13 -30 13 -30 0z"/>
<path d="M3555 8340 c-3 -5 -1 -10 4 -10 6 0 11 5 11 10 0 6 -2 10 -4 10 -3 0
-8 -4 -11 -10z"/>
<path d="M3313 8313 c9 -2 25 -2 35 0 9 3 1 5 -18 5 -19 0 -27 -2 -17 -5z"/>
<path d="M3408 8303 c6 -2 18 -2 25 0 6 3 1 5 -13 5 -14 0 -19 -2 -12 -5z"/>
<path d="M3987 8265 c-9 -20 -17 -43 -16 -53 0 -14 2 -14 6 -2 3 8 12 30 21
48 8 18 13 35 10 37 -2 3 -12 -11 -21 -30z"/>
<path d="M5920 9155 l0 -35 -80 0 -80 0 0 -150 0 -150 40 0 c22 0 40 -4 40
-10 0 -5 18 -10 40 -10 l40 0 0 -40 0 -40 70 0 70 0 0 40 c0 33 3 40 20 40 11
0 20 5 20 10 0 6 30 10 70 10 l70 0 0 30 0 30 -80 0 -80 0 0 155 0 155 -80 0
-80 0 0 -35z"/>
<path d="M2593 11783 c20 -2 54 -2 75 0 20 2 3 4 -38 4 -41 0 -58 -2 -37 -4z"/>
<path d="M2740 11780 c-12 -8 -10 -10 8 -10 13 0 20 4 17 10 -7 12 -6 12 -25
0z"/>
<path d="M2720 11675 c0 -28 4 -35 20 -35 13 0 20 7 20 20 0 11 5 20 10 20 6
0 10 7 10 15 0 10 -10 15 -30 15 -28 0 -30 -3 -30 -35z"/>
<path d="M0 8180 c0 -113 1 -120 20 -120 11 0 20 -4 20 -10 0 -5 9 -10 20 -10
18 0 20 7 20 60 0 33 -4 60 -10 60 -6 0 -10 28 -10 64 0 49 -4 65 -16 70 -42
16 -44 11 -44 -114z"/>
<path d="M0 7760 c0 -47 4 -80 10 -80 6 0 10 33 10 80 0 47 -4 80 -10 80 -6 0
-10 -33 -10 -80z"/>
</g>
</svg>
