<svg width="245" height="91" viewBox="0 0 245 91" fill="none" xmlns="http://www.w3.org/2000/svg">
<g filter="url(#filter0_dd_3225_8570)">
<path d="M215.391 13.7878H27.5282C19.9265 13.7878 13.7642 19.9609 13.7642 27.5757V59.9772C13.7642 67.5921 19.9265 73.7651 27.5282 73.7651H215.391C222.993 73.7651 229.155 67.5921 229.155 59.9772V27.5757C229.155 19.9609 222.993 13.7878 215.391 13.7878Z" fill="white"/>
<path d="M33.7172 57.2196H32.4604V47.5109H29.0376V46.3926H37.1401V47.5109H33.7172V57.2196ZM43.9671 57.2196V51.969C43.9671 51.3075 43.8168 50.8138 43.5161 50.488C43.2155 50.1621 42.7449 49.9992 42.1041 49.9992C41.2515 49.9992 40.628 50.2312 40.2338 50.6953C39.8444 51.1594 39.6497 51.9197 39.6497 52.9762V57.2196H38.4225V45.6965H39.6497V49.1845C39.6497 49.6042 39.63 49.9522 39.5906 50.2287H39.6645C39.906 49.8387 40.2486 49.5326 40.6921 49.3104C41.1406 49.0833 41.6507 48.9698 42.2225 48.9698C43.213 48.9698 43.9548 49.2068 44.4476 49.6807C44.9455 50.1497 45.1943 50.8977 45.1943 51.9246V57.2196H43.9671ZM50.979 57.3677C49.7813 57.3677 48.835 57.0024 48.1402 56.2717C47.4502 55.541 47.1052 54.5264 47.1052 53.228C47.1052 51.9197 47.4255 50.8804 48.0662 50.1102C48.7119 49.34 49.5768 48.955 50.6611 48.955C51.6764 48.955 52.4797 49.2907 53.0711 49.9622C53.6626 50.6287 53.9583 51.5099 53.9583 52.6059V53.3835H48.3767C48.4013 54.3364 48.6404 55.0597 49.0938 55.5533C49.5522 56.0471 50.1953 56.2939 51.0233 56.2939C51.8957 56.2939 52.7582 56.1113 53.6108 55.7459V56.8419C53.1771 57.0295 52.7656 57.1628 52.3762 57.2418C51.9918 57.3258 51.5261 57.3677 50.979 57.3677ZM50.6463 49.9844C49.9958 49.9844 49.4758 50.1966 49.0864 50.6212C48.702 51.0458 48.4753 51.6333 48.4063 52.3838H52.6424C52.6424 51.6086 52.4699 51.0162 52.1249 50.6064C51.7799 50.1917 51.287 49.9844 50.6463 49.9844ZM58.6745 60.8632C58.2062 60.8632 57.8267 60.8014 57.536 60.678V59.6783C57.876 59.777 58.2112 59.8263 58.5414 59.8263C58.9258 59.8263 59.2067 59.7203 59.3842 59.5079C59.5665 59.3006 59.6577 58.9821 59.6577 58.5526V49.1031H60.8849V58.4638C60.8849 60.0634 60.1481 60.8632 58.6745 60.8632ZM59.5542 46.9036C59.5542 46.6222 59.6232 46.4173 59.7612 46.2889C59.8992 46.1557 60.0717 46.089 60.2787 46.089C60.4758 46.089 60.6459 46.1557 60.7888 46.2889C60.9317 46.4223 61.0032 46.6271 61.0032 46.9036C61.0032 47.1801 60.9317 47.3875 60.7888 47.5257C60.6459 47.659 60.4758 47.7256 60.2787 47.7256C60.0717 47.7256 59.8992 47.659 59.7612 47.5257C59.6232 47.3875 59.5542 47.1801 59.5542 46.9036ZM70.3143 53.1539C70.3143 54.4771 69.9812 55.5114 69.3164 56.2569C68.6509 56.9974 67.7317 57.3677 66.5587 57.3677C65.8342 57.3677 65.191 57.1974 64.6292 56.8567C64.0673 56.5161 63.6336 56.0273 63.328 55.3904C63.0225 54.7536 62.8697 54.0081 62.8697 53.1539C62.8697 51.8308 63.1999 50.8014 63.8603 50.0658C64.5208 49.3252 65.4374 48.955 66.6104 48.955C67.744 48.955 68.6434 49.3327 69.3089 50.088C69.9792 50.8434 70.3143 51.8654 70.3143 53.1539ZM64.1412 53.1539C64.1412 54.1907 64.3482 54.9807 64.7622 55.5237C65.1762 56.0668 65.7849 56.3384 66.5882 56.3384C67.3916 56.3384 68.0003 56.0693 68.4143 55.5311C68.8333 54.988 69.0425 54.1957 69.0425 53.1539C69.0425 52.1221 68.8333 51.3396 68.4143 50.8064C68.0003 50.2683 67.3867 49.9992 66.5735 49.9992C65.7701 49.9992 65.1639 50.2633 64.7548 50.7916C64.3457 51.3198 64.1412 52.1073 64.1412 53.1539ZM76.0766 48.9698C77.1413 48.9698 77.9671 49.3352 78.5535 50.0658C79.1446 50.7916 79.4406 51.8209 79.4406 53.1539C79.4406 54.4869 79.1426 55.5237 78.5459 56.2643C77.9547 56.9999 77.1316 57.3677 76.0766 57.3677C75.5495 57.3677 75.0664 57.2715 74.628 57.0789C74.1937 56.8814 73.829 56.5803 73.5337 56.1755H73.4449L73.1862 57.2196H72.3067V45.6965H73.5337V48.4958C73.5337 49.1228 73.5138 49.6856 73.4745 50.1843H73.5337C74.1056 49.3746 74.9528 48.9698 76.0766 48.9698ZM75.8991 49.9992C75.0615 49.9992 74.458 50.2411 74.0877 50.7249C73.7182 51.2038 73.5337 52.0134 73.5337 53.1539C73.5337 54.2944 73.723 55.1115 74.1029 55.6052C74.4821 56.094 75.0911 56.3384 75.9287 56.3384C76.6829 56.3384 77.2445 56.0643 77.6141 55.5163C77.9843 54.9634 78.1688 54.171 78.1688 53.1392C78.1688 52.0826 77.9843 51.2951 77.6141 50.7767C77.2445 50.2583 76.6733 49.9992 75.8991 49.9992ZM86.4189 57.2196H85.1919V49.1031H86.4189V57.2196ZM85.088 46.9036C85.088 46.6222 85.1568 46.4173 85.2951 46.2889C85.4334 46.1557 85.6055 46.089 85.8126 46.089C86.0095 46.089 86.1794 46.1557 86.3226 46.2889C86.4657 46.4223 86.5373 46.6271 86.5373 46.9036C86.5373 47.1801 86.4657 47.3875 86.3226 47.5257C86.1794 47.659 86.0095 47.7256 85.8126 47.7256C85.6055 47.7256 85.4334 47.659 85.2951 47.5257C85.1568 47.3875 85.088 47.1801 85.088 46.9036ZM94.0814 55.0054C94.0814 55.7607 93.8006 56.3433 93.2383 56.753C92.6768 57.1628 91.8881 57.3677 90.873 57.3677C89.798 57.3677 88.9605 57.1974 88.359 56.8567V55.7163C88.7485 55.9138 89.1649 56.0693 89.6088 56.1828C90.0568 56.2964 90.4883 56.3532 90.9026 56.3532C91.5433 56.3532 92.036 56.252 92.3808 56.0495C92.7256 55.8422 92.8984 55.5287 92.8984 55.109C92.8984 54.793 92.7607 54.5239 92.4841 54.3018C92.2136 54.0747 91.6809 53.8081 90.8874 53.502C90.1332 53.2206 89.5964 52.9762 89.2757 52.7688C88.9605 52.5566 88.7237 52.3171 88.5661 52.0505C88.4133 51.7839 88.337 51.4655 88.337 51.0952C88.337 50.4336 88.6054 49.9127 89.1428 49.5326C89.6803 49.1475 90.4167 48.955 91.3533 48.955C92.2253 48.955 93.078 49.1327 93.9114 49.4882L93.4751 50.488C92.6616 50.1522 91.9252 49.9844 91.2646 49.9844C90.683 49.9844 90.2447 50.0757 89.9487 50.2583C89.6528 50.441 89.5048 50.6928 89.5048 51.0137C89.5048 51.231 89.5592 51.4161 89.6679 51.5691C89.7808 51.7222 89.9611 51.8678 90.2075 52.0061C90.4539 52.1443 90.9267 52.3443 91.6266 52.6059C92.588 52.9565 93.2363 53.3094 93.5714 53.665C93.9114 54.0204 94.0814 54.4672 94.0814 55.0054ZM102.184 57.3677C101.213 57.3677 100.449 56.99 99.8919 56.2347C99.3392 55.4793 99.0633 54.4327 99.0633 53.0947C99.0633 51.737 99.3447 50.6804 99.9063 49.9251C100.473 49.1648 101.252 48.7846 102.243 48.7846C103.283 48.7846 104.076 49.1895 104.623 49.9992H104.697C104.583 49.382 104.527 48.8315 104.527 48.3477V45.6965H106.789V57.2196H105.059L104.623 56.1458H104.527C104.014 56.9604 103.233 57.3677 102.184 57.3677ZM102.974 55.5682C103.551 55.5682 103.972 55.4003 104.239 55.0646C104.51 54.7288 104.658 54.1586 104.682 53.3539V53.1095C104.682 52.2208 104.544 51.584 104.268 51.1989C103.997 50.8138 103.554 50.6212 102.937 50.6212C102.435 50.6212 102.043 50.836 101.762 51.2655C101.486 51.6901 101.348 52.3097 101.348 53.1243C101.348 53.9389 101.489 54.5511 101.769 54.9609C102.05 55.3658 102.452 55.5682 102.974 55.5682ZM110.777 53.0651C110.777 53.8846 110.91 54.5042 111.176 54.9239C111.447 55.3435 111.886 55.5533 112.492 55.5533C113.094 55.5533 113.525 55.346 113.786 54.9313C114.052 54.5116 114.185 53.8896 114.185 53.0651C114.185 52.2455 114.052 51.6308 113.786 51.2211C113.52 50.8113 113.084 50.6064 112.478 50.6064C111.876 50.6064 111.443 50.8113 111.176 51.2211C110.91 51.6259 110.777 52.2406 110.777 53.0651ZM116.492 53.0651C116.492 54.4129 116.137 55.467 115.427 56.2272C114.718 56.9876 113.73 57.3677 112.463 57.3677C111.669 57.3677 110.969 57.1949 110.364 56.8493C109.757 56.4988 109.291 55.9977 108.966 55.346C108.641 54.6943 108.478 53.934 108.478 53.0651C108.478 51.7123 108.83 50.6607 109.535 49.9103C110.24 49.1598 111.231 48.7846 112.507 48.7846C113.301 48.7846 114.001 48.9574 114.607 49.303C115.213 49.6486 115.679 50.1448 116.004 50.7916C116.33 51.4383 116.492 52.1961 116.492 53.0651ZM125.818 57.2196H123.563V52.3838C123.563 51.7864 123.457 51.3396 123.245 51.0433C123.033 50.7422 122.695 50.5916 122.232 50.5916C121.601 50.5916 121.146 50.8039 120.865 51.2285C120.583 51.6481 120.443 52.3467 120.443 53.3243V57.2196H118.188V48.9401H119.911L120.214 49.9992H120.34C120.591 49.5993 120.936 49.2981 121.375 49.0957C121.818 48.8883 122.321 48.7846 122.883 48.7846C123.844 48.7846 124.574 49.0463 125.071 49.5696C125.569 50.088 125.818 50.8384 125.818 51.8209V57.2196ZM131.395 50.3917C130.917 50.3917 130.543 50.5447 130.272 50.8508C130.001 51.152 129.845 51.5815 129.806 52.1394H132.97C132.96 51.5815 132.815 51.152 132.534 50.8508C132.253 50.5447 131.873 50.3917 131.395 50.3917ZM131.713 57.3677C130.383 57.3677 129.343 56.9999 128.593 56.2643C127.845 55.5287 127.47 54.4869 127.47 53.1392C127.47 51.7518 127.815 50.6804 128.505 49.9251C129.2 49.1648 130.158 48.7846 131.381 48.7846C132.548 48.7846 133.458 49.1179 134.109 49.7844C134.759 50.4509 135.084 51.3717 135.084 52.5467V53.6427H129.754C129.779 54.2845 129.968 54.7856 130.323 55.1461C130.678 55.5065 131.176 55.6867 131.817 55.6867C132.314 55.6867 132.785 55.6348 133.229 55.5311C133.672 55.4275 134.135 55.2621 134.619 55.035V56.7827C134.224 56.9802 133.803 57.1258 133.354 57.2196C132.906 57.3183 132.359 57.3677 131.713 57.3677ZM138.644 53.6279H136.84L136.463 46.3926H139.021L138.644 53.6279ZM136.433 56.1606C136.433 55.7459 136.544 55.4324 136.766 55.2201C136.988 55.0078 137.311 54.9017 137.735 54.9017C138.144 54.9017 138.459 55.0102 138.681 55.2275C138.907 55.4448 139.021 55.7558 139.021 56.1606C139.021 56.5506 138.907 56.8592 138.681 57.0863C138.454 57.3085 138.139 57.4195 137.735 57.4195C137.32 57.4195 137 57.311 136.773 57.0937C136.547 56.8715 136.433 56.5605 136.433 56.1606Z" fill="#B12F15"/>
<path d="M192.176 40.6741H191.367L192.289 36.3715C192.474 35.5514 192.612 34.9875 192.703 34.6796C192.546 34.8461 192.328 35.0205 192.049 35.2027L191.211 35.7211L190.835 35.1226L192.948 33.7842H193.648L192.176 40.6741ZM199.854 35.8955C199.854 36.8223 199.73 37.669 199.482 38.4356C199.237 39.2022 198.902 39.7834 198.475 40.1792C198.052 40.572 197.559 40.7683 196.998 40.7683C196.446 40.7683 196.023 40.5688 195.728 40.1699C195.433 39.7677 195.286 39.1865 195.286 38.4262C195.286 37.5779 195.414 36.7705 195.672 36.0039C195.928 35.2341 196.268 34.6544 196.687 34.2649C197.111 33.8722 197.594 33.6758 198.137 33.6758C199.281 33.6758 199.854 34.4157 199.854 35.8955ZM198.089 34.3544C197.735 34.3544 197.407 34.5366 197.107 34.9011C196.805 35.2624 196.561 35.7698 196.372 36.4233C196.187 37.0736 196.095 37.7381 196.095 38.4167C196.095 38.9571 196.173 39.3718 196.33 39.6609C196.487 39.9499 196.739 40.0945 197.087 40.0945C197.448 40.0945 197.776 39.9154 198.071 39.5572C198.365 39.1991 198.601 38.6838 198.776 38.0114C198.955 37.3391 199.045 36.6275 199.045 35.8766C199.045 34.8618 198.726 34.3544 198.089 34.3544ZM204.224 33.7842L200.4 40.6741H199.581L203.406 33.7842H204.224ZM208.538 35.8955C208.538 36.8223 208.414 37.669 208.167 38.4356C207.922 39.2022 207.586 39.7834 207.16 40.1792C206.737 40.572 206.244 40.7683 205.682 40.7683C205.13 40.7683 204.707 40.5688 204.412 40.1699C204.117 39.7677 203.97 39.1865 203.97 38.4262C203.97 37.5779 204.099 36.7705 204.356 36.0039C204.613 35.2341 204.952 34.6544 205.372 34.2649C205.796 33.8722 206.278 33.6758 206.821 33.6758C207.966 33.6758 208.538 34.4157 208.538 35.8955ZM206.774 34.3544C206.419 34.3544 206.092 34.5366 205.791 34.9011C205.49 35.2624 205.245 35.7698 205.057 36.4233C204.872 37.0736 204.779 37.7381 204.779 38.4167C204.779 38.9571 204.858 39.3718 205.015 39.6609C205.172 39.9499 205.424 40.0945 205.772 40.0945C206.132 40.0945 206.461 39.9154 206.755 39.5572C207.05 39.1991 207.285 38.6838 207.461 38.0114C207.639 37.3391 207.729 36.6275 207.729 35.8766C207.729 34.8618 207.411 34.3544 206.774 34.3544ZM213.756 35.2121C213.756 35.7023 213.597 36.1185 213.281 36.461C212.963 36.8003 212.524 37.0202 211.963 37.1208V37.1632C212.352 37.2354 212.658 37.4035 212.88 37.6674C213.103 37.9282 213.215 38.2549 213.215 38.6476C213.215 39.0655 213.118 39.4346 212.923 39.7551C212.728 40.0725 212.445 40.3206 212.072 40.4997C211.698 40.6788 211.255 40.7683 210.74 40.7683C210.081 40.7683 209.478 40.6442 208.928 40.3961V39.6232C209.224 39.7771 209.535 39.8965 209.865 39.9813C210.194 40.063 210.492 40.1039 210.758 40.1039C211.267 40.1039 211.662 39.9797 211.944 39.7316C212.226 39.4802 212.367 39.1378 212.367 38.7042C212.367 38.2927 212.244 37.9816 211.996 37.7711C211.748 37.5575 211.403 37.4506 210.961 37.4506H210.345L210.491 36.7767H211.144C211.662 36.7767 212.091 36.64 212.433 36.3668C212.776 36.0934 212.946 35.7368 212.946 35.297C212.946 35.0079 212.855 34.7785 212.674 34.6089C212.491 34.4393 212.246 34.3544 211.935 34.3544C211.684 34.3544 211.438 34.3968 211.196 34.4817C210.955 34.5665 210.681 34.7126 210.373 34.9199L209.997 34.3639C210.608 33.9114 211.273 33.6852 211.991 33.6852C212.553 33.6852 212.987 33.8219 213.294 34.0952C213.602 34.3686 213.756 34.7409 213.756 35.2121Z" fill="#76808D" fill-opacity="0.5"/>
<path d="M44.0854 32.1107H46.306C47.349 32.1107 48.1035 32.2669 48.5695 32.5793C49.0355 32.8916 49.2684 33.3854 49.2684 34.0604C49.2684 34.5271 49.1376 34.9131 48.876 35.2183C48.6179 35.5199 48.2398 35.7157 47.7415 35.8054V35.8593C48.9351 36.0639 49.532 36.6923 49.532 37.7443C49.532 38.4481 49.2936 38.9974 48.8168 39.3924C48.3437 39.7874 47.6806 39.9849 46.8275 39.9849H44.0854V32.1107ZM44.9995 35.4823H46.5049C47.1501 35.4823 47.6143 35.3817 47.8975 35.1806C48.1806 34.976 48.3222 34.6331 48.3222 34.152C48.3222 33.7103 48.1645 33.3925 47.849 33.1986C47.5336 33.0012 47.0318 32.9024 46.3436 32.9024H44.9995V35.4823ZM44.9995 36.2579V39.2039H46.6393C47.2738 39.2039 47.7505 39.0818 48.0695 38.8376C48.3921 38.5899 48.5534 38.204 48.5534 37.6797C48.5534 37.1914 48.3885 36.8323 48.0587 36.6026C47.7326 36.3727 47.2343 36.2579 46.5641 36.2579H44.9995ZM56.0562 37.028C56.0562 37.9903 55.8143 38.7425 55.3304 39.2847C54.8465 39.8233 54.178 40.0925 53.325 40.0925C52.798 40.0925 52.3302 39.9687 51.9217 39.721C51.513 39.4732 51.1976 39.1177 50.9754 38.6545C50.7532 38.1913 50.642 37.6492 50.642 37.028C50.642 36.0657 50.8822 35.3171 51.3625 34.7821C51.8428 34.2435 52.5095 33.9742 53.3626 33.9742C54.187 33.9742 54.8412 34.2489 55.325 34.7983C55.8125 35.3476 56.0562 36.0909 56.0562 37.028ZM51.5668 37.028C51.5668 37.782 51.7173 38.3565 52.0184 38.7515C52.3195 39.1465 52.7622 39.3439 53.3465 39.3439C53.9307 39.3439 54.3734 39.1483 54.6745 38.7569C54.9791 38.3619 55.1315 37.7856 55.1315 37.028C55.1315 36.2776 54.9791 35.7085 54.6745 35.3207C54.3734 34.9293 53.9272 34.7336 53.3357 34.7336C52.7514 34.7336 52.3106 34.9257 52.0131 35.3099C51.7155 35.6941 51.5668 36.2668 51.5668 37.028ZM62.5913 37.028C62.5913 37.9903 62.3494 38.7425 61.8655 39.2847C61.3816 39.8233 60.7131 40.0925 59.86 40.0925C59.3331 40.0925 58.8653 39.9687 58.4568 39.721C58.0481 39.4732 57.7327 39.1177 57.5105 38.6545C57.2883 38.1913 57.1771 37.6492 57.1771 37.028C57.1771 36.0657 57.4173 35.3171 57.8976 34.7821C58.3779 34.2435 59.0446 33.9742 59.8977 33.9742C60.722 33.9742 61.3763 34.2489 61.8601 34.7983C62.3476 35.3476 62.5913 36.0909 62.5913 37.028ZM58.1019 37.028C58.1019 37.782 58.2524 38.3565 58.5535 38.7515C58.8546 39.1465 59.2973 39.3439 59.8815 39.3439C60.4658 39.3439 60.9085 39.1483 61.2096 38.7569C61.5142 38.3619 61.6665 37.7856 61.6665 37.028C61.6665 36.2776 61.5142 35.7085 61.2096 35.3207C60.9085 34.9293 60.4622 34.7336 59.8708 34.7336C59.2865 34.7336 58.8457 34.9257 58.5482 35.3099C58.2506 35.6941 58.1019 36.2668 58.1019 37.028ZM64.9219 36.9634C65.076 36.7444 65.3108 36.4571 65.6263 36.1016L67.5295 34.0819H68.5888L66.2016 36.5971L68.7554 39.9849H67.6747L65.594 37.195L64.9219 37.7767V39.9849H64.0401V31.6045H64.9219V36.0478C64.9219 36.2452 64.9076 36.5504 64.8789 36.9634H64.9219ZM76.0672 39.9849L75.8896 39.1446H75.8469C75.5531 39.5145 75.2592 39.7658 74.9654 39.8987C74.6749 40.028 74.3109 40.0925 73.8739 40.0925C73.2896 40.0925 72.8306 39.9418 72.4975 39.6402C72.1671 39.3386 72.0026 38.9095 72.0026 38.3529C72.0026 37.1608 72.9544 36.5361 74.8573 36.4787L75.8573 36.4463V36.0801C75.8573 35.6169 75.7575 35.2758 75.5565 35.0568C75.3597 34.8341 75.0424 34.7229 74.6047 34.7229C74.1141 34.7229 73.558 34.8736 72.9379 35.1752L72.664 34.4912C72.9544 34.3333 73.2717 34.2094 73.6158 34.1196C73.9633 34.0299 74.3109 33.985 74.6584 33.985C75.3611 33.985 75.8807 34.1411 76.2179 34.4536C76.5585 34.7659 76.7285 35.2668 76.7285 35.9562V39.9849H76.0672ZM74.0507 39.3547C74.6068 39.3547 75.0424 39.2021 75.3576 38.8969C75.6763 38.5917 75.8359 38.1645 75.8359 37.6151V37.0819L74.9433 37.1196C74.2338 37.1447 73.7211 37.256 73.4059 37.4535C73.0941 37.6474 72.9379 37.9508 72.9379 38.3637C72.9379 38.6869 73.035 38.9328 73.2283 39.1016C73.4258 39.2703 73.6998 39.3547 74.0507 39.3547ZM81.1076 34.7767H79.6073V39.9849H78.7154V34.7767H77.661V34.3728L78.7154 34.0496V33.7211C78.7154 32.2705 79.3478 31.5452 80.6127 31.5452C80.9252 31.5452 81.2906 31.608 81.7097 31.7336L81.4785 32.45C81.1344 32.3387 80.8405 32.283 80.5969 32.283C80.2597 32.283 80.0106 32.3962 79.8495 32.6223C79.6885 32.8449 79.6073 33.2041 79.6073 33.6995V34.0819H81.1076V34.7767ZM83.965 39.3547C84.1226 39.3547 84.2754 39.3439 84.4219 39.3224C84.5692 39.2973 84.6855 39.2721 84.7716 39.247V39.931C84.6752 39.9777 84.5314 40.0154 84.3414 40.0441C84.1549 40.0764 83.987 40.0925 83.8363 40.0925C82.6966 40.0925 82.1261 39.4912 82.1261 38.2883V34.7767H81.2824V34.3458L82.1261 33.9742L82.5025 32.7139H83.0187V34.0819H84.7289V34.7767H83.0187V38.2506C83.0187 38.6061 83.1034 38.8789 83.2713 39.0693C83.4399 39.2596 83.6711 39.3547 83.965 39.3547ZM88.3227 40.0925C87.4514 40.0925 86.7632 39.8269 86.2581 39.2955C85.7564 38.7641 85.5052 38.0262 85.5052 37.0819C85.5052 36.1304 85.7385 35.3745 86.2044 34.8144C86.6737 34.2543 87.3028 33.9742 88.0914 33.9742C88.8299 33.9742 89.4142 34.2184 89.8443 34.7067C90.2744 35.1914 90.4898 35.8324 90.4898 36.6294V37.195H86.4301C86.448 37.8879 86.6221 38.414 86.9518 38.773C87.2849 39.1321 87.7528 39.3116 88.355 39.3116C88.9895 39.3116 89.6165 39.1788 90.2366 38.9131V39.7102C89.9214 39.8466 89.622 39.9436 89.3392 40.001C89.0591 40.0621 88.7205 40.0925 88.3227 40.0925ZM88.0811 34.7229C87.6076 34.7229 87.2298 34.8772 86.9463 35.1861C86.6669 35.4948 86.5017 35.9221 86.4515 36.4679H89.5325C89.5325 35.9041 89.4073 35.4733 89.1561 35.1752C88.9049 34.8736 88.547 34.7229 88.0811 34.7229ZM94.5839 33.9742C94.8455 33.9742 95.0801 33.9958 95.288 34.0388L95.1641 34.8682C94.9205 34.8144 94.7057 34.7875 94.5192 34.7875C94.0423 34.7875 93.6335 34.9814 93.2936 35.3692C92.9563 35.7569 92.7877 36.2399 92.7877 36.8179V39.9849H91.8951V34.0819H92.6322L92.7341 35.1752H92.7774C92.9956 34.791 93.2592 34.4949 93.5675 34.2866C93.8758 34.0783 94.2144 33.9742 94.5839 33.9742ZM101.081 39.9849L100 36.5218C99.932 36.3099 99.8053 35.8288 99.6188 35.0783H99.5755C99.4323 35.7067 99.3071 36.1914 99.199 36.5325L98.0862 39.9849H97.0539L95.4463 34.0819H96.3822C96.7621 35.5648 97.0505 36.6941 97.2473 37.4697C97.4482 38.2452 97.5632 38.7677 97.5914 39.0369H97.6347C97.674 38.8323 97.7366 38.5684 97.8226 38.2452C97.9128 37.9185 97.9899 37.66 98.0539 37.4697L99.135 34.0819H100.103L101.156 37.4697C101.357 38.0872 101.493 38.6061 101.565 39.0262H101.608C101.622 38.8969 101.66 38.6976 101.721 38.4283C101.785 38.1591 102.16 36.7102 102.844 34.0819H103.769L102.14 39.9849H101.081ZM109.804 37.028C109.804 37.9903 109.563 38.7425 109.079 39.2847C108.594 39.8233 107.926 40.0925 107.073 40.0925C106.546 40.0925 106.078 39.9687 105.67 39.721C105.261 39.4732 104.946 39.1177 104.723 38.6545C104.502 38.1913 104.39 37.6492 104.39 37.028C104.39 36.0657 104.63 35.3171 105.111 34.7821C105.591 34.2435 106.258 33.9742 107.111 33.9742C107.935 33.9742 108.59 34.2489 109.073 34.7983C109.561 35.3476 109.804 36.0909 109.804 37.028ZM105.315 37.028C105.315 37.782 105.466 38.3565 105.767 38.7515C106.068 39.1465 106.51 39.3439 107.095 39.3439C107.679 39.3439 108.122 39.1483 108.422 38.7569C108.727 38.3619 108.88 37.7856 108.88 37.028C108.88 36.2776 108.727 35.7085 108.422 35.3207C108.122 34.9293 107.676 34.7336 107.084 34.7336C106.499 34.7336 106.059 34.9257 105.761 35.3099C105.464 35.6941 105.315 36.2668 105.315 37.028ZM113.942 33.9742C114.203 33.9742 114.438 33.9958 114.646 34.0388L114.523 34.8682C114.278 34.8144 114.064 34.7875 113.877 34.7875C113.4 34.7875 112.992 34.9814 112.651 35.3692C112.314 35.7569 112.145 36.2399 112.145 36.8179V39.9849H111.254V34.0819H111.99L112.092 35.1752H112.135C112.353 34.791 112.617 34.4949 112.925 34.2866C113.234 34.0783 113.572 33.9742 113.942 33.9742ZM116.509 36.9634C116.663 36.7444 116.898 36.4571 117.213 36.1016L119.116 34.0819H120.175L117.788 36.5971L120.342 39.9849H119.262L117.181 37.195L116.509 37.7767V39.9849H115.627V31.6045H116.509V36.0478C116.509 36.2452 116.494 36.5504 116.466 36.9634H116.509ZM126.773 33.985C127.547 33.985 128.147 34.2507 128.574 34.7821C129.004 35.3099 129.218 36.0586 129.218 37.028C129.218 37.9975 129.002 38.7515 128.568 39.2901C128.138 39.8251 127.539 40.0925 126.773 40.0925C126.389 40.0925 126.038 40.0226 125.718 39.8826C125.403 39.7389 125.138 39.5199 124.923 39.2254H124.858L124.67 39.9849H124.03V31.6045H124.923V33.6403C124.923 34.0963 124.908 34.5056 124.88 34.8682H124.923C125.338 34.2794 125.955 33.985 126.773 33.985ZM126.643 34.7336C126.034 34.7336 125.595 34.9095 125.326 35.2614C125.057 35.6097 124.923 36.1986 124.923 37.028C124.923 37.8575 125.061 38.4517 125.337 38.8108C125.613 39.1662 126.055 39.3439 126.664 39.3439C127.213 39.3439 127.622 39.1446 127.891 38.7461C128.159 38.344 128.294 37.7677 128.294 37.0172C128.294 36.2488 128.159 35.6762 127.891 35.2991C127.622 34.9221 127.206 34.7336 126.643 34.7336ZM134.286 39.9849L134.109 39.1446H134.065C133.772 39.5145 133.478 39.7658 133.184 39.8987C132.893 40.028 132.529 40.0925 132.092 40.0925C131.508 40.0925 131.049 39.9418 130.716 39.6402C130.386 39.3386 130.221 38.9095 130.221 38.3529C130.221 37.1608 131.173 36.5361 133.076 36.4787L134.076 36.4463V36.0801C134.076 35.6169 133.976 35.2758 133.775 35.0568C133.578 34.8341 133.261 34.7229 132.823 34.7229C132.333 34.7229 131.777 34.8736 131.157 35.1752L130.882 34.4912C131.173 34.3333 131.49 34.2094 131.834 34.1196C132.182 34.0299 132.529 33.985 132.878 33.985C133.58 33.985 134.1 34.1411 134.436 34.4536C134.777 34.7659 134.947 35.2668 134.947 35.9562V39.9849H134.286ZM132.27 39.3547C132.825 39.3547 133.261 39.2021 133.576 38.8969C133.895 38.5917 134.054 38.1645 134.054 37.6151V37.0819L133.162 37.1196C132.452 37.1447 131.94 37.256 131.624 37.4535C131.313 37.6474 131.157 37.9508 131.157 38.3637C131.157 38.6869 131.253 38.9328 131.447 39.1016C131.644 39.2703 131.918 39.3547 132.27 39.3547ZM139.358 33.9742C139.62 33.9742 139.855 33.9958 140.063 34.0388L139.939 34.8682C139.696 34.8144 139.48 34.7875 139.294 34.7875C138.817 34.7875 138.409 34.9814 138.068 35.3692C137.731 35.7569 137.563 36.2399 137.563 36.8179V39.9849H136.67V34.0819H137.407L137.509 35.1752H137.552C137.771 34.791 138.034 34.4949 138.343 34.2866C138.651 34.0783 138.99 33.9742 139.358 33.9742Z" fill="#76808D"/>
<path d="M36.1678 31.2805H36.9113C37.5747 31.2805 38.118 31.8935 38.118 32.6441V39.7137C38.118 40.4699 37.5804 41.0772 36.9113 41.0772H30.3972C29.7338 41.0772 29.1904 40.4642 29.1904 39.7137V32.6441C29.1904 31.8878 29.7281 31.2805 30.3972 31.2805H31.1978" stroke="#76808D" stroke-linecap="round" stroke-linejoin="round"/>
<path d="M34.8808 30.4154C34.8808 29.7681 34.3547 29.241 33.7084 29.241H33.594C32.9478 29.241 32.4216 29.7681 32.4216 30.4154C31.7754 30.4154 31.2549 30.9368 31.2549 31.5841V32.0883H36.0475V31.5841C36.0475 30.9368 35.5271 30.4154 34.8808 30.4154Z" stroke="#76808D" stroke-linecap="round" stroke-linejoin="round"/>
<path d="M31.1807 38.5449H36.1277" stroke="#76808D" stroke-linecap="round" stroke-linejoin="round"/>
<path d="M31.1807 36.4136H36.1277" stroke="#76808D" stroke-linecap="round" stroke-linejoin="round"/>
<path d="M31.1807 34.2825H36.1277" stroke="#76808D" stroke-linecap="round" stroke-linejoin="round"/>
</g>
<defs>
<filter id="filter0_dd_3225_8570" x="-6.23584" y="-6.21216" width="258.391" height="104.977" filterUnits="userSpaceOnUse" color-interpolation-filters="sRGB">
<feFlood flood-opacity="0" result="BackgroundImageFix"/>
<feColorMatrix in="SourceAlpha" type="matrix" values="0 0 0 0 0 0 0 0 0 0 0 0 0 0 0 0 0 0 127 0" result="hardAlpha"/>
<feOffset/>
<feGaussianBlur stdDeviation="10"/>
<feComposite in2="hardAlpha" operator="out"/>
<feColorMatrix type="matrix" values="0 0 0 0 0.788235 0 0 0 0 0.294118 0 0 0 0 0.196078 0 0 0 0.18 0"/>
<feBlend mode="normal" in2="BackgroundImageFix" result="effect1_dropShadow_3225_8570"/>
<feColorMatrix in="SourceAlpha" type="matrix" values="0 0 0 0 0 0 0 0 0 0 0 0 0 0 0 0 0 0 127 0" result="hardAlpha"/>
<feOffset dx="3" dy="5"/>
<feGaussianBlur stdDeviation="10"/>
<feComposite in2="hardAlpha" operator="out"/>
<feColorMatrix type="matrix" values="0 0 0 0 0.105882 0 0 0 0 0.168627 0 0 0 0 0.254902 0 0 0 0.12 0"/>
<feBlend mode="normal" in2="effect1_dropShadow_3225_8570" result="effect2_dropShadow_3225_8570"/>
<feBlend mode="normal" in="SourceGraphic" in2="effect2_dropShadow_3225_8570" result="shape"/>
</filter>
</defs>
</svg>
