<svg width="261" height="96" viewBox="0 0 261 96" fill="none" xmlns="http://www.w3.org/2000/svg">
<g filter="url(#filter0_dd_3229_8835)">
<path d="M229.457 14.6565H29.326C21.2279 14.6565 14.6631 21.2184 14.6631 29.313V63.0229C14.6631 71.1175 21.2279 77.6794 29.326 77.6794H229.457C237.555 77.6794 244.12 71.1175 244.12 63.0229V29.313C244.12 21.2184 237.555 14.6565 229.457 14.6565Z" fill="white"/>
<path d="M35.3052 54.337L38.3767 48.5825H39.8258L35.9825 55.6281V60.0915H34.6279V55.691L30.7925 48.5825H32.2573L35.3052 54.337ZM48.4927 55.7697C48.4927 57.1762 48.1383 58.2757 47.4295 59.0682C46.7207 59.8554 45.7415 60.249 44.4918 60.249C43.72 60.249 43.0348 60.0679 42.4363 59.7058C41.8378 59.3437 41.3757 58.8241 41.0502 58.1471C40.7247 57.4702 40.5619 56.6777 40.5619 55.7697C40.5619 54.3633 40.9137 53.269 41.6172 52.487C42.3208 51.6998 43.2974 51.3062 44.547 51.3062C45.7546 51.3062 46.7127 51.7077 47.4216 52.5107C48.1356 53.3136 48.4927 54.4 48.4927 55.7697ZM41.9165 55.7697C41.9165 56.8718 42.137 57.7115 42.5781 58.2888C43.0191 58.8661 43.6676 59.1548 44.5234 59.1548C45.3792 59.1548 46.0276 58.8687 46.4686 58.2967C46.9149 57.7194 47.138 56.8771 47.138 55.7697C47.138 54.6729 46.9149 53.8411 46.4686 53.2743C46.0276 52.7023 45.3739 52.4162 44.5076 52.4162C43.6518 52.4162 43.006 52.697 42.5702 53.2585C42.1344 53.8201 41.9165 54.6571 41.9165 55.7697ZM51.8435 51.4637V57.0608C51.8435 57.764 52.0036 58.2888 52.3239 58.6352C52.6442 58.9816 53.1456 59.1548 53.8282 59.1548C54.7312 59.1548 55.3901 58.9081 55.8049 58.4148C56.225 57.9214 56.435 57.1159 56.435 55.9981V51.4637H57.7423V60.0915H56.6634L56.4744 58.9343H56.4035C56.1357 59.3594 55.7629 59.6848 55.2851 59.9105C54.8126 60.1362 54.2718 60.249 53.6628 60.249C52.6127 60.249 51.8251 59.9997 51.3001 59.5011C50.7803 59.0026 50.5204 58.2049 50.5204 57.108V51.4637H51.8435ZM69.6655 60.0915L69.4056 58.8635H69.3426C68.9121 59.404 68.4815 59.7714 68.051 59.9656C67.6257 60.1545 67.0928 60.249 66.4523 60.249C65.5965 60.249 64.9244 60.0286 64.4361 59.5877C63.9531 59.1469 63.7115 58.5197 63.7115 57.7063C63.7115 55.9639 65.1055 55.0507 67.8935 54.9668L69.3584 54.9196V54.3842C69.3584 53.7072 69.2114 53.2086 68.9173 52.8885C68.6285 52.5632 68.1639 52.4005 67.5234 52.4005C66.804 52.4005 65.9902 52.6209 65.0819 53.0617L64.6802 52.062C65.1055 51.8311 65.5702 51.65 66.0743 51.5188C66.5836 51.3876 67.0928 51.322 67.6021 51.322C68.6312 51.322 69.3925 51.5503 69.886 52.0069C70.3849 52.4634 70.6342 53.1955 70.6342 54.2031V60.0915H69.6655ZM66.7122 59.1705C67.526 59.1705 68.1639 58.9475 68.626 58.5014C69.0932 58.0553 69.3269 57.4307 69.3269 56.6278V55.8485L68.0195 55.9036C66.9799 55.9403 66.2292 56.103 65.7671 56.3917C65.3103 56.675 65.0819 57.1185 65.0819 57.722C65.0819 58.1943 65.2237 58.5539 65.5072 58.8005C65.796 59.0472 66.1976 59.1705 66.7122 59.1705ZM77.0958 51.3062C77.4792 51.3062 77.8231 51.3377 78.1273 51.4007L77.9462 52.613C77.5892 52.5343 77.2747 52.4949 77.0012 52.4949C76.3033 52.4949 75.7043 52.7783 75.2057 53.3451C74.7123 53.9119 74.4653 54.6178 74.4653 55.4627V60.0915H73.1581V51.4637H74.2373L74.3868 53.0617H74.4499C74.7702 52.5002 75.1559 52.0672 75.6075 51.7628C76.0591 51.4584 76.5555 51.3062 77.0958 51.3062ZM83.211 60.249C81.9353 60.249 80.9272 59.8606 80.1867 59.0839C79.4521 58.3072 79.0841 57.2287 79.0841 55.8485C79.0841 54.4577 79.4257 53.353 80.1083 52.5343C80.796 51.7156 81.7175 51.3062 82.8722 51.3062C83.9544 51.3062 84.81 51.6631 85.4397 52.3769C86.0702 53.0854 86.3848 54.0221 86.3848 55.1872V56.0137H80.4389C80.4653 57.0267 80.7197 57.7955 81.2029 58.3203C81.6911 58.8452 82.3766 59.1075 83.2586 59.1075C84.1875 59.1075 85.1061 58.9134 86.0145 58.525V59.69C85.5526 59.8895 85.1142 60.0312 84.6992 60.1151C84.2901 60.2044 83.7938 60.249 83.211 60.249ZM82.8568 52.4005C82.1633 52.4005 81.6098 52.6261 81.1948 53.0775C80.7857 53.5288 80.5438 54.1533 80.4705 54.9511H84.983C84.983 54.1271 84.7997 53.4973 84.4316 53.0617C84.0643 52.6209 83.5394 52.4005 82.8568 52.4005ZM98.4736 57.478C98.4736 58.3807 98.1583 59.0682 97.5286 59.5405C96.9039 60.0128 95.9662 60.249 94.717 60.249C94.0762 60.249 93.53 60.2044 93.0791 60.1151C92.6275 60.0312 92.2045 59.9053 91.8108 59.7373V57.7535C92.2572 57.9634 92.7587 58.1392 93.3152 58.2809C93.8768 58.4227 94.3702 58.4935 94.7954 58.4935C95.6671 58.4935 96.1033 58.2416 96.1033 57.7378C96.1033 57.5489 96.0454 57.3967 95.9296 57.2812C95.8145 57.1605 95.6151 57.0267 95.3313 56.8797C95.0476 56.7275 94.6693 56.5517 94.1972 56.3523C93.5197 56.0688 93.0212 55.8065 92.7008 55.565C92.3855 55.3236 92.1546 55.0481 92.008 54.7385C91.8657 54.4236 91.7954 54.0379 91.7954 53.5813C91.7954 52.7994 92.0967 52.1958 92.7008 51.7707C93.31 51.3404 94.1708 51.1251 95.2837 51.1251C96.3445 51.1251 97.3761 51.3561 98.379 51.818L97.6547 53.5498C97.2133 53.3608 96.8013 53.2061 96.4178 53.0854C96.0344 52.9646 95.6437 52.9043 95.2448 52.9043C94.5359 52.9043 94.181 53.0959 94.181 53.479C94.181 53.6941 94.2939 53.8804 94.5197 54.0379C94.7507 54.1953 95.2522 54.4289 96.0242 54.7385C96.7118 55.0167 97.2162 55.2764 97.5366 55.5178C97.8563 55.7592 98.0931 56.0374 98.2449 56.3523C98.3973 56.6671 98.4736 57.0424 98.4736 57.478ZM103.817 52.8334C103.308 52.8334 102.908 52.9961 102.62 53.3215C102.331 53.6417 102.166 54.0982 102.124 54.6913H105.494C105.484 54.0982 105.329 53.6417 105.03 53.3215C104.73 52.9961 104.326 52.8334 103.817 52.8334ZM104.155 60.249C102.738 60.249 101.63 59.858 100.832 59.0761C100.034 58.2941 99.6349 57.1867 99.6349 55.754C99.6349 54.2793 100.002 53.1404 100.738 52.3375C101.478 51.5293 102.499 51.1251 103.801 51.1251C105.046 51.1251 106.014 51.4794 106.708 52.1879C107.4 52.8964 107.747 53.8752 107.747 55.1242V56.2893H102.068C102.095 56.9715 102.297 57.5042 102.675 57.8874C103.053 58.2705 103.584 58.462 104.266 58.462C104.796 58.462 105.298 58.4069 105.77 58.2967C106.243 58.1865 106.736 58.0107 107.251 57.7693V59.6271C106.831 59.837 106.382 59.9918 105.904 60.0915C105.426 60.1965 104.843 60.249 104.155 60.249ZM111.925 60.0915H109.523V47.8425H111.925V60.0915ZM117.922 52.8334C117.412 52.8334 117.013 52.9961 116.725 53.3215C116.436 53.6417 116.271 54.0982 116.228 54.6913H119.599C119.589 54.0982 119.434 53.6417 119.134 53.3215C118.835 52.9961 118.431 52.8334 117.922 52.8334ZM118.26 60.249C116.843 60.249 115.735 59.858 114.937 59.0761C114.139 58.2941 113.74 57.1867 113.74 55.754C113.74 54.2793 114.107 53.1404 114.843 52.3375C115.582 51.5293 116.604 51.1251 117.906 51.1251C119.151 51.1251 120.119 51.4794 120.812 52.1879C121.505 52.8964 121.851 53.8752 121.851 55.1242V56.2893H116.173C116.2 56.9715 116.402 57.5042 116.78 57.8874C117.158 58.2705 117.688 58.462 118.37 58.462C118.901 58.462 119.402 58.4069 119.875 58.2967C120.347 58.1865 120.841 58.0107 121.355 57.7693V59.6271C120.936 59.837 120.486 59.9918 120.009 60.0915C119.531 60.1965 118.948 60.249 118.26 60.249ZM127.203 60.249C124.462 60.249 123.092 58.7454 123.092 55.7383C123.092 54.2426 123.464 53.1011 124.21 52.3139C124.956 51.5214 126.024 51.1251 127.415 51.1251C128.434 51.1251 129.348 51.3246 130.157 51.7235L129.448 53.5813C129.069 53.4291 128.717 53.3057 128.392 53.2113C128.066 53.1116 127.741 53.0617 127.415 53.0617C126.166 53.0617 125.541 53.9486 125.541 55.7225C125.541 57.4438 126.166 58.3045 127.415 58.3045C127.877 58.3045 128.305 58.2442 128.699 58.1235C129.093 57.9976 129.486 57.8034 129.881 57.5409V59.5956C129.492 59.8422 129.099 60.0128 128.699 60.1073C128.305 60.2018 127.807 60.249 127.203 60.249ZM135.46 58.3361C135.88 58.3361 136.385 58.2442 136.973 58.0605V59.8475C136.374 60.1151 135.639 60.249 134.767 60.249C133.806 60.249 133.105 60.0076 132.665 59.5248C132.228 59.0366 132.011 58.3072 132.011 57.3363V53.0932H130.861V52.0777L132.184 51.2748L132.877 49.4169H134.412V51.2905H136.878V53.0932H134.412V57.3363C134.412 57.6774 134.507 57.9293 134.696 58.092C134.89 58.2547 135.145 58.3361 135.46 58.3361ZM142.229 52.8334C141.72 52.8334 141.321 52.9961 141.032 53.3215C140.743 53.6417 140.577 54.0982 140.536 54.6913H143.907C143.896 54.0982 143.741 53.6417 143.442 53.3215C143.143 52.9961 142.738 52.8334 142.229 52.8334ZM142.568 60.249C141.15 60.249 140.042 59.858 139.244 59.0761C138.446 58.2941 138.047 57.1867 138.047 55.754C138.047 54.2793 138.415 53.1404 139.15 52.3375C139.89 51.5293 140.911 51.1251 142.213 51.1251C143.458 51.1251 144.426 51.4794 145.119 52.1879C145.812 52.8964 146.159 53.8752 146.159 55.1242V56.2893H140.481C140.507 56.9715 140.709 57.5042 141.087 57.8874C141.465 58.2705 141.995 58.462 142.678 58.462C143.208 58.462 143.709 58.4069 144.182 58.2967C144.654 58.1865 145.149 58.0107 145.663 57.7693V59.6271C145.242 59.837 144.794 59.9918 144.316 60.0915C143.838 60.1965 143.256 60.249 142.568 60.249ZM150.723 60.249C149.688 60.249 148.874 59.8475 148.281 59.0446C147.693 58.2416 147.399 57.129 147.399 55.7068C147.399 54.2635 147.698 53.1404 148.297 52.3375C148.901 51.5293 149.73 51.1251 150.786 51.1251C151.894 51.1251 152.739 51.5555 153.322 52.4162H153.4C153.28 51.7602 153.219 51.175 153.219 50.6607V47.8425H155.629V60.0915H153.787L153.322 58.9501H153.219C152.673 59.816 151.841 60.249 150.723 60.249ZM151.565 58.3361C152.179 58.3361 152.628 58.1576 152.912 57.8007C153.201 57.4438 153.358 56.8377 153.385 55.9823V55.7225C153.385 54.7778 153.237 54.1008 152.943 53.6915C152.655 53.2821 152.182 53.0775 151.526 53.0775C150.99 53.0775 150.573 53.3057 150.274 53.7624C149.98 54.2137 149.833 54.8723 149.833 55.7383C149.833 56.6042 149.982 57.2549 150.281 57.6905C150.581 58.1209 151.009 58.3361 151.565 58.3361ZM159.98 56.2735H158.059L157.657 48.5825H160.382L159.98 56.2735ZM157.625 58.9658C157.625 58.525 157.743 58.1918 157.98 57.9661C158.216 57.7404 158.56 57.6276 159.012 57.6276C159.447 57.6276 159.783 57.743 160.02 57.974C160.261 58.2049 160.382 58.5355 160.382 58.9658C160.382 59.3804 160.261 59.7084 160.02 59.9498C159.778 60.186 159.442 60.3041 159.012 60.3041C158.57 60.3041 158.229 60.1886 157.987 59.9577C157.746 59.7215 157.625 59.3909 157.625 58.9658Z" fill="#B12F15"/>
<path d="M205.178 43.2366H204.316L205.299 38.6629C205.495 37.7912 205.642 37.1917 205.739 36.8644C205.572 37.0414 205.34 37.2268 205.043 37.4205L204.151 37.9715L203.75 37.3353L206 35.9126H206.747L205.178 43.2366ZM213.244 38.1569C213.244 39.1421 213.113 40.0422 212.849 40.857C212.588 41.6719 212.231 42.2897 211.776 42.7105C211.325 43.128 210.8 43.3367 210.202 43.3367C209.614 43.3367 209.163 43.1247 208.849 42.7006C208.535 42.273 208.378 41.6552 208.378 40.847C208.378 39.9453 208.515 39.087 208.789 38.2721C209.063 37.4538 209.423 36.8377 209.871 36.4236C210.322 36.0061 210.837 35.7974 211.415 35.7974C212.635 35.7974 213.244 36.5839 213.244 38.1569ZM211.365 36.5188C210.987 36.5188 210.638 36.7124 210.318 37.0999C209.997 37.484 209.736 38.0233 209.535 38.718C209.338 39.4092 209.24 40.1156 209.24 40.837C209.24 41.4114 209.324 41.8523 209.491 42.1595C209.658 42.4667 209.926 42.6204 210.297 42.6204C210.681 42.6204 211.031 42.43 211.345 42.0493C211.659 41.6686 211.909 41.1209 212.096 40.4062C212.287 39.6914 212.382 38.935 212.382 38.1368C212.382 37.0581 212.043 36.5188 211.365 36.5188ZM217.787 35.9126L213.713 43.2366H212.841L216.915 35.9126H217.787ZM222.27 38.1569C222.27 39.1421 222.138 40.0422 221.874 40.857C221.613 41.6719 221.256 42.2897 220.802 42.7105C220.351 43.128 219.826 43.3367 219.228 43.3367C218.64 43.3367 218.189 43.1247 217.875 42.7006C217.561 42.273 217.404 41.6552 217.404 40.847C217.404 39.9453 217.541 39.087 217.815 38.2721C218.088 37.4538 218.45 36.8377 218.897 36.4236C219.349 36.0061 219.863 35.7974 220.441 35.7974C221.66 35.7974 222.27 36.5839 222.27 38.1569ZM220.39 36.5188C220.013 36.5188 219.664 36.7124 219.344 37.0999C219.022 37.484 218.762 38.0233 218.561 38.718C218.364 39.4092 218.266 40.1156 218.266 40.837C218.266 41.4114 218.349 41.8523 218.517 42.1595C218.684 42.4667 218.953 42.6204 219.323 42.6204C219.707 42.6204 220.057 42.43 220.371 42.0493C220.684 41.6686 220.935 41.1209 221.122 40.4062C221.313 39.6914 221.408 38.935 221.408 38.1368C221.408 37.0581 221.069 36.5188 220.39 36.5188ZM227.715 37.4305C227.715 37.9515 227.547 38.394 227.209 38.758C226.871 39.1187 226.404 39.3525 225.805 39.4594V39.5044C226.22 39.5812 226.546 39.76 226.783 40.0405C227.02 40.3176 227.139 40.665 227.139 41.0824C227.139 41.5267 227.036 41.919 226.828 42.2597C226.621 42.597 226.319 42.8608 225.921 43.0512C225.523 43.2415 225.051 43.3367 224.503 43.3367C223.801 43.3367 223.158 43.2048 222.573 42.941V42.1194C222.888 42.2831 223.22 42.41 223.571 42.5001C223.921 42.587 224.239 42.6304 224.522 42.6304C225.064 42.6304 225.485 42.4985 225.786 42.2346C226.086 41.9675 226.237 41.6035 226.237 41.1426C226.237 40.7051 226.105 40.3744 225.841 40.1507C225.577 39.9236 225.209 39.81 224.738 39.81H224.082L224.237 39.0937H224.934C225.485 39.0937 225.943 38.9484 226.307 38.6579C226.671 38.3673 226.853 37.9882 226.853 37.5207C226.853 37.2134 226.756 36.9696 226.563 36.7892C226.369 36.609 226.107 36.5188 225.775 36.5188C225.509 36.5188 225.246 36.5638 224.989 36.654C224.731 36.7442 224.44 36.8995 224.112 37.1199L223.711 36.5288C224.363 36.0478 225.071 35.8074 225.836 35.8074C226.434 35.8074 226.896 35.9527 227.224 36.2432C227.552 36.5338 227.715 36.9296 227.715 37.4305Z" fill="#76808D" fill-opacity="0.5"/>
<path d="M58.4398 35.8484C58.4398 36.5898 58.1859 37.1609 57.6781 37.5616C57.1735 37.9591 56.4502 38.1577 55.508 38.1577H54.6459V41.0382H53.7939V33.7143H55.6934C57.5243 33.7143 58.4398 34.4257 58.4398 35.8484ZM54.6459 37.4264H55.4127C56.1679 37.4264 56.7141 37.3044 57.0516 37.0607C57.3891 36.8169 57.5578 36.4261 57.5578 35.8885C57.5578 35.4041 57.399 35.0435 57.0817 34.8064C56.7643 34.5692 56.2698 34.4507 55.5982 34.4507H54.6459V37.4264ZM64.5943 38.288C64.5943 39.183 64.3688 39.8827 63.9177 40.387C63.4666 40.8879 62.8435 41.1384 62.0483 41.1384C61.5572 41.1384 61.1212 41.0232 60.7402 40.7927C60.3593 40.5623 60.0654 40.2317 59.8582 39.8009C59.651 39.37 59.5475 38.8658 59.5475 38.288C59.5475 37.393 59.7713 36.6966 60.219 36.199C60.6668 35.6981 61.2882 35.4476 62.0834 35.4476C62.8518 35.4476 63.4616 35.7031 63.9127 36.2141C64.3671 36.7251 64.5943 37.4163 64.5943 38.288ZM60.4095 38.288C60.4095 38.9893 60.5498 39.5237 60.8305 39.8911C61.1111 40.2584 61.5237 40.4421 62.0684 40.4421C62.613 40.4421 63.0256 40.2601 63.3062 39.8961C63.5902 39.5287 63.7323 38.9927 63.7323 38.288C63.7323 37.59 63.5902 37.0607 63.3062 36.7C63.0256 36.3359 62.6096 36.154 62.0583 36.154C61.5137 36.154 61.1027 36.3326 60.8254 36.69C60.5481 37.0473 60.4095 37.58 60.4095 38.288ZM67.8319 40.4521C67.9789 40.4521 68.1209 40.4421 68.2578 40.4221C68.3948 40.3987 68.5034 40.3753 68.5836 40.352V40.9881C68.4934 41.0316 68.3597 41.0666 68.1827 41.0933C68.0089 41.1234 67.8519 41.1384 67.7115 41.1384C66.6491 41.1384 66.1178 40.5791 66.1178 39.4602V36.194H65.331V35.7933L66.1178 35.4476L66.4686 34.2754H66.9498V35.5478H68.5435V36.194H66.9498V39.4251C66.9498 39.7558 67.0283 40.0096 67.1853 40.1866C67.3423 40.3636 67.5579 40.4521 67.8319 40.4521ZM71.4603 40.4521C71.6073 40.4521 71.7494 40.4421 71.8864 40.4221C72.0233 40.3987 72.1319 40.3753 72.2121 40.352V40.9881C72.1219 41.0316 71.9883 41.0666 71.8112 41.0933C71.6374 41.1234 71.4804 41.1384 71.34 41.1384C70.2776 41.1384 69.7463 40.5791 69.7463 39.4602V36.194H68.9595V35.7933L69.7463 35.4476L70.0971 34.2754H70.5783V35.5478H72.172V36.194H70.5783V39.4251C70.5783 39.7558 70.6568 40.0096 70.8139 40.1866C70.9709 40.3636 71.1864 40.4521 71.4603 40.4521ZM75.6351 41.1384C74.8235 41.1384 74.182 40.8913 73.7106 40.397C73.2428 39.9027 73.009 39.2164 73.009 38.3381C73.009 37.453 73.2261 36.75 73.6607 36.2291C74.0984 35.7081 74.6842 35.4476 75.4196 35.4476C76.108 35.4476 76.6527 35.6747 77.0537 36.1289C77.454 36.5797 77.6549 37.1759 77.6549 37.9173V38.4433H73.8712C73.888 39.0878 74.05 39.5771 74.3572 39.9111C74.6681 40.245 75.1036 40.412 75.6652 40.412C76.2568 40.412 76.8411 40.2885 77.4196 40.0413V40.7828C77.1256 40.9096 76.8463 40.9998 76.5823 41.0533C76.3221 41.1101 76.0061 41.1384 75.6351 41.1384ZM75.4093 36.1439C74.9687 36.1439 74.616 36.2876 74.3521 36.5748C74.0918 36.8619 73.9379 37.2594 73.8909 37.767H76.7627C76.7627 37.2426 76.6461 36.8419 76.4122 36.5647C76.1784 36.2842 75.844 36.1439 75.4093 36.1439ZM81.5838 35.4476C81.828 35.4476 82.0465 35.4676 82.2407 35.5077L82.1256 36.2792C81.8984 36.2291 81.6975 36.204 81.5237 36.204C81.0794 36.204 80.6989 36.3844 80.3815 36.7451C80.067 37.1058 79.9101 37.5549 79.9101 38.0927V41.0382H79.078V35.5478H79.7649L79.8602 36.5647H79.8998C80.1036 36.2074 80.3492 35.9318 80.6366 35.7382C80.924 35.5445 81.24 35.4476 81.5838 35.4476ZM82.3962 35.5478H83.2884L84.4908 38.6788C84.7547 39.3934 84.9182 39.9094 84.982 40.2267H85.0223C85.0656 40.0564 85.1557 39.7658 85.2928 39.355C85.4329 38.9409 85.8874 37.6718 86.6558 35.5478H87.548L85.1873 41.7997C84.9534 42.4176 84.6799 42.8551 84.3654 43.1122C84.0545 43.3727 83.6726 43.5029 83.218 43.5029C82.9636 43.5029 82.7136 43.4745 82.4658 43.4178V42.7515C82.6498 42.7916 82.8551 42.8116 83.0824 42.8116C83.6542 42.8116 84.0619 42.491 84.3053 41.8498L84.611 41.0683L82.3962 35.5478ZM92.8809 40.4521C93.0275 40.4521 93.1698 40.4421 93.3069 40.4221C93.4432 40.3987 93.5525 40.3753 93.6324 40.352V40.9881C93.5422 41.0316 93.4088 41.0666 93.2313 41.0933C93.0576 41.1234 92.9007 41.1384 92.7599 41.1384C91.6976 41.1384 91.1668 40.5791 91.1668 39.4602V36.194H90.3794V35.7933L91.1668 35.4476L91.5172 34.2754H91.9982V35.5478H93.592V36.194H91.9982V39.4251C91.9982 39.7558 92.0766 40.0096 92.2343 40.1866C92.3912 40.3636 92.6067 40.4521 92.8809 40.4521ZM97.0554 41.1384C96.2431 41.1384 95.6016 40.8913 95.1309 40.397C94.6632 39.9027 94.4293 39.2164 94.4293 38.3381C94.4293 37.453 94.6463 36.75 95.0803 36.2291C95.518 35.7081 96.1045 35.4476 96.8399 35.4476C97.5283 35.4476 98.073 35.6747 98.4733 36.1289C98.8744 36.5797 99.0752 37.1759 99.0752 37.9173V38.4433H95.2915C95.3076 39.0878 95.4696 39.5771 95.7776 39.9111C96.0877 40.245 96.5239 40.412 97.0855 40.412C97.6764 40.412 98.2615 40.2885 98.8392 40.0413V40.7828C98.5452 40.9096 98.2666 40.9998 98.0027 41.0533C97.7416 41.1101 97.4264 41.1384 97.0554 41.1384ZM96.8296 36.1439C96.389 36.1439 96.0364 36.2876 95.7724 36.5748C95.5114 36.8619 95.3582 37.2594 95.3113 37.767H98.183C98.183 37.2426 98.0657 36.8419 97.8318 36.5647C97.598 36.2842 97.2644 36.1439 96.8296 36.1439ZM103.877 41.0382L103.711 40.2568H103.671C103.397 40.6007 103.123 40.8345 102.849 40.9581C102.578 41.0783 102.239 41.1384 101.831 41.1384C101.287 41.1384 100.859 40.9982 100.548 40.7176C100.241 40.4371 100.088 40.038 100.088 39.5203C100.088 38.4116 100.975 37.8304 102.748 37.777L103.681 37.747V37.4063C103.681 36.9755 103.587 36.6582 103.4 36.4545C103.216 36.2475 102.921 36.1439 102.513 36.1439C102.055 36.1439 101.537 36.2842 100.959 36.5647L100.704 35.9285C100.975 35.7815 101.27 35.6663 101.591 35.5829C101.915 35.4993 102.239 35.4576 102.564 35.4576C103.218 35.4576 103.703 35.6029 104.017 35.8934C104.334 36.184 104.492 36.6499 104.492 37.2911V41.0382H103.877ZM101.997 40.4521C102.514 40.4521 102.921 40.3102 103.215 40.0263C103.512 39.7425 103.661 39.345 103.661 38.8341V38.3381L102.829 38.3732C102.167 38.3966 101.69 38.5001 101.396 38.6838C101.105 38.8641 100.959 39.1463 100.959 39.5304C100.959 39.8309 101.05 40.0597 101.23 40.2167C101.414 40.3736 101.669 40.4521 101.997 40.4521ZM108.407 41.1384C107.612 41.1384 106.995 40.8946 106.558 40.4071C106.123 39.9161 105.906 39.2231 105.906 38.3281C105.906 37.4097 106.127 36.7 106.567 36.199C107.012 35.6981 107.644 35.4476 108.462 35.4476C108.726 35.4476 108.99 35.476 109.254 35.5328C109.518 35.5895 109.725 35.6563 109.875 35.7331L109.62 36.4395C109.436 36.366 109.235 36.3059 109.018 36.2591C108.801 36.2091 108.609 36.184 108.442 36.184C107.326 36.184 106.768 36.8954 106.768 38.3181C106.768 38.9927 106.903 39.5103 107.174 39.871C107.448 40.2317 107.852 40.412 108.387 40.412C108.844 40.412 109.314 40.3136 109.795 40.1165V40.8529C109.427 41.0432 108.965 41.1384 108.407 41.1384ZM114.862 41.0382V37.4865C114.862 37.0389 114.76 36.705 114.556 36.4845C114.353 36.2642 114.034 36.154 113.599 36.154C113.021 36.154 112.598 36.3109 112.331 36.6248C112.067 36.9387 111.935 37.453 111.935 38.1678V41.0382H111.103V33.2434H111.935V35.6029C111.935 35.8868 111.922 36.1222 111.895 36.3093H111.945C112.109 36.0454 112.341 35.8383 112.642 35.688C112.946 35.5344 113.292 35.4576 113.68 35.4576C114.351 35.4576 114.854 35.6179 115.188 35.9385C115.526 36.2558 115.694 36.7618 115.694 37.4564V41.0382H114.862ZM118.24 41.0382H117.408V35.5478H118.24V41.0382ZM117.338 34.0599C117.338 33.8696 117.385 33.731 117.478 33.6442C117.572 33.554 117.688 33.5089 117.829 33.5089C117.963 33.5089 118.078 33.554 118.174 33.6442C118.272 33.7343 118.32 33.8729 118.32 34.0599C118.32 34.2469 118.272 34.3873 118.174 34.4808C118.078 34.5709 117.963 34.616 117.829 34.616C117.688 34.616 117.572 34.5709 117.478 34.4808C117.385 34.3873 117.338 34.2469 117.338 34.0599ZM123.763 41.0382V37.4865C123.763 37.0389 123.661 36.705 123.457 36.4845C123.254 36.2642 122.934 36.154 122.5 36.154C121.925 36.154 121.504 36.3093 121.237 36.6198C120.97 36.9304 120.836 37.4431 120.836 38.1577V41.0382H120.004V35.5478H120.68L120.816 36.2992H120.856C121.026 36.0287 121.265 35.8199 121.573 35.673C121.88 35.5227 122.223 35.4476 122.6 35.4476C123.262 35.4476 123.76 35.6079 124.094 35.9285C124.427 36.2458 124.595 36.7551 124.595 37.4564V41.0382H123.763ZM130.804 35.5478V36.0738L129.787 36.194C129.881 36.3109 129.964 36.4645 130.037 36.6549C130.111 36.8419 130.148 37.054 130.148 37.2911C130.148 37.8288 129.964 38.258 129.597 38.5786C129.229 38.8992 128.724 39.0595 128.083 39.0595C127.919 39.0595 127.765 39.0461 127.622 39.0194C127.268 39.2064 127.091 39.4419 127.091 39.7258C127.091 39.8761 127.153 39.9879 127.276 40.0614C127.4 40.1315 127.612 40.1665 127.913 40.1665H128.885C129.48 40.1665 129.936 40.2918 130.253 40.5423C130.574 40.7927 130.734 41.1568 130.734 41.6344C130.734 42.2422 130.491 42.7048 130.002 43.022C129.515 43.3426 128.803 43.5029 127.867 43.5029C127.149 43.5029 126.595 43.3694 126.204 43.1022C125.816 42.835 125.622 42.4576 125.622 41.97C125.622 41.6361 125.729 41.3471 125.943 41.1034C126.157 40.8596 126.458 40.6943 126.845 40.6074C126.705 40.544 126.586 40.4455 126.489 40.3119C126.396 40.1783 126.349 40.023 126.349 39.8459C126.349 39.6456 126.403 39.4703 126.51 39.32C126.616 39.1697 126.785 39.0244 127.015 38.8841C126.732 38.7672 126.499 38.5686 126.319 38.288C126.142 38.0075 126.054 37.6869 126.054 37.3262C126.054 36.7251 126.234 36.2625 126.595 35.9385C126.955 35.6112 127.466 35.4476 128.128 35.4476C128.416 35.4476 128.675 35.481 128.905 35.5478H130.804ZM126.424 41.96C126.424 42.2572 126.549 42.4826 126.8 42.6363C127.051 42.7899 127.41 42.8667 127.878 42.8667C128.576 42.8667 129.092 42.7615 129.426 42.5512C129.763 42.3441 129.933 42.0618 129.933 41.7045C129.933 41.4073 129.84 41.2002 129.657 41.0833C129.473 40.9698 129.127 40.913 128.62 40.913H127.622C127.244 40.913 126.95 41.0031 126.74 41.1835C126.529 41.3638 126.424 41.6227 126.424 41.96ZM126.875 37.3061C126.875 37.6902 126.984 37.9808 127.201 38.1778C127.418 38.3749 127.721 38.4734 128.108 38.4734C128.92 38.4734 129.326 38.0792 129.326 37.2911C129.326 36.4662 128.915 36.0537 128.093 36.0537C127.702 36.0537 127.401 36.1589 127.191 36.3693C126.98 36.5797 126.875 36.892 126.875 37.3061ZM136.793 41.1384C135.998 41.1384 135.382 40.8946 134.944 40.4071C134.51 39.9161 134.293 39.2231 134.293 38.3281C134.293 37.4097 134.513 36.7 134.954 36.199C135.398 35.6981 136.03 35.4476 136.848 35.4476C137.112 35.4476 137.376 35.476 137.64 35.5328C137.904 35.5895 138.112 35.6563 138.262 35.7331L138.006 36.4395C137.823 36.366 137.622 36.3059 137.405 36.2591C137.188 36.2091 136.996 36.184 136.829 36.184C135.713 36.184 135.155 36.8954 135.155 38.3181C135.155 38.9927 135.29 39.5103 135.56 39.871C135.834 40.2317 136.238 40.412 136.774 40.412C137.231 40.412 137.7 40.3136 138.182 40.1165V40.8529C137.814 41.0432 137.351 41.1384 136.793 41.1384ZM140.321 41.0382H139.49V33.2434H140.321V41.0382ZM145.464 41.0382L145.299 40.2568H145.258C144.984 40.6007 144.71 40.8345 144.436 40.9581C144.166 41.0783 143.826 41.1384 143.419 41.1384C142.874 41.1384 142.447 40.9982 142.136 40.7176C141.829 40.4371 141.675 40.038 141.675 39.5203C141.675 38.4116 142.562 37.8304 144.336 37.777L145.269 37.747V37.4063C145.269 36.9755 145.175 36.6582 144.988 36.4545C144.804 36.2475 144.508 36.1439 144.101 36.1439C143.642 36.1439 143.125 36.2842 142.547 36.5647L142.291 35.9285C142.562 35.7815 142.857 35.6663 143.178 35.5829C143.502 35.4993 143.826 35.4576 144.151 35.4576C144.805 35.4576 145.29 35.6029 145.604 35.8934C145.922 36.184 146.08 36.6499 146.08 37.2911V41.0382H145.464ZM143.585 40.4521C144.102 40.4521 144.508 40.3102 144.802 40.0263C145.099 39.7425 145.248 39.345 145.248 38.8341V38.3381L144.416 38.3732C143.755 38.3966 143.277 38.5001 142.983 38.6838C142.692 38.8641 142.547 39.1463 142.547 39.5304C142.547 39.8309 142.637 40.0597 142.818 40.2167C143.001 40.3736 143.257 40.4521 143.585 40.4521ZM151.343 39.5404C151.343 40.0513 151.152 40.4455 150.771 40.7226C150.39 40.9998 149.856 41.1384 149.167 41.1384C148.439 41.1384 147.871 41.0232 147.464 40.7927V40.0213C147.728 40.1549 148.01 40.2601 148.31 40.3369C148.615 40.4137 148.906 40.4521 149.187 40.4521C149.622 40.4521 149.956 40.3837 150.189 40.2467C150.423 40.1065 150.541 39.8944 150.541 39.6106C150.541 39.3968 150.447 39.2148 150.26 39.0645C150.076 38.9109 149.715 38.7305 149.178 38.5235C148.666 38.3331 148.302 38.1678 148.085 38.0275C147.871 37.8839 147.711 37.7219 147.604 37.5416C147.5 37.3612 147.448 37.1458 147.448 36.8954C147.448 36.4478 147.631 36.0955 147.994 35.8383C148.359 35.5778 148.858 35.4476 149.493 35.4476C150.085 35.4476 150.662 35.5679 151.227 35.8083L150.931 36.4845C150.38 36.2574 149.881 36.1439 149.433 36.1439C149.038 36.1439 148.741 36.2057 148.541 36.3293C148.34 36.4528 148.24 36.6232 148.24 36.8403C148.24 36.9872 148.277 37.1124 148.351 37.216C148.427 37.3195 148.549 37.418 148.717 37.5115C148.884 37.605 149.204 37.7403 149.678 37.9173C150.33 38.1544 150.769 38.3932 150.997 38.6337C151.227 38.8741 151.343 39.1764 151.343 39.5404ZM156.244 39.5404C156.244 40.0513 156.053 40.4455 155.673 40.7226C155.291 40.9998 154.757 41.1384 154.069 41.1384C153.341 41.1384 152.772 41.0232 152.365 40.7927V40.0213C152.629 40.1549 152.911 40.2601 153.212 40.3369C153.516 40.4137 153.808 40.4521 154.089 40.4521C154.523 40.4521 154.857 40.3837 155.091 40.2467C155.325 40.1065 155.442 39.8944 155.442 39.6106C155.442 39.3968 155.349 39.2148 155.162 39.0645C154.978 38.9109 154.617 38.7305 154.079 38.5235C153.568 38.3331 153.203 38.1678 152.986 38.0275C152.772 37.8839 152.612 37.7219 152.505 37.5416C152.401 37.3612 152.35 37.1458 152.35 36.8954C152.35 36.4478 152.532 36.0955 152.896 35.8383C153.261 35.5778 153.76 35.4476 154.395 35.4476C154.986 35.4476 155.564 35.5679 156.129 35.8083L155.833 36.4845C155.282 36.2574 154.782 36.1439 154.335 36.1439C153.94 36.1439 153.643 36.2057 153.442 36.3293C153.242 36.4528 153.142 36.6232 153.142 36.8403C153.142 36.9872 153.178 37.1124 153.252 37.216C153.329 37.3195 153.45 37.418 153.618 37.5115C153.785 37.605 154.106 37.7403 154.58 37.9173C155.231 38.1544 155.671 38.3932 155.898 38.6337C156.129 38.8741 156.244 39.1764 156.244 39.5404Z" fill="#76808D"/>
<path d="M44.1446 31.6604H33.5068" stroke="#76808D" stroke-linecap="round" stroke-linejoin="round"/>
<path d="M31.1816 41.0735H31.1932C31.1932 41.1084 31.1816 41.149 31.1816 41.1839C31.1816 41.8579 31.7281 42.4041 32.4023 42.4041H45.2084C45.8827 42.4041 46.4291 41.8579 46.4291 41.1839C46.4291 41.1432 46.4233 41.1084 46.4175 41.0735H46.4291" stroke="#76808D" stroke-linecap="round" stroke-linejoin="round"/>
<path d="M33.4138 30.3997H32.4023C31.7281 30.3997 31.1816 30.9458 31.1816 31.6199C31.1816 31.6315 31.1816 31.6489 31.1816 31.6606V41.0735H31.1932C31.2514 40.4517 31.7687 39.9637 32.4023 39.9637H33.4138V30.3997Z" stroke="#76808D" stroke-linecap="round" stroke-linejoin="round"/>
<path d="M46.4295 31.6199C46.4295 30.9458 45.8831 30.3997 45.2087 30.3997H44.1973V39.9695H45.2087C45.8424 39.9695 46.3597 40.4575 46.4178 41.0793H46.4295V31.6606C46.4295 31.6606 46.4295 31.6315 46.4295 31.6199Z" stroke="#76808D" stroke-linecap="round" stroke-linejoin="round"/>
<path d="M38.4826 39.6034L36.8433 40.4575L36.884 38.5923C36.884 38.4703 36.9246 38.3483 36.9886 38.2437L39.8253 33.7929C39.9184 33.6419 40.0869 33.5547 40.2613 33.5547H40.8949C41.0984 33.5547 41.2844 33.6767 41.3716 33.8627L41.6158 34.4147C41.6855 34.5716 41.6739 34.7575 41.5809 34.9027L38.7383 39.371C38.6744 39.4698 38.5872 39.5511 38.4767 39.6092L38.4826 39.6034Z" stroke="#76808D" stroke-linecap="round" stroke-linejoin="round"/>
<path d="M41.0867 33.7524L38.186 38.302" stroke="#76808D" stroke-linecap="round" stroke-linejoin="round"/>
<path d="M38.593 39.3942L38.3546 38.7899C38.2442 38.5168 37.9768 38.3483 37.6861 38.3599L37.0234 38.3948" stroke="#76808D" stroke-linecap="round" stroke-linejoin="round"/>
</g>
<defs>
<filter id="filter0_dd_3229_8835" x="-5.33691" y="-5.34351" width="272.457" height="108.023" filterUnits="userSpaceOnUse" color-interpolation-filters="sRGB">
<feFlood flood-opacity="0" result="BackgroundImageFix"/>
<feColorMatrix in="SourceAlpha" type="matrix" values="0 0 0 0 0 0 0 0 0 0 0 0 0 0 0 0 0 0 127 0" result="hardAlpha"/>
<feOffset/>
<feGaussianBlur stdDeviation="10"/>
<feComposite in2="hardAlpha" operator="out"/>
<feColorMatrix type="matrix" values="0 0 0 0 0.788235 0 0 0 0 0.294118 0 0 0 0 0.196078 0 0 0 0.18 0"/>
<feBlend mode="normal" in2="BackgroundImageFix" result="effect1_dropShadow_3229_8835"/>
<feColorMatrix in="SourceAlpha" type="matrix" values="0 0 0 0 0 0 0 0 0 0 0 0 0 0 0 0 0 0 127 0" result="hardAlpha"/>
<feOffset dx="3" dy="5"/>
<feGaussianBlur stdDeviation="10"/>
<feComposite in2="hardAlpha" operator="out"/>
<feColorMatrix type="matrix" values="0 0 0 0 0.105882 0 0 0 0 0.168627 0 0 0 0 0.254902 0 0 0 0.12 0"/>
<feBlend mode="normal" in2="effect1_dropShadow_3229_8835" result="effect2_dropShadow_3229_8835"/>
<feBlend mode="normal" in="SourceGraphic" in2="effect2_dropShadow_3229_8835" result="shape"/>
</filter>
</defs>
</svg>
