<svg width="302" height="111" viewBox="0 0 302 111" fill="none" xmlns="http://www.w3.org/2000/svg">
<g filter="url(#filter0_dd_3229_8863)">
<path d="M265.502 16.9465H33.9326C24.5624 16.9465 16.9663 24.5338 16.9663 33.8931V72.8702C16.9663 82.2295 24.5624 89.8168 33.9326 89.8168H265.502C274.872 89.8168 282.468 82.2295 282.468 72.8702V33.8931C282.468 24.5338 274.872 16.9465 265.502 16.9465Z" fill="white"/>
<path d="M40.131 62.0807H41.0424C41.9354 62.0807 42.5945 61.932 43.0198 61.6347C43.4451 61.3374 43.6577 60.8702 43.6577 60.233C43.6577 59.6019 43.439 59.1529 43.0016 58.8859C42.5703 58.6189 41.8989 58.4854 40.9877 58.4854H40.131V62.0807ZM40.131 64.3745V69.4808H37.3062V56.1734H41.1881C42.9985 56.1734 44.3382 56.5041 45.2068 57.1656C46.0756 57.821 46.51 58.8191 46.51 60.1602C46.51 60.9429 46.2943 61.6408 45.863 62.2537C45.4316 62.8604 44.8211 63.3368 44.0313 63.6827C46.0362 66.6743 47.3423 68.607 47.9498 69.4808H44.815L41.6347 64.3745H40.131ZM53.4218 61.0886C52.8325 61.0886 52.3708 61.2767 52.0366 61.6529C51.7025 62.0231 51.5111 62.551 51.4626 63.2367H55.3628C55.3507 62.551 55.1714 62.0231 54.8251 61.6529C54.4788 61.2767 54.0111 61.0886 53.4218 61.0886ZM53.8136 69.6628C52.1733 69.6628 50.8915 69.2108 49.968 68.3067C49.0446 67.4025 48.5829 66.1221 48.5829 64.4655C48.5829 62.7604 49.0081 61.4435 49.8587 60.5151C50.7153 59.5807 51.8969 59.1134 53.4035 59.1134C54.8434 59.1134 55.9642 59.523 56.7661 60.3422C57.5681 61.1614 57.9691 62.2932 57.9691 63.7373V65.0844H51.3988C51.4291 65.8733 51.663 66.4892 52.1004 66.9322C52.5378 67.3752 53.1514 67.5967 53.9412 67.5967C54.5548 67.5967 55.135 67.533 55.6817 67.4055C56.2285 67.2781 56.7996 67.0748 57.3949 66.7957V68.9438C56.9089 69.1865 56.3895 69.3655 55.8367 69.4808C55.2838 69.6021 54.6095 69.6628 53.8136 69.6628ZM62.4477 69.4808L58.5657 59.3045H61.4726L63.441 65.1026C63.6597 65.8369 63.7964 66.5317 63.8511 67.1871H63.9057C63.9361 66.6045 64.0728 65.9097 64.3158 65.1026L66.2751 59.3045H69.182L65.3 69.4808H62.4477ZM70.3254 56.674C70.3254 55.7699 70.8297 55.3179 71.8382 55.3179C72.8466 55.3179 73.3509 55.7699 73.3509 56.674C73.3509 57.1049 73.2233 57.4417 72.9681 57.6844C72.719 57.921 72.3424 58.0394 71.8382 58.0394C70.8297 58.0394 70.3254 57.5843 70.3254 56.674ZM73.2233 69.4808H70.4439V59.3045H73.2233V69.4808ZM80.1624 61.0886C79.5731 61.0886 79.1113 61.2767 78.7773 61.6529C78.4431 62.0231 78.2518 62.551 78.2031 63.2367H82.1034C82.0912 62.551 81.9121 62.0231 81.5658 61.6529C81.2195 61.2767 80.7517 61.0886 80.1624 61.0886ZM80.5542 69.6628C78.9139 69.6628 77.6321 69.2108 76.7087 68.3067C75.7852 67.4025 75.3235 66.1221 75.3235 64.4655C75.3235 62.7604 75.7488 61.4435 76.5993 60.5151C77.4559 59.5807 78.6375 59.1134 80.1442 59.1134C81.5839 59.1134 82.7048 59.523 83.5068 60.3422C84.3087 61.1614 84.7096 62.2932 84.7096 63.7373V65.0844H78.1394C78.1697 65.8733 78.4036 66.4892 78.8411 66.9322C79.2785 67.3752 79.8921 67.5967 80.6818 67.5967C81.2954 67.5967 81.8756 67.533 82.4223 67.4055C82.9691 67.2781 83.5401 67.0748 84.1356 66.7957V68.9438C83.6495 69.1865 83.1301 69.3655 82.5772 69.4808C82.0245 69.6021 81.3501 69.6628 80.5542 69.6628ZM95.1386 69.4808L94.3556 65.9218L93.2978 61.4254H93.2342L91.3755 69.4808H88.3861L85.4882 59.3045H88.2588L89.4346 63.8101C89.6229 64.6172 89.8138 65.7307 90.0089 67.1506H90.0632C90.0878 66.6894 90.1938 65.9583 90.3821 64.957L90.528 64.1833L91.7853 59.3045H94.8477L96.0412 64.1833C96.065 64.3168 96.1015 64.514 96.1507 64.775C96.205 65.0359 96.2567 65.3151 96.3051 65.6124C96.3543 65.9036 96.3967 66.1919 96.4332 66.4771C96.4756 66.7562 96.5002 66.9807 96.5061 67.1506H96.5604C96.6156 66.7138 96.7123 66.116 96.8522 65.3575C96.9922 64.5929 97.0923 64.0771 97.1525 63.8101L98.3741 59.3045H101.099L98.1646 69.4808H95.1386ZM108.826 64.3745C109.087 64.0043 109.485 63.5189 110.02 62.9181L113.245 59.5049H115.041L110.994 63.7556L115.323 69.4808H113.492L109.965 64.7658L108.826 65.7489V69.4808H107.331V55.3179H108.826V62.8271C108.826 63.1608 108.802 63.6767 108.753 64.3745H108.826ZM121.151 69.6628C119.674 69.6628 118.508 69.2138 117.651 68.3157C116.8 67.4176 116.375 66.1706 116.375 64.5748C116.375 62.9667 116.771 61.6894 117.56 60.7427C118.356 59.7961 119.422 59.3228 120.759 59.3228C122.01 59.3228 123.001 59.7354 123.729 60.5607C124.458 61.3799 124.823 62.4631 124.823 63.8101V64.7658H117.943C117.974 65.937 118.268 66.826 118.827 67.4328C119.392 68.0397 120.184 68.343 121.205 68.343C122.28 68.343 123.343 68.1185 124.394 67.6695V69.0165C123.86 69.2472 123.353 69.411 122.873 69.5081C122.399 69.6113 121.825 69.6628 121.151 69.6628ZM120.741 60.588C119.938 60.588 119.298 60.8489 118.818 61.3708C118.343 61.8926 118.064 62.6147 117.98 63.5371H123.201C123.201 62.5844 122.988 61.8562 122.563 61.3525C122.138 60.8429 121.531 60.588 120.741 60.588ZM125.62 59.5049H127.242L129.429 65.1936C129.909 66.4923 130.207 67.4298 130.322 68.0063H130.395C130.474 67.6967 130.638 67.1689 130.887 66.4224C131.143 65.67 131.968 63.3641 133.366 59.5049H134.988L130.696 70.8643C130.271 71.9869 129.773 72.7818 129.201 73.2491C128.636 73.7224 127.94 73.9591 127.114 73.9591C126.653 73.9591 126.197 73.9075 125.748 73.8043V72.5937C126.082 72.6666 126.455 72.7029 126.868 72.7029C127.907 72.7029 128.649 72.1204 129.092 70.9553L129.648 69.5354L125.62 59.5049ZM145.604 59.3228C146.048 59.3228 146.446 59.3592 146.798 59.432L146.588 60.8337C146.175 60.7427 145.81 60.6972 145.495 60.6972C144.686 60.6972 143.994 61.0249 143.417 61.6802C142.845 62.3356 142.56 63.1518 142.56 64.1287V69.4808H141.048V59.5049H142.296L142.469 61.3525H142.542C142.912 60.7033 143.359 60.2026 143.882 59.8507C144.404 59.4988 144.978 59.3228 145.604 59.3228ZM152.68 69.6628C151.204 69.6628 150.037 69.2138 149.181 68.3157C148.33 67.4176 147.905 66.1706 147.905 64.5748C147.905 62.9667 148.299 61.6894 149.089 60.7427C149.885 59.7961 150.951 59.3228 152.288 59.3228C153.539 59.3228 154.529 59.7354 155.259 60.5607C155.987 61.3799 156.352 62.4631 156.352 63.8101V64.7658H149.472C149.502 65.937 149.797 66.826 150.356 67.4328C150.921 68.0397 151.714 68.343 152.734 68.343C153.81 68.343 154.873 68.1185 155.924 67.6695V69.0165C155.389 69.2472 154.882 69.411 154.402 69.5081C153.928 69.6113 153.354 69.6628 152.68 69.6628ZM152.269 60.588C151.468 60.588 150.827 60.8489 150.347 61.3708C149.873 61.8926 149.594 62.6147 149.509 63.5371H154.73C154.73 62.5844 154.517 61.8562 154.092 61.3525C153.667 60.8429 153.059 60.588 152.269 60.588ZM165.177 66.7593C165.177 67.6877 164.831 68.4037 164.139 68.9073C163.446 69.411 162.474 69.6628 161.222 69.6628C159.898 69.6628 158.866 69.4535 158.124 69.0348V67.633C158.604 67.8758 159.118 68.0669 159.664 68.2065C160.217 68.3461 160.749 68.4159 161.259 68.4159C162.049 68.4159 162.656 68.2915 163.082 68.0426C163.507 67.7878 163.72 67.4025 163.72 66.8867C163.72 66.4983 163.549 66.1676 163.209 65.8946C162.875 65.6155 162.219 65.2877 161.241 64.9115C160.311 64.5656 159.649 64.2652 159.254 64.0104C158.866 63.7495 158.574 63.4552 158.38 63.1275C158.191 62.7998 158.097 62.4084 158.097 61.9533C158.097 61.1402 158.428 60.5 159.091 60.0327C159.752 59.5594 160.661 59.3228 161.815 59.3228C162.89 59.3228 163.941 59.5412 164.968 59.9782L164.431 61.207C163.428 60.7943 162.519 60.588 161.706 60.588C160.989 60.588 160.448 60.7003 160.084 60.9247C159.719 61.1493 159.537 61.4588 159.537 61.8531C159.537 62.1202 159.604 62.3477 159.737 62.5358C159.877 62.7239 160.098 62.903 160.402 63.0729C160.707 63.2428 161.289 63.4886 162.152 63.8101C163.336 64.241 164.135 64.6748 164.549 65.1118C164.968 65.5487 165.177 66.0978 165.177 66.7593ZM168.863 59.5049V65.9765C168.863 66.7896 169.049 67.3964 169.42 67.7969C169.789 68.1974 170.37 68.3977 171.16 68.3977C172.205 68.3977 172.967 68.1124 173.447 67.542C173.934 66.9716 174.176 66.0402 174.176 64.7477V59.5049H175.689V69.4808H174.441L174.222 68.1428H174.14C173.83 68.6343 173.398 69.0105 172.846 69.2714C172.299 69.5324 171.673 69.6628 170.969 69.6628C169.753 69.6628 168.842 69.3746 168.234 68.7981C167.633 68.2217 167.333 67.2993 167.333 66.0311V59.5049H168.863ZM180.213 69.4808H178.7V55.3179H180.213V69.4808ZM186.441 68.4159C186.709 68.4159 186.967 68.3977 187.216 68.3612C187.465 68.3188 187.663 68.2763 187.809 68.2338V69.3898C187.644 69.4687 187.401 69.5324 187.079 69.5809C186.763 69.6355 186.478 69.6628 186.223 69.6628C184.291 69.6628 183.325 68.6464 183.325 66.6136V60.679H181.894V59.9508L183.325 59.3228L183.963 57.1928H184.838V59.5049H187.736V60.679H184.838V66.5499C184.838 67.1506 184.98 67.6118 185.266 67.9334C185.551 68.255 185.943 68.4159 186.441 68.4159ZM196.051 66.7593C196.051 67.6877 195.705 68.4037 195.012 68.9073C194.319 69.411 193.347 69.6628 192.096 69.6628C190.771 69.6628 189.738 69.4535 188.997 69.0348V67.633C189.477 67.8758 189.99 68.0669 190.538 68.2065C191.09 68.3461 191.622 68.4159 192.132 68.4159C192.922 68.4159 193.53 68.2915 193.955 68.0426C194.38 67.7878 194.592 67.4025 194.592 66.8867C194.592 66.4983 194.422 66.1676 194.082 65.8946C193.748 65.6155 193.092 65.2877 192.114 64.9115C191.184 64.5656 190.522 64.2652 190.127 64.0104C189.738 63.7495 189.447 63.4552 189.252 63.1275C189.064 62.7998 188.97 62.4084 188.97 61.9533C188.97 61.1402 189.301 60.5 189.963 60.0327C190.626 59.5594 191.533 59.3228 192.688 59.3228C193.763 59.3228 194.814 59.5412 195.841 59.9782L195.303 61.207C194.301 60.7943 193.393 60.588 192.579 60.588C191.862 60.588 191.321 60.7003 190.957 60.9247C190.592 61.1493 190.409 61.4588 190.409 61.8531C190.409 62.1202 190.476 62.3477 190.611 62.5358C190.75 62.7239 190.972 62.903 191.276 63.0729C191.579 63.2428 192.162 63.4886 193.025 63.8101C194.21 64.241 195.009 64.6748 195.422 65.1118C195.841 65.5487 196.051 66.0978 196.051 66.7593Z" fill="#B12F15"/>
<path d="M237.409 49.9924H236.412L237.548 44.7041C237.776 43.6962 237.946 43.0031 238.058 42.6247C237.865 42.8293 237.597 43.0437 237.252 43.2676L236.22 43.9047L235.756 43.1692L238.36 41.5242H239.224L237.409 49.9924ZM246.742 44.1191C246.742 45.2582 246.59 46.2989 246.284 47.2411C245.982 48.1833 245.569 48.8977 245.043 49.3842C244.521 49.8669 243.914 50.1083 243.222 50.1083C242.542 50.1083 242.02 49.8631 241.657 49.3727C241.293 48.8784 241.111 48.164 241.111 47.2296C241.111 46.1869 241.27 45.1945 241.587 44.2523C241.904 43.3062 242.321 42.5937 242.839 42.1149C243.361 41.6323 243.957 41.3909 244.626 41.3909C246.037 41.3909 246.742 42.3003 246.742 44.1191ZM244.567 42.225C244.13 42.225 243.727 42.4489 243.356 42.8969C242.984 43.341 242.683 43.9646 242.451 44.7678C242.223 45.5671 242.109 46.3838 242.109 47.2179C242.109 47.8821 242.206 48.3918 242.399 48.7471C242.592 49.1023 242.903 49.28 243.332 49.28C243.777 49.28 244.181 49.0599 244.544 48.6197C244.907 48.1795 245.198 47.5462 245.414 46.7198C245.634 45.8934 245.745 45.0188 245.745 44.0959C245.745 42.8486 245.352 42.225 244.567 42.225ZM251.999 41.5242L247.284 49.9924H246.275L250.99 41.5242H251.999ZM257.186 44.1191C257.186 45.2582 257.033 46.2989 256.728 47.2411C256.426 48.1833 256.013 48.8977 255.487 49.3842C254.965 49.8669 254.358 50.1083 253.665 50.1083C252.985 50.1083 252.463 49.8631 252.1 49.3727C251.736 48.8784 251.555 48.164 251.555 47.2296C251.555 46.1869 251.714 45.1945 252.031 44.2523C252.347 43.3062 252.765 42.5937 253.283 42.1149C253.805 41.6323 254.4 41.3909 255.069 41.3909C256.48 41.3909 257.186 42.3003 257.186 44.1191ZM255.011 42.225C254.574 42.225 254.17 42.4489 253.8 42.8969C253.428 43.341 253.127 43.9646 252.894 44.7678C252.666 45.5671 252.552 46.3838 252.552 47.2179C252.552 47.8821 252.649 48.3918 252.843 48.7471C253.036 49.1023 253.347 49.28 253.776 49.28C254.22 49.28 254.625 49.0599 254.988 48.6197C255.351 48.1795 255.641 47.5462 255.858 46.7198C256.078 45.8934 256.188 45.0188 256.188 44.0959C256.188 42.8486 255.796 42.225 255.011 42.225ZM263.486 43.2791C263.486 43.8816 263.291 44.3932 262.901 44.8142C262.51 45.2312 261.969 45.5015 261.277 45.6251V45.6772C261.757 45.766 262.133 45.9726 262.407 46.297C262.682 46.6174 262.82 47.0191 262.82 47.5017C262.82 48.0154 262.7 48.469 262.46 48.8629C262.22 49.253 261.87 49.558 261.411 49.7781C260.95 49.9982 260.404 50.1083 259.769 50.1083C258.957 50.1083 258.213 49.9557 257.536 49.6507V48.7008C257.9 48.89 258.285 49.0367 258.691 49.141C259.096 49.2414 259.464 49.2916 259.792 49.2916C260.419 49.2916 260.906 49.139 261.254 48.834C261.601 48.525 261.775 48.1042 261.775 47.5713C261.775 47.0654 261.623 46.6831 261.317 46.4244C261.012 46.1618 260.587 46.0305 260.041 46.0305H259.282L259.462 45.2022H260.268C260.906 45.2022 261.435 45.0342 261.857 44.6983C262.278 44.3624 262.489 43.924 262.489 43.3834C262.489 43.0282 262.377 42.7463 262.153 42.5377C261.928 42.3293 261.625 42.225 261.242 42.225C260.933 42.225 260.629 42.2771 260.332 42.3814C260.034 42.4856 259.696 42.6652 259.317 42.92L258.853 42.2366C259.607 41.6805 260.427 41.4025 261.311 41.4025C262.004 41.4025 262.539 41.5704 262.918 41.9064C263.297 42.2424 263.486 42.7 263.486 43.2791Z" fill="#76808D" fill-opacity="0.5"/>
<path d="M64.8539 47.4503H63.8681V39.8566H61.1831V38.982H67.5388V39.8566H64.8539V47.4503ZM71.3604 47.5661C70.421 47.5661 69.6787 47.2804 69.1336 46.7089C68.5924 46.1373 68.3218 45.3438 68.3218 44.3282C68.3218 43.3049 68.573 42.4921 69.0757 41.8897C69.5821 41.2873 70.2606 40.9861 71.1111 40.9861C71.9075 40.9861 72.5376 41.2487 73.0016 41.7739C73.4655 42.2951 73.6974 42.9844 73.6974 43.8417V44.4499H69.3192C69.3385 45.1951 69.526 45.7609 69.8817 46.147C70.2412 46.5331 70.7457 46.7262 71.3952 46.7262C72.0795 46.7262 72.7561 46.5834 73.4249 46.2976V47.1549C73.0847 47.3016 72.7618 47.4059 72.4564 47.4676C72.1549 47.5333 71.7896 47.5661 71.3604 47.5661ZM71.0995 41.7912C70.5891 41.7912 70.1813 41.9573 69.8759 42.2894C69.5743 42.6214 69.3965 43.0809 69.3424 43.6679H72.6652C72.6652 43.0616 72.5299 42.5983 72.2593 42.2778C71.9887 41.9534 71.602 41.7912 71.0995 41.7912ZM79.6937 47.4503V43.3435C79.6937 42.8261 79.5758 42.4399 79.3399 42.1851C79.1041 41.9303 78.7349 41.8028 78.2323 41.8028C77.5673 41.8028 77.0802 41.9824 76.7709 42.3415C76.4617 42.7006 76.307 43.2934 76.307 44.1197V47.4503H75.3444V41.1019H76.1273L76.2838 41.9708H76.3302C76.5273 41.658 76.8038 41.4166 77.1595 41.2467C77.5151 41.0729 77.9114 40.9861 78.3482 40.9861C79.1138 40.9861 79.6898 41.1714 80.0763 41.5421C80.463 41.909 80.6563 42.4979 80.6563 43.3088V47.4503H79.6937ZM86.9888 47.4503V43.3435C86.9888 42.8261 86.8709 42.4399 86.6351 42.1851C86.3993 41.9303 86.0302 41.8028 85.5272 41.8028C84.8621 41.8028 84.3753 41.9824 84.0661 42.3415C83.7568 42.7006 83.6022 43.2934 83.6022 44.1197V47.4503H82.6395V41.1019H83.4224L83.5789 41.9708H83.6254C83.8225 41.658 84.099 41.4166 84.4547 41.2467C84.8103 41.0729 85.2065 40.9861 85.6434 40.9861C86.4086 40.9861 86.9846 41.1714 87.3714 41.5421C87.7583 41.909 87.9517 42.4979 87.9517 43.3088V47.4503H86.9888ZM90.897 47.4503H89.935V41.1019H90.897V47.4503ZM89.8536 39.3816C89.8536 39.1615 89.9079 39.0012 90.0156 38.9009C90.1242 38.7966 90.2591 38.7445 90.422 38.7445C90.5764 38.7445 90.7095 38.7966 90.8224 38.9009C90.9343 39.0051 90.9903 39.1654 90.9903 39.3816C90.9903 39.5978 90.9343 39.7601 90.8224 39.8682C90.7095 39.9724 90.5764 40.0245 90.422 40.0245C90.2591 40.0245 90.1242 39.9724 90.0156 39.8682C89.9079 39.7601 89.8536 39.5978 89.8536 39.3816ZM97.0388 45.7184C97.0388 46.3092 96.8183 46.7649 96.3771 47.0853C95.9369 47.4059 95.3184 47.5661 94.5219 47.5661C93.6786 47.5661 93.022 47.4329 92.5504 47.1664V46.2744C92.8558 46.4289 93.1824 46.5506 93.5302 46.6394C93.8822 46.7282 94.2199 46.7726 94.5448 46.7726C95.0478 46.7726 95.4338 46.6934 95.7044 46.5351C95.975 46.3729 96.1108 46.1277 96.1108 45.7995C96.1108 45.5523 96.0022 45.3419 95.7859 45.1681C95.5729 44.9905 95.1556 44.782 94.5337 44.5426C93.9416 44.3224 93.5209 44.1313 93.2689 43.9691C93.022 43.803 92.8363 43.6158 92.7124 43.4072C92.5928 43.1987 92.5326 42.9497 92.5326 42.6601C92.5326 42.1426 92.743 41.7352 93.1646 41.4379C93.5862 41.1367 94.1639 40.9861 94.8985 40.9861C95.5831 40.9861 96.2516 41.1251 96.9048 41.4031L96.5629 42.1851C95.925 41.9225 95.3473 41.7912 94.829 41.7912C94.3726 41.7912 94.029 41.8627 93.7966 42.0055C93.565 42.1484 93.4487 42.3454 93.4487 42.5964C93.4487 42.7662 93.4912 42.9111 93.5768 43.0308C93.6651 43.1505 93.8067 43.2644 94.0002 43.3725C94.1927 43.4806 94.5643 43.637 95.1131 43.8417C95.8673 44.1159 96.3754 44.3919 96.6384 44.67C96.9048 44.948 97.0388 45.2975 97.0388 45.7184ZM105.47 39.7408C104.539 39.7408 103.802 40.0516 103.261 40.6733C102.723 41.2911 102.454 42.1387 102.454 43.2161C102.454 44.3244 102.714 45.1816 103.232 45.7879C103.754 46.3903 104.496 46.6915 105.458 46.6915C106.05 46.6915 106.725 46.5853 107.482 46.3729V47.236C106.895 47.456 106.17 47.5661 105.308 47.5661C104.059 47.5661 103.095 47.1877 102.415 46.4309C101.738 45.6739 101.399 44.5985 101.399 43.2046C101.399 42.3318 101.562 41.5673 101.886 40.9108C102.215 40.2543 102.687 39.7485 103.301 39.3932C103.92 39.0379 104.647 38.8603 105.482 38.8603C106.371 38.8603 107.148 39.0225 107.813 39.3469L107.396 40.1926C106.754 39.8913 106.112 39.7408 105.47 39.7408ZM110.15 47.4503H109.188V38.4375H110.15V47.4503ZM113.096 41.1019V45.2203C113.096 45.7377 113.214 46.1239 113.449 46.3787C113.685 46.6335 114.055 46.761 114.557 46.761C115.222 46.761 115.708 46.5795 116.013 46.2165C116.322 45.8536 116.477 45.2608 116.477 44.4383V41.1019H117.439V47.4503H116.645L116.506 46.5988H116.453C116.257 46.9116 115.982 47.151 115.63 47.3171C115.283 47.4831 114.884 47.5661 114.435 47.5661C113.662 47.5661 113.082 47.3827 112.696 47.0159C112.314 46.649 112.122 46.0621 112.122 45.255V41.1019H113.096ZM122.444 40.9977C123.279 40.9977 123.927 41.2834 124.387 41.8549C124.851 42.4226 125.082 43.2277 125.082 44.2703C125.082 45.3129 124.849 46.1239 124.381 46.7031C123.917 47.2784 123.271 47.5661 122.444 47.5661C122.03 47.5661 121.652 47.4909 121.307 47.3402C120.967 47.1857 120.681 46.9502 120.449 46.6335H120.379L120.177 47.4503H119.487V38.4375H120.449V40.627C120.449 41.1173 120.434 41.5576 120.403 41.9476H120.449C120.898 41.3143 121.563 40.9977 122.444 40.9977ZM122.305 41.8028C121.648 41.8028 121.174 41.992 120.884 42.3705C120.594 42.745 120.449 43.3783 120.449 44.2703C120.449 45.1623 120.598 45.8014 120.896 46.1876C121.194 46.5698 121.67 46.761 122.328 46.761C122.919 46.761 123.36 46.5467 123.65 46.118C123.941 45.6855 124.085 45.0658 124.085 44.2587C124.085 43.4323 123.941 42.8164 123.65 42.411C123.36 42.0055 122.912 41.8028 122.305 41.8028Z" fill="#76808D"/>
<path d="M51.0789 36.6074H38.77" stroke="#76808D" stroke-linecap="round" stroke-linejoin="round"/>
<path d="M36.0796 47.4912H36.093C36.093 47.5315 36.0796 47.5786 36.0796 47.6188C36.0796 48.3982 36.7118 49.0297 37.492 49.0297H52.3098C53.09 49.0297 53.7222 48.3982 53.7222 47.6188C53.7222 47.5718 53.7155 47.5315 53.7088 47.4912H53.7222" stroke="#76808D" stroke-linecap="round" stroke-linejoin="round"/>
<path d="M38.6624 35.1497H37.492C36.7118 35.1497 36.0796 35.7812 36.0796 36.5605C36.0796 36.5739 36.0796 36.5941 36.0796 36.6076V47.4912H36.093C36.1603 46.7724 36.7589 46.2081 37.492 46.2081H38.6624V35.1497Z" stroke="#76808D" stroke-linecap="round" stroke-linejoin="round"/>
<path d="M53.7225 36.5605C53.7225 35.7812 53.0903 35.1497 52.31 35.1497H51.1396V46.2147H52.31C53.0432 46.2147 53.6418 46.7791 53.709 47.4979H53.7225V36.6076C53.7225 36.6076 53.7225 36.5739 53.7225 36.5605Z" stroke="#76808D" stroke-linecap="round" stroke-linejoin="round"/>
<path d="M44.5277 45.7917L42.6309 46.7793L42.6779 44.6226C42.6779 44.4816 42.725 44.3405 42.799 44.2196L46.0814 39.0733C46.189 38.8987 46.3841 38.7979 46.5859 38.7979H47.319C47.5544 38.7979 47.7697 38.9389 47.8706 39.154L48.153 39.7922C48.2338 39.9736 48.2203 40.1886 48.1127 40.3565L44.8236 45.5229C44.7496 45.6371 44.6487 45.7312 44.5209 45.7984L44.5277 45.7917Z" stroke="#76808D" stroke-linecap="round" stroke-linejoin="round"/>
<path d="M47.5409 39.0261L44.1846 44.2866" stroke="#76808D" stroke-linecap="round" stroke-linejoin="round"/>
<path d="M44.6554 45.5498L44.3796 44.8511C44.2519 44.5353 43.9425 44.3405 43.6061 44.3539L42.8394 44.3943" stroke="#76808D" stroke-linecap="round" stroke-linejoin="round"/>
</g>
<defs>
<filter id="filter0_dd_3229_8863" x="-3.03369" y="-3.05347" width="308.502" height="117.87" filterUnits="userSpaceOnUse" color-interpolation-filters="sRGB">
<feFlood flood-opacity="0" result="BackgroundImageFix"/>
<feColorMatrix in="SourceAlpha" type="matrix" values="0 0 0 0 0 0 0 0 0 0 0 0 0 0 0 0 0 0 127 0" result="hardAlpha"/>
<feOffset/>
<feGaussianBlur stdDeviation="10"/>
<feComposite in2="hardAlpha" operator="out"/>
<feColorMatrix type="matrix" values="0 0 0 0 0.788235 0 0 0 0 0.294118 0 0 0 0 0.196078 0 0 0 0.18 0"/>
<feBlend mode="normal" in2="BackgroundImageFix" result="effect1_dropShadow_3229_8863"/>
<feColorMatrix in="SourceAlpha" type="matrix" values="0 0 0 0 0 0 0 0 0 0 0 0 0 0 0 0 0 0 127 0" result="hardAlpha"/>
<feOffset dx="3" dy="5"/>
<feGaussianBlur stdDeviation="10"/>
<feComposite in2="hardAlpha" operator="out"/>
<feColorMatrix type="matrix" values="0 0 0 0 0.105882 0 0 0 0 0.168627 0 0 0 0 0.254902 0 0 0 0.12 0"/>
<feBlend mode="normal" in2="effect1_dropShadow_3229_8863" result="effect2_dropShadow_3229_8863"/>
<feBlend mode="normal" in="SourceGraphic" in2="effect2_dropShadow_3229_8863" result="shape"/>
</filter>
</defs>
</svg>
