<svg width="297" height="123" viewBox="0 0 297 123" fill="none" xmlns="http://www.w3.org/2000/svg">
<g filter="url(#filter0_dd_3804_2535)">
<rect x="20" y="20" width="254" height="78" rx="20" fill="white" shape-rendering="crispEdges"/>
<mask id="mask0_3804_2535" style="mask-type:luminance" maskUnits="userSpaceOnUse" x="42" y="38" width="200" height="43">
<path d="M241.955 38.1055H42V80.2012H241.955V38.1055Z" fill="white"/>
</mask>
<g mask="url(#mask0_3804_2535)">
<path d="M123.177 46.7422C121.674 46.7422 120.441 47.9825 120.441 49.516C120.441 51.0495 121.674 52.2222 123.177 52.2222C124.681 52.2222 125.913 50.9818 125.913 49.516C125.913 48.0502 124.711 46.7422 123.177 46.7422Z" fill="#76808D"/>
<path d="M125.417 53.9287H120.975V70.3761H125.417V53.9287Z" fill="#76808D"/>
<path d="M172.49 53.4927C170.723 53.4927 168.754 54.2594 167.746 55.9658V53.9287H163.439V70.3761H167.882V60.9121C167.882 59.0027 169.017 57.4993 170.956 57.4993C173.091 57.4993 173.993 58.9351 173.993 60.7767V70.3761H178.436V60.01C178.436 56.4018 176.564 53.4927 172.49 53.4927Z" fill="#76808D"/>
<path d="M188.742 53.4253C183.833 53.4253 180.127 57.0711 180.127 62.1526C180.127 67.2342 183.833 70.88 188.742 70.88C193.65 70.88 197.356 67.2041 197.356 62.1526C197.356 57.1012 193.65 53.4253 188.742 53.4253ZM188.742 66.8358C186.569 66.8358 184.57 65.2271 184.57 62.1526C184.57 59.0782 186.569 57.4695 188.742 57.4695C190.914 57.4695 192.914 59.0406 192.914 62.1526C192.914 65.2647 190.914 66.8358 188.742 66.8358Z" fill="#76808D"/>
<path d="M217.923 53.4551C215.75 53.4551 214.014 54.1918 212.713 56.1988C211.879 54.4248 210.075 53.4551 207.842 53.4551C206.038 53.4551 203.933 54.3271 203.031 55.9282V53.9211H198.792V70.3686H203.234V60.7392C203.234 58.935 204.369 57.4993 206.309 57.4993C208.248 57.4993 209.21 58.8373 209.21 60.6114V70.3761H213.615V60.7467C213.615 58.9726 214.75 57.5068 216.652 57.5068C218.689 57.5068 219.554 58.8448 219.554 60.6189V70.3836H223.861V59.7168C223.861 55.3043 220.959 53.4626 217.923 53.4626V53.4551Z" fill="#76808D"/>
<path d="M237.257 53.9287L233.22 63.5581L228.845 53.9287H223.869L230.845 68.3014L226.973 76.8634H231.679L241.992 53.9287H237.249H237.257Z" fill="#76808D"/>
<path d="M135.716 66.828C133.543 66.828 131.544 65.2268 131.544 62.1448C131.544 59.0628 133.551 57.4617 135.716 57.4617C137.061 57.4617 138.249 58.0706 138.956 59.2733L143.143 57.8977C141.797 55.1539 139.099 53.4175 135.708 53.4175C130.8 53.4175 127.094 57.0633 127.094 62.1448C127.094 67.2264 130.8 70.8722 135.708 70.8722C139.79 70.8722 142.865 68.3314 143.789 64.5729H139.181C138.52 66.0688 137.212 66.828 135.708 66.828H135.716Z" fill="#76808D"/>
<path d="M153.14 53.4253C148.232 53.4253 144.526 57.0711 144.526 62.1526C144.526 67.2342 148.232 70.88 153.14 70.88C158.049 70.88 161.755 67.2041 161.755 62.1526C161.755 57.1012 158.049 53.4253 153.14 53.4253ZM153.14 66.8358C150.968 66.8358 148.968 65.2271 148.968 62.1526C148.968 59.0782 150.968 57.4695 153.14 57.4695C155.313 57.4695 157.312 59.0406 157.312 62.1526C157.312 65.2647 155.313 66.8358 153.14 66.8358Z" fill="#76808D"/>
<path d="M115.119 55.9658C116.029 54.7556 116.216 53.598 116.216 52.2073C116.216 50.8166 114.954 46.6597 110.353 46.6597H99.8066V70.3536H111.203C116.878 70.3536 119.276 66.4146 119.276 62.2652C119.276 60.3633 118.487 57.8902 115.119 55.9658ZM104.264 50.2979H109.639C110.872 50.2979 111.879 51.3052 111.879 52.538C111.879 53.7708 110.879 54.7781 109.639 54.7781H104.264V50.2979ZM110.676 66.7153H104.264V58.4164H110.676C112.969 58.4164 114.818 60.2731 114.818 62.5659C114.818 65.1066 113.172 66.7153 110.676 66.7153Z" fill="#76808D"/>
<path d="M68.7985 54.3497C69.5051 52.9139 70.0012 51.1173 70.0012 48.8772C70.0012 45.8028 68.7759 43.0214 66.5433 41.0444C64.3483 39.09 61.3716 38.0526 57.9438 38.0526L46.1269 38C43.8492 38 42 39.8492 42 42.1344V77.2017H62.672C70.3921 77.2017 74.9024 70.752 74.9024 64.9413C74.9024 60.5212 72.4518 56.477 68.806 54.3497H68.7985ZM57.9438 41.082C63.4914 41.082 66.9793 44.4121 66.9793 48.8772C66.9793 54.8684 62.4691 57.6046 57.9137 57.6046C53.629 57.6046 50.0959 54.0716 50.0959 48.5916V45.5697C50.0959 43.5852 48.9082 41.8037 47.074 41.2173V41.082H57.9438Z" fill="#76808D"/>
</g>
</g>
<defs>
<filter id="filter0_dd_3804_2535" x="0" y="0" width="297" height="123" filterUnits="userSpaceOnUse" color-interpolation-filters="sRGB">
<feFlood flood-opacity="0" result="BackgroundImageFix"/>
<feColorMatrix in="SourceAlpha" type="matrix" values="0 0 0 0 0 0 0 0 0 0 0 0 0 0 0 0 0 0 127 0" result="hardAlpha"/>
<feOffset/>
<feGaussianBlur stdDeviation="10"/>
<feComposite in2="hardAlpha" operator="out"/>
<feColorMatrix type="matrix" values="0 0 0 0 0.788235 0 0 0 0 0.294118 0 0 0 0 0.196078 0 0 0 0.18 0"/>
<feBlend mode="normal" in2="BackgroundImageFix" result="effect1_dropShadow_3804_2535"/>
<feColorMatrix in="SourceAlpha" type="matrix" values="0 0 0 0 0 0 0 0 0 0 0 0 0 0 0 0 0 0 127 0" result="hardAlpha"/>
<feOffset dx="3" dy="5"/>
<feGaussianBlur stdDeviation="10"/>
<feComposite in2="hardAlpha" operator="out"/>
<feColorMatrix type="matrix" values="0 0 0 0 0.105882 0 0 0 0 0.168627 0 0 0 0 0.254902 0 0 0 0.12 0"/>
<feBlend mode="normal" in2="effect1_dropShadow_3804_2535" result="effect2_dropShadow_3804_2535"/>
<feBlend mode="normal" in="SourceGraphic" in2="effect2_dropShadow_3804_2535" result="shape"/>
</filter>
</defs>
</svg>
