<svg width="44" height="50" viewBox="0 0 44 50" fill="none" xmlns="http://www.w3.org/2000/svg">
<path fill-rule="evenodd" clip-rule="evenodd" d="M38.625 0C41.4583 0 43.75 2.29167 43.75 5.14583V50L38.375 45.25L35.3542 42.4583L32.1458 39.4792L33.4792 44.1042H5.125C2.29167 44.1042 0 41.8125 0 38.9583V5.14583C0 2.29167 2.29167 0 5.125 0H38.625ZM28.9792 32.6458C34.5 32.4792 36.625 28.8542 36.625 28.8542C36.625 20.8125 33.0208 14.2708 33.0208 14.2708C29.4167 11.5625 26 11.6458 26 11.6458L25.6458 12.0417C29.8958 13.3333 31.875 15.2083 31.875 15.2083C29.2708 13.7917 26.7292 13.0833 24.3542 12.8125C22.5625 12.6042 20.8333 12.6667 19.3125 12.8542L18.8958 12.8958C18.0208 12.9792 15.8958 13.2917 13.2292 14.4792C12.3125 14.8958 11.75 15.2083 11.75 15.2083C11.75 15.2083 13.8333 13.2292 18.3333 11.9375L18.0833 11.6458C18.0833 11.6458 14.6667 11.5625 11.0625 14.2708C11.0625 14.2708 7.45833 20.7917 7.45833 28.8542C7.45833 28.8542 9.5625 32.4792 15.0833 32.6458C15.0833 32.6458 16 31.5208 16.75 30.5625C13.5833 29.6042 12.375 27.6042 12.375 27.6042L13.0833 28.0208L13.1875 28.1042L13.2917 28.1667H13.3125L13.4167 28.2292C14.0417 28.5833 14.6667 28.8542 15.25 29.0833C16.2708 29.4792 17.5 29.875 18.9167 30.1667C20.7917 30.5208 23 30.6458 25.3958 30.1875C26.5625 29.9792 27.7708 29.6458 29.0208 29.1042C29.8958 28.7708 30.875 28.3125 31.8958 27.625C31.8958 27.625 30.6458 29.6667 27.375 30.6042C28.125 31.5625 29.0208 32.625 29.0208 32.625L28.9792 32.6458ZM17.3542 20.9792C15.9375 20.9792 14.8125 22.2292 14.8125 23.75C14.8125 25.2708 15.9583 26.5208 17.3542 26.5208C18.75 26.5208 19.8958 25.2708 19.8958 23.75C19.9167 22.2292 18.7708 20.9792 17.3542 20.9792ZM26.4792 20.9792C25.0625 20.9792 23.9375 22.2292 23.9375 23.75C23.9375 25.2708 25.0833 26.5208 26.4792 26.5208C27.875 26.5208 29.0208 25.2708 29.0208 23.75C29.0208 22.2292 27.8958 20.9792 26.4792 20.9792Z" fill="#C94B32"/>
</svg>
