<svg width="75" height="75" viewBox="0 0 75 75" fill="none" xmlns="http://www.w3.org/2000/svg">
<rect width="75" height="75" rx="20" fill="#B12F15"/>
<path d="M37.3346 21.001C38.3196 20.9963 39.2958 21.187 40.2066 21.5621C41.1174 21.9372 41.9448 22.4893 42.6408 23.1863L46.5042 27.0497L51.4908 32.0354C52.8959 33.4437 53.6849 35.3518 53.6849 37.3411C53.6849 39.3305 52.8959 41.2386 51.4908 42.6469L46.8389 47.2988L42.6417 51.496C41.2306 52.8956 39.3235 53.6809 37.336 53.6809C35.3484 53.6809 33.4414 52.8956 32.0302 51.496L27.3689 46.8347L23.1802 42.6469C21.7806 41.2357 20.9953 39.3287 20.9953 37.3411C20.9953 35.3536 21.7806 33.4465 23.1802 32.0354L27.9455 27.271L32.0302 23.1863C32.7261 22.4893 33.5533 21.9373 34.4639 21.5622C35.3746 21.1871 36.3506 20.9964 37.3355 21.001H37.3346ZM37.3355 18.001C35.9575 17.9976 34.5925 18.2663 33.3186 18.7917C32.0448 19.3171 30.8872 20.0889 29.9124 21.0628L25.8277 25.1485L21.0624 29.9128C19.101 31.8856 18 34.5545 18 37.3365C18 40.1184 19.101 42.7872 21.0624 44.76L25.2511 48.9488L29.9124 53.61C31.8853 55.5712 34.5541 56.672 37.336 56.672C40.1178 56.672 42.7866 55.5712 44.7596 53.61L48.9577 49.4119L53.6105 44.7591C55.5717 42.7862 56.6725 40.1174 56.6725 37.3355C56.6725 34.5537 55.5717 31.8849 53.6105 29.9119L48.6239 24.9263L44.7596 21.0619C43.7848 20.088 42.6272 19.3161 41.3533 18.7907C40.0795 18.2653 38.7144 17.9966 37.3364 18" fill="white"/>
<path d="M37.3344 28.4105C37.8997 28.4078 38.4599 28.5173 38.9826 28.7326C39.5053 28.948 39.9801 29.2648 40.3794 29.6649L45.0107 34.2961C45.8165 35.1045 46.2689 36.1993 46.2689 37.3407C46.2689 38.482 45.8165 39.5768 45.0107 40.3852L40.3794 45.0164C39.5696 45.8211 38.4742 46.2728 37.3326 46.2728C36.1909 46.2728 35.0956 45.8211 34.2857 45.0164L29.6544 40.3852C28.8487 39.5768 28.3962 38.482 28.3962 37.3407C28.3962 36.1993 28.8487 35.1045 29.6544 34.2961L34.2857 29.6649C34.6851 29.2649 35.1599 28.948 35.6825 28.7327C36.2052 28.5174 36.7654 28.4079 37.3307 28.4105H37.3344ZM37.3307 27.2227C36.6097 27.2209 35.8954 27.3615 35.2289 27.6364C34.5623 27.9114 33.9567 28.3153 33.4466 28.8249L28.8154 33.4561C27.7893 34.4886 27.2134 35.885 27.2134 37.3407C27.2134 38.7963 27.7893 40.1927 28.8154 41.2252L33.4466 45.8564C34.4791 46.8825 35.8755 47.4584 37.3312 47.4584C38.7868 47.4584 40.1832 46.8825 41.2157 45.8564L45.846 41.2252C46.8721 40.1927 47.448 38.7963 47.448 37.3407C47.448 35.885 46.8721 34.4886 45.846 33.4561L41.2157 28.8249C40.7055 28.3152 40.0997 27.9113 39.433 27.6363C38.7663 27.3614 38.0518 27.2208 37.3307 27.2227Z" fill="white"/>
<path d="M38.3173 25.2232C39.2487 25.2212 40.1674 25.4395 40.9984 25.8604C41.8293 26.2812 42.549 26.8927 43.0985 27.6447L48.3485 34.8869C49.2569 36.1522 49.6286 37.7252 49.3828 39.2633C49.137 40.8015 48.2935 42.1802 47.036 43.0994L39.7938 48.3494C38.7958 49.0749 37.5927 49.464 36.3588 49.4603C35.4274 49.4623 34.5087 49.244 33.6777 48.8231C32.8468 48.4023 32.1271 47.7908 31.5776 47.0388L26.3276 39.7966C25.4143 38.5329 25.0397 36.9586 25.2857 35.419C25.5318 33.8793 26.3785 32.5002 27.6401 31.5841L34.8823 26.3341C35.8803 25.6086 37.0834 25.2195 38.3173 25.2232ZM38.3173 23.6004C36.7415 23.5979 35.2055 24.0948 33.9298 25.0197L26.6876 30.2697C25.0826 31.4409 24.0059 33.1993 23.6924 35.1612C23.3789 37.1232 23.8541 39.1295 25.0142 40.7425L30.2642 47.9847C31.435 49.5919 33.1945 50.6702 35.158 50.9838C37.1216 51.2973 39.1294 50.8207 40.7426 49.6582L47.9848 44.4081C49.5912 43.2367 50.6688 41.4772 50.9822 39.5139C51.2955 37.5506 50.8192 35.543 49.6573 33.9297L44.4073 26.6875C43.7087 25.7266 42.7921 24.9451 41.7327 24.4073C40.6734 23.8695 39.5016 23.5906 38.3135 23.5938" fill="white"/>
<path d="M38.7504 32.6911C39.2655 32.6778 39.7716 32.8275 40.1966 33.1189C40.6215 33.4103 40.9435 33.8286 41.1166 34.3139L41.1222 34.3327L41.1279 34.3514L42.175 37.8726C42.3117 38.4251 42.2245 39.0093 41.9322 39.4977C41.64 39.9861 41.1665 40.3391 40.6151 40.4798L37.4772 41.2814C37.3045 41.3258 37.1268 41.3481 36.9485 41.348C36.4686 41.3491 36.002 41.1901 35.6226 40.8962C35.2433 40.6023 34.9728 40.1901 34.8541 39.7252L34.8494 39.7064L34.8438 39.6886L33.7957 36.1702C33.6618 35.6178 33.7503 35.035 34.0421 34.5473C34.3339 34.0596 34.8057 33.7061 35.3557 33.563H35.3669H35.3782L38.2122 32.7651C38.3884 32.7221 38.5691 32.7007 38.7504 32.7014V32.6911ZM38.7504 31.7208C38.484 31.7189 38.2185 31.7504 37.9601 31.8145L35.1138 32.6161C34.3088 32.8241 33.619 33.3424 33.1949 34.0575C32.7708 34.7726 32.6471 35.6266 32.8507 36.4327L33.9044 39.9745C34.0793 40.6494 34.4731 41.2473 35.0241 41.6745C35.5751 42.1017 36.2522 42.334 36.9494 42.3352C37.2095 42.3363 37.4687 42.3048 37.721 42.2414L40.8588 41.4399C41.6636 41.2316 42.3533 40.7133 42.7774 39.9982C43.2014 39.2832 43.3253 38.4294 43.1219 37.6233L42.0682 34.0823C41.8411 33.3854 41.3963 32.7799 40.7991 32.3549C40.202 31.9299 39.4841 31.708 38.7513 31.7217" fill="white"/>
</svg>
