<svg width="233" height="125" viewBox="0 0 233 125" fill="none" xmlns="http://www.w3.org/2000/svg">
<g filter="url(#filter0_dd_3804_2552)">
<rect x="20" y="20" width="189.661" height="80" rx="20" fill="white" shape-rendering="crispEdges"/>
<g clip-path="url(#clip0_3804_2552)">
<path d="M88.884 64.077C88.884 64.3099 88.6802 64.5138 88.4472 64.5138H79.9731C80.1915 66.6105 81.7641 68.5179 83.9772 68.5179C85.375 68.5761 86.7 67.9063 87.4571 66.7269C87.5882 66.5668 87.7629 66.4503 87.9959 66.5522C88.1269 66.6105 88.2143 66.7269 88.2288 66.858C88.2579 67.0036 88.2143 67.0764 88.1706 67.1492C87.3261 68.6343 85.6225 69.3624 83.9627 69.3624C81.1088 69.3624 79.085 66.8143 79.085 64.0915C79.085 61.3688 81.1088 58.8207 83.9627 58.8207C86.8165 58.8207 88.8695 61.3542 88.8695 64.077M87.9813 63.6693C87.792 61.5726 86.1904 59.6652 83.9772 59.6652C81.7641 59.6652 80.1915 61.5726 79.9731 63.6693H87.9813ZM99.1636 59.0246C99.4111 59.0246 99.5858 59.243 99.5858 59.4468C99.5858 59.6943 99.3965 59.869 99.1636 59.869H96.8922V68.7799C96.8922 68.9983 96.7029 69.2022 96.4699 69.2022C96.237 69.2022 96.0477 68.9838 96.0477 68.7799V59.869H93.8636C93.6161 59.869 93.4414 59.6798 93.4414 59.4468C93.4414 59.2284 93.6307 59.0246 93.8636 59.0246H96.0477V55.7631C96.0477 55.5592 96.1933 55.3699 96.3971 55.3408C96.6738 55.2971 96.9067 55.4864 96.9067 55.7631V59.0391H99.1636V59.0246ZM112.996 63.3344V68.7363C112.996 68.9838 112.777 69.1585 112.574 69.1585C112.326 69.1585 112.151 68.9692 112.151 68.7363V63.3635C112.151 61.5435 111.118 59.7234 109.094 59.7234C106.487 59.7234 105.366 61.9948 105.512 64.3245C105.512 64.3827 105.541 64.6594 105.541 64.6885V68.7363C105.541 68.9401 105.395 69.1294 105.192 69.1585C104.915 69.2022 104.682 69.0129 104.682 68.7363V51.0018C104.682 50.7834 104.871 50.5796 105.104 50.5796C105.337 50.5796 105.526 50.798 105.526 51.0018V61.0339C106.24 59.738 107.55 58.8498 109.065 58.8498C111.554 58.8498 112.981 61.0339 112.981 63.3344M128.168 64.077C128.168 64.3099 127.964 64.5138 127.731 64.5138H119.257C119.475 66.6105 121.048 68.5179 123.261 68.5179C124.659 68.5761 125.984 67.9063 126.741 66.7269C126.872 66.5668 127.047 66.4503 127.279 66.5522C127.411 66.6105 127.498 66.7269 127.512 66.858C127.542 67.0036 127.498 67.0764 127.454 67.1492C126.61 68.6343 124.906 69.3624 123.246 69.3624C120.392 69.3624 118.369 66.8143 118.369 64.0915C118.369 61.3688 120.392 58.8207 123.246 58.8207C126.1 58.8207 128.153 61.3542 128.168 64.077ZM127.25 63.6693C127.061 61.5726 125.459 59.6652 123.246 59.6652C121.033 59.6652 119.461 61.5726 119.242 63.6693H127.25ZM138.578 59.4177C138.578 59.6943 138.433 59.8399 138.185 59.869C135.695 60.2331 134.574 62.2569 134.574 64.6303V68.678C134.574 68.8819 134.429 69.0711 134.225 69.1003C133.948 69.1439 133.715 68.9547 133.715 68.678V59.4468C133.715 59.243 133.861 59.0537 134.065 59.0246C134.341 58.9809 134.574 59.1702 134.574 59.4468V61.3251C135.273 60.1457 136.671 59.0246 138.112 59.0246C138.331 59.0246 138.564 59.1702 138.564 59.4177M152.469 64.077C152.469 64.3099 152.265 64.5138 152.032 64.5138H143.558C143.776 66.6105 145.349 68.5179 147.562 68.5179C148.96 68.5761 150.285 67.9063 151.042 66.7269C151.173 66.5668 151.348 66.4503 151.581 66.5522C151.712 66.6105 151.799 66.7269 151.814 66.858C151.843 67.0036 151.799 67.0764 151.755 67.1492C150.911 68.6343 149.207 69.3624 147.547 69.3624C144.694 69.3624 142.67 66.8143 142.67 64.0915C142.67 61.3688 144.694 58.8207 147.547 58.8207C150.401 58.8207 152.454 61.3542 152.454 64.077M151.566 63.6693C151.377 61.5726 149.775 59.6652 147.562 59.6652C145.349 59.6652 143.776 61.5726 143.558 63.6693H151.566ZM166.141 59.5342V68.7945C166.141 69.042 165.922 69.2167 165.719 69.2167C165.471 69.2167 165.296 69.0275 165.296 68.7945V67.0181C164.597 68.4159 163.36 69.406 161.773 69.406C159.254 69.406 157.856 67.222 157.856 64.9215V59.4905C157.856 59.2721 158.045 59.0682 158.278 59.0682C158.511 59.0682 158.701 59.2866 158.701 59.4905V64.9215C158.701 66.7415 159.734 68.5615 161.758 68.5615C164.612 68.5615 165.282 65.897 165.282 62.9558V59.4759C165.282 59.2284 165.529 58.9809 165.821 59.0682C166.01 59.1265 166.126 59.3012 166.126 59.4905M187.559 63.2616V68.6926C187.559 68.9401 187.341 69.1148 187.137 69.1148C186.889 69.1148 186.715 68.9255 186.715 68.6926V63.2616C186.715 61.4416 185.681 59.6506 183.657 59.6506C181.109 59.6506 180.133 62.3734 180.133 64.4992V68.678C180.133 68.9255 179.915 69.1003 179.711 69.1003C179.464 69.1003 179.289 68.911 179.289 68.678V63.247C179.289 61.427 178.255 59.6361 176.231 59.6361C173.654 59.6361 172.591 61.66 172.693 64.3682C172.693 64.4264 172.722 64.5575 172.693 64.5866V68.6635C172.693 68.8673 172.547 69.0566 172.344 69.0857C172.067 69.1294 171.834 68.9401 171.834 68.6635V59.3886C171.834 59.1847 171.98 58.9954 172.183 58.9663C172.46 58.9226 172.693 59.1119 172.693 59.3886V60.9319C173.406 59.6361 174.717 58.777 176.231 58.777C177.964 58.777 179.289 59.869 179.842 61.4707C180.541 59.8982 181.895 58.777 183.657 58.777C186.147 58.777 187.574 60.9028 187.574 63.2179" fill="#76808D"/>
<g opacity="0.6">
<mask id="mask0_3804_2552" style="mask-type:luminance" maskUnits="userSpaceOnUse" x="42" y="53" width="31" height="17">
<path d="M72.6931 53.4917H42V69.5371H72.6931V53.4917Z" fill="white"/>
</mask>
<g mask="url(#mask0_3804_2552)">
<path d="M57.3465 53.4917L42 60.4661L57.3465 69.5371L72.6931 60.4661L57.3465 53.4917Z" fill="#76808D"/>
</g>
</g>
<g opacity="0.45">
<mask id="mask1_3804_2552" style="mask-type:luminance" maskUnits="userSpaceOnUse" x="42" y="35" width="16" height="35">
<path d="M57.3465 35H42V69.537H57.3465V35Z" fill="white"/>
</mask>
<g mask="url(#mask1_3804_2552)">
<path d="M42 60.4659L57.3465 69.537V35L42 60.4659Z" fill="#76808D"/>
</g>
</g>
<g opacity="0.8">
<mask id="mask2_3804_2552" style="mask-type:luminance" maskUnits="userSpaceOnUse" x="57" y="35" width="16" height="35">
<path d="M72.6932 35H57.3467V69.537H72.6932V35Z" fill="white"/>
</mask>
<g mask="url(#mask2_3804_2552)">
<path d="M57.3467 35V69.537L72.6932 60.4659L57.3467 35Z" fill="#76808D"/>
</g>
</g>
<g opacity="0.45">
<mask id="mask3_3804_2552" style="mask-type:luminance" maskUnits="userSpaceOnUse" x="42" y="63" width="16" height="22">
<path d="M57.3465 63.3779H42V84.9999H57.3465V63.3779Z" fill="white"/>
</mask>
<g mask="url(#mask3_3804_2552)">
<path d="M42 63.3779L57.3465 84.9999V72.449L42 63.3779Z" fill="#76808D"/>
</g>
</g>
<g opacity="0.8">
<mask id="mask4_3804_2552" style="mask-type:luminance" maskUnits="userSpaceOnUse" x="57" y="63" width="16" height="22">
<path d="M72.7078 63.3779H57.3467V84.9999H72.7078V63.3779Z" fill="white"/>
</mask>
<g mask="url(#mask4_3804_2552)">
<path d="M57.3467 72.4343V84.9853L72.7078 63.3633L57.3467 72.4343Z" fill="#76808D"/>
</g>
</g>
</g>
</g>
<defs>
<filter id="filter0_dd_3804_2552" x="0" y="0" width="232.661" height="125" filterUnits="userSpaceOnUse" color-interpolation-filters="sRGB">
<feFlood flood-opacity="0" result="BackgroundImageFix"/>
<feColorMatrix in="SourceAlpha" type="matrix" values="0 0 0 0 0 0 0 0 0 0 0 0 0 0 0 0 0 0 127 0" result="hardAlpha"/>
<feOffset/>
<feGaussianBlur stdDeviation="10"/>
<feComposite in2="hardAlpha" operator="out"/>
<feColorMatrix type="matrix" values="0 0 0 0 0.788235 0 0 0 0 0.294118 0 0 0 0 0.196078 0 0 0 0.18 0"/>
<feBlend mode="normal" in2="BackgroundImageFix" result="effect1_dropShadow_3804_2552"/>
<feColorMatrix in="SourceAlpha" type="matrix" values="0 0 0 0 0 0 0 0 0 0 0 0 0 0 0 0 0 0 127 0" result="hardAlpha"/>
<feOffset dx="3" dy="5"/>
<feGaussianBlur stdDeviation="10"/>
<feComposite in2="hardAlpha" operator="out"/>
<feColorMatrix type="matrix" values="0 0 0 0 0.105882 0 0 0 0 0.168627 0 0 0 0 0.254902 0 0 0 0.12 0"/>
<feBlend mode="normal" in2="effect1_dropShadow_3804_2552" result="effect2_dropShadow_3804_2552"/>
<feBlend mode="normal" in="SourceGraphic" in2="effect2_dropShadow_3804_2552" result="shape"/>
</filter>
<clipPath id="clip0_3804_2552">
<rect width="145.661" height="50" fill="white" transform="translate(42 35)"/>
</clipPath>
</defs>
</svg>
