<svg width="1280" height="847" viewBox="0 0 1280 847" fill="none" xmlns="http://www.w3.org/2000/svg">
<g clip-path="url(#clip0_3221_8396)">
<path fill-rule="evenodd" clip-rule="evenodd" d="M56.6303 189.217C18.8996 145.915 -99.8187 107.055 -131.996 183.66C-164.174 260.264 -29.9236 374.641 48.8509 393.513C127.625 412.386 174.222 319.124 174.222 319.124L56.6171 189.217H56.6303Z" fill="#375F84"/>
<path fill-rule="evenodd" clip-rule="evenodd" d="M1237.17 324.681C1237.17 324.681 1175.05 120.371 1277.12 178.116C1379.19 235.861 1449.1 367.983 1338.15 392.413C1227.19 416.842 1067.42 304.694 1067.42 304.694L1237.17 324.681Z" fill="#375F84"/>
<path fill-rule="evenodd" clip-rule="evenodd" d="M1148.26 287.851C1153.75 285.065 1178.29 269.323 1196.26 256.723C1214.23 244.124 1227.45 223.169 1237.93 238.62C1248.43 254.071 1247.23 280.065 1246.07 293.315C1244.17 314.667 1219.56 348.116 1219.56 348.116L1130.58 324.442C1130.58 324.442 1142.77 290.636 1148.26 287.851Z" fill="#245161"/>
<path fill-rule="evenodd" clip-rule="evenodd" d="M482.243 230.994C477.327 226.405 459.356 225.132 470.687 243.116C478.426 255.397 466.327 281.988 472.794 283.076C486.431 285.384 488.472 264.654 488.472 264.654C488.472 264.654 488.234 236.591 482.243 230.994Z" fill="#213B34"/>
<path fill-rule="evenodd" clip-rule="evenodd" d="M501.248 210.716C483.065 203.541 465.108 190.251 457.037 207.042C448.966 223.832 466.3 235.344 475.339 238.235C484.377 241.127 488.353 222.784 500.095 232.241C511.837 241.697 503.898 254.641 527.873 274.562C551.847 294.482 581.851 309.124 581.851 309.124C584.475 299.946 568.347 218.076 532.75 212.36C511.93 209.018 514.024 215.742 501.235 210.702L501.248 210.716Z" fill="#234D5C"/>
<path fill-rule="evenodd" clip-rule="evenodd" d="M508.802 223.156C495.218 233.845 496.848 243.633 478.837 264.601C454.028 293.487 484.311 300.052 484.311 300.052C484.311 300.052 473.934 279.469 498.451 271.737C514.381 266.71 539.31 199.151 508.789 223.169L508.802 223.156Z" fill="#234D5C"/>
<path fill-rule="evenodd" clip-rule="evenodd" d="M539.403 269.018C519.457 268.182 480.839 266.206 477.154 280.185C471.416 301.975 485.716 334.203 490.46 342.864C495.191 351.537 447.124 486.126 488.697 493.526C538.223 502.333 566.186 463.009 566.597 432.943C566.862 413.805 595.859 294.535 573.383 285.543C560.554 280.41 550.469 277.519 550.469 277.519C550.469 277.519 559.348 269.853 539.403 269.005V269.018Z" fill="#234D5C"/>
<path fill-rule="evenodd" clip-rule="evenodd" d="M512.778 256.551C521.644 240.238 537.826 249.363 556.446 268.633L522.307 269.058C522.307 269.058 511.493 258.938 512.778 256.551Z" fill="#213B34"/>
<path fill-rule="evenodd" clip-rule="evenodd" d="M540.45 356.312C537.72 334.031 521.008 293.739 521.008 293.739C521.008 293.739 547.209 309.031 564.411 312.493C581.613 315.954 541.656 366.246 540.436 356.312H540.45Z" fill="#213B34"/>
<path fill-rule="evenodd" clip-rule="evenodd" d="M387.804 244.495C387.804 244.495 378.912 233.5 381.575 225.225C384.239 216.949 373.491 231.219 376.394 237.068C379.296 242.917 387.804 244.482 387.804 244.482V244.495Z" fill="#213B34"/>
<path fill-rule="evenodd" clip-rule="evenodd" d="M921.758 516.935C915.861 546.232 879.495 417.996 900.249 406.219C921.096 394.376 933.5 412.24 947.19 442.214C960.894 472.187 967.109 482.041 967.109 482.041C967.109 482.041 930.624 472.916 921.758 516.935Z" fill="#375F84"/>
<path fill-rule="evenodd" clip-rule="evenodd" d="M1095.69 299.734C1095.69 299.734 1103.6 169.257 1087.72 168.474C1000.43 164.177 914.787 168.023 832.156 186.697L834.277 328.911L1095.69 299.72V299.734Z" fill="#FF8200"/>
<path fill-rule="evenodd" clip-rule="evenodd" d="M966.261 499.309C972.994 474.813 980.839 413.672 991.481 399.946C1004.3 383.421 1017.6 390.291 1017.6 390.291C1017.6 390.291 1023.33 334.495 1032.41 329.402C1045.63 321.975 1069.77 256.206 1091.12 243.103C1113.33 229.469 1123.09 190.212 1136.27 189.416C1148.86 188.647 1145.15 287.93 1144.21 298.779C1137.59 374.601 1190.19 351.829 1172.94 464.667C1168.63 492.863 1125.69 449.123 1121.66 472.558C1113.05 522.611 1062.98 457.386 1022.85 477.704C982.721 498.022 958.522 527.492 966.261 499.335V499.309Z" fill="#202D3F"/>
<path fill-rule="evenodd" clip-rule="evenodd" d="M1144.18 309.614C1137.12 303.752 1140.44 270.026 1148.39 275.861C1156.35 281.697 1158.51 294.15 1162.35 301.882C1166.18 309.601 1156.56 319.866 1144.19 309.614H1144.18Z" fill="#41897C"/>
<path fill-rule="evenodd" clip-rule="evenodd" d="M865.606 301.644C1005.95 291.975 1129.83 286.259 1131.67 286.723C1129.97 300.012 1122.44 330.503 1115.86 346.325C940.935 309.243 967.321 324.972 870.046 348.805C870.046 348.805 725.259 311.312 865.606 301.644Z" fill="#202B3D"/>
<path fill-rule="evenodd" clip-rule="evenodd" d="M1008.01 302.652C1003.37 314.097 1075.44 324.787 1106.99 353.739C1113.13 359.362 1110.86 365.092 1113.72 372.293C1119.45 386.736 1517.83 386.551 1518.99 366.869C1455.3 364.76 1166.67 311.67 1143.87 304.349C1134.31 301.272 1018.66 276.352 1007.99 302.638L1008.01 302.652Z" fill="#E64460"/>
<path fill-rule="evenodd" clip-rule="evenodd" d="M1112.76 143.262C1112.76 143.262 1106.86 114.283 1120.32 113.58C1150.65 112.002 1141.12 150.875 1141.12 150.875C1141.12 150.875 1154.49 143.448 1154.86 162.785C1155.23 182.121 1145.35 194.442 1143.93 215.424C1142.51 236.405 1120.51 224.044 1120.51 224.044L1112.76 143.262Z" fill="#234D5C"/>
<path fill-rule="evenodd" clip-rule="evenodd" d="M1098.5 147.785C1097.81 143.196 1134.52 159.761 1136.43 178.859C1138.34 197.957 1140.31 208.832 1140.31 208.832C1140.31 208.832 1101.04 164.562 1098.51 147.785H1098.5Z" fill="#41897C"/>
<path fill-rule="evenodd" clip-rule="evenodd" d="M79.014 142.466C83.5994 132.44 77.2779 109.562 96.8125 103.236C116.347 96.9095 129.944 115.809 128.54 134.84C127.135 153.872 99.9136 148.169 85.309 157.44C81.3067 159.986 88.2777 144.787 88.1451 142.626C87.9331 139.31 78.0863 144.509 79.0272 142.466H79.014Z" fill="#6C2447"/>
<path fill-rule="evenodd" clip-rule="evenodd" d="M254.706 369.588C254.706 369.588 194.79 429.455 140.388 414.574C104.38 404.733 74.19 351.564 104.857 333.182C120.522 323.792 181.1 341.179 204.876 341.471C275.221 342.293 254.706 369.601 254.706 369.601V369.588Z" fill="#41897C"/>
<path fill-rule="evenodd" clip-rule="evenodd" d="M222.568 191.936C228.347 195.755 263.162 193.527 264.805 213.58C266.462 233.633 249.392 254.469 218.288 268.501C187.183 282.532 64.0122 354.787 64.0122 354.787C64.0122 354.787 101.783 185.517 140.772 186.604C179.762 187.692 192.193 194.747 200.927 182.745C209.673 170.729 214.153 159.854 214.153 159.854C214.153 159.854 216.777 188.116 222.555 191.936H222.568Z" fill="#CC2F22"/>
<path fill-rule="evenodd" clip-rule="evenodd" d="M160.214 234.721C160.214 234.721 157.55 206.113 156.755 191.458C155.933 176.18 138.784 167.4 120.045 189.549C114.134 196.538 151.825 210.716 151.825 210.716L160.214 234.721Z" fill="#E64460"/>
<path fill-rule="evenodd" clip-rule="evenodd" d="M228.015 313.421C228.015 313.421 269.443 256.936 264.805 213.567C262.857 195.331 230.387 213.355 230.387 213.355L180.067 306.803L179.669 321.471L228.015 313.421Z" fill="#CC2F22"/>
<path fill-rule="evenodd" clip-rule="evenodd" d="M182.359 244.668C204.77 244.668 222.118 248.275 222.118 270.331C222.118 283.819 215.319 295.755 204.902 302.997C198.289 307.599 190.218 310.291 181.511 310.291C159.101 310.291 140.905 292.386 140.905 270.318C140.905 248.249 159.949 244.655 182.346 244.655L182.359 244.668Z" fill="#21395C"/>
<path fill-rule="evenodd" clip-rule="evenodd" d="M149.665 230.119C135.776 219.31 97.9658 134.854 76.7216 165.344C55.4774 195.848 74.7999 220.636 89.2985 230.45C103.797 240.264 163.554 240.928 149.652 230.119H149.665Z" fill="#6C2447"/>
<path d="M181.524 272.479C200.328 272.479 215.571 267.07 215.571 260.397C215.571 253.724 200.328 248.315 181.524 248.315C162.721 248.315 147.478 253.724 147.478 260.397C147.478 267.07 162.721 272.479 181.524 272.479Z" fill="#202D40"/>
<path fill-rule="evenodd" clip-rule="evenodd" d="M80.6443 147.771C80.6443 147.771 71.7385 132.122 80.3793 125.252C89.0068 118.368 94.0561 129.244 94.0561 129.244C94.0561 129.244 101.809 111.18 119.859 120.411C137.91 129.642 128.262 170.636 106.911 177.705C85.5611 184.761 82.2877 154.084 80.6443 147.785V147.771Z" fill="#E64460"/>
<path d="M180.65 247.028H66.3843V380.954H180.65V247.028Z" fill="#41897C"/>
<path d="M142.124 261.325C163.474 261.325 180.782 254.907 180.782 246.989C180.782 239.071 163.474 232.652 142.124 232.652C120.773 232.652 103.465 239.071 103.465 246.989C103.465 254.907 120.773 261.325 142.124 261.325Z" fill="#234D5C"/>
<path fill-rule="evenodd" clip-rule="evenodd" d="M141.594 186.405C160.903 186.405 175.852 189.35 175.852 207.36C175.852 225.371 160.174 239.999 140.865 239.999C121.555 239.999 105.877 225.371 105.877 207.36C105.877 189.35 122.284 186.405 141.594 186.405Z" fill="#21395C"/>
<path d="M140.878 209.111C157.076 209.111 170.207 204.693 170.207 199.243C170.207 193.794 157.076 189.376 140.878 189.376C124.681 189.376 111.55 193.794 111.55 199.243C111.55 204.693 124.681 209.111 140.878 209.111Z" fill="#202D40"/>
<path fill-rule="evenodd" clip-rule="evenodd" d="M158.451 233.938C119.356 240.238 78.0202 191.1 83.8249 161.153C90.491 126.803 14.1948 226.14 78.3912 250.092C140.388 273.222 164.707 232.93 158.451 233.938Z" fill="#E64460"/>
<path fill-rule="evenodd" clip-rule="evenodd" d="M41.3364 221.352C34.8425 168.262 86.2368 137.573 86.2368 137.573L86.8332 149.469C86.8332 149.469 76.4695 171.259 72.3346 178.633C63.4288 194.548 62.1433 201.604 62.1433 201.604C62.1433 201.604 44.1327 244.23 41.3364 221.339V221.352Z" fill="#E64460"/>
<path fill-rule="evenodd" clip-rule="evenodd" d="M106.779 212.068C106.779 212.068 96.9321 226.392 81.7312 240.928C66.517 255.463 45.8029 234.668 45.8029 234.668C45.8029 234.668 31.7947 208.063 46.9029 180.132C55.822 163.66 67.4315 152.904 67.4315 152.904C67.4315 152.904 77.3445 171.618 89.5636 189.721C101.796 207.824 106.766 212.068 106.766 212.068H106.779Z" fill="#6C2447"/>
<path fill-rule="evenodd" clip-rule="evenodd" d="M107.243 271.763C107.243 271.763 119.276 273.487 111.616 284.933C104.088 296.206 89.3248 288.686 78.0732 302.731C66.8216 316.776 70.0553 298.302 70.0553 298.302L107.243 271.763Z" fill="#376188"/>
<path fill-rule="evenodd" clip-rule="evenodd" d="M55.0797 427.572C71.9372 406.259 109.482 378.739 102.379 348.553C95.2753 318.381 68.2264 308.925 70.1879 281.591C72.1493 254.257 38.8185 331.67 38.8185 331.67C38.8185 331.67 38.2222 448.898 55.0797 427.572Z" fill="#376188"/>
<path fill-rule="evenodd" clip-rule="evenodd" d="M204.107 133.952C211.184 127.122 218.592 113.315 247.987 127.971C277.395 142.626 262.711 170.159 235.436 180.57C207.818 191.114 212.191 201.352 212.191 201.352C212.191 201.352 201.721 136.26 204.107 133.952Z" fill="#CC2F22"/>
<path fill-rule="evenodd" clip-rule="evenodd" d="M213.397 237.479C229.155 222.161 218.288 195.729 231.792 182.904C245.297 170.092 240.181 148.368 216.551 154.854C192.935 161.339 200.529 183.09 200.529 183.09C200.529 183.09 205.777 184.668 198.846 194.058C191.914 203.448 203.511 247.082 213.397 237.466V237.479Z" fill="#FF8200"/>
<path fill-rule="evenodd" clip-rule="evenodd" d="M213.49 129.535C210.827 119.403 167.132 170.198 200.582 183.779C200.582 183.779 205.234 178.116 218.261 175.888C231.289 173.66 243.601 157.135 228.691 153.925C213.782 150.716 217.546 144.973 213.49 129.535Z" fill="#FF8200"/>
<path fill-rule="evenodd" clip-rule="evenodd" d="M220.236 404.269C220.236 404.269 128.619 463.566 73.6069 406.166L98.5222 369.972L99.1981 350.689C99.1981 350.689 104.632 392.439 141.077 406.551C173.241 419.004 220.236 404.269 220.236 404.269Z" fill="#21395C"/>
<path fill-rule="evenodd" clip-rule="evenodd" d="M91.4718 299.986C85.4948 290.012 116.427 286.246 113.485 255.145C110.543 224.058 79.3322 188.978 41.4956 214.708C3.65889 240.45 39.998 277.718 26.3079 281.922C-17.8238 295.477 -26.0273 387.917 42.6618 405.383C43.4172 405.569 36.6981 360.874 53.8604 344.309C65.7481 332.824 110.927 332.466 91.4718 299.986Z" fill="#202D40"/>
<path fill-rule="evenodd" clip-rule="evenodd" d="M1016 187.002C1025.37 196.22 1032.43 202.718 1037.67 208.089C1041.87 212.4 1051.21 219.084 1046.97 219.137C1035.96 219.257 1034.58 226.365 1045.22 232.93C1059.64 241.829 1037.39 280.052 1015.22 289.256C993.058 298.474 1012.34 323.766 1054.31 299.906C1096.28 276.047 1085.34 270.901 1105.51 264.442C1148.09 250.808 1145.46 227.718 1143.13 215.835C1143.13 215.835 1103.56 195.543 1095.24 184.137C1086.91 172.745 1074.75 170.915 1074.75 170.915C1073.36 162.957 1012.13 183.196 1016 187.002Z" fill="#6C2447"/>
<path fill-rule="evenodd" clip-rule="evenodd" d="M285.28 267.227C284.101 262.731 280.324 261.007 275.765 257.784C269.987 253.7 264.142 248.66 264.951 237.612C265.958 223.938 292.212 215.106 298.003 231.472C303.795 247.824 286.871 273.262 285.28 267.227Z" fill="#202D3F"/>
<path fill-rule="evenodd" clip-rule="evenodd" d="M261.956 370.49C175.945 310.105 219.467 302.943 229.115 288.766C244.86 265.649 278.071 264.323 279.343 256.936C283.637 231.922 320.387 259.164 317.485 291.1C312.065 350.821 316.345 396.537 316.345 396.537C316.345 396.537 290.449 390.503 261.956 370.49Z" fill="#202D3F"/>
<path fill-rule="evenodd" clip-rule="evenodd" d="M267.853 441.086C236.47 340.715 265.812 319.508 276.441 296.484C287.07 273.461 341.313 272.453 345.448 304.243C353.029 362.479 428.053 329.601 428.053 329.601C428.053 329.601 409.048 461.524 381.297 469.945C346.058 480.635 273.671 459.694 267.853 441.073V441.086Z" fill="#41897C"/>
<path fill-rule="evenodd" clip-rule="evenodd" d="M91.7636 325.98C91.7636 325.98 114.346 346.697 141.13 362.797C155.748 371.577 171.943 379.628 187.078 383.527C217.466 391.352 270 368.925 270 368.925C270 368.925 205.751 438.951 134.199 408.222C84.6336 386.935 91.7636 325.994 91.7636 325.994V325.98Z" fill="#376188"/>
<path fill-rule="evenodd" clip-rule="evenodd" d="M948.9 145.159C943.387 158.634 930.081 201.445 892.563 221.896C867.236 235.702 868.986 211.392 879.509 194.31C884.571 186.087 891.555 177.931 898.261 173.395C918.909 159.416 925.933 151.087 926.543 135.146C927.205 117.652 958.217 122.374 948.9 145.159Z" fill="#E64460"/>
<path fill-rule="evenodd" clip-rule="evenodd" d="M791.112 338.62C830.473 338.023 854.805 332.32 844.68 314.402C811.203 255.172 897.797 225.742 911.196 209.323C911.858 208.514 894.113 176.923 893.013 177.559C870.245 191.021 841.208 207.374 827.836 219.774C827.836 219.774 794.425 216.604 780.417 256.975C772.731 279.15 788.13 338.66 791.126 338.607L791.112 338.62Z" fill="#6C2447"/>
<path fill-rule="evenodd" clip-rule="evenodd" d="M870.457 96.8698C858.596 105.517 826.802 127.785 816.173 168.673C809.004 196.273 825.543 189.681 839.671 175.358C846.482 168.461 852.725 159.761 855.494 152.214C864.016 129.018 870.43 120.225 885.949 115.623C902.979 110.57 890.495 82.2412 870.457 96.8698Z" fill="#E64460"/>
<path fill-rule="evenodd" clip-rule="evenodd" d="M813.589 207.983C827.332 197.015 834.131 174.933 845.542 158.872C856.966 142.811 883.909 145.145 883.14 168.501C882.371 191.869 879.31 195.092 865.09 203.222C850.684 211.445 831.481 224.164 833.164 241.074C833.8 247.466 737.558 349.747 737.558 349.747C737.558 349.747 778.562 247.426 792.107 235.954C805.651 224.482 799.846 218.952 813.576 207.97L813.589 207.983Z" fill="#E64460"/>
<path fill-rule="evenodd" clip-rule="evenodd" d="M800.098 254.442C809.295 242.108 841.659 202.068 851.148 185.57C858.967 171.976 828.644 139.947 821.448 152.944C814.239 165.968 803.968 176.18 786.408 197.453C761.506 227.612 766.423 299.628 800.098 254.442Z" fill="#6C2447"/>
<path fill-rule="evenodd" clip-rule="evenodd" d="M818.903 197.121C820.587 192.864 843.819 221.458 850.829 228.938C862.426 241.299 846.403 258.991 822.972 274.336C813.616 280.463 777.674 318.951 777.674 318.951C777.674 318.951 757.609 325.888 739.692 347.877C721.774 369.866 786.832 235.53 786.832 235.53C786.832 235.53 812.82 212.493 818.903 197.121Z" fill="#6C2447"/>
<path fill-rule="evenodd" clip-rule="evenodd" d="M824.046 283.129C842.162 269.721 851.121 242.745 866.189 223.129C881.245 203.514 918.193 212.121 917.186 240.676C916.179 269.23 913.29 275.119 892.47 280.45C871.663 285.782 860.411 304.27 871.358 319.27C882.305 334.27 856.131 335.821 813.788 339.906C714.246 349.535 768.132 315.914 785.997 301.909C803.862 287.904 805.929 296.551 824.046 283.142V283.129Z" fill="#41897C"/>
<path fill-rule="evenodd" clip-rule="evenodd" d="M833.137 287.36C863.115 286.034 885.724 263.713 885.724 263.713C885.724 263.713 878.753 250.357 885.817 247.174C892.88 243.991 916.51 247.996 916.948 240.185C917.849 224.177 908.665 211.471 890.495 211.644C872.325 211.816 866.932 219.668 845.21 253.182C823.489 286.71 803.159 288.686 833.137 287.36Z" fill="#245161"/>
<path fill-rule="evenodd" clip-rule="evenodd" d="M853.706 347.015C831.057 337.744 766.145 346.113 766.145 346.113C766.145 346.113 778.271 291.484 822.482 280.291C848.471 273.713 888.918 290.569 911.554 306.896C934.336 323.328 879.655 357.638 853.706 347.015Z" fill="#245161"/>
<path fill-rule="evenodd" clip-rule="evenodd" d="M983.768 267.081C980.176 253.673 962.351 250.384 952.279 266.763C942.207 283.142 932.864 289.853 900.342 293.408C867.819 296.962 878.713 344.906 906.372 333.089C934.03 321.272 958.362 301.471 972.039 290.53C985.729 279.588 986.445 277.108 983.755 267.081H983.768Z" fill="#41897C"/>
<path fill-rule="evenodd" clip-rule="evenodd" d="M751.447 277.002C771.498 275.928 773.433 266.445 780.391 237.957C789.469 200.795 850.18 216.06 849.053 251.021C847.927 285.981 841.751 297.506 818.532 304.044C795.313 310.569 795.022 319.641 807.228 338.01C814.835 349.455 771.339 351.498 758.484 377.784C750.718 393.659 741.216 412.333 738.26 433.394C728.811 500.675 689.331 471.975 675.654 439.044C666.563 417.161 680.293 393.911 680.293 393.911C680.293 393.911 729.884 366.604 713.279 346.219C655.444 275.225 718.447 278.792 751.447 277.028V277.002Z" fill="#213B34"/>
<path fill-rule="evenodd" clip-rule="evenodd" d="M786.5 587.107C802.099 591.179 808.765 593.301 818.877 603.301C828.989 613.3 841.447 627.213 841.447 627.213C841.447 627.213 837.325 633.698 825.556 626.881C813.788 620.064 806.923 609.428 798.322 612.531C789.721 615.635 768.967 627.014 760.128 637.067C751.288 647.12 743.615 651.55 743.018 645.422C742.422 639.295 752.732 626.908 750.002 613.34C747.272 599.773 740.898 592.465 743.88 581.961C746.848 571.457 773.566 583.738 786.5 587.107Z" fill="#CC2F22"/>
<path fill-rule="evenodd" clip-rule="evenodd" d="M653.695 500.158C673.388 535.423 733.224 565.396 742.223 585.29C744.622 590.582 741.454 613.539 764.713 602.81C785.917 593.022 815.657 599.72 815.657 599.72C815.657 599.72 797.076 586.55 790.304 583.606C780.961 579.56 771.763 577.319 759.293 562.425C734.43 532.744 705.062 454.972 682.029 457.054C658.996 459.136 634.014 464.879 653.708 500.144L653.695 500.158Z" fill="#FF8200"/>
<path fill-rule="evenodd" clip-rule="evenodd" d="M701.577 302.479C688.324 291.179 672.712 254.774 644.206 231.697C633.418 222.997 618.893 220.543 605.852 225.211C592.811 229.88 583.137 241.007 580.327 254.575C578.79 261.975 580.632 269.681 585.363 275.596C590.095 281.511 597.198 284.986 604.752 285.105C626.354 285.49 654.755 290.795 675.336 312.293C713.107 351.736 721.589 319.548 701.59 302.479H701.577Z" fill="#CC2F22"/>
<path fill-rule="evenodd" clip-rule="evenodd" d="M742.037 341.869C750.095 332.519 766.926 352.373 746.888 373.261C726.85 394.137 681.79 403.301 665.688 380.344C649.586 357.386 647.267 334.495 663.409 336.723C679.55 338.951 733.993 351.232 742.051 341.882L742.037 341.869Z" fill="#FF8200"/>
<path fill-rule="evenodd" clip-rule="evenodd" d="M656.345 365.065C661.805 355.741 659.698 336.604 664.654 317.094C673.03 284.124 741.348 270.636 747.696 333.513C754.787 403.765 710.469 396.086 685.13 407.054C654.635 420.251 609.96 443.341 612.823 396.935C615.686 350.543 650.885 374.389 656.345 365.065Z" fill="#CC2F22"/>
<path fill-rule="evenodd" clip-rule="evenodd" d="M664.098 374.07C669.783 350.078 699.708 346.975 700.649 371.418C701.603 395.861 682.493 432.916 663.78 450.012C657.67 455.595 609.298 427.16 629.919 414.574C643.463 406.312 657.803 400.595 664.098 374.07Z" fill="#FF8200"/>
<path fill-rule="evenodd" clip-rule="evenodd" d="M692.724 397.161C699.456 439.932 700.45 491.192 629.031 526.829C585.615 548.5 539.482 584.68 509.981 609.72C490.95 625.873 477.711 626.828 476.598 610.993C473.682 569.322 470.978 491.099 489.85 472.213C515.905 446.139 533.743 449.893 565.444 410.039C597.145 370.185 682.599 332.85 692.711 397.174L692.724 397.161Z" fill="#375F84"/>
<path fill-rule="evenodd" clip-rule="evenodd" d="M669.346 470.197C677.033 480.396 677.39 497.094 685.819 502.372C694.248 507.651 695.785 498.646 704.877 501.338C713.968 504.03 715.32 505.37 723.112 498.725C730.918 492.081 734.629 480.304 733.741 472.571C732.853 464.839 734.245 481.524 724.743 483.818C715.24 486.112 708.68 482.439 703.962 484.574C699.244 486.709 699.788 487.757 691.293 484.322C682.797 480.874 661.646 460.025 669.333 470.224L669.346 470.197Z" fill="#CC2F22"/>
<path fill-rule="evenodd" clip-rule="evenodd" d="M675.946 436.139C675.946 436.139 707.275 419.335 687.794 375.887C678.451 355.052 612.333 347.771 575.291 319.071C538.263 290.384 514.342 340.569 591.3 375.582C668.273 410.582 654.211 410.861 654.211 410.861C654.211 410.861 661.368 424.866 675.946 436.139Z" fill="#FF8200"/>
<path fill-rule="evenodd" clip-rule="evenodd" d="M709.29 452.863C727.155 441.404 739.228 422.81 742.435 401.816C745.576 381.1 758.816 360.476 779.927 346.935C815.193 324.309 859.179 329.919 878.091 359.455C897.002 388.991 883.736 431.325 848.471 453.951C827.346 467.505 803.093 470.927 782.975 465.144C762.579 459.296 740.659 462.505 722.795 473.964C714.379 479.349 706.043 484.693 699.788 488.712C696.991 490.502 693.599 491.113 690.365 490.396C687.118 489.68 684.295 487.717 682.506 484.919C680.717 482.121 680.107 478.725 680.823 475.489C681.539 472.24 683.5 469.415 686.296 467.625C692.552 463.606 700.888 458.261 709.303 452.877L709.29 452.863ZM867.396 365.994C882.981 390.33 872.047 425.224 842.984 443.871C813.921 462.518 777.661 457.89 762.076 433.553C746.491 409.216 757.424 374.322 786.487 355.675C815.551 337.028 851.81 341.657 867.396 365.994Z" fill="#FF8200"/>
<path d="M801.9 721.934C815.36 721.934 826.272 711.014 826.272 697.544C826.272 684.074 815.36 673.154 801.9 673.154C788.44 673.154 777.528 684.074 777.528 697.544C777.528 711.014 788.44 721.934 801.9 721.934Z" fill="#FF8200"/>
<path fill-rule="evenodd" clip-rule="evenodd" d="M277.673 241.776C277.673 241.776 266.992 245.729 274.307 250.702C281.623 255.662 282.378 256.604 282.603 267.493C282.789 276.432 296.506 282.426 298.507 271.657C300.216 262.493 303.264 258.713 304.285 251.246C305.252 244.124 298.268 219.522 284.989 223.965C271.71 228.408 277.66 241.776 277.66 241.776H277.673Z" fill="#375F84"/>
<path fill-rule="evenodd" clip-rule="evenodd" d="M274.957 300.649C278.151 286.153 297.579 275.158 301.158 257.002C304.723 238.845 300.839 222.745 317.405 220.516C333.971 218.288 337.894 236.511 338.557 248.434C339.219 260.37 327.584 254.376 322.455 270.384C320.003 278.023 318.731 284.389 318.095 290.171C317.405 296.511 312.648 289.694 304.351 288.766C296.055 287.837 270.636 320.277 274.957 300.649Z" fill="#234D5C"/>
<path fill-rule="evenodd" clip-rule="evenodd" d="M301.966 246.06C301.171 237.36 294.783 229.641 298.07 224.031C304.272 213.474 325.821 208.58 328.869 215.331C332.805 224.018 332.553 226.896 332.553 226.896C332.553 226.896 321.898 225.066 322.508 230.49C323.435 238.594 325.847 238.925 317.803 238.063C308.036 237.015 316.862 254.296 308.924 258.899C300.985 263.501 300.495 260.026 300.495 260.026C300.495 260.026 302.416 251.047 301.966 246.06Z" fill="#213B34"/>
<path d="M1081.79 123.766H1073.77V159.615H1081.79V123.766Z" fill="#202D3F"/>
<path d="M1119.81 122.387H1111.79V158.236H1119.81V122.387Z" fill="#202D3F"/>
<path d="M1096.67 132.228C1110.58 132.228 1121.85 127.127 1121.85 120.835C1121.85 114.543 1110.58 109.443 1096.67 109.443C1082.76 109.443 1071.49 114.543 1071.49 120.835C1071.49 127.127 1082.76 132.228 1096.67 132.228Z" fill="#202D3F"/>
<path d="M1096.83 131.405C1108.52 131.405 1117.99 124.256 1117.99 115.437C1117.99 106.618 1108.52 99.4692 1096.83 99.4692C1085.14 99.4692 1075.66 106.618 1075.66 115.437C1075.66 124.256 1085.14 131.405 1096.83 131.405Z" fill="#202D3F"/>
<path d="M1096.77 132.175C1108.81 132.175 1118.56 128.244 1118.56 123.395C1118.56 118.546 1108.81 114.615 1096.77 114.615C1084.74 114.615 1074.99 118.546 1074.99 123.395C1074.99 128.244 1084.74 132.175 1096.77 132.175Z" fill="#202D3F"/>
<path d="M1096.67 168.183C1110.58 168.183 1121.85 163.082 1121.85 156.79C1121.85 150.498 1110.58 145.397 1096.67 145.397C1082.76 145.397 1071.49 150.498 1071.49 156.79C1071.49 163.082 1082.76 168.183 1096.67 168.183Z" fill="#202D3F"/>
<path fill-rule="evenodd" clip-rule="evenodd" d="M1081.76 137.387C1081.68 142.36 1073.78 131.578 1073.78 131.578L1073.7 125.278C1073.7 125.278 1069.18 116.578 1093.38 114.602C1105.35 113.62 1097.46 128.037 1094.43 131.936C1093.49 133.143 1081.8 130 1081.8 130C1081.8 130 1081.81 133.581 1081.76 137.374V137.387Z" fill="#202D3F"/>
<path d="M1101.53 112.864H1093.51V160.583H1101.53V112.864Z" fill="#202D3F"/>
<path fill-rule="evenodd" clip-rule="evenodd" d="M1144.41 216.365C1144.41 216.365 1068.9 198.713 1059.42 171.273C1059.42 171.273 1066.45 151.366 1078.59 149.827C1090.73 148.289 1109.78 144.071 1121.29 153.395C1141.67 169.907 1141.01 199.814 1144.42 216.365H1144.41Z" fill="#202D3F"/>
<path fill-rule="evenodd" clip-rule="evenodd" d="M878.674 619.216C866.11 637.253 913.833 510.741 973.643 451.073C989.03 435.728 1038.2 466.961 1056.53 452.572C1070.15 441.869 1050.81 383.659 1066.73 375.383C1092.94 361.776 1122.26 352.227 1154.69 349.163C1224.21 342.625 1439.77 338.885 1530.09 369.097C1649.12 408.911 1631.38 487.028 1576.68 490.131C1530.88 492.731 1333 452.572 1200.04 483.115C1119.11 493.725 911.488 572.107 878.661 619.216H878.674Z" fill="#E64460"/>
<path fill-rule="evenodd" clip-rule="evenodd" d="M1062.28 406.935C1068.96 385.98 1080.18 336.392 1096.99 345.357C1126.41 361.033 1124.05 398.368 1107.99 428.248C1091.92 458.115 1078.71 458.434 1049.81 467.253C1020.92 476.073 1029.82 434.574 1029.82 434.574C1029.82 434.574 1045.46 459.707 1062.26 406.948L1062.28 406.935Z" fill="#375F84"/>
<path fill-rule="evenodd" clip-rule="evenodd" d="M1103.08 435.741C1088.35 473.951 976.784 500.993 953.353 505.542C929.922 510.091 915.079 534.879 915.079 534.879C915.079 534.879 901.469 504.07 920.632 473.075C933.209 452.731 969.561 429.163 995.643 437.837C1013.41 443.739 1001.1 431.961 1036.53 438.884C1065.99 444.64 1106.79 426.126 1103.07 435.755L1103.08 435.741Z" fill="#202D3F"/>
<path fill-rule="evenodd" clip-rule="evenodd" d="M1030.19 425.794C1030.19 425.794 1032.63 406.736 1037.16 389.999C1039.58 381.073 1046.61 374.084 1053.64 371.63C1099.01 355.808 1125.06 414.68 1108.28 433.288C1091.5 451.895 1057.4 470.449 1024.44 442.678C991.494 414.906 1026.57 435.357 1030.19 425.794Z" fill="#213859"/>
<path fill-rule="evenodd" clip-rule="evenodd" d="M1181.65 267.691C1176.13 270.609 1150.61 236.392 1179.3 212.227C1186.59 206.087 1204.68 193.673 1217.2 197.731C1229.71 201.79 1256.32 220.53 1269.06 233.142C1297 260.795 1269.39 276.286 1246.16 292.585C1246.16 292.585 1246.52 240.848 1224.68 247.466C1208.52 252.36 1195.41 260.397 1181.65 267.691Z" fill="#202D3F"/>
<path fill-rule="evenodd" clip-rule="evenodd" d="M1015.28 455.357C1024.35 460.25 1009.25 465.012 993.946 457.24C958.257 439.123 930.651 405.37 948.98 391.603C970.502 375.436 1055.69 451.868 1093.71 445.768C1093.71 445.768 1082.09 457.266 1058.79 457.067C1028.28 456.802 992.608 437.757 992.608 437.757C992.608 437.757 1001.1 447.704 1015.28 455.357Z" fill="#375F84"/>
<path fill-rule="evenodd" clip-rule="evenodd" d="M944.195 397.811C944.195 397.811 960.496 421.856 993.628 438.513C1001.58 442.505 1024 450.688 1033.94 453.407C1044.05 456.179 1022.39 473.46 991.786 459.123C961.185 444.773 940.908 420.171 944.195 397.811Z" fill="#213859"/>
<path fill-rule="evenodd" clip-rule="evenodd" d="M1036.85 390.198C1036.05 402.532 1041.11 410.808 1051.78 415.184C1051.78 415.184 1073.38 414.508 1069.01 428.023C1065.37 439.309 1050.18 438.129 1050.18 438.129L1029.36 424.627C1029.36 424.627 1032.9 404.588 1036.83 390.211L1036.85 390.198Z" fill="#375F84"/>
<path fill-rule="evenodd" clip-rule="evenodd" d="M1046.28 219.588C1046.35 219.721 1074.72 210.159 1089.39 237.347C1089.39 237.347 1102.5 213.806 1098.09 203.182C1096.56 199.495 1092.35 197.453 1087.5 193.912C1078.37 187.254 1066.6 178.421 1061.4 166.352C1059.65 162.294 986.564 168.686 987.359 167.586C988.685 165.769 1043.95 215.145 1046.27 219.588H1046.28Z" fill="#E64460"/>
<path fill-rule="evenodd" clip-rule="evenodd" d="M221.27 262.267C215.478 263.699 208.083 300.954 204.266 303.447C201.973 304.946 226.557 299.495 231.779 282.997C237.001 266.498 227.048 260.848 221.256 262.267H221.27Z" fill="#FF8200"/>
<path fill-rule="evenodd" clip-rule="evenodd" d="M211.648 296.63C251.566 296.63 283.69 309.455 283.69 337.89C283.69 366.325 251.274 389.402 211.357 389.402C171.439 389.402 139.023 366.325 139.023 337.89C139.023 309.455 171.731 296.63 211.648 296.63Z" fill="#E64460"/>
<path d="M211.9 358.368C245.393 358.368 272.545 345.94 272.545 330.609C272.545 315.278 245.393 302.851 211.9 302.851C178.407 302.851 151.255 315.278 151.255 330.609C151.255 345.94 178.407 358.368 211.9 358.368Z" fill="#245161"/>
<path fill-rule="evenodd" clip-rule="evenodd" d="M159.432 344.535C167.675 335.039 187.952 328.315 211.635 328.315C235.317 328.315 255.926 335.145 264.05 344.774C253.474 352.903 234.058 358.354 211.9 358.354C189.741 358.354 169.942 352.797 159.432 344.522V344.535Z" fill="#202D40"/>
<path fill-rule="evenodd" clip-rule="evenodd" d="M1046.53 219.482L1028.79 203.156C1028.79 203.156 1054.31 163.222 1069.95 179.044C1073.82 182.957 1082.08 189.283 1084.91 191.445C1094.31 198.58 1098.74 201.166 1098.74 201.166C1098.74 201.166 1104.33 224.933 1090.7 236.206C1077.08 247.493 1090.45 215.211 1046.55 219.482H1046.53Z" fill="white"/>
<path fill-rule="evenodd" clip-rule="evenodd" d="M968.726 168.713C971.032 174.19 978.546 190.795 974.544 204.88C970.542 218.965 979.991 237.32 1000.03 222.944C1020.07 208.567 1020.35 194.761 1020.35 194.761C1011.49 186.856 1001.45 177.493 988.407 167.652C988.407 167.652 968.17 167.387 968.726 168.713Z" fill="#6C2447"/>
<path fill-rule="evenodd" clip-rule="evenodd" d="M1022.17 308.951C1031.89 308.235 1034.63 312.559 1041.39 311.683C1048.15 310.808 1044.93 300.874 1049.57 299.866C1054.19 298.858 1065.23 301.697 1071.01 298.262C1076.8 294.827 1076.25 285.198 1081.06 281.445C1085.87 277.691 1097.66 281.007 1103.79 276.975C1109.91 272.943 1108.03 263.487 1114 261.299C1119.98 259.111 1122.88 262.758 1130.28 259.058C1137.69 255.357 1143.7 241.737 1144.07 233.142C1144.44 224.535 1107.6 247.532 1077.37 266.856C1047.14 286.179 1012.46 309.667 1022.17 308.938V308.951Z" fill="#6C2447"/>
<path fill-rule="evenodd" clip-rule="evenodd" d="M116.586 467.412C122.802 444.229 138.029 439.468 160.506 484.375C170.339 504.03 172.155 506.935 172.155 506.935C172.155 506.935 181.246 481.484 199.469 492.014C227.406 508.142 224.556 540.104 224.556 540.104C224.556 540.104 252.347 500.158 304.921 505.768C328.816 508.314 263.944 601.868 312.913 645.489C356.408 684.215 400.142 638.977 409.287 651.643C422.447 669.879 346.442 694.852 223.801 638.791C192.114 624.308 147.823 576.683 118.441 533.301C89.06 489.919 110.357 490.582 116.56 467.399L116.586 467.412Z" fill="#245161"/>
<path fill-rule="evenodd" clip-rule="evenodd" d="M266.634 389.269C266.634 389.269 232.892 365.291 230.626 334.906C228.36 304.535 266.899 276.193 299.037 314.535C326.205 346.949 276.905 396.922 279.317 415.848C281.742 434.773 266.621 389.256 266.621 389.256L266.634 389.269Z" fill="#202D40"/>
<path fill-rule="evenodd" clip-rule="evenodd" d="M267.429 465.503C267.429 465.503 265.441 477.571 296.784 483.54C328.127 489.494 336.224 497.479 342.121 521.245C348.019 545.012 490.778 555.449 490.778 555.449C490.778 555.449 459.687 407.399 347.409 383.421C282.948 369.654 255.568 448.168 267.429 465.529V465.503Z" fill="#202D40"/>
<path fill-rule="evenodd" clip-rule="evenodd" d="M244.886 376.259C244.886 376.259 224.358 360.662 231.739 347.506C239.121 334.336 241.52 359.482 246.742 336.71C251.963 313.938 272.107 283.766 296.744 312.731C321.381 341.683 310.434 363.434 302.39 377.665C294.345 391.895 321.938 406.033 321.938 406.033L271.657 432.97C271.657 432.97 257.755 387.704 244.886 376.272V376.259Z" fill="#21395C"/>
<path fill-rule="evenodd" clip-rule="evenodd" d="M202.49 424.959C202.49 424.959 174.938 441.219 193.399 472.094C211.86 502.982 274.665 522.226 321.447 436.245L323.515 408.301C323.515 408.301 250.081 455.197 232.362 443.487C214.63 431.776 202.49 424.959 202.49 424.959Z" fill="#21395C"/>
<path fill-rule="evenodd" clip-rule="evenodd" d="M315.683 373.871C275.686 377.2 265.786 412.134 247.365 419.375C231.103 425.768 221.137 416.829 202.318 424.945C202.318 424.945 245.681 495.821 324.999 434.455C373.133 397.227 369.82 397.24 354.288 391.391C344.216 387.598 330.857 372.611 315.696 373.871H315.683Z" fill="#376188"/>
<path fill-rule="evenodd" clip-rule="evenodd" d="M448.091 781.43C448.091 781.43 528.204 681.828 339.776 540.065C206.957 440.145 349.305 642.266 349.305 642.266C349.305 642.266 437.992 724.003 448.091 781.43Z" fill="#21395C"/>
<path fill-rule="evenodd" clip-rule="evenodd" d="M605.587 711.576C605.587 711.576 615.275 658.778 566.557 598.99C547.593 575.728 519.788 551.404 479.129 528.712C333.985 447.744 503.368 628.46 503.368 628.46C503.368 628.46 587.272 656.231 605.587 711.576Z" fill="#21395C"/>
<path fill-rule="evenodd" clip-rule="evenodd" d="M271.63 609.043C271.63 609.043 336.238 629.693 390.64 669.096C390.64 669.096 384.186 572.505 319.592 519.614C254.998 466.723 206.029 576.802 271.63 609.043Z" fill="#202D40"/>
<path fill-rule="evenodd" clip-rule="evenodd" d="M421.705 606.868C421.705 606.868 488.618 617.916 548.163 649.003C548.163 649.003 527.78 554.375 456.188 511.417C384.61 468.473 352.114 584.481 421.705 606.868Z" fill="#202D40"/>
<path fill-rule="evenodd" clip-rule="evenodd" d="M344.123 515.569C344.123 515.569 287.6 489.216 258.072 517.054C228.545 544.892 241.056 593.115 343.129 602.929C445.202 612.743 451.961 613.566 451.961 613.566C451.961 613.566 370.178 522.107 344.109 515.555L344.123 515.569Z" fill="#376188"/>
<path fill-rule="evenodd" clip-rule="evenodd" d="M382.344 432.983C382.344 432.983 382.649 437.81 411.699 451.02C510.777 496.06 399.93 484.097 405.841 507.85C411.752 531.603 481.833 521.696 481.833 521.696C481.833 521.696 533.704 589.561 560.037 570.9C578.922 557.518 606.435 534.136 608.039 504.349C610.08 466.511 550.084 451.458 538.78 429.959C526.375 406.378 478.268 328.593 451.789 322.599C387.499 308.049 370.496 415.622 382.371 432.97L382.344 432.983Z" fill="#CC2F22"/>
<path fill-rule="evenodd" clip-rule="evenodd" d="M562.038 569.375C557.36 572.81 600.657 547.28 589.445 496.975C584.528 474.906 561.442 456.895 541.02 433.42C553.914 427.731 562.635 397.439 567.724 388.142C567.724 388.142 649.175 427.001 668.471 454.826C676.317 466.139 653.006 484.309 628.369 469.654C597.278 451.152 641.131 520.754 641.131 520.754C641.131 520.754 575.291 559.64 562.038 569.375Z" fill="#202D3F"/>
<path fill-rule="evenodd" clip-rule="evenodd" d="M310.143 375.861C310.143 375.861 282.59 392.121 301.051 422.996C319.513 453.871 382.317 473.129 429.1 387.147L431.167 359.203C431.167 359.203 357.734 406.1 340.015 394.389C322.296 382.678 310.143 375.861 310.143 375.861Z" fill="#FF8200"/>
<path fill-rule="evenodd" clip-rule="evenodd" d="M348.947 336.975C348.947 336.975 358.568 336.338 366.308 342.558C374.047 348.779 411.99 322.943 411.99 322.943L395.596 297.585L340.717 282.055L330.817 309.999L348.947 336.975Z" fill="#FF8200"/>
<path fill-rule="evenodd" clip-rule="evenodd" d="M399.798 315.185C359.801 318.514 357.628 349.044 350.352 373.527C344.468 393.314 326.735 366.179 309.904 376.033C309.904 376.033 353.32 446.71 432.638 385.344C511.956 323.978 438.363 311.962 399.798 315.171V315.185Z" fill="#FF8200"/>
<path fill-rule="evenodd" clip-rule="evenodd" d="M346.773 293.169C346.773 293.169 360.357 318.673 399.413 316.153C438.469 313.633 474.159 225.676 393.277 221.127C348.205 218.593 319.791 248.845 316.57 262.241C312.409 279.588 343.169 289.707 346.773 293.156V293.169Z" fill="#CC2F22"/>
<path fill-rule="evenodd" clip-rule="evenodd" d="M312.104 292.652C316.809 343.381 337.324 339.057 355.573 337.758C355.573 337.758 338.636 327.068 340.77 314.164C342.904 301.259 352.22 289.893 344.043 275.264C335.867 260.636 324.96 270.424 323.727 278.129C323.727 278.129 325.384 261.312 319.963 259.495C314.543 257.678 311.561 286.803 312.104 292.638V292.652Z" fill="#FF8200"/>
<path fill-rule="evenodd" clip-rule="evenodd" d="M255.74 723.274C255.74 723.274 356.991 744.825 441.942 601.895C526.879 458.964 341.632 623.354 341.632 623.354C341.632 623.354 311.548 706.496 255.74 723.274Z" fill="#FF8200"/>
<path fill-rule="evenodd" clip-rule="evenodd" d="M365.486 542.266C365.486 542.266 357.826 599.03 325.105 657.717C325.105 657.717 414.946 649.839 459.859 579.441C504.773 509.043 389.792 473.288 365.486 542.266Z" fill="#CC2F22"/>
<path fill-rule="evenodd" clip-rule="evenodd" d="M546.029 548.473C510.684 520.356 405.629 449.468 371.013 486.232C336.41 522.982 351.067 586.643 470.7 599.6C590.346 612.558 606.356 695.29 606.356 695.29C606.356 695.29 622.352 609.202 546.016 548.486L546.029 548.473Z" fill="#FF8200"/>
<path fill-rule="evenodd" clip-rule="evenodd" d="M107.07 543.897C77.1192 505.264 30.0056 431.033 24.8237 328.54C22.69 286.352 66.3182 297.187 74.7734 353.712C83.2287 410.237 86.3829 416.232 86.3829 416.232C86.3829 416.232 90.743 394.296 113.988 405.45C137.234 416.603 119.488 443.009 140.295 509.919C161.102 576.815 220.62 637.982 220.62 637.982C220.62 637.982 156.596 607.783 107.07 543.897Z" fill="#41897C"/>
<path fill-rule="evenodd" clip-rule="evenodd" d="M541.271 316.949C541.271 316.949 523.711 367.36 571.116 403.765C630.475 449.349 654.436 446.126 669.982 471.046C677.443 483.009 698.104 489.839 713.968 488.791C725.988 487.996 735.252 482.691 733.94 471.683C730.892 446.166 683.844 457.731 656.729 402.678C644.205 377.267 617.448 356.617 592.838 341.948C565.762 325.821 541.298 316.935 541.298 316.935L541.271 316.949Z" fill="#FF8200"/>
<path fill-rule="evenodd" clip-rule="evenodd" d="M1183.92 217.838C1171.44 225.384 1182.33 260.172 1200.37 266.63C1218.41 273.089 1225.46 254.973 1224.74 246.06C1224.74 246.06 1237.2 231.021 1229.28 227.108C1221.34 223.182 1215.77 229.84 1215.77 229.84C1215.77 229.84 1192.76 212.493 1183.92 217.838Z" fill="#41897C"/>
<path fill-rule="evenodd" clip-rule="evenodd" d="M1164.67 382.943C1148.78 382.943 1136.48 385.37 1136.48 400.184C1136.48 414.999 1149.37 427.041 1165.26 427.041C1181.15 427.041 1194.05 415.012 1194.05 400.184C1194.05 385.357 1180.56 382.943 1164.67 382.943Z" fill="#21395C"/>
<path d="M1167.27 411.55H1159.95V454.322H1167.27V411.55Z" fill="#213859"/>
<path d="M1165.26 401.617C1178.59 401.617 1189.4 397.983 1189.4 393.5C1189.4 389.017 1178.59 385.383 1165.26 385.383C1151.94 385.383 1141.13 389.017 1141.13 393.5C1141.13 397.983 1151.94 401.617 1165.26 401.617Z" fill="#202D40"/>
<path d="M1164.03 468.487C1176.61 468.487 1186.81 462.828 1186.81 455.847C1186.81 448.867 1176.61 443.208 1164.03 443.208C1151.45 443.208 1141.25 448.867 1141.25 455.847C1141.25 462.828 1151.45 468.487 1164.03 468.487Z" fill="#213859"/>
<path d="M1223.38 385.384C1239.58 385.384 1252.71 379.06 1252.71 371.259C1252.71 363.458 1239.58 357.134 1223.38 357.134C1207.18 357.134 1194.05 363.458 1194.05 371.259C1194.05 379.06 1207.18 385.384 1223.38 385.384Z" fill="#213859"/>
<path fill-rule="evenodd" clip-rule="evenodd" d="M1196 314.84C1182.64 308.911 1163.69 269.946 1178.21 275.768C1192.74 281.591 1204.19 295.596 1214.56 304.018C1224.95 312.439 1219.36 325.211 1196 314.84Z" fill="#41897C"/>
</g>
<defs>
<clipPath id="clip0_3221_8396">
<rect width="1814" height="847" fill="white" transform="translate(-195)"/>
</clipPath>
</defs>
</svg>
