<svg width="201" height="135" viewBox="0 0 201 135" fill="none" xmlns="http://www.w3.org/2000/svg">
<g filter="url(#filter0_dd_3229_8879)">
<rect x="20" y="20" width="157.038" height="90" rx="20" fill="white" shape-rendering="crispEdges"/>
<g clip-path="url(#clip0_3229_8879)">
<path d="M63.65 40L42 52.5V77.5L63.65 90L85.3 77.5V52.5L63.65 40ZM62.15 86.5625C61.8875 86.675 61.65 86.8125 61.425 86.9875L45.725 77.9125C45.9125 76.275 45.0125 74.7125 43.5 74.05V55.9375C43.7625 55.825 44 55.6875 44.225 55.5125L59.925 64.575C59.7375 66.2125 60.65 67.775 62.15 68.4375V86.5625ZM61.4125 61.975L45.7125 52.9125C45.75 52.6375 45.75 52.35 45.7125 52.075L61.4125 43.0125C62.7375 43.9875 64.5375 43.9875 65.8625 43.0125L81.5625 52.075C81.525 52.35 81.5375 52.6375 81.5625 52.9125L65.8625 61.975C64.5375 61 62.7375 61 61.4125 61.975ZM83.8 73.9625C82.2875 74.625 81.3875 76.1875 81.575 77.825L65.875 86.8875C65.65 86.725 65.4 86.575 65.15 86.4625V68.4375C66.6375 67.775 67.5375 66.2125 67.3625 64.575L83.075 55.4125C83.3 55.575 83.55 55.725 83.8 55.8375V73.9625Z" fill="#76808D"/>
<path d="M95.875 52.4248H92.9375V77.3748H95.875V52.4248Z" fill="#76808D"/>
<path d="M108.712 64.3873C107.587 64.3873 104.375 64.3498 104.375 64.3498V55.0498H109.537C112.612 55.0498 114.837 56.2498 114.837 59.1873C114.837 61.6873 114.387 64.3873 108.725 64.3873H108.712ZM104.375 77.3748V66.7123C105.637 66.8123 107.412 66.9498 108.437 66.9498C115.825 66.9498 117.837 63.7748 117.837 59.1248C117.837 54.4748 114.212 52.4248 109.462 52.4248H101.4V77.3748H104.375Z" fill="#76808D"/>
<path d="M134.238 63.3998H123.95V54.9873H134.575L134.812 52.4248H121V77.3748H123.938V65.7873H134.225V63.3998H134.238Z" fill="#76808D"/>
<path d="M138.362 73.3123C140.587 74.4123 143.45 75.2248 146.637 75.2248C150.187 75.2248 152.075 73.6498 152.075 70.2748C152.075 68.2623 151.25 66.8873 148.075 66.0998L143.15 64.8748C139.7 64.0248 137.55 62.1748 137.55 58.8623C137.55 54.0123 141.175 51.9248 146.637 51.9248C149.675 51.9248 152.412 52.6748 154.125 53.7373L153.275 56.0623C151.937 55.3498 149.312 54.4873 146.612 54.4873C142.65 54.4873 140.562 55.8248 140.562 58.6873C140.562 60.6373 141.862 61.6998 144.25 62.2748L148.937 63.3998C152.662 64.2873 155.05 66.0998 155.05 70.1623C155.05 75.3623 151.562 77.7498 146.475 77.7498C142.137 77.7498 139.025 76.6248 137.525 75.6998L138.375 73.3123H138.362Z" fill="#76808D"/>
</g>
</g>
<defs>
<filter id="filter0_dd_3229_8879" x="0" y="0" width="200.038" height="135" filterUnits="userSpaceOnUse" color-interpolation-filters="sRGB">
<feFlood flood-opacity="0" result="BackgroundImageFix"/>
<feColorMatrix in="SourceAlpha" type="matrix" values="0 0 0 0 0 0 0 0 0 0 0 0 0 0 0 0 0 0 127 0" result="hardAlpha"/>
<feOffset/>
<feGaussianBlur stdDeviation="10"/>
<feComposite in2="hardAlpha" operator="out"/>
<feColorMatrix type="matrix" values="0 0 0 0 0.788235 0 0 0 0 0.294118 0 0 0 0 0.196078 0 0 0 0.18 0"/>
<feBlend mode="normal" in2="BackgroundImageFix" result="effect1_dropShadow_3229_8879"/>
<feColorMatrix in="SourceAlpha" type="matrix" values="0 0 0 0 0 0 0 0 0 0 0 0 0 0 0 0 0 0 127 0" result="hardAlpha"/>
<feOffset dx="3" dy="5"/>
<feGaussianBlur stdDeviation="10"/>
<feComposite in2="hardAlpha" operator="out"/>
<feColorMatrix type="matrix" values="0 0 0 0 0.105882 0 0 0 0 0.168627 0 0 0 0 0.254902 0 0 0 0.12 0"/>
<feBlend mode="normal" in2="effect1_dropShadow_3229_8879" result="effect2_dropShadow_3229_8879"/>
<feBlend mode="normal" in="SourceGraphic" in2="effect2_dropShadow_3229_8879" result="shape"/>
</filter>
<clipPath id="clip0_3229_8879">
<rect width="113.038" height="50" fill="white" transform="translate(42 40)"/>
</clipPath>
</defs>
</svg>
