<svg width="559" height="738" viewBox="0 0 559 738" fill="none" xmlns="http://www.w3.org/2000/svg">
<g clip-path="url(#clip0_3221_7991)">
<path fill-rule="evenodd" clip-rule="evenodd" d="M25.7042 411.42C68.2117 436.455 238.818 450.73 220.015 417.479C201.213 384.228 189.724 392.84 151.869 388.681C114.019 384.514 -3.3862 364.963 -3.3862 364.963C-3.3862 364.963 -16.8119 386.38 25.6956 411.415L25.7042 411.42Z" fill="#234E5C"/>
<path fill-rule="evenodd" clip-rule="evenodd" d="M-65.2377 149.251C-66.3798 207.535 101.819 444.617 122.606 479.071C143.393 513.524 85.4102 281.977 74.6571 187.452C63.899 92.936 53.3941 79.9856 59.7745 60.1158C66.1636 40.251 -64.1767 94.5091 -65.2377 149.251Z" fill="#CC2F22"/>
<path fill-rule="evenodd" clip-rule="evenodd" d="M185.463 551.768C168.605 524.833 216.129 604.04 233.479 633.925C243.819 651.744 237.437 663.371 233.243 664.657C229.049 665.944 141.316 532.978 124.69 495.153C102.497 444.662 194.184 565.709 185.463 551.768Z" fill="#CC2F22"/>
<path fill-rule="evenodd" clip-rule="evenodd" d="M261.223 619.646C266.025 624.851 283.85 653.452 288.18 674.547C292.505 695.65 286.84 712.539 282.486 713.964C278.131 715.389 249.665 636.945 202.265 588.067C163.557 548.138 249.991 607.477 261.223 619.646Z" fill="#CC2F22"/>
<path fill-rule="evenodd" clip-rule="evenodd" d="M79.3458 272.696C69.3492 212.328 90.9538 140.621 98.6505 179.357C134.072 357.73 154.626 424.753 204.097 440.356C251.809 455.407 281.251 466.246 306.813 494.783C332.374 523.321 349.179 540.159 376.51 556.741C403.832 573.319 397.777 591.864 367.642 583.626C337.498 575.384 296.733 524.791 285.339 536.159C273.955 547.532 316.795 628.055 330.29 664.063C343.785 700.071 333.575 727.441 328.385 719.126C319.521 704.952 306.685 663.217 273.556 633.27C253.035 614.728 159.872 557.349 132.009 509.164C104.146 460.978 87.9495 382.096 76.2344 236.858C74.8244 219.387 83.7336 299.215 79.3421 272.682L79.3458 272.696Z" fill="#FF8200"/>
<path fill-rule="evenodd" clip-rule="evenodd" d="M192.795 394.842C170.1 369.62 75.1526 142.959 96.061 79.1042C116.978 15.2548 -66.5584 98.3185 -66.5584 98.3185C-99.633 150.562 -77.9583 324.147 8.89781 343.684C8.89781 343.684 215.498 420.068 192.803 394.847L192.795 394.842Z" fill="#41897C"/>
<path fill-rule="evenodd" clip-rule="evenodd" d="M11.6954 400.582C52.2976 433.384 146.905 397.167 188.718 405.132C230.531 413.097 219.605 427.298 219.605 427.298C219.605 427.298 248.496 405.727 213.429 380.18C194.013 366.027 100.971 338.963 43.2417 337.818C31.7061 337.583 27.242 328.59 27.242 328.59C27.242 328.59 -37.6999 360.688 11.6904 400.59L11.6954 400.582Z" fill="#41897C"/>
</g>
<defs>
<clipPath id="clip0_3221_7991">
<rect width="656.18" height="472.55" fill="white" transform="translate(-9.91162) rotate(29.9739)"/>
</clipPath>
</defs>
</svg>
