<svg width="50" height="50" viewBox="0 0 50 50" fill="none" xmlns="http://www.w3.org/2000/svg">
<g clip-path="url(#clip0_131_24083)">
<path d="M40.625 0H9.375C4.19688 0 0 4.19688 0 9.375V40.625C0 45.8031 4.19688 50 9.375 50H40.625C45.8031 50 50 45.8031 50 40.625V9.375C50 4.19688 45.8031 0 40.625 0ZM18.75 37.1094H12.5V15.2344H18.75V37.1094ZM15.8187 13.8938C14.2 13.8938 12.8906 12.5812 12.8906 10.9625C12.8906 9.34375 14.2031 8.03125 15.8187 8.03125C17.4375 8.03438 18.75 9.34687 18.75 10.9625C18.75 12.5812 17.4375 13.8938 15.8187 13.8938ZM40.625 37.1094H34.375V23.5844C34.375 22 33.9219 20.8906 31.975 20.8906C28.7469 20.8906 28.125 23.5844 28.125 23.5844V37.1094H21.875V15.2344H28.125V17.325C29.0187 16.6406 31.25 15.2375 34.375 15.2375C36.4031 15.2375 40.625 16.45 40.625 23.775V37.1094Z" fill="#C94B32"/>
</g>
<defs>
<clipPath id="clip0_131_24083">
<rect width="50" height="50" fill="white"/>
</clipPath>
</defs>
</svg>
