<svg width="1790" height="662" viewBox="0 0 1790 662" fill="none" xmlns="http://www.w3.org/2000/svg">
<path d="M885.961 316.84C869.651 310.29 849.731 304.83 826.201 300.45H825.701C802.841 296.42 785.691 292.72 774.261 289.35C762.831 286 753.841 281.46 747.281 275.74C740.721 270.03 737.451 262.13 737.451 252.04C737.451 237.25 743.001 225.99 754.091 218.26C765.191 210.53 779.811 206.66 797.961 206.66C817.801 206.66 833.841 211.7 846.121 221.79C857.141 230.85 863.891 242.36 866.371 256.3C866.861 259.08 869.211 261.13 872.031 261.16L927.831 261.58C931.251 261.61 933.991 258.67 933.651 255.26C931.781 236.61 925.631 219.65 915.211 204.39C903.611 187.42 887.641 174.22 867.301 164.8C846.961 155.39 823.851 150.68 797.961 150.68C773.421 150.68 751.321 155.22 731.651 164.3C711.991 173.38 696.691 185.98 685.761 202.12C674.831 218.26 669.371 236.41 669.371 256.58C669.371 278.77 674.241 296.59 683.991 310.03C693.741 323.48 706.511 333.65 722.311 340.54C738.111 347.43 757.101 352.89 779.291 356.93L781.811 357.43C805.331 361.8 822.911 365.67 834.511 369.03C846.111 372.4 855.261 377.1 861.991 383.15C868.711 389.2 872.071 397.44 872.071 407.86C872.071 422.66 866.021 434.25 853.921 442.65C841.821 451.06 826.181 455.26 807.021 455.26C784.151 455.26 765.671 449.46 751.551 437.86C738.701 427.31 731.141 413.76 728.871 397.22C728.481 394.36 726.101 392.19 723.221 392.15L667.491 391.31C664.101 391.26 661.361 394.12 661.621 397.5C663.201 417.84 669.561 436.17 680.701 452.49C692.971 470.48 709.861 484.6 731.381 494.85C752.891 505.11 777.601 510.23 805.511 510.23C831.391 510.23 854.591 505.53 875.101 496.11C895.601 486.7 911.661 473.67 923.261 457.03C934.861 440.39 940.661 421.65 940.661 400.8C940.661 378.61 935.611 360.71 925.531 347.09C915.451 333.47 902.251 323.39 885.951 316.83L885.961 316.84Z" fill="#76808D"/>
<path d="M1228.63 452.75H1219.92C1214.88 452.75 1210.92 451.41 1208.07 448.71C1205.21 446.03 1203.78 441.65 1203.78 435.6V339.28C1203.78 308.69 1194.03 285.41 1174.54 269.44C1155.04 253.48 1132.08 245.34 1096.11 245.34C1062.15 245.34 1035.62 252.72 1014.78 267.17C995.781 280.35 984.331 298.4 980.411 321.35C979.801 324.92 982.501 328.19 986.111 328.19H1037.36C1039.93 328.19 1042.23 326.5 1042.91 324.02C1045.25 315.53 1050.41 308.6 1058.39 303.23C1067.63 297.01 1078.61 293.9 1093.07 293.9C1120.34 293.9 1139.73 310.71 1139.73 335.75V343.58C1139.73 346.78 1137.14 349.37 1133.94 349.37H1087.52C1049.87 349.37 1021.29 356.77 1001.8 371.56C982.301 386.36 972.551 407.37 972.551 434.59C972.551 458.13 981.461 476.62 999.281 490.06C1012.65 500.14 1028.63 505.96 1045.08 508.51C1057.65 510.46 1070.56 511.17 1083.16 509.15C1096.36 507.04 1107.08 501.6 1117.81 493.84C1127.45 486.88 1135.49 477.96 1142.83 467.08C1146.41 460.93 1155.8 463.4 1155.8 470.51V479.06C1155.79 494.6 1168.38 507.2 1183.92 507.2H1228.63C1231.83 507.2 1234.42 504.61 1234.42 501.41V458.53C1234.42 455.33 1231.83 452.74 1228.63 452.74V452.75ZM1139.74 400.81C1139.74 413.25 1137.13 424.09 1131.92 433.33C1121 452.71 1101.46 462.83 1079.47 462.83C1066.69 462.83 1056.44 459.81 1048.71 453.76C1040.97 447.71 1037.11 439.64 1037.11 429.55C1037.11 418.13 1041.4 409.3 1049.97 403.08C1058.54 396.87 1070.72 393.75 1086.53 393.75H1133.95C1137.15 393.75 1139.74 396.34 1139.74 399.54V400.81Z" fill="#76808D"/>
<path d="M1415.46 154.37H1348.77C1313.59 154.37 1285.07 182.89 1285.07 218.07V246.06C1285.07 249.26 1282.48 251.85 1279.28 251.85H1241.2C1238 251.85 1235.41 254.44 1235.41 257.64V301.02C1235.41 304.22 1238 306.81 1241.2 306.81H1279.28C1282.48 306.81 1285.07 309.4 1285.07 312.6V501.42C1285.07 504.62 1287.66 507.21 1290.86 507.21H1342.82C1346.02 507.21 1348.61 504.62 1348.61 501.42V312.6C1348.61 309.4 1351.2 306.81 1354.4 306.81H1414.95C1418.15 306.81 1420.74 304.22 1420.74 301.02V257.64C1420.74 254.44 1418.15 251.85 1414.95 251.85H1354.4C1351.2 251.85 1348.61 249.26 1348.61 246.06V220.91C1348.61 214.51 1353.8 209.33 1360.19 209.33H1415.45C1418.65 209.33 1421.24 206.74 1421.24 203.54V160.16C1421.24 156.96 1418.65 154.37 1415.45 154.37H1415.46Z" fill="#76808D"/>
<path d="M1670.02 303.99C1658.76 285.17 1643.37 270.71 1623.88 260.62C1604.38 250.54 1581.85 245.35 1556.31 245.35C1530.77 245.35 1508.73 250.96 1489.24 261.88C1469.74 272.81 1454.61 288.27 1443.86 308.27C1433.1 328.28 1427.72 351.72 1427.72 378.62C1427.72 405.52 1433.27 427.96 1444.36 447.96C1455.46 467.96 1471.34 483.34 1492.01 494.1C1512.68 504.86 1536.97 510.24 1564.88 510.24C1586.39 510.24 1605.64 506.29 1622.62 498.39C1639.59 490.5 1653.29 479.65 1663.71 465.87C1672.63 454.07 1678.72 441.15 1681.98 427.12C1682.83 423.48 1680.08 419.98 1676.34 419.98H1624.14C1621.64 419.98 1619.45 421.6 1618.65 423.97C1614.97 434.84 1608.48 443.43 1599.17 449.73C1588.74 456.79 1575.8 460.32 1560.34 460.32C1547.56 460.32 1536.39 457.63 1526.81 452.25C1517.23 446.88 1509.67 439.31 1504.12 429.56C1501.93 425.71 1500.14 421.64 1498.71 417.45C1497.18 412.95 1496.08 408.31 1495.32 403.61C1495.06 401.97 1494.82 400.31 1494.62 398.65C1494.23 395.23 1496.94 392.24 1500.38 392.24H1680.39C1683.31 392.24 1685.81 390.08 1686.14 387.17C1686.39 385.04 1686.56 382.87 1686.65 380.64C1686.82 376.61 1686.9 372.91 1686.9 369.55C1686.9 344.68 1681.27 322.83 1670.01 304L1670.02 303.99ZM1615.93 348.36H1503.19C1499.49 348.36 1496.7 344.93 1497.52 341.32C1499.32 333.41 1502.44 326.27 1506.88 319.87C1512.59 311.64 1519.99 305.33 1529.07 300.96C1538.15 296.59 1548.06 294.4 1558.82 294.4C1576.3 294.4 1590.76 299.11 1602.19 308.52C1612 316.6 1618.46 327.52 1621.59 341.29C1622.41 344.91 1619.64 348.36 1615.93 348.36Z" fill="#76808D"/>
<path d="M531.979 330.7H482.559C467.799 330.7 455.839 342.66 455.839 357.42V429.15C455.839 443.91 443.879 455.87 429.119 455.87H232.509C217.749 455.87 205.789 467.83 205.789 482.59V532.01C205.789 546.77 217.749 558.73 232.509 558.73H440.499C455.259 558.73 467.049 546.77 467.049 532.01V492.36C467.049 477.6 479.009 467.13 493.769 467.13H531.969C546.729 467.13 558.689 455.17 558.689 440.41V357.11C558.689 342.35 546.729 330.7 531.969 330.7H531.979Z" fill="#76808D"/>
<path d="M205.78 232.52C205.78 217.76 217.74 205.8 232.5 205.8H428.99C443.75 205.8 455.71 193.84 455.71 179.08V129.66C455.71 114.9 443.75 102.94 428.99 102.94H221.11C206.35 102.94 194.39 114.9 194.39 129.66V167.74C194.39 182.5 182.43 194.46 167.67 194.46H129.64C114.88 194.46 102.92 206.42 102.92 221.18V304.57C102.92 319.33 114.93 330.69 129.69 330.69H179.11C193.87 330.69 205.83 318.73 205.83 303.97L205.78 232.53V232.52Z" fill="#76808D"/>
<path d="M307.549 278.75H355.019C370.489 278.75 383.039 291.31 383.039 306.77V354.24C383.039 369.71 370.479 382.26 355.019 382.26H307.549C292.079 382.26 279.529 369.7 279.529 354.24V306.77C279.529 291.3 292.089 278.75 307.549 278.75Z" fill="#76808D"/>
</svg>
