<svg width="150" height="39" viewBox="0 0 150 39" fill="none" xmlns="http://www.w3.org/2000/svg">
<path d="M49.3836 9.02344V22.9556C49.3457 23.6187 49.4499 24.2823 49.6893 24.9019C49.9327 25.361 50.3083 25.7366 50.7674 25.98L52.5683 27.0112L51.088 29.6494C49.638 29.0294 48.3091 28.1579 47.1627 27.075C46.3544 26.0924 45.952 24.8382 46.0377 23.5687V9.02344H49.3836Z" fill="white"/>
<path d="M53.7637 18.4172C54.1605 17.4056 54.7586 16.4851 55.5218 15.7115C56.2851 14.938 57.1975 14.3275 58.2037 13.9173C60.4994 13.0159 63.0509 13.0159 65.3465 13.9173C66.3527 14.3277 67.265 14.9382 68.0282 15.7117C68.7914 16.4853 69.3896 17.4057 69.7865 18.4172C70.5588 20.3596 70.5588 22.5237 69.7865 24.466C69.3902 25.4784 68.7922 26.3998 68.029 27.1741C67.2658 27.9485 66.3531 28.5597 65.3465 28.9707C63.0508 29.8714 60.4995 29.8714 58.2037 28.9707C57.197 28.5599 56.2843 27.9488 55.521 27.1744C54.7578 26.4 54.1599 25.4785 53.7637 24.466C52.9915 22.5237 52.9915 20.3596 53.7637 18.4172ZM58.17 25.0294C59.138 25.9681 60.4333 26.493 61.7817 26.493C63.1301 26.493 64.4254 25.9681 65.3934 25.0294C66.3128 24.0611 66.8254 22.7769 66.8254 21.4416C66.8254 20.1064 66.3128 18.8221 65.3934 17.8538C64.4255 16.9149 63.1301 16.3898 61.7817 16.3898C60.4333 16.3898 59.1378 16.9149 58.17 17.8538C57.2412 18.8173 56.7222 20.1034 56.7222 21.4416C56.7222 22.7799 57.2412 24.066 58.17 25.0294Z" fill="white"/>
<path d="M73.4544 19.4803C73.412 18.6493 73.5367 17.8182 73.8212 17.0362C74.1058 16.2542 74.5443 15.5373 75.1109 14.9278C75.6304 14.3822 76.2575 13.9504 76.9526 13.6599C77.6477 13.3694 78.3955 13.2265 79.1487 13.2403C80.187 13.2089 81.2131 13.4708 82.1094 13.9959C82.8872 14.4562 83.4877 15.1644 83.8147 16.0069H83.8784C84.2083 15.1609 84.8154 14.4519 85.6006 13.9959C86.4923 13.4747 87.5119 13.213 88.5444 13.2403C89.2976 13.2265 90.0455 13.3694 90.7405 13.6599C91.4356 13.9504 92.0628 14.3822 92.5822 14.9278C93.149 15.5372 93.5877 16.2541 93.8724 17.0361C94.1571 17.818 94.282 18.6492 94.2397 19.4803V29.2303H90.8937V19.5122C90.9358 18.7297 90.6699 17.9619 90.1531 17.3728C89.9214 17.1183 89.6378 16.9162 89.3216 16.7802C89.0053 16.6442 88.6636 16.5775 88.3194 16.5844C87.9399 16.5663 87.561 16.6302 87.2085 16.7717C86.856 16.9133 86.5381 17.1292 86.2766 17.4047C85.7138 18.1331 85.4442 19.0459 85.5209 19.9632V29.2294H82.1741V19.9632C82.2506 19.0459 81.9811 18.1332 81.4184 17.4047C81.1568 17.1293 80.839 16.9135 80.4864 16.7719C80.1339 16.6304 79.7551 16.5664 79.3756 16.5844C79.0313 16.5773 78.6894 16.644 78.3729 16.78C78.0565 16.916 77.7728 17.1181 77.5409 17.3728C77.0245 17.962 76.759 18.7298 76.8012 19.5122V29.2294H73.4553L73.4544 19.4803Z" fill="white"/>
<path d="M110.585 27.331H110.521C109.949 28.0657 109.203 28.6458 108.349 29.0185C107.425 29.4391 106.42 29.6531 105.405 29.6457C104.252 29.6601 103.111 29.424 102.059 28.9538C101.082 28.5155 100.205 27.8804 99.4844 27.0882C98.7823 26.315 98.236 25.4135 97.8757 24.4332C97.5162 23.4763 97.3311 22.4628 97.3291 21.4407C97.3356 20.4421 97.5322 19.4539 97.9085 18.5288C98.2997 17.5449 98.8664 16.6402 99.581 15.8588C100.321 15.047 101.219 14.3954 102.22 13.9444C103.271 13.4681 104.412 13.2265 105.566 13.2366C106.595 13.2175 107.614 13.438 108.543 13.8807C109.341 14.2495 110.025 14.8274 110.522 15.5532H110.586V13.6548H113.932V29.2276H110.586L110.585 27.331ZM101.254 23.3935C101.507 23.9985 101.873 24.5498 102.332 25.0182C102.785 25.4819 103.326 25.8512 103.923 26.1048C104.523 26.3617 105.169 26.4928 105.821 26.4901C106.465 26.4881 107.102 26.3561 107.694 26.1018C108.285 25.8476 108.82 25.4765 109.264 25.0107C109.715 24.5389 110.075 23.9882 110.327 23.386C110.841 22.1392 110.841 20.7393 110.327 19.4926C110.075 18.8903 109.715 18.3396 109.264 17.8679C108.591 17.1625 107.719 16.6796 106.764 16.4841C105.809 16.2885 104.817 16.3896 103.921 16.7738C103.322 17.0294 102.78 17.4013 102.327 17.8679C101.868 18.3362 101.502 18.8875 101.25 19.4926C100.734 20.7392 100.734 22.1394 101.25 23.386" fill="white"/>
<path d="M130.276 27.3309H130.212C129.64 28.0657 128.893 28.6458 128.04 29.0184C127.116 29.4391 126.111 29.6532 125.095 29.6456C123.943 29.6601 122.801 29.424 121.749 28.9538C120.772 28.5155 119.896 27.8804 119.175 27.0881C118.473 26.3149 117.927 25.4134 117.566 24.4331C117.207 23.4762 117.022 22.4628 117.02 21.4406C117.026 20.442 117.223 19.4539 117.599 18.5288C117.99 17.5447 118.557 16.64 119.271 15.8587C120.011 15.0469 120.909 14.3954 121.91 13.9444C122.961 13.468 124.103 13.2264 125.256 13.2366C126.285 13.2175 127.304 13.438 128.233 13.8806C129.032 14.2507 129.716 14.8303 130.212 15.5578H130.276V9.02344H133.623V29.2294H130.276V27.3309ZM120.946 23.3934C121.198 23.9985 121.564 24.5499 122.023 25.0181C122.477 25.4848 123.018 25.8567 123.617 26.1122C124.216 26.3691 124.862 26.5002 125.514 26.4975C126.158 26.4955 126.795 26.3635 127.387 26.1093C127.979 25.8551 128.513 25.4839 128.958 25.0181C129.408 24.5461 129.768 23.9954 130.02 23.3934C130.535 22.1467 130.535 20.7468 130.02 19.5C129.768 18.8979 129.408 18.3472 128.958 17.8753C128.512 17.4071 127.976 17.0348 127.382 16.7812C126.792 16.5266 126.157 16.3954 125.515 16.3959C124.863 16.3932 124.217 16.5243 123.618 16.7812C123.019 17.0368 122.477 17.4087 122.024 17.8753C121.565 18.3434 121.199 18.8949 120.947 19.5C120.431 20.7466 120.431 22.1468 120.947 23.3934" fill="white"/>
<path d="M138.673 24.5963C139.324 25.2823 140.1 25.839 140.958 26.2369C141.767 26.6444 142.658 26.8645 143.564 26.881C144.352 26.9143 145.131 26.6946 145.785 26.2538C146.027 26.1179 146.232 25.9254 146.383 25.693C146.534 25.4605 146.627 25.1948 146.653 24.9188C146.661 24.693 146.617 24.4685 146.525 24.2622C146.433 24.0559 146.296 23.8732 146.123 23.7282C145.687 23.3929 145.169 23.1817 144.623 23.1169L142.724 22.7625C141.155 22.5873 139.652 22.0294 138.349 21.1378C137.946 20.7917 137.627 20.3587 137.416 19.8716C137.205 19.3844 137.107 18.8558 137.13 18.3253C137.127 17.6427 137.274 16.9677 137.56 16.3479C137.846 15.7282 138.265 15.1788 138.787 14.7385C140.028 13.6911 141.621 13.1549 143.243 13.2385C144.304 13.2334 145.359 13.4074 146.363 13.7531C147.455 14.1526 148.484 14.705 149.421 15.3938L147.522 17.7422C146.879 17.1649 146.138 16.7074 145.334 16.3913C144.697 16.147 144.022 16.0163 143.339 16.005C142.632 15.9875 141.935 16.1716 141.328 16.5357C141.07 16.6748 140.854 16.8815 140.703 17.1338C140.553 17.3861 140.474 17.6745 140.475 17.9681C140.475 18.8263 141.151 19.3731 142.502 19.6088L145.877 20.2528C148.623 20.7672 149.995 22.1507 149.995 24.4032C149.99 25.0289 149.859 25.6471 149.609 26.221C149.33 26.8633 148.925 27.4432 148.419 27.9263C147.825 28.4882 147.117 28.9163 146.344 29.1816C145.397 29.5095 144.401 29.6682 143.399 29.6503C140.805 29.6272 138.31 28.6543 136.385 26.9156L138.673 24.5963Z" fill="white"/>
<path d="M19.3355 2.99537C20.3206 2.99066 21.2967 3.18137 22.2076 3.55648C23.1184 3.93159 23.9458 4.48365 24.6418 5.18068L28.5052 9.04412L33.4918 14.0297C34.8968 15.438 35.6859 17.3462 35.6859 19.3355C35.6859 21.3249 34.8968 23.233 33.4918 24.6413L28.8399 29.2932L24.6427 33.4904C23.2315 34.8899 21.3245 35.6753 19.3369 35.6753C17.3494 35.6753 15.4424 34.8899 14.0312 33.4904L9.36991 28.8291L5.18116 24.6413C3.78157 23.2301 2.99626 21.3231 2.99626 19.3355C2.99626 17.348 3.78157 15.4409 5.18116 14.0297L9.94647 9.26536L14.0312 5.18068C14.727 4.48372 15.5543 3.9317 16.4649 3.55659C17.3756 3.18148 18.3516 2.99074 19.3365 2.99537H19.3355ZM19.3365 -0.00463794C17.9585 -0.00805536 16.5934 0.260656 15.3196 0.786092C14.0457 1.31153 12.8882 2.08333 11.9133 3.05723L7.82866 7.14285L3.06335 11.9072C1.10194 13.88 0.000976562 16.5489 0.000976562 19.3308C0.000976562 22.1128 1.10194 24.7816 3.06335 26.7544L7.2521 30.9432L11.9133 35.6044C13.8863 37.5656 16.5551 38.6664 19.3369 38.6664C22.1188 38.6664 24.7876 37.5656 26.7605 35.6044L30.9587 31.4063L35.6115 26.7535C37.5727 24.7806 38.6735 22.1117 38.6735 19.3299C38.6735 16.548 37.5727 13.8792 35.6115 11.9063L30.6249 6.92067L26.7605 3.05631C25.7857 2.08238 24.6282 1.31053 23.3543 0.78509C22.0805 0.259652 20.7154 -0.00905079 19.3374 -0.00558207" fill="white"/>
<path d="M19.3359 10.4054C19.9012 10.4027 20.4614 10.5122 20.9841 10.7275C21.5067 10.9428 21.9815 11.2597 22.3809 11.6597L27.0121 16.291C27.8179 17.0993 28.2704 18.1942 28.2704 19.3355C28.2704 20.4769 27.8179 21.5717 27.0121 22.3801L22.3809 27.0113C21.571 27.816 20.4757 28.2676 19.334 28.2676C18.1923 28.2676 17.097 27.816 16.2871 27.0113L11.6559 22.3801C10.8501 21.5717 10.3977 20.4769 10.3977 19.3355C10.3977 18.1942 10.8501 17.0993 11.6559 16.291L16.2871 11.6597C16.6866 11.2597 17.1613 10.9429 17.684 10.7276C18.2067 10.5123 18.7669 10.4027 19.3321 10.4054H19.3359ZM19.3321 9.21755C18.6111 9.21575 17.8969 9.35636 17.2303 9.63131C16.5638 9.90625 15.9581 10.3101 15.4481 10.8197L10.8168 15.451C9.79075 16.4834 9.21484 17.8799 9.21484 19.3355C9.21484 20.7911 9.79075 22.1876 10.8168 23.2201L15.4481 27.8513C16.4805 28.8774 17.877 29.4533 19.3326 29.4533C20.7882 29.4533 22.1847 28.8774 23.2171 27.8513L27.8475 23.2201C28.8735 22.1876 29.4495 20.7911 29.4495 19.3355C29.4495 17.8799 28.8735 16.4834 27.8475 15.451L23.2171 10.8197C22.707 10.3101 22.1011 9.90614 21.4344 9.63119C20.7677 9.35625 20.0533 9.21568 19.3321 9.21755Z" fill="white"/>
<path d="M20.3178 7.21791C21.2492 7.21593 22.1679 7.43429 22.9989 7.85514C23.8298 8.276 24.5495 8.88742 25.099 9.63948L30.349 16.8816C31.2574 18.147 31.6291 19.72 31.3833 21.2581C31.1375 22.7962 30.294 24.1749 29.0365 25.0942L21.7943 30.3442C20.7963 31.0697 19.5932 31.4588 18.3593 31.4551C17.4279 31.4571 16.5092 31.2387 15.6782 30.8179C14.8473 30.397 14.1276 29.7856 13.5781 29.0335L8.32808 21.7913C7.41483 20.5276 7.04014 18.9533 7.2862 17.4137C7.53226 15.8741 8.37897 14.495 9.64058 13.5788L16.8828 8.32884C17.8808 7.60332 19.0839 7.21424 20.3178 7.21791ZM20.3178 5.59511C18.742 5.59265 17.206 6.08954 15.9303 7.01446L8.68808 12.2645C7.08311 13.4356 6.00643 15.194 5.69293 17.156C5.37943 19.118 5.85455 21.1243 7.01464 22.7373L12.2646 29.9795C13.4355 31.5867 15.195 32.6649 17.1585 32.9785C19.1221 33.2921 21.1299 32.8155 22.7431 31.6529L29.9853 26.4029C31.5917 25.2315 32.6693 23.472 32.9827 21.5086C33.296 19.5453 32.8197 17.5377 31.6578 15.9245L26.4078 8.68229C25.7092 7.72134 24.7926 6.93985 23.7332 6.40203C22.6739 5.86421 21.5021 5.5854 20.314 5.58853" fill="white"/>
<path d="M20.7513 14.685C21.2664 14.6716 21.7726 14.8214 22.1975 15.1128C22.6225 15.4042 22.9445 15.8225 23.1176 16.3078L23.1232 16.3266L23.1288 16.3453L24.176 19.8665C24.3127 20.419 24.2254 21.0032 23.9332 21.4916C23.641 21.98 23.1675 22.333 22.616 22.4737L19.4782 23.2753C19.3055 23.3197 19.1278 23.342 18.9495 23.3419C18.4696 23.343 18.003 23.184 17.6236 22.8901C17.2443 22.5962 16.9738 22.184 16.8551 21.7191L16.8504 21.7003L16.8448 21.6825L15.7967 18.1641C15.6628 17.6117 15.7512 17.0289 16.0431 16.5412C16.3349 16.0535 16.8066 15.7 17.3567 15.5569H17.3679H17.3792L20.2132 14.759C20.3893 14.716 20.57 14.6946 20.7513 14.6953V14.685ZM20.7513 13.7147C20.485 13.7128 20.2195 13.7443 19.961 13.8084L17.1148 14.61C16.3098 14.818 15.6199 15.3363 15.1959 16.0514C14.7718 16.7665 14.6481 17.6205 14.8517 18.4266L15.9054 21.9684C16.0803 22.6433 16.4741 23.2412 17.0251 23.6684C17.5761 24.0956 18.2532 24.3279 18.9504 24.329C19.2105 24.3302 19.4697 24.2987 19.722 24.2353L22.8598 23.4337C23.6646 23.2255 24.3543 22.7072 24.7783 21.9921C25.2024 21.2771 25.3262 20.4233 25.1229 19.6172L24.0692 16.0762C23.8421 15.3793 23.3972 14.7738 22.8001 14.3488C22.2029 13.9238 21.4851 13.7019 20.7523 13.7156" fill="white"/>
</svg>
