<?xml version="1.0" standalone="no"?>
<!DOCTYPE svg PUBLIC "-//W3C//DTD SVG 20010904//EN"
 "http://www.w3.org/TR/2001/REC-SVG-20010904/DTD/svg10.dtd">
<svg version="1.0" xmlns="http://www.w3.org/2000/svg"
 width="113.000000pt" height="200.000000pt" viewBox="0 0 113.000000 200.000000"
 preserveAspectRatio="xMidYMid meet">
<metadata>
Created by potrace 1.16, written by Peter Selinger 2001-2019
</metadata>
<g transform="translate(0.000000,200.000000) scale(0.100000,-0.100000)"
fill="#000000" stroke="none">
<path d="M540 1639 c-115 -18 -142 -27 -176 -60 -19 -18 -34 -40 -34 -50 0 -9
-7 -22 -15 -29 -19 -16 -19 -108 -1 -200 9 -46 15 -60 21 -47 4 10 2 24 -6 34
-12 15 -12 16 4 10 14 -5 17 -1 17 22 0 16 7 31 14 34 8 3 20 24 26 47 11 40
11 41 48 33 20 -4 47 -7 60 -8 12 0 22 -4 22 -10 0 -5 5 -3 10 5 6 9 13 11 18
5 4 -5 45 -10 90 -10 46 0 87 -2 91 -5 12 -8 22 -160 11 -160 -5 0 -12 5 -15
10 -7 12 -115 14 -115 1 0 -10 -77 2 -145 23 -41 13 -55 13 -77 3 -30 -13 -35
-22 -17 -32 6 -4 16 1 24 11 7 11 17 15 21 11 5 -4 2 -12 -5 -16 -9 -6 -1 -10
23 -13 21 -2 39 0 42 4 3 4 -4 8 -15 8 -11 0 -22 4 -25 9 -4 5 2 8 11 6 10 -2
24 -4 31 -4 6 -1 12 -10 12 -21 0 -11 5 -20 11 -20 6 0 9 7 5 15 -6 17 2 19
23 6 11 -7 11 -14 -3 -42 -9 -18 -14 -34 -12 -37 3 -2 12 10 21 27 20 40 31
39 49 -4 8 -19 18 -35 21 -35 3 0 3 5 0 11 -4 5 -9 24 -12 42 -4 26 -2 29 9
19 11 -8 31 -9 73 -2 44 7 61 7 66 -2 10 -15 10 -14 39 46 18 37 24 70 26 137
2 60 0 88 -8 86 -5 -1 -12 7 -14 17 -1 11 -10 24 -19 29 -9 5 -41 28 -70 53
-62 50 -80 55 -155 43z"/>
<path d="M436 1090 c16 -17 25 -19 45 -11 23 9 23 10 -8 10 -18 1 -33 6 -33
11 0 6 -5 10 -12 10 -7 0 -4 -9 8 -20z"/>
<path d="M628 1083 c-10 -2 -18 -9 -18 -15 0 -6 10 -8 23 -4 12 3 25 6 30 6 4
0 7 5 7 10 0 10 -12 11 -42 3z"/>
<path d="M307 969 c-26 -26 -53 -41 -90 -50 -28 -7 -88 -25 -132 -40 l-80 -28
-1 -428 c-1 -293 1 -409 8 -368 18 117 26 127 27 33 l1 -88 144 0 c124 0 145
2 150 16 4 10 4 137 1 283 -4 146 -2 365 3 486 5 121 8 220 8 221 -1 0 -18
-16 -39 -37z"/>
<path d="M640 958 c-46 -25 -63 -29 -107 -26 -29 3 -53 1 -53 -4 0 -5 35 -8
78 -7 42 0 85 -2 94 -6 12 -5 21 1 32 22 8 15 15 24 15 18 1 -5 3 -208 5 -450
2 -242 7 -455 11 -472 l8 -33 168 0 168 0 3 58 3 57 10 -55 c8 -46 14 -56 33
-58 l22 -3 0 423 0 424 -62 16 c-148 38 -302 90 -326 108 -18 14 -28 17 -33 9
-4 -7 -8 -7 -10 -1 -2 5 -29 -4 -59 -20z m175 -257 c-3 -6 -11 -11 -17 -11 -6
0 -6 6 2 15 14 17 26 13 15 -4z"/>
<path d="M370 916 c0 -11 30 -66 36 -66 2 0 -3 15 -12 33 -19 36 -24 44 -24
33z"/>
<path d="M548 879 c21 -6 39 -6 50 0 13 8 5 10 -33 10 -48 -1 -49 -1 -17 -10z"/>
<path d="M619 843 c-13 -16 -12 -17 4 -4 9 7 17 15 17 17 0 8 -8 3 -21 -13z"/>
</g>
</svg>
