<?xml version="1.0" standalone="no"?>
<!DOCTYPE svg PUBLIC "-//W3C//DTD SVG 20010904//EN"
 "http://www.w3.org/TR/2001/REC-SVG-20010904/DTD/svg10.dtd">
<svg version="1.0" xmlns="http://www.w3.org/2000/svg"
 width="134.000000pt" height="200.000000pt" viewBox="0 0 134.000000 200.000000"
 preserveAspectRatio="xMidYMid meet">
<metadata>
Created by potrace 1.16, written by Peter Selinger 2001-2019
</metadata>
<g transform="translate(0.000000,200.000000) scale(0.100000,-0.100000)"
fill="#000000" stroke="none">
<path d="M0 1806 l0 -195 33 -16 c19 -11 61 -19 106 -20 40 -2 77 -7 83 -13 5
-5 6 -29 1 -58 l-8 -49 -60 -6 c-33 -4 -71 -3 -85 3 -16 6 -26 6 -28 -1 -2 -6
-12 -11 -23 -11 -18 0 -19 -8 -19 -115 0 -98 2 -115 17 -124 17 -10 17 -12 0
-25 -15 -12 -17 -31 -16 -151 l1 -138 48 6 c36 4 57 1 86 -14 21 -10 46 -17
55 -14 9 3 26 29 38 58 38 89 36 88 236 162 127 47 159 71 115 82 -11 3 -20
11 -20 18 0 14 27 22 89 27 33 3 34 1 46 -44 6 -26 10 -50 7 -53 -12 -12 -32
20 -32 51 0 24 -5 34 -15 34 -48 0 44 -160 132 -231 11 -9 23 -23 26 -30 3
-10 10 -7 23 11 10 14 35 41 55 60 48 46 59 69 59 124 0 52 24 75 59 57 28
-15 35 -41 11 -41 -11 0 -20 -4 -20 -10 0 -5 10 -10 23 -10 16 0 18 -3 9 -9
-11 -7 -10 -10 3 -15 9 -3 18 -6 19 -6 1 0 3 16 4 37 4 49 9 55 45 51 41 -3
47 -12 47 -75 0 -49 2 -53 38 -75 22 -13 55 -37 75 -55 34 -29 37 -37 35 -80
0 -26 7 -100 18 -163 l19 -115 3 194 c2 166 0 196 -13 203 -22 13 -22 150 0
142 13 -5 15 22 15 211 l0 217 -32 -6 c-18 -3 -71 -9 -118 -12 -82 -6 -86 -5
-113 20 -16 14 -32 24 -37 21 -8 -5 -50 41 -50 55 0 18 34 19 52 3 19 -17 19
-16 16 42 l-3 60 -50 -1 c-27 0 -102 -5 -165 -12 -175 -18 -440 -27 -440 -15
0 5 -11 15 -24 21 -20 9 -25 7 -34 -12 -12 -27 -51 -36 -162 -36 -88 0 -115
11 -79 31 13 7 35 13 49 14 87 7 159 18 181 28 24 10 27 17 33 85 3 41 6 86 6
99 l0 23 -185 0 -185 0 0 -194z m538 -281 c20 -10 43 -14 61 -10 24 5 29 2 34
-16 10 -37 -8 -50 -45 -34 -20 8 -42 10 -59 5 -16 -5 -72 -11 -126 -15 -107
-8 -119 -3 -123 45 -4 42 -1 50 21 59 29 10 196 -14 237 -34z m265 14 c9 -33
-1 -46 -39 -54 -45 -8 -66 -50 -36 -75 11 -8 22 -23 25 -32 7 -19 27 -25 27
-9 0 5 8 7 19 4 10 -2 26 3 35 12 20 20 26 16 42 -30 11 -32 10 -34 -7 -24
-13 7 -19 6 -19 -1 0 -6 -10 -10 -22 -8 -16 2 -22 9 -20 22 3 15 -1 18 -20 12
-13 -4 -37 -9 -54 -12 -22 -5 -36 -15 -47 -38 l-15 -31 -7 32 c-5 22 -12 30
-22 26 -11 -4 -14 0 -11 18 2 18 8 23 26 21 20 -3 22 1 22 40 0 27 8 52 20 68
11 14 20 29 20 34 0 17 35 45 56 45 14 1 24 -7 27 -20z m-162 -122 c-8 -8 -11
-7 -11 4 0 20 13 34 18 19 3 -7 -1 -17 -7 -23z m349 -60 c0 -7 -37 -47 -44
-47 -3 0 -6 11 -6 25 0 20 5 25 25 25 14 0 25 -2 25 -3z m-640 -103 c0 -24
-15 -30 -36 -16 -7 4 -8 15 -3 29 11 29 39 20 39 -13z m-227 5 c3 -12 0 -22
-9 -26 -20 -7 -24 -1 -17 25 7 28 19 28 26 1z m742 1 c24 -1 27 -3 14 -10 -25
-15 -97 -8 -91 8 3 8 13 11 26 8 11 -3 35 -6 51 -6z m-731 -56 c9 -3 16 -13
16 -21 0 -21 -54 -13 -58 10 -4 18 13 22 42 11z m223 -28 c-4 -9 -11 -16 -17
-16 -17 0 -24 31 -9 41 18 11 34 -5 26 -25z m923 -1 c0 -8 5 -15 11 -15 5 0 7
-4 4 -10 -7 -11 -48 -14 -57 -4 -3 3 -4 14 -1 25 6 22 43 26 43 4z m-1085 -69
c8 -39 4 -66 -9 -69 -13 -3 -27 52 -20 80 9 33 22 28 29 -11z"/>
<path d="M434 1939 c3 -34 6 -75 6 -90 0 -21 5 -29 18 -29 10 0 22 -4 27 -9 6
-6 59 -4 140 5 72 7 168 16 215 18 47 2 113 7 147 11 67 8 73 15 73 83 0 37
27 46 32 10 2 -15 11 -24 26 -26 20 -3 22 1 22 42 l0 46 -356 0 -357 0 7 -61z"/>
<path d="M1218 1993 c-14 -3 -18 -15 -18 -58 0 -61 5 -65 86 -65 l54 0 0 45
c0 38 -3 45 -20 45 -10 0 -23 6 -27 14 -9 16 -49 26 -75 19z"/>
<path d="M1132 1829 c11 -17 10 -22 -4 -30 -15 -8 -18 -24 -18 -84 0 -41 3
-76 8 -78 4 -2 55 -2 115 1 l107 5 0 78 0 78 -81 -2 c-77 -2 -82 -1 -103 26
-25 32 -42 36 -24 6z"/>
<path d="M40 1531 c0 -5 -9 -7 -20 -4 -31 8 -23 -13 10 -27 35 -15 44 -10 35
19 -6 21 -25 29 -25 12z"/>
<path d="M970 1140 c0 -5 5 -10 11 -10 5 0 7 5 4 10 -3 6 -8 10 -11 10 -2 0
-4 -4 -4 -10z"/>
<path d="M936 1040 c-11 -22 -30 -47 -43 -55 -12 -9 -23 -22 -23 -30 0 -8 -10
-21 -23 -29 -35 -23 -77 -7 -110 42 -31 46 -82 86 -97 77 -13 -8 -13 -35 1
-35 5 0 8 -4 5 -8 -9 -15 24 -52 60 -67 19 -8 34 -18 34 -23 0 -4 28 -9 62
-10 34 -1 65 -7 68 -13 10 -15 102 0 117 20 6 9 9 19 6 24 -3 4 27 6 67 3 61
-5 72 -3 76 12 3 9 10 25 15 34 13 24 13 24 -27 47 -33 20 -106 32 -76 12 21
-13 6 -76 -19 -78 -17 -2 -25 18 -20 50 2 15 -30 67 -42 67 -6 0 -21 -18 -31
-40z m174 -75 c-7 -8 -19 -15 -26 -15 -8 0 -11 6 -8 15 4 8 15 15 26 15 17 0
18 -3 8 -15z"/>
<path d="M1017 1062 c4 -9 8 -11 10 -5 2 6 14 8 26 5 12 -3 20 -2 17 1 -3 3
-17 8 -32 11 -22 4 -26 1 -21 -12z"/>
<path d="M1050 910 c0 -5 5 -10 10 -10 6 0 10 5 10 10 0 6 -4 10 -10 10 -5 0
-10 -4 -10 -10z"/>
<path d="M1190 900 c0 -5 5 -10 10 -10 6 0 10 5 10 10 0 6 -4 10 -10 10 -5 0
-10 -4 -10 -10z"/>
<path d="M1220 900 c0 -5 5 -10 10 -10 6 0 10 5 10 10 0 6 -4 10 -10 10 -5 0
-10 -4 -10 -10z"/>
<path d="M1220 870 c0 -5 5 -10 11 -10 5 0 7 5 4 10 -3 6 -8 10 -11 10 -2 0
-4 -4 -4 -10z"/>
<path d="M1246 811 c-3 -27 -13 -54 -21 -61 -8 -7 -15 -8 -15 -3 0 5 -6 17
-12 26 -11 15 -13 10 -14 -33 0 -28 -6 -56 -12 -62 -7 -7 -13 -28 -13 -47 -1
-22 -3 -28 -6 -16 -3 11 -9 22 -13 25 -3 3 -12 14 -18 25 -11 18 -12 18 -6 -6
9 -41 -11 -50 -89 -36 -42 7 -67 16 -67 24 0 12 -13 17 -32 14 -5 0 -8 5 -8
13 0 9 -8 12 -26 8 -19 -3 -24 -9 -21 -23 6 -21 -8 -26 -17 -6 -5 10 -7 10
-12 0 -5 -13 -54 -19 -54 -7 0 3 5 15 11 26 8 15 8 19 0 13 -7 -4 -19 -1 -28
7 -14 11 -15 10 -10 -7 5 -15 1 -23 -16 -30 -27 -13 -83 -3 -79 13 3 17 -36
15 -54 -2 -12 -13 -11 -15 6 -21 30 -9 24 -27 -7 -23 -25 3 -32 11 -60 66 -1
2 -11 -1 -22 -7 -16 -9 -19 -9 -15 2 5 15 -22 31 -36 22 -15 -9 -57 17 -69 42
-6 13 -15 21 -21 18 -5 -3 -13 9 -18 27 -8 33 -9 32 -22 -28 -12 -57 -15 -60
-38 -56 -20 4 -24 2 -19 -12 5 -11 1 -16 -13 -16 -20 0 -80 -31 -80 -42 0 -4
25 -10 55 -13 54 -7 65 -14 31 -19 -16 -2 -63 -46 -50 -46 4 0 -1 -9 -10 -19
-10 -11 -34 -22 -55 -26 -56 -9 -76 -27 -21 -19 40 6 43 5 32 -8 -7 -9 -22
-13 -37 -10 -37 7 -31 -18 13 -51 l37 -29 -30 8 -30 7 20 -24 c11 -13 13 -18
5 -11 -21 18 -32 15 -20 -7 10 -21 4 -51 -14 -63 -7 -5 -4 -12 8 -21 17 -12
17 -14 3 -20 -9 -3 -19 -2 -22 3 -10 17 -25 11 -18 -7 5 -12 2 -15 -10 -10
-13 5 -15 0 -14 -28 2 -19 6 -37 9 -41 14 -13 -16 -43 -38 -38 -12 3 -25 1
-28 -5 -4 -6 0 -11 8 -11 9 0 16 -4 16 -9 0 -5 -9 -7 -20 -4 -18 5 -20 0 -20
-56 0 -61 0 -61 29 -61 17 0 32 4 35 8 11 18 156 54 184 46 15 -4 33 -8 41
-10 7 -1 18 -7 24 -13 6 -6 21 -11 33 -11 19 0 22 6 22 41 1 23 6 47 13 53 9
8 10 0 5 -37 -5 -43 -4 -50 14 -54 11 -3 20 -9 20 -14 0 -5 200 -9 460 -9
l460 0 0 246 0 245 -22 -7 c-13 -3 -28 -9 -33 -13 -6 -3 -4 1 5 9 14 13 15 18
4 28 -7 7 -21 12 -30 12 -14 0 -15 7 -11 38 13 80 20 289 10 295 -6 4 -13 -13
-17 -42z m-534 -191 c27 0 28 -1 14 -16 -9 -8 -16 -21 -17 -27 0 -7 -4 -3 -9
8 -6 13 -9 15 -9 5 -2 -24 -21 10 -20 35 0 11 3 14 6 8 2 -7 18 -13 35 -13z
m308 -10 c0 -5 7 -10 16 -10 13 0 14 -3 4 -15 -10 -12 -7 -20 19 -44 17 -16
45 -32 61 -36 17 -4 30 -10 31 -13 6 -49 3 -63 -13 -68 -18 -5 -18 -6 0 -22
28 -26 43 -67 29 -81 -9 -9 -8 -11 6 -6 14 6 17 2 17 -24 0 -19 -6 -34 -15
-37 -8 -4 -12 -10 -9 -16 3 -5 12 -7 20 -4 17 7 17 1 2 -64 -9 -39 -9 -56 0
-70 9 -14 8 -19 -3 -24 -9 -3 -15 1 -15 9 0 9 -10 15 -27 16 l-28 1 25 8 c15
5 19 8 8 9 -9 1 -19 10 -23 20 -4 13 -12 17 -27 13 -16 -4 -19 -2 -13 8 6 10
1 12 -19 8 -14 -3 -26 -1 -26 3 0 5 10 9 22 9 21 0 20 2 -8 29 -16 16 -45 36
-64 45 -19 9 -25 13 -12 10 30 -7 28 4 -4 16 -20 8 -24 15 -19 31 5 15 4 19
-4 15 -6 -4 -11 -15 -11 -24 0 -11 -9 -18 -25 -18 l-26 -2 22 19 23 19 -24 -2
c-12 -2 -25 2 -27 9 -3 7 4 10 19 7 18 -4 17 -2 -7 11 -26 13 -27 15 -6 11 39
-8 83 5 88 26 6 22 5 22 68 3 51 -16 95 -13 95 6 0 6 -6 9 -14 6 -7 -3 -18 -1
-23 4 -11 11 -38 13 -148 9 -38 -1 -73 -7 -76 -12 -4 -6 -28 -6 -65 0 -32 5
-49 10 -36 11 27 1 30 21 2 21 -11 0 -20 3 -20 8 0 4 -34 18 -75 31 -41 13
-75 28 -75 32 0 12 27 11 51 -1 15 -8 19 -7 19 5 0 14 22 20 63 17 9 -1 17 3
17 9 0 8 5 7 15 -1 21 -17 31 -5 14 16 -12 15 -11 16 9 10 13 -4 40 -9 61 -11
22 -1 44 -6 50 -9 6 -4 15 -5 19 -2 5 3 21 -4 38 -15 16 -10 37 -19 47 -19 9
0 26 -5 37 -12 10 -7 22 -10 25 -7 10 11 -6 38 -27 44 -10 4 -24 19 -31 33 -6
15 -16 30 -22 34 -6 5 -4 8 5 8 13 0 13 1 0 10 -13 8 -12 10 3 10 9 0 17 -4
17 -10z m120 -23 c16 -13 24 -67 9 -67 -5 0 -9 3 -9 8 0 4 -18 18 -40 32 -22
14 -40 28 -40 32 0 13 64 9 80 -5z m-532 -36 c-31 -40 -65 -61 -95 -61 -45 0
-43 24 5 43 20 9 46 22 57 30 26 20 51 11 33 -12z m265 22 c-7 -2 -19 -2 -25
0 -7 3 -2 5 12 5 14 0 19 -2 13 -5z m-138 -13 c3 -5 1 -10 -4 -10 -6 0 -11 5
-11 10 0 6 2 10 4 10 3 0 8 -4 11 -10z m-345 -170 c0 -22 5 -49 12 -60 10 -15
10 -26 0 -53 -7 -18 -12 -56 -12 -85 0 -51 -12 -73 -26 -50 -5 7 -7 39 -6 71
l3 57 -40 0 c-46 0 -48 3 -24 56 10 22 18 46 18 54 0 8 9 32 20 52 18 37 19
38 37 18 11 -12 18 -34 18 -60z m335 10 c-6 -9 -43 -2 -50 9 -2 4 9 5 25 3 17
-2 28 -8 25 -12z m-38 -26 c13 -13 36 -24 51 -25 l27 -1 -25 -8 -25 -8 25 -1
c20 -1 22 -3 10 -11 -13 -9 -13 -11 0 -19 8 -6 11 -14 6 -18 -5 -4 -11 -2 -13
5 -3 6 -11 12 -19 12 -9 0 -13 -4 -9 -9 11 -19 -43 -4 -120 34 -132 64 -134
72 -13 72 72 0 84 -2 105 -23z m-113 -68 c23 9 48 -21 40 -49 -4 -19 0 -29 17
-41 13 -9 19 -16 13 -16 -6 0 -19 9 -29 20 -19 20 -41 28 -30 10 3 -5 2 -10
-4 -10 -5 0 -13 5 -17 11 -3 6 -14 9 -24 6 -16 -4 -17 -1 -9 20 12 33 12 35
-11 28 -15 -5 -20 -2 -20 13 0 28 11 34 36 17 13 -8 30 -12 38 -9z m293 -58
c-3 -7 -5 -2 -5 12 0 14 2 19 5 13 2 -7 2 -19 0 -25z m138 -18 c-3 -5 -11 -10
-16 -10 -6 0 -7 5 -4 10 3 6 11 10 16 10 6 0 7 -4 4 -10z m-765 -79 l0 -58
-57 -18 c-105 -31 -100 -31 -71 1 64 71 122 134 125 134 2 0 3 -26 3 -59z
m913 -68 c-7 -2 -19 -2 -25 0 -7 3 -2 5 12 5 14 0 19 -2 13 -5z m22 -63 c3 -5
-1 -10 -10 -10 -9 0 -13 5 -10 10 3 6 8 10 10 10 2 0 7 -4 10 -10z"/>
<path d="M848 518 c5 -5 16 -8 23 -6 8 3 3 7 -10 11 -17 4 -21 3 -13 -5z"/>
<path d="M970 328 c0 -25 3 -29 10 -18 13 20 13 50 0 50 -5 0 -10 -15 -10 -32z"/>
<path d="M1100 220 c0 -5 7 -10 15 -10 8 0 15 5 15 10 0 6 -7 10 -15 10 -8 0
-15 -4 -15 -10z"/>
<path d="M1210 793 c0 -21 3 -24 9 -14 5 8 7 20 4 28 -8 21 -13 15 -13 -14z"/>
<path d="M980 790 c-9 -6 -10 -10 -3 -10 6 0 15 5 18 10 8 12 4 12 -15 0z"/>
<path d="M23 763 c-9 -3 -11 -17 -7 -43 4 -23 2 -40 -5 -44 -6 -4 -11 -16 -11
-26 0 -17 3 -18 24 -9 18 9 31 8 53 -3 15 -7 36 -12 46 -10 21 4 23 28 2 36
-8 3 -15 13 -15 22 0 8 -14 31 -32 50 -34 35 -35 36 -55 27z"/>
<path d="M642 740 c0 -14 2 -19 5 -12 2 6 2 18 0 25 -3 6 -5 1 -5 -13z"/>
<path d="M692 740 c0 -14 2 -19 5 -12 2 6 2 18 0 25 -3 6 -5 1 -5 -13z"/>
<path d="M137 743 c-12 -12 -7 -30 8 -30 8 0 15 9 15 19 0 18 -11 24 -23 11z"/>
<path d="M470 720 c-9 -6 -10 -10 -3 -10 6 0 15 5 18 10 8 12 4 12 -15 0z"/>
<path d="M553 723 c-24 -9 -13 -23 17 -23 32 0 40 14 14 24 -9 3 -16 6 -17 5
-1 0 -8 -3 -14 -6z"/>
<path d="M648 693 c6 -2 18 -2 25 0 6 3 1 5 -13 5 -14 0 -19 -2 -12 -5z"/>
<path d="M688 673 c6 -2 18 -2 25 0 6 3 1 5 -13 5 -14 0 -19 -2 -12 -5z"/>
<path d="M149 587 c-53 -45 -40 -54 28 -21 82 41 85 44 37 44 -26 0 -48 -8
-65 -23z"/>
</g>
</svg>
