<?xml version="1.0" standalone="no"?>
<!DOCTYPE svg PUBLIC "-//W3C//DTD SVG 20010904//EN"
 "http://www.w3.org/TR/2001/REC-SVG-20010904/DTD/svg10.dtd">
<svg version="1.0" xmlns="http://www.w3.org/2000/svg"
 width="134.000000pt" height="200.000000pt" viewBox="0 0 134.000000 200.000000"
 preserveAspectRatio="xMidYMid meet">
<metadata>
Created by potrace 1.16, written by Peter Selinger 2001-2019
</metadata>
<g transform="translate(0.000000,200.000000) scale(0.100000,-0.100000)"
fill="#000000" stroke="none">
<path d="M0 1902 l0 -98 252 4 c186 3 264 0 297 -9 25 -8 49 -12 54 -11 11 3
9 -6 -9 -34 -11 -16 -23 -23 -34 -19 -9 3 -23 -1 -30 -10 -10 -12 -26 -14 -84
-9 -39 4 -93 6 -121 5 -104 -3 -180 1 -191 10 -9 7 -19 6 -32 -2 -16 -10 -26
-10 -47 -1 -53 24 -55 20 -55 -87 l0 -98 58 -6 c31 -4 162 -5 290 -4 l233 3
-3 -31 -3 -30 -120 -8 c-116 -7 -401 -1 -438 9 -16 5 -17 -10 -17 -225 l0
-231 41 0 c23 0 70 5 105 12 60 11 64 13 79 50 20 52 39 60 303 138 52 15 76
29 105 60 21 22 40 40 42 40 3 0 5 -16 5 -35 0 -29 4 -35 22 -35 12 0 18 -3
15 -7 -4 -3 -2 -12 4 -20 7 -8 8 -13 1 -13 -5 0 -13 7 -16 16 -4 9 -9 14 -12
11 -7 -6 46 -86 71 -107 17 -14 55 -85 55 -104 1 -6 9 -21 20 -34 l19 -23 36
36 c20 19 39 33 43 31 11 -7 17 47 16 146 l0 88 26 -25 c14 -13 77 -46 140
-73 157 -68 182 -83 202 -123 18 -33 18 -30 18 187 l0 222 -27 4 c-32 5 -50 5
-185 -6 -61 -5 -98 -13 -99 -20 0 -6 -4 -2 -8 9 -6 13 -4 23 5 28 8 4 14 20
14 34 l0 25 150 -7 150 -7 0 105 c0 124 10 116 -145 115 -80 0 -102 3 -110 16
-18 28 10 39 114 42 149 4 141 -2 141 110 l0 94 -670 0 -670 0 0 -98z m997
-204 c-3 -8 -6 -5 -6 6 -1 11 2 17 5 13 3 -3 4 -12 1 -19z m-131 -59 c4 -7 20
-9 40 -6 31 5 33 4 21 -14 -13 -21 -34 -21 -92 1 -23 9 -26 13 -15 20 20 13
37 12 46 -1z m138 -25 c4 -11 2 -12 -14 -1 -11 6 -20 15 -20 19 0 12 28 -3 34
-18z m-98 -150 c-4 -11 -13 -14 -29 -10 -12 4 -27 8 -34 10 -26 5 -24 15 6 31
17 8 31 20 31 26 0 6 -6 7 -12 3 -8 -5 -8 -1 1 10 14 16 16 15 29 -18 8 -20
11 -43 8 -52z m-176 54 c0 -5 15 -15 33 -23 l32 -14 -35 -14 c-43 -19 -60 -8
-60 39 0 26 4 32 15 28 8 -4 15 -10 15 -16z m296 -31 c-2 -7 -5 -4 -5 6 -1 10
-5 15 -11 12 -6 -4 -7 1 -3 11 6 15 7 15 15 0 5 -9 7 -22 4 -29z m-401 -28
c-4 -5 -1 -9 4 -9 6 0 11 -4 11 -10 0 -13 -27 -13 -35 0 -9 15 3 43 15 35 6
-4 8 -11 5 -16z m244 -65 c2 -2 2 -7 -2 -10 -9 -9 -57 5 -57 16 0 9 47 4 59
-6z m51 -6 c0 -4 -9 -8 -20 -8 -11 0 -20 4 -20 9 0 6 9 9 20 8 11 -1 20 -5 20
-9z m-73 -24 c-3 -3 -12 -4 -19 -1 -8 3 -5 6 6 6 11 1 17 -2 13 -5z m-735
-148 c17 -12 16 -15 -7 -42 -23 -27 -26 -27 -41 -12 -11 11 -15 25 -10 42 7
29 30 33 58 12z"/>
<path d="M641 1244 c0 -11 3 -14 6 -6 3 7 2 16 -1 19 -3 4 -6 -2 -5 -13z"/>
<path d="M970 1235 c0 -13 25 -103 38 -135 8 -21 9 -16 6 25 -2 28 -3 55 -4
60 -1 14 -40 62 -40 50z"/>
<path d="M641 1194 c0 -11 3 -14 6 -6 3 7 2 16 -1 19 -3 4 -6 -2 -5 -13z"/>
<path d="M704 1106 c-10 -8 -16 -17 -13 -20 3 -3 14 3 24 14 21 23 17 26 -11
6z"/>
<path d="M1065 1090 c3 -5 11 -10 16 -10 6 0 7 5 4 10 -3 6 -11 10 -16 10 -6
0 -7 -4 -4 -10z"/>
<path d="M960 1080 c0 -6 9 -14 20 -17 11 -3 20 -8 20 -12 0 -4 6 -16 14 -27
14 -18 15 -17 14 13 -1 20 -7 33 -17 36 -9 3 -24 8 -33 12 -11 4 -18 3 -18 -5z"/>
<path d="M1010 970 c0 -5 5 -10 10 -10 6 0 10 5 10 10 0 6 -4 10 -10 10 -5 0
-10 -4 -10 -10z"/>
<path d="M1314 913 c-4 -10 -12 -32 -20 -50 -8 -17 -14 -40 -14 -52 0 -14 -5
-19 -15 -15 -11 4 -15 0 -15 -16 0 -20 2 -21 16 -9 15 12 16 8 10 -41 -4 -30
-13 -80 -21 -110 -8 -30 -15 -66 -16 -80 l-2 -25 -4 25 c-7 35 -21 50 -49 50
-23 0 -24 3 -25 68 l-2 67 -16 -111 c-13 -94 -18 -109 -29 -98 -7 8 -13 27
-12 42 3 41 1 52 -10 52 -5 0 -10 -9 -10 -19 0 -24 -16 -36 -23 -19 -9 21 -7
-54 2 -99 9 -44 6 -47 -36 -46 -18 1 -17 -4 17 -64 19 -33 30 -67 30 -90 0
-45 -8 -59 -39 -71 -22 -8 -22 -9 23 -59 46 -51 58 -83 32 -83 -17 0 -28 -24
-20 -45 5 -12 30 -15 140 -15 l134 0 0 465 c0 313 -3 465 -10 465 -6 0 -13 -8
-16 -17z m-104 -377 c0 -8 3 -23 6 -33 5 -16 4 -16 -10 1 -18 22 -21 46 -6 46
6 0 10 -6 10 -14z m-93 -102 c-3 -3 -12 -4 -19 -1 -8 3 -5 6 6 6 11 1 17 -2
13 -5z m-57 -238 c0 -3 -4 -8 -10 -11 -5 -3 -10 -1 -10 4 0 6 5 11 10 11 6 0
10 -2 10 -4z"/>
<path d="M1285 890 c-3 -5 -1 -10 4 -10 6 0 11 5 11 10 0 6 -2 10 -4 10 -3 0
-8 -4 -11 -10z"/>
<path d="M310 872 c0 -6 9 -34 20 -62 24 -62 27 -112 5 -104 -20 8 -30 -22
-17 -49 18 -36 19 -61 2 -74 -13 -10 -13 -12 3 -19 15 -5 10 -10 -23 -25 -23
-11 -51 -19 -61 -19 -10 0 -19 -4 -19 -10 0 -5 5 -10 10 -10 6 0 10 -8 10 -17
-1 -17 -1 -17 -14 0 -12 16 -46 15 -46 -2 0 -4 -16 -13 -35 -20 -19 -7 -35
-16 -35 -21 0 -5 -9 -12 -20 -15 -39 -12 -19 -25 39 -25 76 0 96 -7 76 -26 -7
-8 -25 -14 -38 -14 -14 0 -30 -7 -37 -15 -14 -17 -65 -21 -55 -5 3 6 15 10 26
10 10 0 19 5 19 10 0 6 -9 10 -19 10 -11 0 -23 5 -26 10 -10 16 -28 11 -21 -6
3 -9 0 -24 -8 -35 -13 -19 -14 -19 -19 2 -3 12 2 45 12 73 16 44 58 178 75
241 8 28 36 189 33 191 -1 1 -35 5 -74 8 l-73 7 0 -72 c0 -63 2 -70 13 -54 18
24 62 14 71 -17 13 -51 -54 -73 -74 -24 -5 13 -9 -59 -9 -182 -1 -157 2 -203
12 -201 29 4 57 -2 57 -11 0 -5 -16 -10 -35 -10 -25 0 -35 -4 -35 -16 0 -11 6
-14 23 -10 l22 6 -22 -11 c-14 -8 -23 -21 -23 -36 0 -25 10 -29 28 -11 9 9 12
9 12 -1 0 -7 -9 -15 -20 -18 -26 -7 -26 -29 0 -36 26 -7 26 -27 0 -27 -18 0
-20 -7 -20 -65 l0 -65 386 0 c258 0 383 3 379 10 -10 17 -19 63 -17 95 3 95 2
135 -8 159 -5 15 -11 60 -11 99 -1 40 -5 86 -10 102 -8 27 -8 26 -5 -10 5 -59
-7 -158 -20 -162 -7 -2 -16 21 -23 62 -21 121 -43 205 -53 205 -6 0 -8 -8 -5
-19 2 -10 -1 -48 -8 -85 -13 -67 -25 -97 -25 -60 0 13 -7 20 -21 21 -31 3 -48
21 -29 33 13 8 12 11 -5 24 -11 9 -29 16 -40 16 l-20 1 20 9 c15 6 16 9 4 9
-20 1 -49 33 -49 53 0 9 -6 19 -12 21 -10 4 -10 6 0 6 22 2 12 19 -17 29 -27
9 -30 16 -36 69 -11 94 -24 144 -45 171 -11 13 -20 20 -20 14z m-45 -452 c3
-5 2 -10 -4 -10 -5 0 -16 -3 -25 -6 -11 -4 -16 -1 -16 10 0 18 35 22 45 6z
m30 -60 c-3 -5 -18 -10 -33 -9 l-27 1 25 8 c35 11 42 11 35 0z m-81 -39 c-17
-4 -45 -15 -62 -24 -27 -13 -32 -13 -32 -1 0 8 9 14 20 14 11 0 20 5 20 10 0
6 19 10 43 9 40 -1 40 -1 11 -8z m-124 -71 c0 -5 -4 -10 -9 -10 -5 0 -12 -10
-15 -22 -6 -22 -7 -22 -17 -5 -9 15 -7 21 8 32 22 17 33 19 33 5z m25 -60 c-3
-5 -12 -10 -18 -10 -7 0 -6 4 3 10 19 12 23 12 15 0z m-85 -140 c0 -5 -5 -10
-11 -10 -5 0 -7 5 -4 10 3 6 8 10 11 10 2 0 4 -4 4 -10z"/>
<path d="M1030 788 c0 -13 5 -30 10 -38 7 -11 10 -7 10 17 0 17 -4 35 -10 38
-6 3 -10 -4 -10 -17z"/>
<path d="M1210 784 c0 -7 -11 -15 -25 -18 -24 -6 -27 -26 -4 -26 6 0 8 4 4 9
-3 5 6 11 20 13 19 2 22 6 15 18 -5 8 -10 10 -10 4z"/>
<path d="M1230 690 c-9 -6 -10 -10 -3 -10 6 0 15 5 18 10 8 12 4 12 -15 0z"/>
<path d="M266 672 c-2 -4 4 -14 15 -20 19 -12 19 -11 9 8 -12 22 -16 24 -24
12z"/>
<path d="M1180 660 c0 -5 14 -10 30 -10 17 0 30 5 30 10 0 6 -13 10 -30 10
-16 0 -30 -4 -30 -10z"/>
<path d="M1180 620 c0 -5 14 -10 30 -10 17 0 30 5 30 10 0 6 -13 10 -30 10
-16 0 -30 -4 -30 -10z"/>
<path d="M612 590 c0 -14 2 -19 5 -12 2 6 2 18 0 25 -3 6 -5 1 -5 -13z"/>
<path d="M551 464 c0 -11 3 -14 6 -6 3 7 2 16 -1 19 -3 4 -6 -2 -5 -13z"/>
</g>
</svg>
