<svg width="356" height="131" viewBox="0 0 356 131" fill="none" xmlns="http://www.w3.org/2000/svg">
<g filter="url(#filter0_dd_3214_11028)">
<rect x="20" y="20" width="312.976" height="86" rx="20" fill="white" shape-rendering="crispEdges"/>
<path d="M53.2471 77.6387C53.2471 79.0566 52.735 80.1738 51.7109 80.9902C50.694 81.8066 49.276 82.2148 47.457 82.2148C45.7812 82.2148 44.2988 81.8997 43.0098 81.2695V78.1758C44.0697 78.6484 44.9648 78.9814 45.6953 79.1748C46.4329 79.3682 47.1061 79.4648 47.7148 79.4648C48.4453 79.4648 49.0039 79.3252 49.3906 79.0459C49.7845 78.7666 49.9814 78.3512 49.9814 77.7998C49.9814 77.4919 49.8955 77.2197 49.7236 76.9834C49.5518 76.7399 49.2975 76.5072 48.9609 76.2852C48.6315 76.0632 47.9548 75.7087 46.9307 75.2217C45.971 74.7705 45.2513 74.3372 44.7715 73.9219C44.2917 73.5065 43.9085 73.0231 43.6221 72.4717C43.3356 71.9202 43.1924 71.2757 43.1924 70.5381C43.1924 69.1488 43.6615 68.0566 44.5996 67.2617C45.5449 66.4668 46.8483 66.0693 48.5098 66.0693C49.3262 66.0693 50.1032 66.166 50.8408 66.3594C51.5856 66.5527 52.3626 66.8249 53.1719 67.1758L52.0977 69.7646C51.2598 69.4209 50.5651 69.181 50.0137 69.0449C49.4694 68.9089 48.9323 68.8408 48.4023 68.8408C47.7721 68.8408 47.2887 68.9876 46.9521 69.2812C46.6156 69.5749 46.4473 69.958 46.4473 70.4307C46.4473 70.7243 46.5153 70.9821 46.6514 71.2041C46.7874 71.4189 47.0023 71.6302 47.2959 71.8379C47.5967 72.0384 48.3021 72.4036 49.4121 72.9336C50.8802 73.6354 51.8864 74.3408 52.4307 75.0498C52.9749 75.7516 53.2471 76.6146 53.2471 77.6387ZM55.4543 66.8857C55.4543 65.8187 56.0487 65.2852 57.2375 65.2852C58.4263 65.2852 59.0207 65.8187 59.0207 66.8857C59.0207 67.3942 58.8703 67.7917 58.5695 68.0781C58.2759 68.3574 57.8319 68.4971 57.2375 68.4971C56.0487 68.4971 55.4543 67.96 55.4543 66.8857ZM58.8703 82H55.5939V69.9902H58.8703V82ZM72.5287 69.9902V71.6553L70.6488 72.1387C70.9926 72.6758 71.1644 73.2773 71.1644 73.9434C71.1644 75.2324 70.7133 76.2386 69.8109 76.9619C68.9157 77.6781 67.6696 78.0361 66.0726 78.0361L65.4818 78.0039L64.9984 77.9502C64.6618 78.208 64.4935 78.4945 64.4935 78.8096C64.4935 79.2822 65.0951 79.5186 66.2982 79.5186H68.3392C69.657 79.5186 70.6596 79.8014 71.3471 80.3672C72.0417 80.9329 72.389 81.7637 72.389 82.8594C72.389 84.263 71.8018 85.3516 70.6273 86.125C69.46 86.8984 67.7806 87.2852 65.5892 87.2852C63.9135 87.2852 62.6316 86.9915 61.7435 86.4043C60.8627 85.8242 60.4223 85.0078 60.4223 83.9551C60.4223 83.2318 60.6478 82.6266 61.099 82.1396C61.5502 81.6527 62.2126 81.3053 63.0863 81.0977C62.7497 80.9544 62.4561 80.7217 62.2055 80.3994C61.9548 80.07 61.8295 79.7227 61.8295 79.3574C61.8295 78.8991 61.962 78.5195 62.2269 78.2188C62.4919 77.9108 62.8751 77.61 63.3764 77.3164C62.7461 77.0443 62.2448 76.6074 61.8724 76.0059C61.5072 75.4043 61.3246 74.6953 61.3246 73.8789C61.3246 72.5684 61.7507 71.555 62.6029 70.8389C63.4551 70.1227 64.6726 69.7646 66.2553 69.7646C66.5918 69.7646 66.9893 69.7969 67.4476 69.8613C67.9131 69.9186 68.2103 69.9616 68.3392 69.9902H72.5287ZM63.2582 83.6973C63.2582 84.1484 63.473 84.5029 63.9027 84.7607C64.3396 85.0186 64.9483 85.1475 65.7289 85.1475C66.9034 85.1475 67.8236 84.9863 68.4896 84.6641C69.1556 84.3418 69.4887 83.9014 69.4887 83.3428C69.4887 82.8916 69.2917 82.5801 68.8978 82.4082C68.504 82.2363 67.8952 82.1504 67.0717 82.1504H65.3744C64.7728 82.1504 64.268 82.29 63.8598 82.5693C63.4587 82.8558 63.2582 83.2318 63.2582 83.6973ZM64.4506 73.9219C64.4506 74.5736 64.5974 75.0892 64.891 75.4688C65.1918 75.8483 65.6465 76.0381 66.2553 76.0381C66.8711 76.0381 67.3223 75.8483 67.6088 75.4688C67.8952 75.0892 68.0385 74.5736 68.0385 73.9219C68.0385 72.4753 67.4441 71.752 66.2553 71.752C65.0521 71.752 64.4506 72.4753 64.4506 73.9219ZM85.3599 82H82.0836V74.9854C82.0836 74.1188 81.9296 73.4707 81.6217 73.041C81.3137 72.6042 80.8232 72.3857 80.15 72.3857C79.2333 72.3857 78.5709 72.6937 78.1627 73.3096C77.7545 73.9183 77.5504 74.9316 77.5504 76.3496V82H74.274V69.9902H76.7769L77.2174 71.5264H77.4C77.7652 70.9463 78.2665 70.5094 78.9039 70.2158C79.5484 69.915 80.2789 69.7646 81.0953 69.7646C82.4918 69.7646 83.5517 70.1442 84.275 70.9033C84.9983 71.6553 85.3599 72.7438 85.3599 74.1689V82ZM99.2382 82H97.4121V67.917H92.4384V66.2949H104.212V67.917H99.2382V82ZM111.446 70.0117C111.969 70.0117 112.438 70.0547 112.854 70.1406L112.607 71.7949C112.12 71.6875 111.69 71.6338 111.318 71.6338C110.365 71.6338 109.549 72.0205 108.868 72.7939C108.195 73.5674 107.859 74.5306 107.859 75.6836V82H106.075V70.2266H107.547L107.751 72.4072H107.837C108.274 71.641 108.8 71.0501 109.416 70.6348C110.032 70.2194 110.709 70.0117 111.446 70.0117ZM122.054 82L121.7 80.3242H121.614C121.026 81.0618 120.439 81.5632 119.852 81.8281C119.272 82.0859 118.545 82.2148 117.671 82.2148C116.504 82.2148 115.587 81.9141 114.921 81.3125C114.262 80.7109 113.933 79.8551 113.933 78.7451C113.933 76.3675 115.834 75.1214 119.637 75.0068L121.635 74.9424V74.2119C121.635 73.2881 121.435 72.6077 121.034 72.1709C120.64 71.7269 120.006 71.5049 119.132 71.5049C118.151 71.5049 117.041 71.8057 115.802 72.4072L115.254 71.043C115.834 70.7279 116.468 70.4808 117.156 70.3018C117.85 70.1227 118.545 70.0332 119.24 70.0332C120.643 70.0332 121.682 70.3447 122.355 70.9678C123.035 71.5908 123.375 72.5898 123.375 73.9648V82H122.054ZM118.026 80.7432C119.136 80.7432 120.006 80.4388 120.636 79.8301C121.273 79.2214 121.592 78.3691 121.592 77.2734V76.21L119.809 76.2852C118.391 76.3353 117.367 76.5573 116.737 76.9512C116.114 77.3379 115.802 77.943 115.802 78.7666C115.802 79.4111 115.995 79.9017 116.382 80.2383C116.776 80.5749 117.324 80.7432 118.026 80.7432ZM134.875 82V74.3838C134.875 73.4242 134.656 72.708 134.219 72.2354C133.782 71.7627 133.099 71.5264 132.168 71.5264C130.936 71.5264 130.033 71.8594 129.46 72.5254C128.888 73.1914 128.601 74.2907 128.601 75.8232V82H126.818V70.2266H128.268L128.558 71.8379H128.644C129.009 71.2578 129.521 70.8102 130.18 70.4951C130.839 70.1729 131.573 70.0117 132.382 70.0117C133.8 70.0117 134.867 70.3555 135.584 71.043C136.3 71.7233 136.658 72.8154 136.658 74.3193V82H134.875ZM147.684 78.7881C147.684 79.8838 147.276 80.7288 146.46 81.3232C145.643 81.9176 144.497 82.2148 143.022 82.2148C141.461 82.2148 140.244 81.9678 139.37 81.4736V79.8193C139.936 80.1058 140.541 80.3314 141.185 80.4961C141.837 80.6608 142.464 80.7432 143.065 80.7432C143.996 80.7432 144.712 80.5964 145.214 80.3027C145.715 80.002 145.966 79.5472 145.966 78.9385C145.966 78.4801 145.765 78.0898 145.364 77.7676C144.97 77.4382 144.197 77.0514 143.044 76.6074C141.948 76.1992 141.167 75.8447 140.702 75.5439C140.244 75.236 139.9 74.8887 139.671 74.502C139.449 74.1152 139.338 73.6533 139.338 73.1162C139.338 72.1566 139.728 71.401 140.509 70.8496C141.289 70.291 142.36 70.0117 143.72 70.0117C144.988 70.0117 146.227 70.2695 147.437 70.7852L146.803 72.2354C145.622 71.7484 144.551 71.5049 143.592 71.5049C142.746 71.5049 142.109 71.6374 141.679 71.9023C141.25 72.1673 141.035 72.5326 141.035 72.998C141.035 73.3132 141.114 73.5817 141.271 73.8037C141.436 74.0257 141.697 74.237 142.055 74.4375C142.413 74.638 143.101 74.9281 144.118 75.3076C145.514 75.8161 146.456 76.3281 146.943 76.8438C147.437 77.3594 147.684 78.0075 147.684 78.7881ZM157.594 82L157.239 80.3242H157.153C156.566 81.0618 155.979 81.5632 155.392 81.8281C154.811 82.0859 154.085 82.2148 153.211 82.2148C152.044 82.2148 151.127 81.9141 150.461 81.3125C149.802 80.7109 149.473 79.8551 149.473 78.7451C149.473 76.3675 151.374 75.1214 155.177 75.0068L157.175 74.9424V74.2119C157.175 73.2881 156.974 72.6077 156.573 72.1709C156.179 71.7269 155.545 71.5049 154.672 71.5049C153.691 71.5049 152.581 71.8057 151.342 72.4072L150.794 71.043C151.374 70.7279 152.008 70.4808 152.695 70.3018C153.39 70.1227 154.085 70.0332 154.779 70.0332C156.183 70.0332 157.221 70.3447 157.894 70.9678C158.575 71.5908 158.915 72.5898 158.915 73.9648V82H157.594ZM153.565 80.7432C154.675 80.7432 155.545 80.4388 156.176 79.8301C156.813 79.2214 157.132 78.3691 157.132 77.2734V76.21L155.349 76.2852C153.931 76.3353 152.906 76.5573 152.276 76.9512C151.653 77.3379 151.342 77.943 151.342 78.7666C151.342 79.4111 151.535 79.9017 151.922 80.2383C152.316 80.5749 152.864 80.7432 153.565 80.7432ZM167.063 82.2148C165.358 82.2148 164.037 81.6921 163.099 80.6465C162.168 79.5938 161.702 78.1077 161.702 76.1885C161.702 74.2191 162.175 72.6973 163.12 71.623C164.073 70.5488 165.426 70.0117 167.181 70.0117C167.747 70.0117 168.312 70.0726 168.878 70.1943C169.444 70.3161 169.888 70.4593 170.21 70.624L169.662 72.1387C169.268 71.9811 168.839 71.8522 168.373 71.752C167.908 71.6445 167.496 71.5908 167.138 71.5908C164.746 71.5908 163.55 73.1162 163.55 76.167C163.55 77.6136 163.84 78.7236 164.42 79.4971C165.007 80.2705 165.874 80.6572 167.02 80.6572C168.001 80.6572 169.007 80.446 170.038 80.0234V81.6025C169.25 82.0107 168.259 82.2148 167.063 82.2148ZM176.403 80.7432C176.718 80.7432 177.022 80.7217 177.316 80.6787C177.609 80.6286 177.842 80.5785 178.014 80.5283V81.8926C177.821 81.9857 177.534 82.0609 177.155 82.1182C176.782 82.1826 176.446 82.2148 176.145 82.2148C173.867 82.2148 172.729 81.0153 172.729 78.6162V71.6123H171.042V70.7529L172.729 70.0117L173.481 67.498H174.512V70.2266H177.928V71.6123H174.512V78.541C174.512 79.25 174.68 79.7943 175.017 80.1738C175.353 80.5534 175.815 80.7432 176.403 80.7432ZM181.918 82H180.135V70.2266H181.918V82ZM179.985 67.0361C179.985 66.6279 180.085 66.3307 180.286 66.1445C180.486 65.9512 180.737 65.8545 181.038 65.8545C181.324 65.8545 181.571 65.9512 181.779 66.1445C181.986 66.3379 182.09 66.6351 182.09 67.0361C182.09 67.4372 181.986 67.738 181.779 67.9385C181.571 68.1318 181.324 68.2285 181.038 68.2285C180.737 68.2285 180.486 68.1318 180.286 67.9385C180.085 67.738 179.985 67.4372 179.985 67.0361ZM195.62 76.1025C195.62 78.0218 195.136 79.5221 194.17 80.6035C193.203 81.6777 191.867 82.2148 190.163 82.2148C189.11 82.2148 188.175 81.9678 187.359 81.4736C186.543 80.9795 185.912 80.2705 185.468 79.3467C185.024 78.4229 184.802 77.3415 184.802 76.1025C184.802 74.1833 185.282 72.6901 186.242 71.623C187.202 70.5488 188.534 70.0117 190.238 70.0117C191.885 70.0117 193.192 70.5596 194.159 71.6553C195.133 72.751 195.62 74.2334 195.62 76.1025ZM186.65 76.1025C186.65 77.6064 186.951 78.7523 187.552 79.54C188.154 80.3278 189.038 80.7217 190.206 80.7217C191.373 80.7217 192.258 80.3314 192.859 79.5508C193.468 78.763 193.772 77.6136 193.772 76.1025C193.772 74.6058 193.468 73.4707 192.859 72.6973C192.258 71.9167 191.366 71.5264 190.184 71.5264C189.017 71.5264 188.136 71.9095 187.542 72.6758C186.947 73.4421 186.65 74.5843 186.65 76.1025ZM206.571 82V74.3838C206.571 73.4242 206.353 72.708 205.916 72.2354C205.479 71.7627 204.795 71.5264 203.864 71.5264C202.632 71.5264 201.73 71.8594 201.157 72.5254C200.584 73.1914 200.298 74.2907 200.298 75.8232V82H198.515V70.2266H199.965L200.255 71.8379H200.341C200.706 71.2578 201.218 70.8102 201.877 70.4951C202.536 70.1729 203.27 70.0117 204.079 70.0117C205.497 70.0117 206.564 70.3555 207.28 71.043C207.996 71.7233 208.354 72.8154 208.354 74.3193V82H206.571Z" fill="#B12F15"/>
<path d="M279.86 59H278.684L280.024 52.7588C280.292 51.5693 280.493 50.7513 280.625 50.3047C280.397 50.5462 280.081 50.7992 279.675 51.0635L278.458 51.8154L277.911 50.9473L280.981 49.0059H281.999L279.86 59ZM290.862 52.0684C290.862 53.4128 290.682 54.641 290.322 55.7529C289.966 56.8649 289.479 57.708 288.859 58.2822C288.244 58.8519 287.528 59.1367 286.712 59.1367C285.91 59.1367 285.295 58.8473 284.867 58.2686C284.438 57.6852 284.224 56.8421 284.224 55.7393C284.224 54.5088 284.411 53.3376 284.785 52.2256C285.158 51.109 285.65 50.2682 286.261 49.7031C286.876 49.1335 287.578 48.8486 288.367 48.8486C290.03 48.8486 290.862 49.9219 290.862 52.0684ZM288.298 49.833C287.783 49.833 287.307 50.0973 286.87 50.626C286.432 51.1501 286.077 51.8861 285.803 52.834C285.534 53.7773 285.4 54.7412 285.4 55.7256C285.4 56.5094 285.514 57.111 285.742 57.5303C285.97 57.9495 286.336 58.1592 286.842 58.1592C287.366 58.1592 287.843 57.8994 288.271 57.3799C288.699 56.8604 289.041 56.113 289.296 55.1377C289.556 54.1624 289.686 53.1302 289.686 52.041C289.686 50.569 289.223 49.833 288.298 49.833ZM297.058 49.0059L291.501 59H290.311L295.869 49.0059H297.058ZM303.173 52.0684C303.173 53.4128 302.993 54.641 302.633 55.7529C302.277 56.8649 301.79 57.708 301.17 58.2822C300.555 58.8519 299.839 59.1367 299.023 59.1367C298.221 59.1367 297.606 58.8473 297.178 58.2686C296.749 57.6852 296.535 56.8421 296.535 55.7393C296.535 54.5088 296.722 53.3376 297.096 52.2256C297.469 51.109 297.962 50.2682 298.572 49.7031C299.188 49.1335 299.889 48.8486 300.678 48.8486C302.341 48.8486 303.173 49.9219 303.173 52.0684ZM300.609 49.833C300.094 49.833 299.618 50.0973 299.181 50.626C298.743 51.1501 298.388 51.8861 298.114 52.834C297.845 53.7773 297.711 54.7412 297.711 55.7256C297.711 56.5094 297.825 57.111 298.053 57.5303C298.281 57.9495 298.648 58.1592 299.153 58.1592C299.677 58.1592 300.154 57.8994 300.582 57.3799C301.01 56.8604 301.352 56.113 301.607 55.1377C301.867 54.1624 301.997 53.1302 301.997 52.041C301.997 50.569 301.535 49.833 300.609 49.833ZM310.6 51.0771C310.6 51.7881 310.37 52.3919 309.91 52.8887C309.449 53.3809 308.811 53.6999 307.995 53.8457V53.9072C308.561 54.012 309.005 54.2559 309.328 54.6387C309.652 55.0169 309.814 55.4909 309.814 56.0605C309.814 56.6667 309.673 57.2021 309.39 57.667C309.107 58.1273 308.695 58.4873 308.153 58.7471C307.61 59.0068 306.966 59.1367 306.218 59.1367C305.261 59.1367 304.384 58.9567 303.586 58.5967V57.4756C304.015 57.6989 304.468 57.8721 304.947 57.9951C305.425 58.1136 305.858 58.1729 306.245 58.1729C306.984 58.1729 307.558 57.9928 307.968 57.6328C308.378 57.2682 308.583 56.7715 308.583 56.1426C308.583 55.5456 308.403 55.0944 308.043 54.7891C307.683 54.4792 307.182 54.3242 306.539 54.3242H305.644L305.856 53.3467H306.806C307.558 53.3467 308.182 53.1484 308.679 52.752C309.176 52.3555 309.424 51.8382 309.424 51.2002C309.424 50.7809 309.292 50.4482 309.028 50.2021C308.763 49.9561 308.406 49.833 307.954 49.833C307.59 49.833 307.232 49.8945 306.881 50.0176C306.53 50.1406 306.132 50.3525 305.685 50.6533L305.138 49.8467C306.027 49.1904 306.993 48.8623 308.036 48.8623C308.852 48.8623 309.483 49.0605 309.93 49.457C310.377 49.8535 310.6 50.3936 310.6 51.0771Z" fill="#76808D" fill-opacity="0.5"/>
<path d="M78.9453 56H73.374V46.0059H78.9453V47.0381H74.5361V50.2578H78.6787V51.2832H74.5361V54.9609H78.9453V56ZM86.123 56V51.1533C86.123 50.5426 85.984 50.0869 85.7061 49.7861C85.4281 49.4854 84.9928 49.335 84.4004 49.335C83.6165 49.335 83.0423 49.5469 82.6777 49.9707C82.3132 50.3945 82.1309 51.0941 82.1309 52.0693V56H80.9961V48.5078H81.9189L82.1035 49.5332H82.1582C82.3906 49.1641 82.7165 48.8792 83.1357 48.6787C83.555 48.4736 84.0221 48.3711 84.5371 48.3711C85.4395 48.3711 86.1185 48.5898 86.5742 49.0273C87.0299 49.4603 87.2578 50.1553 87.2578 51.1123V56H86.123ZM92.0156 55.2002C92.2161 55.2002 92.4098 55.1865 92.5967 55.1592C92.7835 55.1273 92.9316 55.0954 93.041 55.0635V55.9316C92.918 55.9909 92.7357 56.0387 92.4941 56.0752C92.2572 56.1162 92.043 56.1367 91.8516 56.1367C90.4023 56.1367 89.6777 55.3734 89.6777 53.8467V49.3896H88.6045V48.8428L89.6777 48.3711L90.1562 46.7715H90.8125V48.5078H92.9863V49.3896H90.8125V53.7988C90.8125 54.25 90.9196 54.5964 91.1338 54.8379C91.348 55.0794 91.6419 55.2002 92.0156 55.2002ZM97.9629 48.3711C98.2956 48.3711 98.5941 48.3984 98.8584 48.4531L98.7012 49.5059C98.3913 49.4375 98.1178 49.4033 97.8809 49.4033C97.2747 49.4033 96.7552 49.6494 96.3223 50.1416C95.8939 50.6338 95.6797 51.2467 95.6797 51.9805V56H94.5449V48.5078H95.4814L95.6113 49.8955H95.666C95.944 49.4079 96.279 49.0319 96.6709 48.7676C97.0628 48.5033 97.4935 48.3711 97.9629 48.3711ZM99.0703 48.5078H100.287L101.928 52.7803C102.288 53.7555 102.511 54.4596 102.598 54.8926H102.652C102.712 54.6602 102.835 54.2637 103.021 53.7031C103.213 53.138 103.833 51.4062 104.881 48.5078H106.098L102.878 57.0391C102.559 57.8822 102.185 58.4792 101.757 58.8301C101.333 59.1855 100.811 59.3633 100.191 59.3633C99.8451 59.3633 99.5033 59.3245 99.166 59.2471V58.3379C99.4167 58.3926 99.6969 58.4199 100.007 58.4199C100.786 58.4199 101.342 57.9824 101.675 57.1074L102.092 56.041L99.0703 48.5078ZM115.559 56L115.333 54.9336H115.278C114.905 55.403 114.531 55.722 114.157 55.8906C113.788 56.0547 113.326 56.1367 112.77 56.1367C112.027 56.1367 111.443 55.9453 111.02 55.5625C110.6 55.1797 110.391 54.6351 110.391 53.9287C110.391 52.4157 111.601 51.6227 114.021 51.5498L115.292 51.5088V51.0439C115.292 50.4561 115.164 50.0231 114.909 49.7451C114.659 49.4626 114.255 49.3213 113.699 49.3213C113.075 49.3213 112.368 49.5127 111.58 49.8955L111.231 49.0273C111.601 48.8268 112.004 48.6696 112.441 48.5557C112.883 48.4417 113.326 48.3848 113.768 48.3848C114.661 48.3848 115.322 48.583 115.75 48.9795C116.183 49.376 116.399 50.0117 116.399 50.8867V56H115.559ZM112.995 55.2002C113.701 55.2002 114.255 55.0065 114.656 54.6191C115.062 54.2318 115.265 53.6895 115.265 52.9922V52.3154L114.13 52.3633C113.228 52.3952 112.576 52.5365 112.175 52.7871C111.778 53.0332 111.58 53.4183 111.58 53.9424C111.58 54.3525 111.703 54.6647 111.949 54.8789C112.2 55.0931 112.549 55.2002 112.995 55.2002ZM121.164 55.2002C121.365 55.2002 121.558 55.1865 121.745 55.1592C121.932 55.1273 122.08 55.0954 122.189 55.0635V55.9316C122.066 55.9909 121.884 56.0387 121.643 56.0752C121.406 56.1162 121.191 56.1367 121 56.1367C119.551 56.1367 118.826 55.3734 118.826 53.8467V49.3896H117.753V48.8428L118.826 48.3711L119.305 46.7715H119.961V48.5078H122.135V49.3896H119.961V53.7988C119.961 54.25 120.068 54.5964 120.282 54.8379C120.496 55.0794 120.79 55.2002 121.164 55.2002ZM131.896 50.7637H135.294V55.624C134.765 55.7926 134.228 55.9202 133.681 56.0068C133.134 56.0934 132.5 56.1367 131.78 56.1367C130.267 56.1367 129.089 55.6878 128.246 54.79C127.403 53.8877 126.981 52.6253 126.981 51.0029C126.981 49.9639 127.189 49.0547 127.604 48.2754C128.023 47.4915 128.624 46.8945 129.408 46.4844C130.192 46.0697 131.11 45.8623 132.163 45.8623C133.229 45.8623 134.223 46.0583 135.144 46.4502L134.692 47.4756C133.79 47.0928 132.922 46.9014 132.088 46.9014C130.871 46.9014 129.921 47.2637 129.237 47.9883C128.554 48.7129 128.212 49.7178 128.212 51.0029C128.212 52.3519 128.54 53.375 129.196 54.0723C129.857 54.7695 130.826 55.1182 132.102 55.1182C132.794 55.1182 133.471 55.0384 134.132 54.8789V51.8027H131.896V50.7637ZM138.664 56H137.529V48.5078H138.664V56ZM137.434 46.4775C137.434 46.2178 137.497 46.0286 137.625 45.9102C137.753 45.7871 137.912 45.7256 138.104 45.7256C138.286 45.7256 138.443 45.7871 138.575 45.9102C138.707 46.0332 138.773 46.2223 138.773 46.4775C138.773 46.7327 138.707 46.9242 138.575 47.0518C138.443 47.1748 138.286 47.2363 138.104 47.2363C137.912 47.2363 137.753 47.1748 137.625 47.0518C137.497 46.9242 137.434 46.7327 137.434 46.4775ZM146.197 56V51.1533C146.197 50.5426 146.058 50.0869 145.78 49.7861C145.502 49.4854 145.067 49.335 144.475 49.335C143.691 49.335 143.117 49.5469 142.752 49.9707C142.387 50.3945 142.205 51.0941 142.205 52.0693V56H141.07V48.5078H141.993L142.178 49.5332H142.232C142.465 49.1641 142.791 48.8792 143.21 48.6787C143.629 48.4736 144.096 48.3711 144.611 48.3711C145.514 48.3711 146.193 48.5898 146.648 49.0273C147.104 49.4603 147.332 50.1553 147.332 51.1123V56H146.197ZM149.041 52.7666V51.7275H152.397V52.7666H149.041ZM161.94 56H160.778V51.2969H155.515V56H154.353V46.0059H155.515V50.2578H160.778V46.0059H161.94V56ZM170.984 52.2471C170.984 53.4684 170.677 54.4232 170.062 55.1113C169.446 55.7949 168.596 56.1367 167.512 56.1367C166.842 56.1367 166.247 55.9795 165.728 55.665C165.208 55.3506 164.807 54.8994 164.524 54.3115C164.242 53.7236 164.101 53.0355 164.101 52.2471C164.101 51.0257 164.406 50.0755 165.017 49.3965C165.627 48.7129 166.475 48.3711 167.56 48.3711C168.608 48.3711 169.439 48.7197 170.055 49.417C170.674 50.1143 170.984 51.0576 170.984 52.2471ZM165.276 52.2471C165.276 53.2041 165.468 53.9333 165.851 54.4346C166.233 54.9359 166.796 55.1865 167.539 55.1865C168.282 55.1865 168.845 54.9382 169.228 54.4414C169.615 53.9401 169.809 53.2087 169.809 52.2471C169.809 51.2946 169.615 50.5723 169.228 50.0801C168.845 49.5833 168.277 49.335 167.525 49.335C166.783 49.335 166.222 49.5788 165.844 50.0664C165.465 50.554 165.276 51.2809 165.276 52.2471ZM174.047 48.5078V53.3682C174.047 53.9788 174.186 54.4346 174.464 54.7354C174.742 55.0361 175.177 55.1865 175.77 55.1865C176.553 55.1865 177.125 54.9723 177.485 54.5439C177.85 54.1156 178.032 53.416 178.032 52.4453V48.5078H179.167V56H178.23L178.066 54.9951H178.005C177.772 55.3643 177.449 55.6468 177.034 55.8428C176.624 56.0387 176.155 56.1367 175.626 56.1367C174.715 56.1367 174.031 55.9202 173.575 55.4873C173.124 55.0544 172.898 54.3617 172.898 53.4092V48.5078H174.047ZM186.413 53.9561C186.413 54.6533 186.153 55.1911 185.634 55.5693C185.114 55.9476 184.385 56.1367 183.446 56.1367C182.453 56.1367 181.678 55.9795 181.122 55.665V54.6123C181.482 54.7946 181.867 54.9382 182.277 55.043C182.692 55.1478 183.091 55.2002 183.474 55.2002C184.066 55.2002 184.522 55.1068 184.841 54.9199C185.16 54.7285 185.319 54.4391 185.319 54.0518C185.319 53.7601 185.192 53.5117 184.937 53.3066C184.686 53.097 184.194 52.8509 183.46 52.5684C182.763 52.3086 182.266 52.083 181.97 51.8916C181.678 51.6956 181.459 51.4746 181.313 51.2285C181.172 50.9824 181.102 50.6885 181.102 50.3467C181.102 49.736 181.35 49.2552 181.847 48.9043C182.343 48.5488 183.025 48.3711 183.891 48.3711C184.697 48.3711 185.486 48.5352 186.256 48.8633L185.853 49.7861C185.101 49.4762 184.419 49.3213 183.809 49.3213C183.271 49.3213 182.865 49.4056 182.592 49.5742C182.318 49.7428 182.182 49.9753 182.182 50.2715C182.182 50.472 182.232 50.6429 182.332 50.7842C182.437 50.9255 182.603 51.0599 182.831 51.1875C183.059 51.3151 183.496 51.4997 184.144 51.7412C185.032 52.0648 185.632 52.3906 185.941 52.7188C186.256 53.0469 186.413 53.4593 186.413 53.9561ZM191.431 56.1367C190.323 56.1367 189.448 55.7995 188.806 55.125C188.168 54.4505 187.849 53.514 187.849 52.3154C187.849 51.1077 188.145 50.1484 188.737 49.4375C189.334 48.7266 190.134 48.3711 191.137 48.3711C192.076 48.3711 192.818 48.681 193.365 49.3008C193.912 49.916 194.186 50.7295 194.186 51.7412V52.459H189.024C189.047 53.3385 189.268 54.0062 189.688 54.4619C190.111 54.9176 190.706 55.1455 191.472 55.1455C192.278 55.1455 193.076 54.9769 193.864 54.6396V55.6514C193.463 55.8245 193.083 55.9476 192.723 56.0205C192.367 56.098 191.937 56.1367 191.431 56.1367ZM191.123 49.3213C190.521 49.3213 190.041 49.5173 189.681 49.9092C189.325 50.3011 189.116 50.8434 189.052 51.5361H192.969C192.969 50.8206 192.809 50.2738 192.49 49.8955C192.171 49.5127 191.715 49.3213 191.123 49.3213ZM199.935 46.0059H202.758C204.084 46.0059 205.043 46.2041 205.636 46.6006C206.228 46.9971 206.524 47.6237 206.524 48.4805C206.524 49.0729 206.358 49.5628 206.025 49.9502C205.697 50.333 205.216 50.5814 204.583 50.6953V50.7637C206.101 51.0234 206.859 51.821 206.859 53.1562C206.859 54.0495 206.556 54.7467 205.95 55.248C205.349 55.7493 204.506 56 203.421 56H199.935V46.0059ZM201.097 50.2852H203.011C203.831 50.2852 204.421 50.1576 204.781 49.9023C205.141 49.6426 205.321 49.2074 205.321 48.5967C205.321 48.0361 205.121 47.6328 204.72 47.3867C204.319 47.1361 203.681 47.0107 202.806 47.0107H201.097V50.2852ZM201.097 51.2695V55.0088H203.182C203.988 55.0088 204.594 54.8538 205 54.5439C205.41 54.2295 205.615 53.7396 205.615 53.0742C205.615 52.4544 205.406 51.9987 204.986 51.707C204.572 51.4154 203.938 51.2695 203.086 51.2695H201.097ZM209.908 48.5078V53.3682C209.908 53.9788 210.047 54.4346 210.325 54.7354C210.603 55.0361 211.038 55.1865 211.631 55.1865C212.415 55.1865 212.987 54.9723 213.347 54.5439C213.711 54.1156 213.894 53.416 213.894 52.4453V48.5078H215.028V56H214.092L213.928 54.9951H213.866C213.634 55.3643 213.31 55.6468 212.896 55.8428C212.485 56.0387 212.016 56.1367 211.487 56.1367C210.576 56.1367 209.892 55.9202 209.437 55.4873C208.985 55.0544 208.76 54.3617 208.76 53.4092V48.5078H209.908ZM220.859 48.3711C221.192 48.3711 221.491 48.3984 221.755 48.4531L221.598 49.5059C221.288 49.4375 221.014 49.4033 220.777 49.4033C220.171 49.4033 219.652 49.6494 219.219 50.1416C218.79 50.6338 218.576 51.2467 218.576 51.9805V56H217.441V48.5078H218.378L218.508 49.8955H218.562C218.84 49.4079 219.175 49.0319 219.567 48.7676C219.959 48.5033 220.39 48.3711 220.859 48.3711ZM224.291 56H223.156V45.3633H224.291V56ZM229.862 56.1367C228.755 56.1367 227.88 55.7995 227.237 55.125C226.599 54.4505 226.28 53.514 226.28 52.3154C226.28 51.1077 226.576 50.1484 227.169 49.4375C227.766 48.7266 228.566 48.3711 229.568 48.3711C230.507 48.3711 231.25 48.681 231.797 49.3008C232.344 49.916 232.617 50.7295 232.617 51.7412V52.459H227.456C227.479 53.3385 227.7 54.0062 228.119 54.4619C228.543 54.9176 229.138 55.1455 229.903 55.1455C230.71 55.1455 231.507 54.9769 232.296 54.6396V55.6514C231.895 55.8245 231.514 55.9476 231.154 56.0205C230.799 56.098 230.368 56.1367 229.862 56.1367ZM229.555 49.3213C228.953 49.3213 228.472 49.5173 228.112 49.9092C227.757 50.3011 227.547 50.8434 227.483 51.5361H231.4C231.4 50.8206 231.241 50.2738 230.922 49.8955C230.603 49.5127 230.147 49.3213 229.555 49.3213ZM239.392 53.9561C239.392 54.6533 239.132 55.1911 238.612 55.5693C238.093 55.9476 237.364 56.1367 236.425 56.1367C235.431 56.1367 234.657 55.9795 234.101 55.665V54.6123C234.461 54.7946 234.846 54.9382 235.256 55.043C235.671 55.1478 236.069 55.2002 236.452 55.2002C237.045 55.2002 237.5 55.1068 237.819 54.9199C238.138 54.7285 238.298 54.4391 238.298 54.0518C238.298 53.7601 238.17 53.5117 237.915 53.3066C237.664 53.097 237.172 52.8509 236.438 52.5684C235.741 52.3086 235.244 52.083 234.948 51.8916C234.657 51.6956 234.438 51.4746 234.292 51.2285C234.151 50.9824 234.08 50.6885 234.08 50.3467C234.08 49.736 234.328 49.2552 234.825 48.9043C235.322 48.5488 236.003 48.3711 236.869 48.3711C237.676 48.3711 238.464 48.5352 239.234 48.8633L238.831 49.7861C238.079 49.4762 237.398 49.3213 236.787 49.3213C236.249 49.3213 235.844 49.4056 235.57 49.5742C235.297 49.7428 235.16 49.9753 235.16 50.2715C235.16 50.472 235.21 50.6429 235.311 50.7842C235.415 50.9255 235.582 51.0599 235.81 51.1875C236.037 51.3151 236.475 51.4997 237.122 51.7412C238.011 52.0648 238.61 52.3906 238.92 52.7188C239.234 53.0469 239.392 53.4593 239.392 53.9561ZM244.074 55.1865C244.831 55.1865 245.382 54.9837 245.729 54.5781C246.075 54.1725 246.259 53.4889 246.282 52.5273V52.2744C246.282 51.2262 246.104 50.472 245.749 50.0117C245.394 49.5514 244.831 49.3213 244.061 49.3213C243.395 49.3213 242.885 49.5811 242.529 50.1006C242.178 50.6156 242.003 51.3447 242.003 52.2881C242.003 53.2314 242.176 53.9515 242.522 54.4482C242.873 54.9404 243.391 55.1865 244.074 55.1865ZM243.903 56.1367C242.937 56.1367 242.183 55.7972 241.641 55.1182C241.098 54.4391 240.827 53.4912 240.827 52.2744C240.827 51.0485 241.101 50.0915 241.647 49.4033C242.194 48.7152 242.955 48.3711 243.931 48.3711C244.956 48.3711 245.744 48.7585 246.296 49.5332H246.357L246.521 48.5078H247.417V59.3633H246.282V56.1572C246.282 55.7015 246.307 55.3141 246.357 54.9951H246.269C245.744 55.7562 244.956 56.1367 243.903 56.1367ZM250.896 48.5078V53.3682C250.896 53.9788 251.035 54.4346 251.313 54.7354C251.591 55.0361 252.027 55.1865 252.619 55.1865C253.403 55.1865 253.975 54.9723 254.335 54.5439C254.7 54.1156 254.882 53.416 254.882 52.4453V48.5078H256.017V56H255.08L254.916 54.9951H254.854C254.622 55.3643 254.299 55.6468 253.884 55.8428C253.474 56.0387 253.004 56.1367 252.476 56.1367C251.564 56.1367 250.881 55.9202 250.425 55.4873C249.974 55.0544 249.748 54.3617 249.748 53.4092V48.5078H250.896ZM261.595 56.1367C260.487 56.1367 259.612 55.7995 258.97 55.125C258.332 54.4505 258.013 53.514 258.013 52.3154C258.013 51.1077 258.309 50.1484 258.901 49.4375C259.498 48.7266 260.298 48.3711 261.301 48.3711C262.24 48.3711 262.982 48.681 263.529 49.3008C264.076 49.916 264.35 50.7295 264.35 51.7412V52.459H259.188C259.211 53.3385 259.432 54.0062 259.852 54.4619C260.275 54.9176 260.87 55.1455 261.636 55.1455C262.442 55.1455 263.24 54.9769 264.028 54.6396V55.6514C263.627 55.8245 263.247 55.9476 262.887 56.0205C262.531 56.098 262.101 56.1367 261.595 56.1367ZM261.287 49.3213C260.686 49.3213 260.205 49.5173 259.845 49.9092C259.489 50.3011 259.28 50.8434 259.216 51.5361H263.133C263.133 50.8206 262.973 50.2738 262.654 49.8955C262.335 49.5127 261.88 49.3213 261.287 49.3213Z" fill="#76808D"/>
<g clip-path="url(#clip0_3214_11028)">
<path d="M60.2119 43.2036H45.7021" stroke="#76808D" stroke-linecap="round" stroke-linejoin="round"/>
<path d="M42.5308 56.0483H42.5466C42.5466 56.0959 42.5308 56.1514 42.5308 56.199C42.5308 57.1187 43.2761 57.864 44.1958 57.864H61.6631C62.5828 57.864 63.3281 57.1187 63.3281 56.199C63.3281 56.1435 63.3202 56.0959 63.3123 56.0483H63.3281" stroke="#76808D" stroke-linecap="round" stroke-linejoin="round"/>
<path d="M45.5754 41.4829H44.1958C43.2761 41.4829 42.5308 42.2282 42.5308 43.148C42.5308 43.1638 42.5308 43.1876 42.5308 43.2035V56.0482H42.5466C42.6259 55.1998 43.3316 54.5338 44.1958 54.5338H45.5754V41.4829Z" stroke="#76808D" stroke-linecap="round" stroke-linejoin="round"/>
<path d="M63.3284 43.148C63.3284 42.2282 62.5831 41.4829 61.6633 41.4829H60.2837V54.5417H61.6633C62.5276 54.5417 63.2332 55.2077 63.3125 56.0561H63.3284V43.2035C63.3284 43.2035 63.3284 43.1638 63.3284 43.148Z" stroke="#76808D" stroke-linecap="round" stroke-linejoin="round"/>
<path d="M52.4894 54.042L50.2534 55.2076L50.3089 52.6624C50.3089 52.4959 50.3644 52.3294 50.4516 52.1867L54.3209 46.1132C54.4478 45.907 54.6777 45.7881 54.9156 45.7881H55.7798C56.0573 45.7881 56.3111 45.9546 56.43 46.2083L56.763 46.9616C56.8582 47.1756 56.8423 47.4294 56.7154 47.6276L52.8382 53.7249C52.751 53.8597 52.6321 53.9707 52.4814 54.0499L52.4894 54.042Z" stroke="#76808D" stroke-linecap="round" stroke-linejoin="round"/>
<path d="M56.0415 46.0576L52.085 52.2659" stroke="#76808D" stroke-linecap="round" stroke-linejoin="round"/>
<path d="M52.6398 53.7568L52.3147 52.9322C52.1641 52.5596 51.7994 52.3296 51.4029 52.3455L50.499 52.3931" stroke="#76808D" stroke-linecap="round" stroke-linejoin="round"/>
</g>
</g>
<defs>
<filter id="filter0_dd_3214_11028" x="0" y="0" width="355.976" height="131" filterUnits="userSpaceOnUse" color-interpolation-filters="sRGB">
<feFlood flood-opacity="0" result="BackgroundImageFix"/>
<feColorMatrix in="SourceAlpha" type="matrix" values="0 0 0 0 0 0 0 0 0 0 0 0 0 0 0 0 0 0 127 0" result="hardAlpha"/>
<feOffset/>
<feGaussianBlur stdDeviation="10"/>
<feComposite in2="hardAlpha" operator="out"/>
<feColorMatrix type="matrix" values="0 0 0 0 0.788235 0 0 0 0 0.294118 0 0 0 0 0.196078 0 0 0 0.18 0"/>
<feBlend mode="normal" in2="BackgroundImageFix" result="effect1_dropShadow_3214_11028"/>
<feColorMatrix in="SourceAlpha" type="matrix" values="0 0 0 0 0 0 0 0 0 0 0 0 0 0 0 0 0 0 127 0" result="hardAlpha"/>
<feOffset dx="3" dy="5"/>
<feGaussianBlur stdDeviation="10"/>
<feComposite in2="hardAlpha" operator="out"/>
<feColorMatrix type="matrix" values="0 0 0 0 0.105882 0 0 0 0 0.168627 0 0 0 0 0.254902 0 0 0 0.12 0"/>
<feBlend mode="normal" in2="effect1_dropShadow_3214_11028" result="effect2_dropShadow_3214_11028"/>
<feBlend mode="normal" in="SourceGraphic" in2="effect2_dropShadow_3214_11028" result="shape"/>
</filter>
<clipPath id="clip0_3214_11028">
<rect width="21.5903" height="17.1818" fill="white" transform="translate(42.1343 41.0864)"/>
</clipPath>
</defs>
</svg>
