<svg width="356" height="132" viewBox="0 0 356 132" fill="none" xmlns="http://www.w3.org/2000/svg">
<g filter="url(#filter0_dd_3214_11044)">
<rect x="20" y="20" width="312.976" height="87" rx="20" fill="white" shape-rendering="crispEdges"/>
<path d="M50.6475 69.8408C49.3942 69.8408 48.4238 70.3135 47.7363 71.2588C47.0488 72.1969 46.7051 73.5075 46.7051 75.1904C46.7051 78.6924 48.0192 80.4434 50.6475 80.4434C51.7503 80.4434 53.0859 80.1676 54.6543 79.6162V82.4092C53.3652 82.9463 51.9258 83.2148 50.3359 83.2148C48.0514 83.2148 46.304 82.5238 45.0938 81.1416C43.8835 79.7523 43.2783 77.7614 43.2783 75.1689C43.2783 73.5361 43.5755 72.1074 44.1699 70.8828C44.7643 69.651 45.6165 68.7093 46.7266 68.0576C47.8438 67.3988 49.1507 67.0693 50.6475 67.0693C52.1729 67.0693 53.7054 67.4382 55.2451 68.1758L54.1709 70.8828C53.5837 70.6035 52.9928 70.36 52.3984 70.1523C51.804 69.9447 51.2204 69.8408 50.6475 69.8408ZM60.1164 76.9736C60.1164 78.1624 60.3098 79.0612 60.6965 79.6699C61.0904 80.2786 61.7277 80.583 62.6086 80.583C63.4823 80.583 64.1089 80.2822 64.4885 79.6807C64.8752 79.0719 65.0685 78.1696 65.0685 76.9736C65.0685 75.7848 64.8752 74.8932 64.4885 74.2988C64.1018 73.7044 63.468 73.4072 62.5871 73.4072C61.7134 73.4072 61.0832 73.7044 60.6965 74.2988C60.3098 74.8861 60.1164 75.7777 60.1164 76.9736ZM68.4201 76.9736C68.4201 78.9287 67.9045 80.4577 66.8732 81.5605C65.842 82.6634 64.4061 83.2148 62.5656 83.2148C61.4126 83.2148 60.3957 82.9642 59.5148 82.4629C58.634 81.9544 57.9572 81.2275 57.4846 80.2822C57.0119 79.3369 56.7756 78.234 56.7756 76.9736C56.7756 75.0114 57.2876 73.486 58.3117 72.3975C59.3358 71.3089 60.7753 70.7646 62.6301 70.7646C63.7831 70.7646 64.8 71.0153 65.6809 71.5166C66.5617 72.0179 67.2385 72.7376 67.7111 73.6758C68.1838 74.6139 68.4201 75.7132 68.4201 76.9736ZM81.9711 83H78.6947V75.9854C78.6947 75.1188 78.5407 74.4707 78.2328 74.041C77.9249 73.6042 77.4343 73.3857 76.7611 73.3857C75.8445 73.3857 75.182 73.6937 74.7738 74.3096C74.3656 74.9183 74.1615 75.9316 74.1615 77.3496V83H70.8851V70.9902H73.3881L73.8285 72.5264H74.0111C74.3764 71.9463 74.8777 71.5094 75.515 71.2158C76.1596 70.915 76.89 70.7646 77.7064 70.7646C79.1029 70.7646 80.1628 71.1442 80.8861 71.9033C81.6094 72.6553 81.9711 73.7438 81.9711 75.1689V83ZM91.7408 73.4502H88.9049V83H85.6285V73.4502H83.8238V71.8711L85.6285 70.9902V70.1094C85.6285 68.7415 85.9651 67.7425 86.6383 67.1123C87.3114 66.4821 88.3892 66.167 89.8717 66.167C91.0032 66.167 92.0093 66.3353 92.8902 66.6719L92.0523 69.0781C91.3935 68.8704 90.7847 68.7666 90.2261 68.7666C89.7607 68.7666 89.4241 68.9062 89.2164 69.1855C89.0087 69.4577 88.9049 69.8086 88.9049 70.2383V70.9902H91.7408V73.4502ZM93.481 67.8857C93.481 66.8187 94.0754 66.2852 95.2642 66.2852C96.453 66.2852 97.0474 66.8187 97.0474 67.8857C97.0474 68.3942 96.897 68.7917 96.5963 69.0781C96.3026 69.3574 95.8586 69.4971 95.2642 69.4971C94.0754 69.4971 93.481 68.96 93.481 67.8857ZM96.897 83H93.6207V70.9902H96.897V83ZM106.796 70.7646C107.24 70.7646 107.608 70.7969 107.902 70.8613L107.655 73.9336C107.39 73.862 107.068 73.8262 106.688 73.8262C105.643 73.8262 104.826 74.0947 104.239 74.6318C103.659 75.1689 103.369 75.9209 103.369 76.8877V83H100.093V70.9902H102.574L103.057 73.0098H103.219C103.591 72.3366 104.092 71.7959 104.722 71.3877C105.36 70.9723 106.051 70.7646 106.796 70.7646ZM120.594 83H117.317V75.9854C117.317 75.1188 117.171 74.4707 116.877 74.041C116.59 73.6042 116.136 73.3857 115.513 73.3857C114.675 73.3857 114.066 73.6937 113.686 74.3096C113.307 74.9255 113.117 75.9388 113.117 77.3496V83H109.841V70.9902H112.344L112.784 72.5264H112.967C113.289 71.9749 113.755 71.5452 114.363 71.2373C114.972 70.9222 115.67 70.7646 116.458 70.7646C118.255 70.7646 119.473 71.3519 120.11 72.5264H120.4C120.723 71.9678 121.195 71.5345 121.818 71.2266C122.449 70.9186 123.158 70.7646 123.945 70.7646C125.306 70.7646 126.334 71.1156 127.028 71.8174C127.73 72.512 128.081 73.6292 128.081 75.1689V83H124.794V75.9854C124.794 75.1188 124.647 74.4707 124.353 74.041C124.067 73.6042 123.612 73.3857 122.989 73.3857C122.187 73.3857 121.586 73.6722 121.185 74.2451C120.791 74.818 120.594 75.7275 120.594 76.9736V83ZM148.469 83H146.321L140.595 75.3838L138.952 76.8447V83H137.125V67.2949H138.952V75.083L146.074 67.2949H148.233L141.916 74.1162L148.469 83ZM160.355 71.8711C160.355 73.4609 159.811 74.6855 158.722 75.5449C157.641 76.3971 156.09 76.8232 154.071 76.8232H152.223V83H150.397V67.2949H154.468C158.393 67.2949 160.355 68.8203 160.355 71.8711ZM152.223 75.2549H153.867C155.485 75.2549 156.656 74.9935 157.379 74.4707C158.103 73.9479 158.464 73.11 158.464 71.957C158.464 70.9186 158.124 70.1452 157.444 69.6367C156.764 69.1283 155.704 68.874 154.264 68.874H152.223V75.2549ZM163.411 83V67.2949H165.237V83H163.411ZM176.64 79.7881C176.64 80.8838 176.231 81.7288 175.415 82.3232C174.599 82.9176 173.453 83.2148 171.977 83.2148C170.416 83.2148 169.199 82.9678 168.325 82.4736V80.8193C168.891 81.1058 169.496 81.3314 170.141 81.4961C170.792 81.6608 171.419 81.7432 172.02 81.7432C172.951 81.7432 173.668 81.5964 174.169 81.3027C174.67 81.002 174.921 80.5472 174.921 79.9385C174.921 79.4801 174.72 79.0898 174.319 78.7676C173.925 78.4382 173.152 78.0514 171.999 77.6074C170.903 77.1992 170.123 76.8447 169.657 76.5439C169.199 76.236 168.855 75.8887 168.626 75.502C168.404 75.1152 168.293 74.6533 168.293 74.1162C168.293 73.1566 168.683 72.401 169.464 71.8496C170.244 71.291 171.315 71.0117 172.676 71.0117C173.943 71.0117 175.182 71.2695 176.393 71.7852L175.759 73.2354C174.577 72.7484 173.506 72.5049 172.547 72.5049C171.702 72.5049 171.064 72.6374 170.635 72.9023C170.205 73.1673 169.99 73.5326 169.99 73.998C169.99 74.3132 170.069 74.5817 170.226 74.8037C170.391 75.0257 170.653 75.237 171.011 75.4375C171.369 75.638 172.056 75.9281 173.073 76.3076C174.47 76.8161 175.411 77.3281 175.898 77.8438C176.393 78.3594 176.64 79.0075 176.64 79.7881Z" fill="#B12F15"/>
<path d="M279.244 59H278.068L279.408 52.7588C279.676 51.5693 279.877 50.7513 280.009 50.3047C279.781 50.5462 279.465 50.7992 279.059 51.0635L277.842 51.8154L277.295 50.9473L280.365 49.0059H281.383L279.244 59ZM290.4 52.0684C290.4 53.4128 290.22 54.641 289.86 55.7529C289.504 56.8649 289.017 57.708 288.397 58.2822C287.782 58.8519 287.066 59.1367 286.25 59.1367C285.448 59.1367 284.833 58.8473 284.405 58.2686C283.976 57.6852 283.762 56.8421 283.762 55.7393C283.762 54.5088 283.949 53.3376 284.323 52.2256C284.696 51.109 285.189 50.2682 285.799 49.7031C286.414 49.1335 287.116 48.8486 287.905 48.8486C289.568 48.8486 290.4 49.9219 290.4 52.0684ZM287.836 49.833C287.321 49.833 286.845 50.0973 286.408 50.626C285.97 51.1501 285.615 51.8861 285.341 52.834C285.072 53.7773 284.938 54.7412 284.938 55.7256C284.938 56.5094 285.052 57.111 285.28 57.5303C285.508 57.9495 285.874 58.1592 286.38 58.1592C286.904 58.1592 287.381 57.8994 287.809 57.3799C288.237 56.8604 288.579 56.113 288.834 55.1377C289.094 54.1624 289.224 53.1302 289.224 52.041C289.224 50.569 288.761 49.833 287.836 49.833ZM296.75 49.0059L291.193 59H290.003L295.561 49.0059H296.75ZM303.019 52.0684C303.019 53.4128 302.839 54.641 302.479 55.7529C302.123 56.8649 301.636 57.708 301.016 58.2822C300.401 58.8519 299.685 59.1367 298.869 59.1367C298.067 59.1367 297.452 58.8473 297.024 58.2686C296.595 57.6852 296.381 56.8421 296.381 55.7393C296.381 54.5088 296.568 53.3376 296.942 52.2256C297.315 51.109 297.808 50.2682 298.418 49.7031C299.034 49.1335 299.735 48.8486 300.524 48.8486C302.187 48.8486 303.019 49.9219 303.019 52.0684ZM300.455 49.833C299.94 49.833 299.464 50.0973 299.027 50.626C298.589 51.1501 298.234 51.8861 297.96 52.834C297.691 53.7773 297.557 54.7412 297.557 55.7256C297.557 56.5094 297.671 57.111 297.899 57.5303C298.127 57.9495 298.494 58.1592 298.999 58.1592C299.523 58.1592 300 57.8994 300.428 57.3799C300.856 56.8604 301.198 56.113 301.453 55.1377C301.713 54.1624 301.843 53.1302 301.843 52.041C301.843 50.569 301.381 49.833 300.455 49.833ZM310.6 51.0771C310.6 51.7881 310.37 52.3919 309.91 52.8887C309.449 53.3809 308.811 53.6999 307.995 53.8457V53.9072C308.561 54.012 309.005 54.2559 309.328 54.6387C309.652 55.0169 309.814 55.4909 309.814 56.0605C309.814 56.6667 309.673 57.2021 309.39 57.667C309.107 58.1273 308.695 58.4873 308.153 58.7471C307.61 59.0068 306.966 59.1367 306.218 59.1367C305.261 59.1367 304.384 58.9567 303.586 58.5967V57.4756C304.015 57.6989 304.468 57.8721 304.947 57.9951C305.425 58.1136 305.858 58.1729 306.245 58.1729C306.984 58.1729 307.558 57.9928 307.968 57.6328C308.378 57.2682 308.583 56.7715 308.583 56.1426C308.583 55.5456 308.403 55.0944 308.043 54.7891C307.683 54.4792 307.182 54.3242 306.539 54.3242H305.644L305.856 53.3467H306.806C307.558 53.3467 308.182 53.1484 308.679 52.752C309.176 52.3555 309.424 51.8382 309.424 51.2002C309.424 50.7809 309.292 50.4482 309.028 50.2021C308.763 49.9561 308.406 49.833 307.954 49.833C307.59 49.833 307.232 49.8945 306.881 50.0176C306.53 50.1406 306.132 50.3525 305.685 50.6533L305.138 49.8467C306.027 49.1904 306.993 48.8623 308.036 48.8623C308.852 48.8623 309.483 49.0605 309.93 49.457C310.377 49.8535 310.6 50.3936 310.6 51.0771Z" fill="#76808D" fill-opacity="0.5"/>
<path d="M69.1133 58L65.2383 47.875H65.1758C65.2487 48.6771 65.2852 49.6302 65.2852 50.7344V58H64.0586V46.5781H66.0586L69.6758 56H69.7383L73.3867 46.5781H75.3711V58H74.043V50.6406C74.043 49.7969 74.0794 48.8802 74.1523 47.8906H74.0898L70.1836 58H69.1133ZM83.406 58L83.1482 56.7812H83.0857C82.6586 57.3177 82.2316 57.6823 81.8045 57.875C81.3826 58.0625 80.8539 58.1562 80.2185 58.1562C79.3696 58.1562 78.7029 57.9375 78.2185 57.5C77.7394 57.0625 77.4998 56.4401 77.4998 55.6328C77.4998 53.9036 78.8826 52.9974 81.6482 52.9141L83.1013 52.8672V52.3359C83.1013 51.6641 82.9555 51.1693 82.6638 50.8516C82.3774 50.5286 81.9164 50.3672 81.281 50.3672C80.5675 50.3672 79.7602 50.5859 78.8592 51.0234L78.4607 50.0312C78.8826 49.8021 79.3435 49.6224 79.8435 49.4922C80.3487 49.362 80.8539 49.2969 81.3592 49.2969C82.38 49.2969 83.1352 49.5234 83.6248 49.9766C84.1196 50.4297 84.367 51.1562 84.367 52.1562V58H83.406ZM80.4763 57.0859C81.2836 57.0859 81.9164 56.8646 82.3748 56.4219C82.8383 55.9792 83.0701 55.3594 83.0701 54.5625V53.7891L81.7732 53.8438C80.742 53.8802 79.9972 54.0417 79.5388 54.3281C79.0857 54.6094 78.8592 55.0495 78.8592 55.6484C78.8592 56.1172 78.9998 56.474 79.281 56.7188C79.5675 56.9635 79.9659 57.0859 80.4763 57.0859ZM90.7769 49.2812C91.1571 49.2812 91.4983 49.3125 91.8003 49.375L91.6207 50.5781C91.2665 50.5 90.954 50.4609 90.6832 50.4609C89.9904 50.4609 89.3967 50.7422 88.9019 51.3047C88.4123 51.8672 88.1675 52.5677 88.1675 53.4062V58H86.8707V49.4375H87.941L88.0894 51.0234H88.1519C88.4696 50.4661 88.8524 50.0365 89.3003 49.7344C89.7483 49.4323 90.2404 49.2812 90.7769 49.2812ZM94.5072 53.6172C94.7311 53.2995 95.0723 52.8828 95.5306 52.3672L98.2962 49.4375H99.8353L96.3665 53.0859L100.077 58H98.5072L95.4837 53.9531L94.5072 54.7969V58H93.2259V45.8438H94.5072V52.2891C94.5072 52.5755 94.4863 53.0182 94.4447 53.6172H94.5072ZM105.073 58.1562C103.808 58.1562 102.808 57.7708 102.073 57C101.344 56.2292 100.98 55.1589 100.98 53.7891C100.98 52.4089 101.318 51.3125 101.995 50.5C102.678 49.6875 103.592 49.2812 104.737 49.2812C105.81 49.2812 106.659 49.6354 107.284 50.3438C107.909 51.0469 108.222 51.9766 108.222 53.1328V53.9531H102.323C102.349 54.9583 102.602 55.7214 103.081 56.2422C103.566 56.763 104.245 57.0234 105.12 57.0234C106.042 57.0234 106.954 56.8307 107.855 56.4453V57.6016C107.396 57.7995 106.961 57.9401 106.55 58.0234C106.144 58.112 105.651 58.1562 105.073 58.1562ZM104.722 50.3672C104.034 50.3672 103.485 50.5911 103.073 51.0391C102.667 51.487 102.428 52.1068 102.355 52.8984H106.831C106.831 52.0807 106.649 51.4557 106.284 51.0234C105.92 50.5859 105.399 50.3672 104.722 50.3672ZM113.03 57.0859C113.259 57.0859 113.481 57.0703 113.694 57.0391C113.908 57.0026 114.077 56.9661 114.202 56.9297V57.9219C114.061 57.9896 113.853 58.0443 113.577 58.0859C113.306 58.1328 113.061 58.1562 112.843 58.1562C111.186 58.1562 110.358 57.2839 110.358 55.5391V50.4453H109.132V49.8203L110.358 49.2812L110.905 47.4531H111.655V49.4375H114.14V50.4453H111.655V55.4844C111.655 56 111.778 56.3958 112.022 56.6719C112.267 56.9479 112.603 57.0859 113.03 57.0859ZM117.042 58H115.745V49.4375H117.042V58ZM115.635 47.1172C115.635 46.8203 115.708 46.6042 115.854 46.4688C116 46.3281 116.182 46.2578 116.401 46.2578C116.609 46.2578 116.789 46.3281 116.94 46.4688C117.091 46.6094 117.167 46.8255 117.167 47.1172C117.167 47.4089 117.091 47.6276 116.94 47.7734C116.789 47.9141 116.609 47.9844 116.401 47.9844C116.182 47.9844 116 47.9141 115.854 47.7734C115.708 47.6276 115.635 47.4089 115.635 47.1172ZM125.475 58V52.4609C125.475 51.763 125.316 51.2422 124.998 50.8984C124.681 50.5547 124.183 50.3828 123.506 50.3828C122.61 50.3828 121.954 50.625 121.538 51.1094C121.121 51.5938 120.913 52.3932 120.913 53.5078V58H119.616V49.4375H120.67L120.881 50.6094H120.944C121.209 50.1875 121.582 49.862 122.061 49.6328C122.54 49.3984 123.074 49.2812 123.663 49.2812C124.694 49.2812 125.47 49.5312 125.991 50.0312C126.511 50.526 126.772 51.3203 126.772 52.4141V58H125.475ZM136.276 49.4375V50.2578L134.69 50.4453C134.835 50.6276 134.966 50.8672 135.08 51.1641C135.195 51.4557 135.252 51.7865 135.252 52.1562C135.252 52.9948 134.966 53.6641 134.393 54.1641C133.82 54.6641 133.033 54.9141 132.033 54.9141C131.778 54.9141 131.539 54.8932 131.315 54.8516C130.763 55.1432 130.487 55.5104 130.487 55.9531C130.487 56.1875 130.583 56.362 130.776 56.4766C130.968 56.5859 131.299 56.6406 131.768 56.6406H133.283C134.21 56.6406 134.921 56.8359 135.416 57.2266C135.916 57.6172 136.166 58.1849 136.166 58.9297C136.166 59.8776 135.786 60.599 135.026 61.0938C134.265 61.5938 133.156 61.8438 131.697 61.8438C130.578 61.8438 129.713 61.6354 129.104 61.2188C128.5 60.8021 128.197 60.2135 128.197 59.4531C128.197 58.9323 128.364 58.4818 128.697 58.1016C129.031 57.7214 129.5 57.4635 130.104 57.3281C129.885 57.2292 129.7 57.0755 129.549 56.8672C129.403 56.6589 129.33 56.4167 129.33 56.1406C129.33 55.8281 129.414 55.5547 129.58 55.3203C129.747 55.0859 130.01 54.8594 130.369 54.6406C129.927 54.4583 129.565 54.1484 129.283 53.7109C129.007 53.2734 128.869 52.7734 128.869 52.2109C128.869 51.2734 129.151 50.5521 129.713 50.0469C130.276 49.5365 131.072 49.2812 132.104 49.2812C132.552 49.2812 132.955 49.3333 133.315 49.4375H136.276ZM129.447 59.4375C129.447 59.901 129.643 60.2526 130.033 60.4922C130.424 60.7318 130.984 60.8516 131.713 60.8516C132.802 60.8516 133.606 60.6875 134.127 60.3594C134.653 60.0365 134.916 59.5964 134.916 59.0391C134.916 58.5755 134.773 58.2526 134.487 58.0703C134.2 57.8932 133.661 57.8047 132.869 57.8047H131.315C130.726 57.8047 130.268 57.9453 129.94 58.2266C129.612 58.5078 129.447 58.9115 129.447 59.4375ZM130.151 52.1797C130.151 52.7786 130.32 53.2318 130.658 53.5391C130.997 53.8464 131.468 54 132.072 54C133.338 54 133.971 53.3854 133.971 52.1562C133.971 50.8698 133.33 50.2266 132.049 50.2266C131.44 50.2266 130.971 50.3906 130.643 50.7188C130.315 51.0469 130.151 51.5339 130.151 52.1797ZM147.056 52.0156H150.939V57.5703C150.335 57.763 149.72 57.9089 149.095 58.0078C148.47 58.1068 147.747 58.1562 146.924 58.1562C145.194 58.1562 143.848 57.6432 142.885 56.6172C141.921 55.5859 141.439 54.1432 141.439 52.2891C141.439 51.1016 141.676 50.0625 142.15 49.1719C142.629 48.276 143.317 47.5938 144.213 47.125C145.108 46.651 146.158 46.4141 147.361 46.4141C148.58 46.4141 149.715 46.638 150.767 47.0859L150.252 48.2578C149.22 47.8203 148.228 47.6016 147.275 47.6016C145.885 47.6016 144.799 48.0156 144.017 48.8438C143.236 49.6719 142.845 50.8203 142.845 52.2891C142.845 53.8307 143.22 55 143.97 55.7969C144.726 56.5938 145.832 56.9922 147.291 56.9922C148.082 56.9922 148.856 56.901 149.611 56.7188V53.2031H147.056V52.0156ZM154.537 49.4375V54.9922C154.537 55.6901 154.696 56.2109 155.013 56.5547C155.331 56.8984 155.828 57.0703 156.505 57.0703C157.401 57.0703 158.055 56.8255 158.466 56.3359C158.883 55.8464 159.091 55.0469 159.091 53.9375V49.4375H160.388V58H159.318L159.13 56.8516H159.06C158.794 57.2734 158.425 57.5964 157.951 57.8203C157.482 58.0443 156.946 58.1562 156.341 58.1562C155.3 58.1562 154.518 57.9089 153.998 57.4141C153.482 56.9193 153.224 56.1276 153.224 55.0391V49.4375H154.537ZM164.267 58H162.97V49.4375H164.267V58ZM162.861 47.1172C162.861 46.8203 162.934 46.6042 163.079 46.4688C163.225 46.3281 163.408 46.2578 163.626 46.2578C163.835 46.2578 164.014 46.3281 164.165 46.4688C164.316 46.6094 164.392 46.8255 164.392 47.1172C164.392 47.4089 164.316 47.6276 164.165 47.7734C164.014 47.9141 163.835 47.9844 163.626 47.9844C163.408 47.9844 163.225 47.9141 163.079 47.7734C162.934 47.6276 162.861 47.4089 162.861 47.1172ZM168.138 58H166.841V45.8438H168.138V58ZM176.54 56.8516H176.47C175.871 57.7214 174.975 58.1562 173.782 58.1562C172.662 58.1562 171.79 57.7734 171.165 57.0078C170.545 56.2422 170.235 55.1536 170.235 53.7422C170.235 52.3307 170.548 51.2344 171.173 50.4531C171.798 49.6719 172.668 49.2812 173.782 49.2812C174.944 49.2812 175.834 49.7031 176.454 50.5469H176.556L176.501 49.9297L176.47 49.3281V45.8438H177.766V58H176.712L176.54 56.8516ZM173.946 57.0703C174.832 57.0703 175.472 56.8307 175.868 56.3516C176.269 55.8672 176.47 55.0885 176.47 54.0156V53.7422C176.47 52.5286 176.266 51.6641 175.86 51.1484C175.459 50.6276 174.816 50.3672 173.931 50.3672C173.17 50.3672 172.587 50.6641 172.181 51.2578C171.779 51.8464 171.579 52.6797 171.579 53.7578C171.579 54.8516 171.779 55.6771 172.181 56.2344C172.582 56.7917 173.17 57.0703 173.946 57.0703Z" fill="#76808D"/>
<g clip-path="url(#clip0_3214_11044)">
<path d="M52.554 45.374H53.6344C54.5984 45.374 55.3878 46.2632 55.3878 47.3519V57.6067C55.3878 58.7037 54.6067 59.5846 53.6344 59.5846H44.169C43.205 59.5846 42.4155 58.6954 42.4155 57.6067V47.3519C42.4155 46.2549 43.1967 45.374 44.169 45.374H45.3324" stroke="#76808D" stroke-linecap="round" stroke-linejoin="round"/>
<path d="M50.6842 44.1191C50.6842 43.1801 49.9197 42.4155 48.9806 42.4155H48.8144C47.8754 42.4155 47.1108 43.1801 47.1108 44.1191C46.1718 44.1191 45.4155 44.8754 45.4155 45.8144V46.5457H52.3795V45.8144C52.3795 44.8754 51.6233 44.1191 50.6842 44.1191Z" stroke="#76808D" stroke-linecap="round" stroke-linejoin="round"/>
<path d="M45.3076 55.9111H52.496" stroke="#76808D" stroke-linecap="round" stroke-linejoin="round"/>
<path d="M45.3076 52.8198H52.496" stroke="#76808D" stroke-linecap="round" stroke-linejoin="round"/>
<path d="M45.3076 49.7285H52.496" stroke="#76808D" stroke-linecap="round" stroke-linejoin="round"/>
</g>
</g>
<defs>
<filter id="filter0_dd_3214_11044" x="0" y="0" width="355.976" height="132" filterUnits="userSpaceOnUse" color-interpolation-filters="sRGB">
<feFlood flood-opacity="0" result="BackgroundImageFix"/>
<feColorMatrix in="SourceAlpha" type="matrix" values="0 0 0 0 0 0 0 0 0 0 0 0 0 0 0 0 0 0 127 0" result="hardAlpha"/>
<feOffset/>
<feGaussianBlur stdDeviation="10"/>
<feComposite in2="hardAlpha" operator="out"/>
<feColorMatrix type="matrix" values="0 0 0 0 0.788235 0 0 0 0 0.294118 0 0 0 0 0.196078 0 0 0 0.18 0"/>
<feBlend mode="normal" in2="BackgroundImageFix" result="effect1_dropShadow_3214_11044"/>
<feColorMatrix in="SourceAlpha" type="matrix" values="0 0 0 0 0 0 0 0 0 0 0 0 0 0 0 0 0 0 127 0" result="hardAlpha"/>
<feOffset dx="3" dy="5"/>
<feGaussianBlur stdDeviation="10"/>
<feComposite in2="hardAlpha" operator="out"/>
<feColorMatrix type="matrix" values="0 0 0 0 0.105882 0 0 0 0 0.168627 0 0 0 0 0.254902 0 0 0 0.12 0"/>
<feBlend mode="normal" in2="effect1_dropShadow_3214_11044" result="effect2_dropShadow_3214_11044"/>
<feBlend mode="normal" in="SourceGraphic" in2="effect2_dropShadow_3214_11044" result="shape"/>
</filter>
<clipPath id="clip0_3214_11044">
<rect width="13.795" height="18" fill="white" transform="translate(42 42)"/>
</clipPath>
</defs>
</svg>
