<svg width="356" height="132" viewBox="0 0 356 132" fill="none" xmlns="http://www.w3.org/2000/svg">
<g filter="url(#filter0_dd_3214_11044)">
<rect x="20" y="20" width="312.976" height="87" rx="20" fill="white" shape-rendering="crispEdges"/>
<path d="M56.4268 83H54.3428L45.7598 69.8193H45.6738C45.7884 71.3662 45.8457 72.7842 45.8457 74.0732V83H44.1592V67.2949H46.2217L54.7832 80.4219H54.8691C54.8548 80.2285 54.8226 79.609 54.7725 78.5635C54.7223 77.5107 54.7044 76.7588 54.7188 76.3076V67.2949H56.4268V83ZM65.2082 83.2148C63.468 83.2148 62.093 82.6849 61.0832 81.625C60.0806 80.5651 59.5793 79.0934 59.5793 77.21C59.5793 75.3122 60.0448 73.8047 60.9758 72.6875C61.9139 71.5703 63.1708 71.0117 64.7463 71.0117C66.2215 71.0117 67.3889 71.4987 68.2482 72.4727C69.1076 73.4395 69.5373 74.7178 69.5373 76.3076V77.4355H61.4269C61.4628 78.8177 61.8101 79.8669 62.4689 80.583C63.135 81.2992 64.0695 81.6572 65.2726 81.6572C66.5402 81.6572 67.7935 81.3923 69.0324 80.8623V82.4521C68.4022 82.7243 67.8042 82.9176 67.2385 83.0322C66.6799 83.154 66.0031 83.2148 65.2082 83.2148ZM64.7248 72.5049C63.7795 72.5049 63.0239 72.8128 62.4582 73.4287C61.8996 74.0446 61.5702 74.8968 61.4699 75.9854H67.6252C67.6252 74.861 67.3745 74.0016 66.8732 73.4072C66.3719 72.8057 65.6558 72.5049 64.7248 72.5049ZM77.3197 83.2148C75.5795 83.2148 74.2045 82.6849 73.1947 81.625C72.1921 80.5651 71.6908 79.0934 71.6908 77.21C71.6908 75.3122 72.1563 73.8047 73.0873 72.6875C74.0254 71.5703 75.2823 71.0117 76.8578 71.0117C78.3331 71.0117 79.5004 71.4987 80.3598 72.4727C81.2191 73.4395 81.6488 74.7178 81.6488 76.3076V77.4355H73.5385C73.5743 78.8177 73.9216 79.8669 74.5805 80.583C75.2465 81.2992 76.181 81.6572 77.3842 81.6572C78.6517 81.6572 79.905 81.3923 81.1439 80.8623V82.4521C80.5137 82.7243 79.9157 82.9176 79.35 83.0322C78.7914 83.154 78.1146 83.2148 77.3197 83.2148ZM76.8363 72.5049C75.891 72.5049 75.1355 72.8128 74.5697 73.4287C74.0111 74.0446 73.6817 74.8968 73.5814 75.9854H79.7367C79.7367 74.861 79.4861 74.0016 78.9848 73.4072C78.4834 72.8057 77.7673 72.5049 76.8363 72.5049ZM92.4713 81.4209H92.3746C91.551 82.6169 90.3192 83.2148 88.6793 83.2148C87.1396 83.2148 85.94 82.6885 85.0806 81.6357C84.2284 80.583 83.8023 79.0863 83.8023 77.1455C83.8023 75.2048 84.232 73.6973 85.0914 72.623C85.9508 71.5488 87.1467 71.0117 88.6793 71.0117C90.2763 71.0117 91.5009 71.5918 92.3531 72.752H92.4927L92.4176 71.9033L92.3746 71.0762V66.2852H94.1578V83H92.7076L92.4713 81.4209ZM88.9049 81.7217C90.1223 81.7217 91.0032 81.3923 91.5474 80.7334C92.0989 80.0674 92.3746 78.9967 92.3746 77.5215V77.1455C92.3746 75.4769 92.0953 74.2881 91.5367 73.5791C90.9853 72.863 90.1008 72.5049 88.8834 72.5049C87.8378 72.5049 87.0357 72.9131 86.4771 73.7295C85.9257 74.5387 85.65 75.6846 85.65 77.167C85.65 78.6709 85.9257 79.806 86.4771 80.5723C87.0286 81.3385 87.8378 81.7217 88.9049 81.7217ZM105.303 79.7881C105.303 80.8838 104.894 81.7288 104.078 82.3232C103.261 82.9176 102.116 83.2148 100.64 83.2148C99.0792 83.2148 97.8618 82.9678 96.9881 82.4736V80.8193C97.5538 81.1058 98.159 81.3314 98.8035 81.4961C99.4552 81.6608 100.082 81.7432 100.683 81.7432C101.614 81.7432 102.331 81.5964 102.832 81.3027C103.333 81.002 103.584 80.5472 103.584 79.9385C103.584 79.4801 103.383 79.0898 102.982 78.7676C102.588 78.4382 101.815 78.0514 100.662 77.6074C99.5662 77.1992 98.7856 76.8447 98.3201 76.5439C97.8618 76.236 97.518 75.8887 97.2888 75.502C97.0668 75.1152 96.9558 74.6533 96.9558 74.1162C96.9558 73.1566 97.3461 72.401 98.1267 71.8496C98.9073 71.291 99.978 71.0117 101.339 71.0117C102.606 71.0117 103.845 71.2695 105.055 71.7852L104.422 73.2354C103.24 72.7484 102.169 72.5049 101.21 72.5049C100.365 72.5049 99.7273 72.6374 99.2976 72.9023C98.8679 73.1673 98.6531 73.5326 98.6531 73.998C98.6531 74.3132 98.7319 74.5817 98.8894 74.8037C99.0541 75.0257 99.3155 75.237 99.6736 75.4375C100.032 75.638 100.719 75.9281 101.736 76.3076C103.133 76.8161 104.074 77.3281 104.561 77.8438C105.055 78.3594 105.303 79.0075 105.303 79.7881ZM111.554 70.9902H115.142L117.408 77.7471C117.602 78.3343 117.734 79.029 117.806 79.8311H117.87C117.949 79.0934 118.103 78.3988 118.332 77.7471L120.556 70.9902H124.069L118.987 84.5361C118.522 85.7894 117.856 86.7275 116.989 87.3506C116.13 87.9736 115.124 88.2852 113.971 88.2852C113.405 88.2852 112.85 88.2243 112.306 88.1025V85.5029C112.7 85.596 113.129 85.6426 113.595 85.6426C114.175 85.6426 114.68 85.4635 115.11 85.1055C115.546 84.7546 115.887 84.221 116.13 83.5049L116.323 82.9141L111.554 70.9902ZM128.166 76.9736C128.166 78.1624 128.36 79.0612 128.746 79.6699C129.14 80.2786 129.778 80.583 130.659 80.583C131.532 80.583 132.159 80.2822 132.538 79.6807C132.925 79.0719 133.118 78.1696 133.118 76.9736C133.118 75.7848 132.925 74.8932 132.538 74.2988C132.152 73.7044 131.518 73.4072 130.637 73.4072C129.763 73.4072 129.133 73.7044 128.746 74.2988C128.36 74.8861 128.166 75.7777 128.166 76.9736ZM136.47 76.9736C136.47 78.9287 135.954 80.4577 134.923 81.5605C133.892 82.6634 132.456 83.2148 130.616 83.2148C129.463 83.2148 128.446 82.9642 127.565 82.4629C126.684 81.9544 126.007 81.2275 125.535 80.2822C125.062 79.3369 124.826 78.234 124.826 76.9736C124.826 75.0114 125.338 73.486 126.362 72.3975C127.386 71.3089 128.825 70.7646 130.68 70.7646C131.833 70.7646 132.85 71.0153 133.731 71.5166C134.612 72.0179 135.288 72.7376 135.761 73.6758C136.234 74.6139 136.47 75.7132 136.47 76.9736ZM147.443 83L147.002 81.4639H146.831C146.48 82.0225 145.982 82.4557 145.337 82.7637C144.693 83.0645 143.959 83.2148 143.135 83.2148C141.724 83.2148 140.661 82.8389 139.945 82.0869C139.229 81.3278 138.871 80.2393 138.871 78.8213V70.9902H142.147V78.0049C142.147 78.8714 142.301 79.5231 142.609 79.96C142.917 80.3896 143.407 80.6045 144.081 80.6045C144.997 80.6045 145.66 80.3001 146.068 79.6914C146.476 79.0755 146.68 78.0586 146.68 76.6406V70.9902H149.957V83H147.443ZM159.855 70.7646C160.299 70.7646 160.668 70.7969 160.962 70.8613L160.715 73.9336C160.45 73.862 160.127 73.8262 159.748 73.8262C158.702 73.8262 157.886 74.0947 157.299 74.6318C156.718 75.1689 156.428 75.9209 156.428 76.8877V83H153.152V70.9902H155.634L156.117 73.0098H156.278C156.65 72.3366 157.152 71.7959 157.782 71.3877C158.419 70.9723 159.11 70.7646 159.855 70.7646ZM179.459 83H176.183V75.9854C176.183 74.2523 175.538 73.3857 174.249 73.3857C173.332 73.3857 172.67 73.6973 172.262 74.3203C171.854 74.9434 171.65 75.9531 171.65 77.3496V83H168.373V66.2852H171.65V69.6904C171.65 69.9554 171.624 70.5785 171.574 71.5596L171.499 72.5264H171.671C172.401 71.3519 173.562 70.7646 175.151 70.7646C176.562 70.7646 177.633 71.1442 178.363 71.9033C179.094 72.6624 179.459 73.751 179.459 75.1689V83ZM187.564 73.0957C186.869 73.0957 186.325 73.3177 185.931 73.7617C185.537 74.1986 185.311 74.8216 185.254 75.6309H189.852C189.838 74.8216 189.626 74.1986 189.218 73.7617C188.81 73.3177 188.258 73.0957 187.564 73.0957ZM188.026 83.2148C186.092 83.2148 184.581 82.6813 183.492 81.6143C182.404 80.5472 181.86 79.0361 181.86 77.0811C181.86 75.0687 182.361 73.5146 183.364 72.4189C184.373 71.3161 185.766 70.7646 187.542 70.7646C189.24 70.7646 190.561 71.248 191.506 72.2148C192.451 73.1816 192.924 74.5173 192.924 76.2217V77.8115H185.179C185.215 78.7425 185.491 79.4694 186.006 79.9922C186.522 80.515 187.245 80.7764 188.176 80.7764C188.899 80.7764 189.583 80.7012 190.228 80.5508C190.872 80.4004 191.546 80.1605 192.247 79.8311V82.3662C191.674 82.6527 191.062 82.8639 190.41 83C189.759 83.1432 188.964 83.2148 188.026 83.2148ZM198.623 83H195.346V66.2852H198.623V83ZM208.424 83.2148C207.014 83.2148 205.907 82.7028 205.105 81.6787H204.933C205.048 82.6813 205.105 83.2614 205.105 83.4189V88.2852H201.829V70.9902H204.493L204.955 72.5479H205.105C205.871 71.359 207.007 70.7646 208.51 70.7646C209.928 70.7646 211.038 71.3125 211.841 72.4082C212.643 73.5039 213.044 75.0257 213.044 76.9736C213.044 78.2555 212.854 79.3691 212.474 80.3145C212.102 81.2598 211.568 81.9795 210.874 82.4736C210.179 82.9678 209.363 83.2148 208.424 83.2148ZM207.458 73.3857C206.648 73.3857 206.058 73.6364 205.685 74.1377C205.313 74.6318 205.119 75.4518 205.105 76.5977V76.9521C205.105 78.2412 205.295 79.165 205.674 79.7236C206.061 80.2822 206.67 80.5615 207.501 80.5615C208.969 80.5615 209.703 79.3512 209.703 76.9307C209.703 75.749 209.52 74.8646 209.155 74.2773C208.797 73.6829 208.231 73.3857 207.458 73.3857Z" fill="#B12F15"/>
<path d="M279.244 59H278.068L279.408 52.7588C279.676 51.5693 279.877 50.7513 280.009 50.3047C279.781 50.5462 279.465 50.7992 279.059 51.0635L277.842 51.8154L277.295 50.9473L280.365 49.0059H281.383L279.244 59ZM290.4 52.0684C290.4 53.4128 290.22 54.641 289.86 55.7529C289.504 56.8649 289.017 57.708 288.397 58.2822C287.782 58.8519 287.066 59.1367 286.25 59.1367C285.448 59.1367 284.833 58.8473 284.405 58.2686C283.976 57.6852 283.762 56.8421 283.762 55.7393C283.762 54.5088 283.949 53.3376 284.323 52.2256C284.696 51.109 285.189 50.2682 285.799 49.7031C286.414 49.1335 287.116 48.8486 287.905 48.8486C289.568 48.8486 290.4 49.9219 290.4 52.0684ZM287.836 49.833C287.321 49.833 286.845 50.0973 286.408 50.626C285.97 51.1501 285.615 51.8861 285.341 52.834C285.072 53.7773 284.938 54.7412 284.938 55.7256C284.938 56.5094 285.052 57.111 285.28 57.5303C285.508 57.9495 285.874 58.1592 286.38 58.1592C286.904 58.1592 287.381 57.8994 287.809 57.3799C288.237 56.8604 288.579 56.113 288.834 55.1377C289.094 54.1624 289.224 53.1302 289.224 52.041C289.224 50.569 288.761 49.833 287.836 49.833ZM296.75 49.0059L291.193 59H290.003L295.561 49.0059H296.75ZM303.019 52.0684C303.019 53.4128 302.839 54.641 302.479 55.7529C302.123 56.8649 301.636 57.708 301.016 58.2822C300.401 58.8519 299.685 59.1367 298.869 59.1367C298.067 59.1367 297.452 58.8473 297.024 58.2686C296.595 57.6852 296.381 56.8421 296.381 55.7393C296.381 54.5088 296.568 53.3376 296.942 52.2256C297.315 51.109 297.808 50.2682 298.418 49.7031C299.034 49.1335 299.735 48.8486 300.524 48.8486C302.187 48.8486 303.019 49.9219 303.019 52.0684ZM300.455 49.833C299.94 49.833 299.464 50.0973 299.027 50.626C298.589 51.1501 298.234 51.8861 297.96 52.834C297.691 53.7773 297.557 54.7412 297.557 55.7256C297.557 56.5094 297.671 57.111 297.899 57.5303C298.127 57.9495 298.494 58.1592 298.999 58.1592C299.523 58.1592 300 57.8994 300.428 57.3799C300.856 56.8604 301.198 56.113 301.453 55.1377C301.713 54.1624 301.843 53.1302 301.843 52.041C301.843 50.569 301.381 49.833 300.455 49.833ZM310.6 51.0771C310.6 51.7881 310.37 52.3919 309.91 52.8887C309.449 53.3809 308.811 53.6999 307.995 53.8457V53.9072C308.561 54.012 309.005 54.2559 309.328 54.6387C309.652 55.0169 309.814 55.4909 309.814 56.0605C309.814 56.6667 309.673 57.2021 309.39 57.667C309.107 58.1273 308.695 58.4873 308.153 58.7471C307.61 59.0068 306.966 59.1367 306.218 59.1367C305.261 59.1367 304.384 58.9567 303.586 58.5967V57.4756C304.015 57.6989 304.468 57.8721 304.947 57.9951C305.425 58.1136 305.858 58.1729 306.245 58.1729C306.984 58.1729 307.558 57.9928 307.968 57.6328C308.378 57.2682 308.583 56.7715 308.583 56.1426C308.583 55.5456 308.403 55.0944 308.043 54.7891C307.683 54.4792 307.182 54.3242 306.539 54.3242H305.644L305.856 53.3467H306.806C307.558 53.3467 308.182 53.1484 308.679 52.752C309.176 52.3555 309.424 51.8382 309.424 51.2002C309.424 50.7809 309.292 50.4482 309.028 50.2021C308.763 49.9561 308.406 49.833 307.954 49.833C307.59 49.833 307.232 49.8945 306.881 50.0176C306.53 50.1406 306.132 50.3525 305.685 50.6533L305.138 49.8467C306.027 49.1904 306.993 48.8623 308.036 48.8623C308.852 48.8623 309.483 49.0605 309.93 49.457C310.377 49.8535 310.6 50.3936 310.6 51.0771Z" fill="#76808D" fill-opacity="0.5"/>
<path d="M68.9492 47.6016C67.694 47.6016 66.7018 48.0208 65.9727 48.8594C65.2487 49.6927 64.8867 50.8359 64.8867 52.2891C64.8867 53.7839 65.2357 54.9401 65.9336 55.7578C66.6367 56.5703 67.6367 56.9766 68.9336 56.9766C69.7305 56.9766 70.6393 56.8333 71.6602 56.5469V57.7109C70.8685 58.0078 69.8919 58.1562 68.7305 58.1562C67.0482 58.1562 65.7487 57.6458 64.832 56.625C63.9206 55.6042 63.4648 54.1536 63.4648 52.2734C63.4648 51.0964 63.6836 50.0651 64.1211 49.1797C64.5638 48.2943 65.1992 47.612 66.0273 47.1328C66.8607 46.6536 67.8398 46.4141 68.9648 46.4141C70.1628 46.4141 71.2096 46.6328 72.1055 47.0703L71.543 48.2109C70.6784 47.8047 69.8138 47.6016 68.9492 47.6016ZM77.6873 49.2812C78.0675 49.2812 78.4086 49.3125 78.7107 49.375L78.531 50.5781C78.1769 50.5 77.8644 50.4609 77.5935 50.4609C76.9008 50.4609 76.3071 50.7422 75.8123 51.3047C75.3227 51.8672 75.0779 52.5677 75.0779 53.4062V58H73.781V49.4375H74.8513L74.9998 51.0234H75.0623C75.38 50.4661 75.7628 50.0365 76.2107 49.7344C76.6586 49.4323 77.1508 49.2812 77.6873 49.2812ZM83.7535 58.1562C82.4878 58.1562 81.4878 57.7708 80.7535 57C80.0243 56.2292 79.6597 55.1589 79.6597 53.7891C79.6597 52.4089 79.9983 51.3125 80.6753 50.5C81.3576 49.6875 82.2717 49.2812 83.4175 49.2812C84.4904 49.2812 85.3394 49.6354 85.9644 50.3438C86.5894 51.0469 86.9019 51.9766 86.9019 53.1328V53.9531H81.0035C81.0295 54.9583 81.2821 55.7214 81.7613 56.2422C82.2457 56.763 82.9253 57.0234 83.8003 57.0234C84.7222 57.0234 85.6337 56.8307 86.5347 56.4453V57.6016C86.0764 57.7995 85.6415 57.9401 85.23 58.0234C84.8238 58.112 84.3316 58.1562 83.7535 58.1562ZM83.4019 50.3672C82.7144 50.3672 82.1649 50.5911 81.7535 51.0391C81.3472 51.487 81.1076 52.1068 81.0347 52.8984H85.5113C85.5113 52.0807 85.329 51.4557 84.9644 51.0234C84.5998 50.5859 84.079 50.3672 83.4019 50.3672ZM94.2103 58L93.9525 56.7812H93.89C93.4629 57.3177 93.0358 57.6823 92.6087 57.875C92.1868 58.0625 91.6582 58.1562 91.0228 58.1562C90.1738 58.1562 89.5072 57.9375 89.0228 57.5C88.5436 57.0625 88.304 56.4401 88.304 55.6328C88.304 53.9036 89.6868 52.9974 92.4525 52.9141L93.9056 52.8672V52.3359C93.9056 51.6641 93.7598 51.1693 93.4681 50.8516C93.1816 50.5286 92.7207 50.3672 92.0853 50.3672C91.3717 50.3672 90.5644 50.5859 89.6634 51.0234L89.265 50.0312C89.6868 49.8021 90.1478 49.6224 90.6478 49.4922C91.153 49.362 91.6582 49.2969 92.1634 49.2969C93.1842 49.2969 93.9394 49.5234 94.429 49.9766C94.9238 50.4297 95.1712 51.1562 95.1712 52.1562V58H94.2103ZM91.2806 57.0859C92.0879 57.0859 92.7207 56.8646 93.179 56.4219C93.6426 55.9792 93.8743 55.3594 93.8743 54.5625V53.7891L92.5775 53.8438C91.5462 53.8802 90.8014 54.0417 90.3431 54.3281C89.89 54.6094 89.6634 55.0495 89.6634 55.6484C89.6634 56.1172 89.804 56.474 90.0853 56.7188C90.3717 56.9635 90.7702 57.0859 91.2806 57.0859ZM100.441 57.0859C100.67 57.0859 100.891 57.0703 101.105 57.0391C101.318 57.0026 101.487 56.9661 101.612 56.9297V57.9219C101.472 57.9896 101.263 58.0443 100.987 58.0859C100.717 58.1328 100.472 58.1562 100.253 58.1562C98.5968 58.1562 97.7687 57.2839 97.7687 55.5391V50.4453H96.5421V49.8203L97.7687 49.2812L98.3155 47.4531H99.0655V49.4375H101.55V50.4453H99.0655V55.4844C99.0655 56 99.1879 56.3958 99.4327 56.6719C99.6775 56.9479 100.013 57.0859 100.441 57.0859ZM106.772 58.1562C105.507 58.1562 104.507 57.7708 103.772 57C103.043 56.2292 102.679 55.1589 102.679 53.7891C102.679 52.4089 103.017 51.3125 103.694 50.5C104.377 49.6875 105.291 49.2812 106.436 49.2812C107.509 49.2812 108.358 49.6354 108.983 50.3438C109.608 51.0469 109.921 51.9766 109.921 53.1328V53.9531H104.022C104.048 54.9583 104.301 55.7214 104.78 56.2422C105.265 56.763 105.944 57.0234 106.819 57.0234C107.741 57.0234 108.653 56.8307 109.554 56.4453V57.6016C109.095 57.7995 108.66 57.9401 108.249 58.0234C107.843 58.112 107.35 58.1562 106.772 58.1562ZM106.421 50.3672C105.733 50.3672 105.184 50.5911 104.772 51.0391C104.366 51.487 104.127 52.1068 104.054 52.8984H108.53C108.53 52.0807 108.348 51.4557 107.983 51.0234C107.619 50.5859 107.098 50.3672 106.421 50.3672ZM116.139 58V46.5781H117.467V56.7969H122.506V58H116.139ZM129.346 58L129.088 56.7812H129.026C128.599 57.3177 128.171 57.6823 127.744 57.875C127.322 58.0625 126.794 58.1562 126.158 58.1562C125.309 58.1562 124.643 57.9375 124.158 57.5C123.679 57.0625 123.44 56.4401 123.44 55.6328C123.44 53.9036 124.822 52.9974 127.588 52.9141L129.041 52.8672V52.3359C129.041 51.6641 128.895 51.1693 128.604 50.8516C128.317 50.5286 127.856 50.3672 127.221 50.3672C126.507 50.3672 125.7 50.5859 124.799 51.0234L124.401 50.0312C124.822 49.8021 125.283 49.6224 125.783 49.4922C126.289 49.362 126.794 49.2969 127.299 49.2969C128.32 49.2969 129.075 49.5234 129.565 49.9766C130.059 50.4297 130.307 51.1562 130.307 52.1562V58H129.346ZM126.416 57.0859C127.224 57.0859 127.856 56.8646 128.315 56.4219C128.778 55.9792 129.01 55.3594 129.01 54.5625V53.7891L127.713 53.8438C126.682 53.8802 125.937 54.0417 125.479 54.3281C125.026 54.6094 124.799 55.0495 124.799 55.6484C124.799 56.1172 124.94 56.474 125.221 56.7188C125.507 56.9635 125.906 57.0859 126.416 57.0859ZM138.67 58V52.4609C138.67 51.763 138.511 51.2422 138.193 50.8984C137.876 50.5547 137.378 50.3828 136.701 50.3828C135.805 50.3828 135.149 50.625 134.732 51.1094C134.316 51.5938 134.107 52.3932 134.107 53.5078V58H132.811V49.4375H133.865L134.076 50.6094H134.139C134.404 50.1875 134.777 49.862 135.256 49.6328C135.735 49.3984 136.269 49.2812 136.857 49.2812C137.889 49.2812 138.665 49.5312 139.186 50.0312C139.706 50.526 139.967 51.3203 139.967 52.4141V58H138.67ZM148.291 56.8516H148.22C147.622 57.7214 146.726 58.1562 145.533 58.1562C144.413 58.1562 143.541 57.7734 142.916 57.0078C142.296 56.2422 141.986 55.1536 141.986 53.7422C141.986 52.3307 142.299 51.2344 142.924 50.4531C143.549 49.6719 144.418 49.2812 145.533 49.2812C146.694 49.2812 147.585 49.7031 148.205 50.5469H148.306L148.252 49.9297L148.22 49.3281V45.8438H149.517V58H148.463L148.291 56.8516ZM145.697 57.0703C146.582 57.0703 147.223 56.8307 147.619 56.3516C148.02 55.8672 148.22 55.0885 148.22 54.0156V53.7422C148.22 52.5286 148.017 51.6641 147.611 51.1484C147.21 50.6276 146.567 50.3672 145.681 50.3672C144.921 50.3672 144.338 50.6641 143.931 51.2578C143.53 51.8464 143.33 52.6797 143.33 53.7578C143.33 54.8516 143.53 55.6771 143.931 56.2344C144.332 56.7917 144.921 57.0703 145.697 57.0703ZM153.396 58H152.099V49.4375H153.396V58ZM151.99 47.1172C151.99 46.8203 152.063 46.6042 152.209 46.4688C152.354 46.3281 152.537 46.2578 152.755 46.2578C152.964 46.2578 153.143 46.3281 153.294 46.4688C153.446 46.6094 153.521 46.8255 153.521 47.1172C153.521 47.4089 153.446 47.6276 153.294 47.7734C153.143 47.9141 152.964 47.9844 152.755 47.9844C152.537 47.9844 152.354 47.9141 152.209 47.7734C152.063 47.6276 151.99 47.4089 151.99 47.1172ZM161.829 58V52.4609C161.829 51.763 161.671 51.2422 161.353 50.8984C161.035 50.5547 160.538 50.3828 159.861 50.3828C158.965 50.3828 158.309 50.625 157.892 51.1094C157.475 51.5938 157.267 52.3932 157.267 53.5078V58H155.97V49.4375H157.025L157.236 50.6094H157.298C157.564 50.1875 157.936 49.862 158.415 49.6328C158.895 49.3984 159.428 49.2812 160.017 49.2812C161.048 49.2812 161.824 49.5312 162.345 50.0312C162.866 50.526 163.126 51.3203 163.126 52.4141V58H161.829ZM172.63 49.4375V50.2578L171.044 50.4453C171.19 50.6276 171.32 50.8672 171.435 51.1641C171.549 51.4557 171.607 51.7865 171.607 52.1562C171.607 52.9948 171.32 53.6641 170.747 54.1641C170.174 54.6641 169.388 54.9141 168.388 54.9141C168.133 54.9141 167.893 54.8932 167.669 54.8516C167.117 55.1432 166.841 55.5104 166.841 55.9531C166.841 56.1875 166.937 56.362 167.13 56.4766C167.323 56.5859 167.653 56.6406 168.122 56.6406H169.638C170.565 56.6406 171.276 56.8359 171.771 57.2266C172.271 57.6172 172.521 58.1849 172.521 58.9297C172.521 59.8776 172.14 60.599 171.38 61.0938C170.62 61.5938 169.51 61.8438 168.052 61.8438C166.932 61.8438 166.067 61.6354 165.458 61.2188C164.854 60.8021 164.552 60.2135 164.552 59.4531C164.552 58.9323 164.719 58.4818 165.052 58.1016C165.385 57.7214 165.854 57.4635 166.458 57.3281C166.239 57.2292 166.054 57.0755 165.903 56.8672C165.758 56.6589 165.685 56.4167 165.685 56.1406C165.685 55.8281 165.768 55.5547 165.935 55.3203C166.101 55.0859 166.364 54.8594 166.724 54.6406C166.281 54.4583 165.919 54.1484 165.638 53.7109C165.362 53.2734 165.224 52.7734 165.224 52.2109C165.224 51.2734 165.505 50.5521 166.067 50.0469C166.63 49.5365 167.427 49.2812 168.458 49.2812C168.906 49.2812 169.31 49.3333 169.669 49.4375H172.63ZM165.802 59.4375C165.802 59.901 165.997 60.2526 166.388 60.4922C166.778 60.7318 167.338 60.8516 168.067 60.8516C169.156 60.8516 169.961 60.6875 170.482 60.3594C171.008 60.0365 171.271 59.5964 171.271 59.0391C171.271 58.5755 171.127 58.2526 170.841 58.0703C170.554 57.8932 170.015 57.8047 169.224 57.8047H167.669C167.08 57.8047 166.622 57.9453 166.294 58.2266C165.966 58.5078 165.802 58.9115 165.802 59.4375ZM166.505 52.1797C166.505 52.7786 166.674 53.2318 167.013 53.5391C167.351 53.8464 167.823 54 168.427 54C169.692 54 170.325 53.3854 170.325 52.1562C170.325 50.8698 169.685 50.2266 168.403 50.2266C167.794 50.2266 167.325 50.3906 166.997 50.7188C166.669 51.0469 166.505 51.5339 166.505 52.1797ZM185.63 49.9062C185.63 51.0625 185.234 51.9531 184.442 52.5781C183.656 53.1979 182.528 53.5078 181.059 53.5078H179.715V58H178.387V46.5781H181.348C184.202 46.5781 185.63 47.6875 185.63 49.9062ZM179.715 52.3672H180.911C182.088 52.3672 182.939 52.1771 183.465 51.7969C183.992 51.4167 184.255 50.8073 184.255 49.9688C184.255 49.2135 184.007 48.651 183.512 48.2812C183.018 47.9115 182.247 47.7266 181.2 47.7266H179.715V52.3672ZM192.922 58L192.664 56.7812H192.602C192.175 57.3177 191.748 57.6823 191.321 57.875C190.899 58.0625 190.37 58.1562 189.735 58.1562C188.886 58.1562 188.219 57.9375 187.735 57.5C187.256 57.0625 187.016 56.4401 187.016 55.6328C187.016 53.9036 188.399 52.9974 191.164 52.9141L192.618 52.8672V52.3359C192.618 51.6641 192.472 51.1693 192.18 50.8516C191.894 50.5286 191.433 50.3672 190.797 50.3672C190.084 50.3672 189.276 50.5859 188.375 51.0234L187.977 50.0312C188.399 49.8021 188.86 49.6224 189.36 49.4922C189.865 49.362 190.37 49.2969 190.875 49.2969C191.896 49.2969 192.651 49.5234 193.141 49.9766C193.636 50.4297 193.883 51.1562 193.883 52.1562V58H192.922ZM189.993 57.0859C190.8 57.0859 191.433 56.8646 191.891 56.4219C192.355 55.9792 192.586 55.3594 192.586 54.5625V53.7891L191.289 53.8438C190.258 53.8802 189.513 54.0417 189.055 54.3281C188.602 54.6094 188.375 55.0495 188.375 55.6484C188.375 56.1172 188.516 56.474 188.797 56.7188C189.084 56.9635 189.482 57.0859 189.993 57.0859ZM203.395 49.4375V50.2578L201.809 50.4453C201.955 50.6276 202.085 50.8672 202.199 51.1641C202.314 51.4557 202.371 51.7865 202.371 52.1562C202.371 52.9948 202.085 53.6641 201.512 54.1641C200.939 54.6641 200.153 54.9141 199.153 54.9141C198.897 54.9141 198.658 54.8932 198.434 54.8516C197.882 55.1432 197.606 55.5104 197.606 55.9531C197.606 56.1875 197.702 56.362 197.895 56.4766C198.087 56.5859 198.418 56.6406 198.887 56.6406H200.403C201.33 56.6406 202.041 56.8359 202.535 57.2266C203.035 57.6172 203.285 58.1849 203.285 58.9297C203.285 59.8776 202.905 60.599 202.145 61.0938C201.384 61.5938 200.275 61.8438 198.817 61.8438C197.697 61.8438 196.832 61.6354 196.223 61.2188C195.619 60.8021 195.317 60.2135 195.317 59.4531C195.317 58.9323 195.483 58.4818 195.817 58.1016C196.15 57.7214 196.619 57.4635 197.223 57.3281C197.004 57.2292 196.819 57.0755 196.668 56.8672C196.522 56.6589 196.449 56.4167 196.449 56.1406C196.449 55.8281 196.533 55.5547 196.699 55.3203C196.866 55.0859 197.129 54.8594 197.488 54.6406C197.046 54.4583 196.684 54.1484 196.403 53.7109C196.126 53.2734 195.988 52.7734 195.988 52.2109C195.988 51.2734 196.27 50.5521 196.832 50.0469C197.395 49.5365 198.192 49.2812 199.223 49.2812C199.671 49.2812 200.074 49.3333 200.434 49.4375H203.395ZM196.567 59.4375C196.567 59.901 196.762 60.2526 197.153 60.4922C197.543 60.7318 198.103 60.8516 198.832 60.8516C199.921 60.8516 200.725 60.6875 201.246 60.3594C201.772 60.0365 202.035 59.5964 202.035 59.0391C202.035 58.5755 201.892 58.2526 201.606 58.0703C201.319 57.8932 200.78 57.8047 199.988 57.8047H198.434C197.845 57.8047 197.387 57.9453 197.059 58.2266C196.731 58.5078 196.567 58.9115 196.567 59.4375ZM197.27 52.1797C197.27 52.7786 197.439 53.2318 197.778 53.5391C198.116 53.8464 198.587 54 199.192 54C200.457 54 201.09 53.3854 201.09 52.1562C201.09 50.8698 200.449 50.2266 199.168 50.2266C198.559 50.2266 198.09 50.3906 197.762 50.7188C197.434 51.0469 197.27 51.5339 197.27 52.1797ZM208.594 58.1562C207.328 58.1562 206.328 57.7708 205.594 57C204.865 56.2292 204.5 55.1589 204.5 53.7891C204.5 52.4089 204.839 51.3125 205.516 50.5C206.198 49.6875 207.112 49.2812 208.258 49.2812C209.331 49.2812 210.18 49.6354 210.805 50.3438C211.43 51.0469 211.742 51.9766 211.742 53.1328V53.9531H205.844C205.87 54.9583 206.122 55.7214 206.602 56.2422C207.086 56.763 207.766 57.0234 208.641 57.0234C209.562 57.0234 210.474 56.8307 211.375 56.4453V57.6016C210.917 57.7995 210.482 57.9401 210.07 58.0234C209.664 58.112 209.172 58.1562 208.594 58.1562ZM208.242 50.3672C207.555 50.3672 207.005 50.5911 206.594 51.0391C206.187 51.487 205.948 52.1068 205.875 52.8984H210.352C210.352 52.0807 210.169 51.4557 209.805 51.0234C209.44 50.5859 208.919 50.3672 208.242 50.3672Z" fill="#76808D"/>
<g clip-path="url(#clip0_3214_11044)">
<path d="M52.554 45.374H53.6344C54.5984 45.374 55.3878 46.2632 55.3878 47.3519V57.6067C55.3878 58.7037 54.6067 59.5846 53.6344 59.5846H44.169C43.205 59.5846 42.4155 58.6954 42.4155 57.6067V47.3519C42.4155 46.2549 43.1967 45.374 44.169 45.374H45.3324" stroke="#76808D" stroke-linecap="round" stroke-linejoin="round"/>
<path d="M50.6842 44.1191C50.6842 43.1801 49.9197 42.4155 48.9806 42.4155H48.8144C47.8754 42.4155 47.1108 43.1801 47.1108 44.1191C46.1718 44.1191 45.4155 44.8754 45.4155 45.8144V46.5457H52.3795V45.8144C52.3795 44.8754 51.6233 44.1191 50.6842 44.1191Z" stroke="#76808D" stroke-linecap="round" stroke-linejoin="round"/>
<path d="M45.3076 55.9111H52.496" stroke="#76808D" stroke-linecap="round" stroke-linejoin="round"/>
<path d="M45.3076 52.8198H52.496" stroke="#76808D" stroke-linecap="round" stroke-linejoin="round"/>
<path d="M45.3076 49.7285H52.496" stroke="#76808D" stroke-linecap="round" stroke-linejoin="round"/>
</g>
</g>
<defs>
<filter id="filter0_dd_3214_11044" x="0" y="0" width="355.976" height="132" filterUnits="userSpaceOnUse" color-interpolation-filters="sRGB">
<feFlood flood-opacity="0" result="BackgroundImageFix"/>
<feColorMatrix in="SourceAlpha" type="matrix" values="0 0 0 0 0 0 0 0 0 0 0 0 0 0 0 0 0 0 127 0" result="hardAlpha"/>
<feOffset/>
<feGaussianBlur stdDeviation="10"/>
<feComposite in2="hardAlpha" operator="out"/>
<feColorMatrix type="matrix" values="0 0 0 0 0.788235 0 0 0 0 0.294118 0 0 0 0 0.196078 0 0 0 0.18 0"/>
<feBlend mode="normal" in2="BackgroundImageFix" result="effect1_dropShadow_3214_11044"/>
<feColorMatrix in="SourceAlpha" type="matrix" values="0 0 0 0 0 0 0 0 0 0 0 0 0 0 0 0 0 0 127 0" result="hardAlpha"/>
<feOffset dx="3" dy="5"/>
<feGaussianBlur stdDeviation="10"/>
<feComposite in2="hardAlpha" operator="out"/>
<feColorMatrix type="matrix" values="0 0 0 0 0.105882 0 0 0 0 0.168627 0 0 0 0 0.254902 0 0 0 0.12 0"/>
<feBlend mode="normal" in2="effect1_dropShadow_3214_11044" result="effect2_dropShadow_3214_11044"/>
<feBlend mode="normal" in="SourceGraphic" in2="effect2_dropShadow_3214_11044" result="shape"/>
</filter>
<clipPath id="clip0_3214_11044">
<rect width="13.795" height="18" fill="white" transform="translate(42 42)"/>
</clipPath>
</defs>
</svg>
