<svg width="18" height="22" viewBox="0 0 18 22" fill="none" xmlns="http://www.w3.org/2000/svg">
<g clip-path="url(#clip0_3278_454)">
<path d="M9.04146 11C10.4443 11 11.5815 9.86285 11.5815 8.46004C11.5815 7.05724 10.4443 5.92004 9.04146 5.92004C7.63866 5.92004 6.50146 7.05724 6.50146 8.46004C6.50146 9.86285 7.63866 11 9.04146 11Z" stroke="#C94B32" stroke-linecap="round" stroke-linejoin="round"/>
<path d="M12.4317 16.54C12.4317 14.63 10.8817 13.08 8.97172 13.08C7.06172 13.08 5.51172 14.63 5.51172 16.54" stroke="#C94B32" stroke-linecap="round" stroke-linejoin="round"/>
<path d="M13.9116 0.73999H4.18162C2.51372 0.73999 1.16162 2.09209 1.16162 3.75999V18.24C1.16162 19.9079 2.51372 21.26 4.18162 21.26H13.9116C15.5795 21.26 16.9316 19.9079 16.9316 18.24V3.75999C16.9316 2.09209 15.5795 0.73999 13.9116 0.73999Z" stroke="#C94B32" stroke-linecap="round" stroke-linejoin="round"/>
</g>
<defs>
<clipPath id="clip0_3278_454">
<rect width="16.77" height="21.52" fill="white" transform="translate(0.661621 0.23999)"/>
</clipPath>
</defs>
</svg>
