<svg width="332" height="131" viewBox="0 0 332 131" fill="none" xmlns="http://www.w3.org/2000/svg">
<g filter="url(#filter0_dd_3228_8810)">
<rect x="20" y="20" width="289" height="86" rx="20" fill="white" shape-rendering="crispEdges"/>
<g clip-path="url(#clip0_3228_8810)">
<path d="M84.1989 55.2666C83.1636 54.6333 81.8276 54.6333 80.6921 55.2666L72.6431 60.1333L67.1657 63.3L59.1167 68.1666C58.0813 68.8 56.7454 68.8 55.6099 68.1666L49.2141 64.3666C48.1787 63.7333 47.4606 62.5666 47.4606 61.3V53.8C47.4606 52.5333 48.0785 51.3666 49.2141 50.7333L55.5097 47.0333C56.545 46.4 57.881 46.4 59.0165 47.0333L65.3121 50.7333C66.3475 51.3666 67.0655 52.5333 67.0655 53.8V58.6666L72.5429 55.3833V50.5166C72.5429 49.25 71.925 48.0833 70.7895 47.45L59.1334 40.4833C58.098 39.85 56.7621 39.85 55.6266 40.4833L43.7534 47.45C42.6179 48.0833 42 49.25 42 50.5166V64.5833C42 65.85 42.6179 67.0166 43.7534 67.65L55.6266 74.6333C56.6619 75.2666 57.9979 75.2666 59.1334 74.6333L67.1824 69.8833L72.6598 66.6L80.7088 61.85C81.7441 61.2166 83.0801 61.2166 84.2156 61.85L90.5112 65.55C91.5466 66.1833 92.2647 67.35 92.2647 68.6166V76.1166C92.2647 77.3833 91.6468 78.55 90.5112 79.1833L84.2156 82.9833C83.1803 83.6166 81.8443 83.6166 80.7088 82.9833L74.4132 79.2833C73.3778 78.65 72.6598 77.4833 72.6598 76.2166V71.35L67.1824 74.6333V79.5C67.1824 80.7666 67.8003 81.9333 68.9358 82.5666L80.809 89.55C81.8443 90.1833 83.1803 90.1833 84.3158 89.55L96.189 82.5666C97.2243 81.9333 97.9424 80.7666 97.9424 79.5V65.4166C97.9424 64.15 97.3245 62.9833 96.189 62.35L84.2156 55.2666H84.1989Z" fill="#76808D"/>
<path d="M119.718 85.5002V73.8335C120.971 75.4335 123.258 76.3169 125.914 76.3169C132.677 76.3169 137.236 71.4835 137.236 64.1335C137.236 56.7835 133.044 51.9502 126.465 51.9502C123.442 51.9502 121.104 53.0669 119.701 54.9002V52.3169H113.222V85.5002H119.701H119.718ZM125.129 70.6835C121.639 70.6835 119.351 68.0669 119.351 64.1169C119.351 60.1669 121.639 57.5002 125.129 57.5002C128.619 57.5002 130.857 60.1169 130.857 64.1169C130.857 68.1169 128.519 70.6835 125.129 70.6835Z" fill="#76808D"/>
<path d="M151.947 76.3169C159.178 76.3169 164.338 71.1669 164.338 64.1335C164.338 57.1002 159.162 51.9502 151.947 51.9502C144.733 51.9502 139.557 57.1002 139.557 64.1335C139.557 71.1669 144.733 76.3169 151.947 76.3169ZM151.947 70.7002C148.457 70.7002 146.069 68.0335 146.069 64.1335C146.069 60.2335 148.441 57.5169 151.947 57.5169C155.454 57.5169 157.826 60.1835 157.826 64.1335C157.826 68.0835 155.454 70.7002 151.947 70.7002Z" fill="#76808D"/>
<path d="M174.742 75.9331V42.0498H168.263V75.9331H174.742Z" fill="#76808D"/>
<path d="M194.213 52.3169L189.321 67.5502L184.378 52.3169H177.765L186.298 75.7502L182.841 85.5002H189.037L192.343 75.8502L200.876 52.3169H194.213Z" fill="#76808D"/>
<path d="M219.078 54.6669C217.776 53.0335 215.438 51.9502 212.599 51.9502C205.752 51.9502 201.594 56.7835 201.594 64.1335C201.594 71.4835 205.736 76.3169 212.683 76.3169C215.438 76.3169 217.909 75.2835 219.112 73.5502V76.6502C219.112 78.8502 217.659 80.4002 215.705 80.4002H204.884V85.5169H216.724C222.034 85.5169 225.574 82.2835 225.574 77.3669V52.3169H219.045V54.6669H219.078ZM213.718 70.7002C210.261 70.7002 207.99 68.1169 207.99 64.1335C207.99 60.1502 210.278 57.5169 213.718 57.5169C217.158 57.5169 219.496 60.1335 219.496 64.1335C219.496 68.1335 217.208 70.7002 213.718 70.7002Z" fill="#76808D"/>
<path d="M241.94 76.3169C249.17 76.3169 254.33 71.1669 254.33 64.1335C254.33 57.1002 249.154 51.9502 241.94 51.9502C234.726 51.9502 229.549 57.1002 229.549 64.1335C229.549 71.1669 234.726 76.3169 241.94 76.3169ZM241.94 70.7002C238.45 70.7002 236.062 68.0335 236.062 64.1335C236.062 60.2335 238.433 57.5169 241.94 57.5169C245.446 57.5169 247.818 60.1835 247.818 64.1335C247.818 68.0835 245.446 70.7002 241.94 70.7002Z" fill="#76808D"/>
<path d="M264.4 75.9331V62.9998C264.4 59.9498 266.404 57.7498 269.243 57.7498C272.082 57.7498 273.768 59.8164 273.768 62.6664V75.9331H280.298V61.2164C280.298 55.7831 276.841 51.9331 271.531 51.9331C268.308 51.9331 265.703 53.2998 264.4 55.5831V52.2998H257.871V75.9164H264.4V75.9331Z" fill="#76808D"/>
</g>
</g>
<defs>
<filter id="filter0_dd_3228_8810" x="0" y="0" width="332" height="131" filterUnits="userSpaceOnUse" color-interpolation-filters="sRGB">
<feFlood flood-opacity="0" result="BackgroundImageFix"/>
<feColorMatrix in="SourceAlpha" type="matrix" values="0 0 0 0 0 0 0 0 0 0 0 0 0 0 0 0 0 0 127 0" result="hardAlpha"/>
<feOffset/>
<feGaussianBlur stdDeviation="10"/>
<feComposite in2="hardAlpha" operator="out"/>
<feColorMatrix type="matrix" values="0 0 0 0 0.788235 0 0 0 0 0.294118 0 0 0 0 0.196078 0 0 0 0.18 0"/>
<feBlend mode="normal" in2="BackgroundImageFix" result="effect1_dropShadow_3228_8810"/>
<feColorMatrix in="SourceAlpha" type="matrix" values="0 0 0 0 0 0 0 0 0 0 0 0 0 0 0 0 0 0 127 0" result="hardAlpha"/>
<feOffset dx="3" dy="5"/>
<feGaussianBlur stdDeviation="10"/>
<feComposite in2="hardAlpha" operator="out"/>
<feColorMatrix type="matrix" values="0 0 0 0 0.105882 0 0 0 0 0.168627 0 0 0 0 0.254902 0 0 0 0.12 0"/>
<feBlend mode="normal" in2="effect1_dropShadow_3228_8810" result="effect2_dropShadow_3228_8810"/>
<feBlend mode="normal" in="SourceGraphic" in2="effect2_dropShadow_3228_8810" result="shape"/>
</filter>
<clipPath id="clip0_3228_8810">
<rect width="238.298" height="50" fill="white" transform="translate(42 40)"/>
</clipPath>
</defs>
</svg>
