<svg width="396" height="403" viewBox="0 0 396 403" fill="none" xmlns="http://www.w3.org/2000/svg">
<g clip-path="url(#clip0_3221_8041)">
<path fill-rule="evenodd" clip-rule="evenodd" d="M379.212 245.783C401.591 223.44 401.591 187.212 379.212 164.868L238.527 24.4049C216.147 2.06165 179.86 2.06165 157.48 24.4049C117.503 64.3096 56.7578 124.964 16.7881 164.868C-5.59149 187.212 -5.59149 223.447 16.7881 245.79L157.473 386.246C179.853 408.59 216.14 408.59 238.527 386.246C278.496 346.342 339.249 285.688 379.212 245.79V245.783Z" fill="#FF8200"/>
<path fill-rule="evenodd" clip-rule="evenodd" d="M274.097 123.61C271.663 137.892 268.491 176.819 279.858 197.108C291.226 217.397 192.71 155.602 192.71 155.602C192.71 155.602 213.266 108.734 223.391 71.3864C233.517 34.032 230.331 -5.75937 282.81 0.68716C335.29 7.14077 371.094 16.6689 358.478 46.6063C345.862 76.5436 338.163 79.1506 313.343 96.5562C288.522 113.962 276.531 109.329 274.097 123.61Z" fill="#6C2447"/>
<path fill-rule="evenodd" clip-rule="evenodd" d="M225.733 70.3665C225.733 70.3665 221.348 137.8 272.082 164.741C272.082 164.741 271.216 182.968 283.208 199.722C295.199 216.476 305.048 225.664 305.048 225.664C305.048 225.664 200.672 158.712 195.002 155.815C189.333 152.917 168.649 165.159 168.649 165.159L225.726 70.3594L225.733 70.3665Z" fill="#E64460"/>
<path fill-rule="evenodd" clip-rule="evenodd" d="M248.709 45.4514C248.709 45.4514 217.651 30.419 214.075 48.1575C210.3 66.895 221.405 73.3769 224.215 80.1068C232.95 100.969 242.231 124.127 269.251 133.393C296.278 142.666 316.678 126.826 330.131 80.5673C343.585 34.3152 284.648 -15.5851 248.702 45.4443L248.709 45.4514Z" fill="#E64460"/>
<path fill-rule="evenodd" clip-rule="evenodd" d="M262.077 86.4116C262.077 86.4116 261.687 109.237 277.432 117.362C290.381 124.042 301.004 115.308 301.004 115.308C301.004 115.308 292.163 110.59 283.392 104.632C276.467 99.9281 262.077 86.4116 262.077 86.4116Z" fill="white"/>
<path fill-rule="evenodd" clip-rule="evenodd" d="M88.6104 317.502L157.466 386.246C179.846 408.59 216.133 408.59 238.52 386.246L344.117 280.821C325.782 249.006 315.557 230.998 289.963 208.676C262.659 184.874 195.215 138.353 175.61 156.417C156.005 174.481 106.69 285.943 89.994 314.697C89.4689 315.604 89.0077 316.546 88.6174 317.509L88.6104 317.502Z" fill="#6C2447"/>
<path fill-rule="evenodd" clip-rule="evenodd" d="M73.2268 302.137L129.978 358.795C140.813 328.121 144.446 270.053 142.388 245.053C139.422 208.853 180.201 144.367 162.696 135.93C134.533 122.357 106.016 155.043 109.038 184.392C113.416 226.854 93.4494 269.876 73.2197 302.137H73.2268Z" fill="#E64460"/>
<path fill-rule="evenodd" clip-rule="evenodd" d="M264.745 170.337C264.745 161.942 261.403 153.895 255.464 147.958C249.518 142.022 241.457 138.692 233.056 138.692H162.958C154.55 138.692 146.489 142.029 140.543 147.958C134.597 153.895 131.262 161.942 131.262 170.337V240.321C131.262 248.715 134.604 256.763 140.543 262.699C146.489 268.636 154.55 271.965 162.958 271.965H233.056C241.464 271.965 249.525 268.629 255.464 262.699C261.41 256.763 264.745 248.715 264.745 240.321V170.337Z" fill="white"/>
<path fill-rule="evenodd" clip-rule="evenodd" d="M290.112 334.731L332.7 292.212C309.121 279.05 271.855 267.701 264.525 253.256C254.811 234.101 215.48 271.137 192.696 272.15C186.849 272.412 202.055 286.849 228.586 285C252.796 283.307 275.062 314.102 290.105 334.723L290.112 334.731Z" fill="#E64460"/>
</g>
<defs>
<clipPath id="clip0_3221_8041">
<rect width="396" height="403" fill="white"/>
</clipPath>
</defs>
</svg>
