<svg width="275" height="117" viewBox="0 0 275 117" fill="none" xmlns="http://www.w3.org/2000/svg">
<g clip-path="url(#clip0_3231_10339)">
<g filter="url(#filter0_dd_3231_10339)">
<path d="M265 9.12744H13.3332C11.032 9.12744 9.1665 10.985 9.1665 13.2764V105.09C9.1665 107.381 11.032 109.239 13.3332 109.239H265C267.301 109.239 269.167 107.381 269.167 105.09V13.2764C269.167 10.985 267.301 9.12744 265 9.12744Z" fill="white"/>
<path d="M33.4414 48.1275H31.9196V36.4416H27.7749V35.0956H37.5861V36.4416H33.4414V48.1275ZM43.6149 38.1798C44.0506 38.1798 44.4414 38.2155 44.7876 38.2868L44.5816 39.6595C44.1759 39.5704 43.8178 39.5258 43.5075 39.5258C42.7137 39.5258 42.0334 39.8467 41.4665 40.4884C40.9055 41.1303 40.625 41.9295 40.625 42.8863V48.1275H39.139V38.3581H40.3654L40.5355 40.1676H40.6071C40.9712 39.5318 41.4097 39.0415 41.923 38.6968C42.4362 38.3522 43.0002 38.1798 43.6149 38.1798ZM50.5657 48.3058C49.1156 48.3058 47.9697 47.8661 47.1282 46.9866C46.2927 46.1071 45.875 44.8859 45.875 43.3231C45.875 41.7483 46.2629 40.4974 47.0387 39.5704C47.8205 38.6433 48.8679 38.1798 50.1808 38.1798C51.4102 38.1798 52.383 38.5839 53.0991 39.3921C53.8152 40.1944 54.1733 41.2551 54.1733 42.5743V43.5102H47.4147C47.4445 44.6571 47.734 45.5277 48.283 46.1219C48.838 46.7162 49.6168 47.0133 50.6194 47.0133C51.6757 47.0133 52.7202 46.7935 53.7526 46.3537V47.6729C53.2274 47.8988 52.7291 48.0592 52.2577 48.1543C51.7922 48.2553 51.2282 48.3058 50.5657 48.3058ZM50.1629 39.4188C49.3752 39.4188 48.7455 39.6743 48.2741 40.1854C47.8086 40.6965 47.5341 41.4036 47.4505 42.3069H52.5799C52.5799 41.3739 52.371 40.6608 51.9532 40.1676C51.5355 39.6684 50.9387 39.4188 50.1629 39.4188ZM63.2278 48.1275V41.8077C63.2278 41.0115 63.0458 40.4172 62.6817 40.025C62.3177 39.6328 61.7478 39.4367 60.972 39.4367C59.9455 39.4367 59.1936 39.713 58.7161 40.2656C58.2387 40.8183 58 41.7305 58 43.0021V48.1275H56.514V38.3581H57.7225L57.9641 39.6952H58.0357C58.3401 39.2138 58.7668 38.8424 59.3159 38.5809C59.8649 38.3136 60.4767 38.1798 61.151 38.1798C62.3327 38.1798 63.2218 38.4651 63.8187 39.0356C64.4154 39.6001 64.7138 40.5063 64.7138 41.7542V48.1275H63.2278ZM74.2517 46.8172H74.1712C73.4849 47.8096 72.4584 48.3058 71.0917 48.3058C69.8087 48.3058 68.8091 47.8691 68.0929 46.9955C67.3827 46.1219 67.0277 44.88 67.0277 43.2696C67.0277 41.6592 67.3857 40.4083 68.1018 39.5168C68.818 38.6255 69.8147 38.1798 71.0917 38.1798C72.4226 38.1798 73.4431 38.6612 74.1532 39.6239H74.2697L74.207 38.9196L74.1712 38.2333V34.2578H75.6572V48.1275H74.4487L74.2517 46.8172ZM71.2797 47.0668C72.2943 47.0668 73.0283 46.7935 73.4819 46.2467C73.9414 45.6941 74.1712 44.8057 74.1712 43.5816V43.2696C74.1712 41.885 73.9384 40.8985 73.4729 40.3102C73.0134 39.716 72.2764 39.4188 71.2618 39.4188C70.3906 39.4188 69.7221 39.7576 69.2566 40.435C68.7971 41.1065 68.5673 42.0573 68.5673 43.2874C68.5673 44.5353 68.7971 45.4772 69.2566 46.1131C69.7162 46.7489 70.3906 47.0668 71.2797 47.0668ZM84.9448 45.4623C84.9448 46.3715 84.604 47.0727 83.924 47.5659C83.2436 48.0592 82.2887 48.3058 81.0593 48.3058C79.7583 48.3058 78.7438 48.1008 78.0157 47.6907V46.318C78.4872 46.5558 78.9915 46.743 79.5286 46.8796C80.0717 47.0163 80.5939 47.0847 81.0951 47.0847C81.871 47.0847 82.4678 46.9629 82.8856 46.7191C83.3033 46.4696 83.5123 46.0922 83.5123 45.5871C83.5123 45.2068 83.3448 44.8829 83.0108 44.6156C82.6826 44.3422 82.0381 44.0213 81.0772 43.6528C80.1642 43.3141 79.5137 43.02 79.1257 42.7704C78.7438 42.5149 78.4574 42.2267 78.2664 41.9058C78.0814 41.5848 77.9889 41.2016 77.9889 40.7559C77.9889 39.9596 78.3141 39.3326 78.9646 38.8751C79.6151 38.4116 80.5073 38.1798 81.6412 38.1798C82.6976 38.1798 83.7298 38.3937 84.7381 38.8216L84.2107 40.025C83.2257 39.6209 82.3335 39.4188 81.5338 39.4188C80.8296 39.4188 80.2985 39.5288 79.9404 39.7486C79.5823 39.9685 79.4032 40.2716 79.4032 40.6578C79.4032 40.9193 79.4689 41.1421 79.6002 41.3264C79.7375 41.5106 79.9553 41.6859 80.2537 41.8523C80.5521 42.0186 81.125 42.2594 81.9724 42.5743C83.1362 42.9962 83.9207 43.4211 84.3265 43.849C84.7382 44.2768 84.9448 44.8146 84.9448 45.4623ZM98.0582 45.4623C98.0582 46.3715 97.7181 47.0727 97.0381 47.5659C96.3573 48.0592 95.4023 48.3058 94.1731 48.3058C92.8723 48.3058 91.8582 48.1008 91.1298 47.6907V46.318C91.6015 46.5558 92.1056 46.743 92.6423 46.8796C93.1856 47.0163 93.7082 47.0847 94.209 47.0847C94.9848 47.0847 95.5815 46.9629 95.9998 46.7191C96.4173 46.4696 96.6265 46.0922 96.6265 45.5871C96.6265 45.2068 96.459 44.8829 96.1248 44.6156C95.7965 44.3422 95.1523 44.0213 94.1915 43.6528C93.2782 43.3141 92.6273 43.02 92.2398 42.7704C91.8582 42.5149 91.5715 42.2267 91.3806 41.9058C91.1956 41.5848 91.1031 41.2016 91.1031 40.7559C91.1031 39.9596 91.4282 39.3326 92.0782 38.8751C92.729 38.4116 93.6215 38.1798 94.7548 38.1798C95.8115 38.1798 96.844 38.3937 97.8523 38.8216L97.324 40.025C96.3398 39.6209 95.4473 39.4188 94.6473 39.4188C93.9432 39.4188 93.4123 39.5288 93.054 39.7486C92.6965 39.9685 92.5173 40.2716 92.5173 40.6578C92.5173 40.9193 92.5832 41.1421 92.714 41.3264C92.8515 41.5106 93.069 41.6859 93.3673 41.8523C93.6656 42.0186 94.239 42.2594 95.0865 42.5743C96.2498 42.9962 97.0348 43.4211 97.4407 43.849C97.8523 44.2768 98.0582 44.8146 98.0582 45.4623ZM101.679 38.3581V44.6958C101.679 45.4921 101.861 46.0863 102.225 46.4785C102.589 46.8707 103.159 47.0668 103.935 47.0668C104.961 47.0668 105.711 46.7875 106.181 46.2289C106.659 45.6703 106.898 44.7582 106.898 43.4924V38.3581H108.384V48.1275H107.157L106.943 46.8172H106.862C106.558 47.2986 106.134 47.667 105.591 47.9225C105.054 48.1781 104.439 48.3058 103.747 48.3058C102.553 48.3058 101.658 48.0236 101.061 47.459C100.471 46.8945 100.175 45.9913 100.175 44.7492V38.3581H101.679ZM115.818 38.1798C116.254 38.1798 116.645 38.2155 116.991 38.2868L116.785 39.6595C116.379 39.5704 116.021 39.5258 115.711 39.5258C114.917 39.5258 114.236 39.8467 113.67 40.4884C113.109 41.1303 112.828 41.9295 112.828 42.8863V48.1275H111.342V38.3581H112.569L112.739 40.1676H112.811C113.175 39.5318 113.613 39.0415 114.126 38.6968C114.64 38.3522 115.204 38.1798 115.818 38.1798ZM120.773 48.1275L117.049 38.3581H118.642L120.755 44.152C121.232 45.5069 121.513 46.3864 121.596 46.7905H121.668C121.734 46.4755 121.94 45.8248 122.286 44.8383C122.638 43.846 123.422 41.6859 124.64 38.3581H126.233L122.51 48.1275H120.773ZM131.752 48.3058C130.301 48.3058 129.156 47.8661 128.315 46.9866C127.479 46.1071 127.061 44.8859 127.061 43.3231C127.061 41.7483 127.449 40.4974 128.225 39.5704C129.006 38.6433 130.054 38.1798 131.367 38.1798C132.596 38.1798 133.569 38.5839 134.286 39.3921C135.001 40.1944 135.36 41.2551 135.36 42.5743V43.5102H128.601C128.631 44.6571 128.921 45.5277 129.469 46.1219C130.024 46.7162 130.803 47.0133 131.806 47.0133C132.862 47.0133 133.906 46.7935 134.939 46.3537V47.6729C134.414 47.8988 133.916 48.0592 133.444 48.1543C132.978 48.2553 132.415 48.3058 131.752 48.3058ZM131.349 39.4188C130.561 39.4188 129.931 39.6743 129.461 40.1854C128.995 40.6965 128.721 41.4036 128.636 42.3069H133.766C133.766 41.3739 133.557 40.6608 133.14 40.1676C132.721 39.6684 132.125 39.4188 131.349 39.4188ZM136.142 38.3581H137.736L139.885 43.9291C140.356 45.2009 140.648 46.119 140.761 46.6835H140.833C140.911 46.3804 141.072 45.8635 141.316 45.1325C141.567 44.3957 142.379 42.1375 143.751 38.3581H145.345L141.129 49.4824C140.711 50.5818 140.221 51.3602 139.661 51.8179C139.106 52.2814 138.422 52.5131 137.611 52.5131C137.157 52.5131 136.71 52.4626 136.268 52.3615V51.176C136.596 51.2474 136.963 51.283 137.369 51.283C138.39 51.283 139.117 50.7125 139.553 49.5715L140.099 48.1811L136.142 38.3581Z" fill="#B12F15"/>
<path d="M37.1159 70.239H36.0222L34.1016 63.8924C34.0105 63.6115 33.9084 63.2571 33.7956 62.8292C33.6828 62.4014 33.6242 62.1443 33.6199 62.0578C33.5244 62.6283 33.3725 63.2528 33.1641 63.9313L31.3021 70.239H30.2084L27.6758 60.7612H28.8477L30.3516 66.6152C30.56 67.4363 30.7119 68.1796 30.8074 68.8452C30.9245 68.0543 31.0981 67.2807 31.3282 66.5244L33.0339 60.7612H34.2058L35.9961 66.5762C36.2044 67.2461 36.3802 68.0025 36.5234 68.8452C36.6059 68.2315 36.7622 67.4839 36.9922 66.6022L38.4896 60.7612H39.6615L37.1159 70.239ZM43.8573 70.3686C42.8026 70.3686 41.9693 70.0488 41.3573 69.4092C40.7496 68.7695 40.4458 67.8814 40.4458 66.7448C40.4458 65.5995 40.7279 64.6898 41.2922 64.0156C41.8608 63.3414 42.6224 63.0042 43.5774 63.0042C44.4715 63.0042 45.1789 63.2982 45.6997 63.8859C46.2205 64.4693 46.4809 65.2408 46.4809 66.2003V66.8809H41.5656C41.5873 67.715 41.7978 68.3482 42.1971 68.7804C42.6008 69.2126 43.1672 69.4286 43.8964 69.4286C44.6645 69.4286 45.4241 69.2687 46.1749 68.9489V69.9083C45.793 70.0726 45.4306 70.1893 45.0878 70.2584C44.7492 70.3319 44.339 70.3686 43.8573 70.3686ZM43.5643 63.9054C42.9914 63.9054 42.5334 64.0912 42.1906 64.4628C41.852 64.8346 41.6524 65.3488 41.5916 66.0058H45.3221C45.3221 65.3272 45.1702 64.8086 44.8664 64.4499C44.5625 64.0869 44.1285 63.9054 43.5643 63.9054ZM51.1976 70.3686C50.1429 70.3686 49.3095 70.0488 48.6976 69.4092C48.0899 68.7695 47.7861 67.8814 47.7861 66.7448C47.7861 65.5995 48.0683 64.6898 48.6324 64.0156C49.201 63.3414 49.9628 63.0042 50.9176 63.0042C51.8117 63.0042 52.5192 63.2982 53.04 63.8859C53.5609 64.4693 53.8213 65.2408 53.8213 66.2003V66.8809H48.9059C48.9276 67.715 49.1381 68.3482 49.5375 68.7804C49.9411 69.2126 50.5074 69.4286 51.2366 69.4286C52.0049 69.4286 52.7645 69.2687 53.5153 68.9489V69.9083C53.1334 70.0726 52.771 70.1893 52.428 70.2584C52.0895 70.3319 51.6794 70.3686 51.1976 70.3686ZM50.9046 63.9054C50.3317 63.9054 49.8738 64.0912 49.5309 64.4628C49.1924 64.8346 48.9927 65.3488 48.9319 66.0058H52.6625C52.6625 65.3272 52.5105 64.8086 52.2067 64.4499C51.9029 64.0869 51.4689 63.9054 50.9046 63.9054ZM56.5913 66.6022C56.778 66.3386 57.0622 65.9928 57.4441 65.565L59.7489 63.1339H61.0314L58.1408 66.1613L61.2332 70.239H59.9246L57.4051 66.8809L56.5913 67.581V70.239H55.5236V60.1519H56.5913V65.5001C56.5913 65.7378 56.5739 66.1052 56.5392 66.6022H56.5913ZM63.4629 70.239H62.3821V60.1519H63.4629V70.239ZM64.475 63.1339H65.6339L67.1964 67.1856C67.5393 68.1105 67.7519 68.7782 67.8344 69.1887H67.8865C67.943 68.9683 68.0601 68.5924 68.238 68.0608C68.4204 67.5248 69.0106 65.8826 70.0089 63.1339H71.1677L68.1014 71.2244C67.7975 72.0239 67.4416 72.59 67.0336 72.9228C66.63 73.2599 66.133 73.4285 65.5427 73.4285C65.2129 73.4285 64.8874 73.3918 64.5662 73.3183V72.456C64.8049 72.5079 65.0718 72.5339 65.367 72.5339C66.1091 72.5339 66.6387 72.119 66.9555 71.2892L67.3526 70.2778L64.475 63.1339ZM84.5917 70.239V65.6168C84.5917 65.0507 84.47 64.6271 84.2275 64.3462C83.9842 64.061 83.6067 63.9183 83.0945 63.9183C82.4217 63.9183 81.9248 64.1107 81.6036 64.4953C81.2824 64.8799 81.1218 65.472 81.1218 66.2715V70.239H80.0411V65.6168C80.0411 65.0507 79.9195 64.6271 79.6765 64.3462C79.4335 64.061 79.0537 63.9183 78.5372 63.9183C77.8601 63.9183 77.3631 64.1215 77.0463 64.5277C76.7338 64.9296 76.5775 65.5909 76.5775 66.5114V70.239H75.4968V63.1339H76.3757L76.5515 64.1063H76.6036C76.8075 63.7606 77.094 63.4905 77.4629 63.296C77.8362 63.1015 78.2529 63.0042 78.7129 63.0042C79.8284 63.0042 80.5575 63.4062 80.9004 64.21H80.9525C81.1652 63.8384 81.4734 63.5445 81.877 63.3284C82.2807 63.1123 82.7407 63.0042 83.2572 63.0042C84.0642 63.0042 84.6675 63.2117 85.0675 63.6266C85.4709 64.0372 85.6725 64.6963 85.6725 65.6038V70.239H84.5917ZM93.9175 66.68C93.9175 67.8382 93.625 68.7436 93.0392 69.3962C92.4534 70.0445 91.6434 70.3686 90.6109 70.3686C89.9725 70.3686 89.4059 70.2195 88.9117 69.9214C88.4167 69.6231 88.0342 69.1953 87.7659 68.6378C87.4967 68.0802 87.3617 67.4277 87.3617 66.68C87.3617 65.5217 87.6525 64.6206 88.2342 63.9767C88.8159 63.3284 89.6234 63.0042 90.6559 63.0042C91.6542 63.0042 92.4467 63.3349 93.0325 63.9961C93.6225 64.6573 93.9175 65.5519 93.9175 66.68ZM88.4817 66.68C88.4817 67.5876 88.6642 68.279 89.0284 68.7544C89.3934 69.2298 89.9292 69.4675 90.6367 69.4675C91.3442 69.4675 91.88 69.232 92.245 68.7609C92.6134 68.2855 92.7984 67.5919 92.7984 66.68C92.7984 65.7767 92.6134 65.0917 92.245 64.6249C91.88 64.1538 91.34 63.9183 90.6234 63.9183C89.9159 63.9183 89.3825 64.1495 89.0217 64.612C88.6617 65.0744 88.4817 65.7637 88.4817 66.68ZM101.831 66.68C101.831 67.8382 101.538 68.7436 100.953 69.3962C100.366 70.0445 99.5567 70.3686 98.5242 70.3686C97.8859 70.3686 97.3192 70.2195 96.8242 69.9214C96.33 69.6231 95.9475 69.1953 95.6784 68.6378C95.41 68.0802 95.275 67.4277 95.275 66.68C95.275 65.5217 95.5659 64.6206 96.1475 63.9767C96.7292 63.3284 97.5367 63.0042 98.5692 63.0042C99.5675 63.0042 100.36 63.3349 100.946 63.9961C101.536 64.6573 101.831 65.5519 101.831 66.68ZM96.395 66.68C96.395 67.5876 96.5775 68.279 96.9417 68.7544C97.3067 69.2298 97.8425 69.4675 98.55 69.4675C99.2575 69.4675 99.7934 69.232 100.158 68.7609C100.527 68.2855 100.712 67.5919 100.712 66.68C100.712 65.7767 100.527 65.0917 100.158 64.6249C99.7934 64.1538 99.2534 63.9183 98.5367 63.9183C97.8292 63.9183 97.2959 64.1495 96.935 64.612C96.575 65.0744 96.395 65.7637 96.395 66.68ZM108.443 69.286H108.383C107.884 70.0077 107.138 70.3686 106.144 70.3686C105.211 70.3686 104.484 70.051 103.963 69.4157C103.447 68.7804 103.188 67.8771 103.188 66.7059C103.188 65.5347 103.448 64.6249 103.969 63.9767C104.49 63.3284 105.215 63.0042 106.144 63.0042C107.112 63.0042 107.854 63.3543 108.371 64.0544H108.455L108.41 63.5424L108.383 63.0432V60.1519H109.464V70.239H108.585L108.443 69.286ZM106.281 69.4675C107.018 69.4675 107.553 69.2687 107.883 68.8711C108.217 68.4692 108.383 67.8231 108.383 66.9328V66.7059C108.383 65.6989 108.214 64.9815 107.876 64.5536C107.542 64.1215 107.006 63.9054 106.268 63.9054C105.634 63.9054 105.148 64.1517 104.809 64.6444C104.475 65.1327 104.308 65.8243 104.308 66.7189C104.308 67.6264 104.475 68.3115 104.809 68.7738C105.143 69.2363 105.634 69.4675 106.281 69.4675ZM114.936 63.0172C115.873 63.0172 116.601 63.3371 117.118 63.9767C117.638 64.612 117.898 65.5131 117.898 66.68C117.898 67.8469 117.636 68.7544 117.111 69.4027C116.59 70.0467 115.865 70.3686 114.936 70.3686C114.472 70.3686 114.047 70.2844 113.66 70.1158C113.278 69.9429 112.957 69.6793 112.697 69.3249H112.618L112.391 70.239H111.616V60.1519H112.697V62.6023C112.697 63.1512 112.679 63.6439 112.644 64.0804H112.697C113.2 63.3716 113.947 63.0172 114.936 63.0172ZM114.78 63.9183C114.042 63.9183 113.51 64.1301 113.185 64.5536C112.859 64.9728 112.697 65.6816 112.697 66.68C112.697 67.6783 112.863 68.3936 113.198 68.8257C113.532 69.2536 114.068 69.4675 114.806 69.4675C115.47 69.4675 115.965 69.2277 116.29 68.748C116.616 68.2639 116.778 67.5702 116.778 66.667C116.778 65.7421 116.616 65.0528 116.29 64.599C115.965 64.1452 115.462 63.9183 114.78 63.9183ZM125.805 66.68C125.805 67.8382 125.513 68.7436 124.926 69.3962C124.34 70.0445 123.531 70.3686 122.498 70.3686C121.86 70.3686 121.293 70.2195 120.798 69.9214C120.304 69.6231 119.922 69.1953 119.653 68.6378C119.383 68.0802 119.249 67.4277 119.249 66.68C119.249 65.5217 119.54 64.6206 120.122 63.9767C120.703 63.3284 121.51 63.0042 122.543 63.0042C123.542 63.0042 124.334 63.3349 124.92 63.9961C125.51 64.6573 125.805 65.5519 125.805 66.68ZM120.369 66.68C120.369 67.5876 120.551 68.279 120.916 68.7544C121.28 69.2298 121.817 69.4675 122.524 69.4675C123.232 69.4675 123.768 69.232 124.132 68.7609C124.501 68.2855 124.685 67.5919 124.685 66.68C124.685 65.7767 124.501 65.0917 124.132 64.6249C123.768 64.1538 123.227 63.9183 122.511 63.9183C121.803 63.9183 121.269 64.1495 120.909 64.612C120.549 65.0744 120.369 65.7637 120.369 66.68ZM131.948 70.239L131.733 69.2277H131.681C131.325 69.6728 130.969 69.9754 130.613 70.1353C130.262 70.2909 129.821 70.3686 129.291 70.3686C128.584 70.3686 128.028 70.1871 127.624 69.8241C127.225 69.4611 127.026 68.9446 127.026 68.2747C127.026 66.8399 128.178 66.0879 130.483 66.0187L131.693 65.9799V65.539C131.693 64.9815 131.572 64.5709 131.329 64.3073C131.09 64.0393 130.706 63.9054 130.177 63.9054C129.582 63.9054 128.909 64.0869 128.158 64.4499L127.827 63.6266C128.178 63.4365 128.562 63.2874 128.978 63.1793C129.4 63.0713 129.821 63.0172 130.242 63.0172C131.093 63.0172 131.722 63.2052 132.13 63.5812C132.543 63.9573 132.748 64.5601 132.748 65.3899V70.239H131.948ZM129.506 69.4805C130.179 69.4805 130.706 69.2969 131.088 68.9294C131.474 68.5621 131.668 68.0478 131.668 67.3866V66.7448L130.587 66.7902C129.728 66.8204 129.107 66.9544 128.725 67.1921C128.348 67.4254 128.158 67.7907 128.158 68.2877C128.158 68.6767 128.276 68.9727 128.51 69.1758C128.748 69.3789 129.081 69.4805 129.506 69.4805ZM138.09 63.0042C138.407 63.0042 138.691 63.0302 138.943 63.0821L138.793 64.0804C138.498 64.0156 138.238 63.9832 138.012 63.9832C137.434 63.9832 136.94 64.2166 136.528 64.6833C136.119 65.1501 135.916 65.7313 135.916 66.4271V70.239H134.835V63.1339H135.727L135.85 64.4499H135.903C136.168 63.9875 136.486 63.6309 136.859 63.3802C137.233 63.1296 137.643 63.0042 138.09 63.0042ZM144.988 69.286H144.929C144.43 70.0077 143.683 70.3686 142.689 70.3686C141.756 70.3686 141.029 70.051 140.508 69.4157C139.992 68.7804 139.733 67.8771 139.733 66.7059C139.733 65.5347 139.994 64.6249 140.515 63.9767C141.036 63.3284 141.761 63.0042 142.689 63.0042C143.658 63.0042 144.399 63.3543 144.916 64.0544H145.001L144.955 63.5424L144.929 63.0432V60.1519H146.01V70.239H145.131L144.988 69.286ZM142.826 69.4675C143.564 69.4675 144.098 69.2687 144.428 68.8711C144.762 68.4692 144.929 67.8231 144.929 66.9328V66.7059C144.929 65.6989 144.76 64.9815 144.421 64.5536C144.087 64.1215 143.551 63.9054 142.813 63.9054C142.179 63.9054 141.693 64.1517 141.355 64.6444C141.021 65.1327 140.853 65.8243 140.853 66.7189C140.853 67.6264 141.021 68.3115 141.355 68.7738C141.689 69.2363 142.179 69.4675 142.826 69.4675Z" fill="#76808D"/>
<path d="M225.826 84.2305C226.586 84.2305 227.188 84.4064 227.632 84.7583C228.076 85.1101 228.299 85.5955 228.299 86.2162C228.299 86.6244 228.171 86.997 227.917 87.3339C227.663 87.67 227.256 87.9762 226.698 88.2525C227.374 88.5736 227.855 88.9122 228.14 89.2682C228.424 89.6192 228.566 90.0282 228.566 90.4929C228.566 91.1816 228.326 91.7318 227.843 92.1434C227.361 92.5524 226.7 92.7566 225.861 92.7566C224.972 92.7566 224.288 92.5632 223.81 92.1774C223.331 91.7882 223.092 91.2381 223.092 90.5269C223.092 89.5777 223.673 88.8383 224.836 88.3089C224.311 88.0143 223.936 87.6965 223.707 87.3563C223.48 87.012 223.366 86.6286 223.366 86.2046C223.366 85.6038 223.588 85.125 224.032 84.7699C224.481 84.4106 225.078 84.2305 225.826 84.2305ZM224.026 90.5502C224.026 91.0032 224.184 91.3567 224.499 91.6106C224.818 91.8637 225.265 91.9907 225.838 91.9907C226.404 91.9907 226.845 91.8579 227.16 91.5932C227.475 91.3285 227.632 90.9659 227.632 90.5045C227.632 90.1378 227.484 89.8125 227.188 89.5287C226.892 89.2416 226.376 88.9636 225.639 88.6948C225.073 88.9371 224.662 89.2051 224.408 89.5005C224.154 89.7917 224.026 90.1411 224.026 90.5502ZM225.816 84.9964C225.341 84.9964 224.968 85.1101 224.699 85.3366C224.429 85.564 224.294 85.866 224.294 86.2444C224.294 86.5921 224.406 86.8908 224.631 87.1406C224.855 87.3903 225.268 87.6401 225.872 87.889C226.416 87.6625 226.799 87.4186 227.023 87.158C227.251 86.8966 227.365 86.5921 227.365 86.2444C227.365 85.8627 227.226 85.5598 226.949 85.3366C226.676 85.1101 226.297 84.9964 225.816 84.9964ZM235.137 88.4848C235.137 89.9179 234.91 90.9883 234.454 91.6953C234.002 92.4031 233.309 92.7566 232.375 92.7566C231.478 92.7566 230.796 92.3948 230.33 91.6729C229.862 90.9468 229.629 89.8839 229.629 88.4848C229.629 87.0402 229.855 85.9681 230.306 85.2686C230.759 84.5691 231.448 84.2197 232.375 84.2197C233.279 84.2197 233.964 84.584 234.431 85.3142C234.902 86.0436 235.137 87.1007 235.137 88.4848ZM230.586 88.4848C230.586 89.6913 230.728 90.5709 231.013 91.1227C231.298 91.6712 231.752 91.945 232.375 91.945C233.005 91.945 233.461 91.6671 233.742 91.1111C234.026 90.5518 234.169 89.6764 234.169 88.4848C234.169 87.2941 234.026 86.422 233.742 85.8702C233.461 85.3142 233.005 85.0362 232.375 85.0362C231.752 85.0362 231.298 85.3101 231.013 85.8586C230.728 86.4029 230.586 87.2783 230.586 88.4848ZM236.975 86.8228C236.975 87.4659 237.045 87.948 237.186 88.2691C237.326 88.591 237.554 88.752 237.869 88.752C238.491 88.752 238.803 88.1089 238.803 86.8228C238.803 85.5449 238.491 84.906 237.869 84.906C237.554 84.906 237.326 85.0645 237.186 85.3823C237.045 85.7001 236.975 86.1805 236.975 86.8228ZM239.584 86.8228C239.584 87.6849 239.437 88.3371 239.145 88.7802C238.856 89.2184 238.431 89.4383 237.869 89.4383C237.337 89.4383 236.923 89.2134 236.627 88.7628C236.335 88.3131 236.188 87.6667 236.188 86.8228C236.188 85.9648 236.329 85.3175 236.61 84.8827C236.895 84.4479 237.315 84.2305 237.869 84.2305C238.42 84.2305 238.843 84.4554 239.139 84.906C239.436 85.3557 239.584 85.9946 239.584 86.8228ZM241.987 90.1469C241.987 90.7933 242.058 91.2779 242.198 91.599C242.339 91.9168 242.569 92.0753 242.887 92.0753C243.206 92.0753 243.442 91.9185 243.594 91.6048C243.746 91.287 243.822 90.8016 243.822 90.1469C243.822 89.5005 243.746 89.0217 243.594 88.7122C243.442 88.3977 243.206 88.2409 242.887 88.2409C242.569 88.2409 242.339 88.3977 242.198 88.7122C242.058 89.0217 241.987 89.5005 241.987 90.1469ZM244.602 90.1469C244.602 91.0057 244.456 91.6563 244.164 92.0986C243.875 92.5367 243.45 92.7566 242.887 92.7566C242.348 92.7566 241.932 92.5317 241.64 92.0811C241.351 91.6314 241.207 90.9866 241.207 90.1469C241.207 89.2889 241.347 88.6417 241.629 88.2069C241.913 87.772 242.333 87.5546 242.887 87.5546C243.427 87.5546 243.846 87.7779 244.146 88.2243C244.451 88.6666 244.602 89.3071 244.602 90.1469ZM243.132 84.35L238.512 92.6429H237.676L242.296 84.35H243.132Z" fill="#76808D"/>
<path d="M39.2036 88.9092H202.252" stroke="#F5F5F5" stroke-width="5"/>
<path d="M32.5 89.2021H160" stroke="#76808D" stroke-width="5"/>
<path d="M32.9163 93.4729C35.4476 93.4729 37.4997 91.4296 37.4997 88.909C37.4997 86.3885 35.4476 84.3452 32.9163 84.3452C30.385 84.3452 28.333 86.3885 28.333 88.909C28.333 91.4296 30.385 93.4729 32.9163 93.4729Z" fill="#76808D"/>
<path d="M75.4339 93.4729C77.9652 93.4729 80.0173 91.4296 80.0173 88.909C80.0173 86.3885 77.9652 84.3452 75.4339 84.3452C72.9026 84.3452 70.8506 86.3885 70.8506 88.909C70.8506 91.4296 72.9026 93.4729 75.4339 93.4729Z" fill="#76808D"/>
<path d="M118.142 93.4729C120.779 93.4729 122.917 91.4296 122.917 88.909C122.917 86.3885 120.779 84.3452 118.142 84.3452C115.506 84.3452 113.368 86.3885 113.368 88.909C113.368 91.4296 115.506 93.4729 118.142 93.4729Z" fill="#76808D"/>
<path d="M161.041 93.4729C163.678 93.4729 165.816 91.4296 165.816 88.909C165.816 86.3885 163.678 84.3452 161.041 84.3452C158.405 84.3452 156.267 86.3885 156.267 88.909C156.267 91.4296 158.405 93.4729 161.041 93.4729Z" fill="#76808D"/>
<path d="M203.75 93.4729C206.281 93.4729 208.333 91.4296 208.333 88.909C208.333 86.3885 206.281 84.3452 203.75 84.3452C201.219 84.3452 199.167 86.3885 199.167 88.909C199.167 91.4296 201.219 93.4729 203.75 93.4729Z" fill="#F0F0F0"/>
</g>
</g>
<defs>
<filter id="filter0_dd_3231_10339" x="-1.8335" y="-1.87256" width="278" height="120.111" filterUnits="userSpaceOnUse" color-interpolation-filters="sRGB">
<feFlood flood-opacity="0" result="BackgroundImageFix"/>
<feColorMatrix in="SourceAlpha" type="matrix" values="0 0 0 0 0 0 0 0 0 0 0 0 0 0 0 0 0 0 127 0" result="hardAlpha"/>
<feOffset dx="-3" dy="-3"/>
<feGaussianBlur stdDeviation="4"/>
<feComposite in2="hardAlpha" operator="out"/>
<feColorMatrix type="matrix" values="0 0 0 0 0.788235 0 0 0 0 0.294118 0 0 0 0 0.196078 0 0 0 0.1 0"/>
<feBlend mode="normal" in2="BackgroundImageFix" result="effect1_dropShadow_3231_10339"/>
<feColorMatrix in="SourceAlpha" type="matrix" values="0 0 0 0 0 0 0 0 0 0 0 0 0 0 0 0 0 0 127 0" result="hardAlpha"/>
<feOffset dx="3" dy="5"/>
<feGaussianBlur stdDeviation="2"/>
<feComposite in2="hardAlpha" operator="out"/>
<feColorMatrix type="matrix" values="0 0 0 0 0.105882 0 0 0 0 0.168627 0 0 0 0 0.254902 0 0 0 0.05 0"/>
<feBlend mode="normal" in2="effect1_dropShadow_3231_10339" result="effect2_dropShadow_3231_10339"/>
<feBlend mode="normal" in="SourceGraphic" in2="effect2_dropShadow_3231_10339" result="shape"/>
</filter>
<clipPath id="clip0_3231_10339">
<rect width="275" height="117" fill="white"/>
</clipPath>
</defs>
</svg>
