<svg width="467" height="636" viewBox="0 0 467 636" fill="none" xmlns="http://www.w3.org/2000/svg">
<g clip-path="url(#clip0_3221_7999)">
<path fill-rule="evenodd" clip-rule="evenodd" d="M497.041 390.766C449.759 404.84 280.73 377.649 306.98 349.898C333.23 322.148 342.309 333.271 380.053 338.342C417.794 343.403 536.454 352.673 536.454 352.673C536.454 352.673 544.333 376.691 497.051 390.764L497.041 390.766Z" fill="#234E5C"/>
<path fill-rule="evenodd" clip-rule="evenodd" d="M648.387 158.177C635.473 215.025 415.175 404.676 386.71 433.116C358.244 461.556 470.232 250.761 503.411 161.599C536.59 72.4383 549.892 62.3984 548.482 41.5868C547.07 20.7655 660.528 104.789 648.387 158.177Z" fill="#CC2F22"/>
<path fill-rule="evenodd" clip-rule="evenodd" d="M308.209 488.555C331.052 466.467 265.867 531.914 241.837 556.747C227.514 571.555 230.911 584.375 234.672 586.633C238.433 588.892 355.58 480.939 380.818 448.225C414.506 404.556 296.39 499.989 308.209 488.555Z" fill="#CC2F22"/>
<path fill-rule="evenodd" clip-rule="evenodd" d="M218.343 536.213C212.43 540.11 188.248 563.582 178.97 583.015C169.694 602.458 171.13 620.214 175.013 622.644C178.897 625.075 225.4 555.785 283.167 519.746C330.345 490.302 232.173 527.103 218.343 536.213Z" fill="#CC2F22"/>
<path fill-rule="evenodd" clip-rule="evenodd" d="M478.341 243.214C502.568 187.024 498.85 112.225 482.06 147.972C404.764 312.584 368.689 372.693 316.917 375.936C266.985 379.065 235.8 382.502 204.124 404.051C172.447 425.601 152.085 437.901 121.567 447.421C91.0592 456.938 92.4746 476.395 123.706 475.65C154.948 474.902 206.688 435.602 215.012 449.378C223.326 463.156 162.371 531.007 140.609 562.711C118.86 594.421 122.185 623.443 129.223 616.621C141.236 604.996 163.736 567.575 203.097 546.479C227.476 533.418 331.708 500.138 370.346 460.072C408.983 420.006 443.682 347.338 489.996 209.184C495.568 192.565 467.714 267.905 478.36 243.208L478.341 243.214Z" fill="#FF8200"/>
<path fill-rule="evenodd" clip-rule="evenodd" d="M338.838 334.478C366.934 315.457 513.625 118.297 508.693 51.2874C503.762 -15.7217 661.923 109.059 661.923 109.059C681.457 167.725 618.656 330.997 529.651 329.063C529.651 329.063 310.742 353.498 338.838 334.478Z" fill="#41897C"/>
<path fill-rule="evenodd" clip-rule="evenodd" d="M513.246 383.617C465.944 405.687 382.829 347.772 340.328 345.443C297.827 343.115 305.016 359.527 305.016 359.527C305.016 359.527 282.163 331.639 322.346 315.279C344.597 306.213 441.418 302.329 497.727 315.107C508.98 317.654 515.476 309.999 515.476 309.999C515.476 309.999 570.788 356.779 513.249 383.626L513.246 383.617Z" fill="#41897C"/>
</g>
<defs>
<clipPath id="clip0_3221_7999">
<rect width="656.18" height="472.55" fill="white" transform="translate(0 181.446) rotate(-16.0525)"/>
</clipPath>
</defs>
</svg>
