<?xml version="1.0" standalone="no"?>
<!DOCTYPE svg PUBLIC "-//W3C//DTD SVG 20010904//EN"
 "http://www.w3.org/TR/2001/REC-SVG-20010904/DTD/svg10.dtd">
<svg version="1.0" xmlns="http://www.w3.org/2000/svg"
 width="200.000000pt" height="200.000000pt" viewBox="0 0 200.000000 200.000000"
 preserveAspectRatio="xMidYMid meet">
<metadata>
Created by potrace 1.16, written by Peter Selinger 2001-2019
</metadata>
<g transform="translate(0.000000,200.000000) scale(0.100000,-0.100000)"
fill="#000000" stroke="none">
<path d="M0 1926 c0 -59 3 -75 16 -80 23 -9 25 -5 31 63 3 34 10 64 14 67 20
12 7 24 -26 24 l-35 0 0 -74z"/>
<path d="M1866 1925 c67 -68 74 -80 74 -115 0 -21 -4 -41 -9 -45 -6 -3 -3 -21
6 -43 18 -44 13 -38 41 -46 l22 -7 0 165 0 166 -104 0 -105 0 75 -75z"/>
<path d="M915 1889 c-81 -35 -137 -91 -155 -156 -15 -50 -8 -331 8 -378 45
-130 45 -132 24 -162 -41 -58 -52 -64 -247 -143 -38 -15 -108 -40 -155 -55
-47 -14 -95 -32 -107 -40 -26 -18 -65 -99 -92 -191 -11 -38 -24 -83 -29 -101
-6 -17 -8 -33 -6 -36 2 -2 -15 -39 -37 -83 -44 -84 -44 -86 -23 -230 5 -32 0
-52 -20 -93 -24 -47 -43 -70 -30 -36 3 8 -1 24 -10 37 -9 12 -16 37 -16 55 0
17 -4 35 -10 38 -7 4 -10 -50 -10 -154 l0 -161 871 0 871 0 -7 57 c-4 32 -9
144 -10 248 -2 113 -9 227 -18 280 -8 50 -20 130 -27 179 -12 93 -39 163 -68
173 -9 3 -93 38 -187 78 -93 40 -178 75 -187 78 -10 4 -18 11 -18 17 0 5 -4
10 -9 10 -10 0 -5 -87 10 -185 14 -88 20 -105 15 -41 -6 79 11 31 28 -75 40
-257 46 -426 20 -542 -9 -40 -19 -78 -23 -84 -4 -7 -12 51 -19 130 -17 191
-34 272 -77 368 -28 61 -37 95 -38 142 -2 53 0 62 16 61 24 -2 21 9 -9 45 -16
20 -35 31 -52 32 -26 0 -26 1 -7 12 30 18 105 96 105 109 0 6 -15 -5 -32 -24
-39 -42 -101 -81 -114 -70 -4 4 -2 -1 5 -10 7 -10 9 -18 4 -18 -5 0 -17 -6
-26 -13 -16 -11 -16 -15 -1 -61 10 -29 19 -43 24 -36 12 19 20 -16 14 -58 -3
-20 -10 -53 -16 -72 -6 -19 -12 -106 -12 -192 -1 -87 -4 -158 -8 -158 -5 0 -8
6 -8 13 0 7 -27 109 -61 227 -54 190 -129 464 -146 527 -3 13 -2 30 1 39 5 13
12 7 29 -27 39 -78 176 -150 194 -103 9 23 -26 84 -49 84 -19 0 -23 10 -9 26
5 5 14 26 21 47 9 30 9 41 -1 53 -10 13 -10 17 2 25 8 5 17 9 22 9 4 0 1 11
-8 24 -8 13 -13 30 -10 39 4 8 2 18 -4 22 -14 8 -14 58 -1 71 6 6 13 34 17 63
5 47 4 53 -16 58 -11 3 -21 9 -21 14 0 4 -16 11 -36 15 -23 4 -38 14 -43 27
-5 14 -10 17 -15 9 -4 -7 -12 -12 -18 -12 -5 0 -1 8 11 18 15 12 22 32 25 70
6 83 10 85 156 80 138 -4 164 -14 179 -63 10 -32 26 -131 37 -235 8 -72 6 -76
34 60 20 92 10 158 -35 232 -58 97 -114 128 -225 128 -38 -1 -76 -10 -125 -31z
m-116 -346 c-4 -32 -8 -69 -8 -82 -1 -13 -3 -22 -7 -19 -7 8 7 158 15 158 4 0
4 -26 0 -57z m131 21 c0 -2 -14 -4 -31 -4 -16 0 -28 4 -25 9 5 8 56 3 56 -5z
m-36 -188 c-4 -11 -44 -40 -44 -32 0 3 5 16 11 30 11 24 42 26 33 2z"/>
<path d="M1086 1591 c-3 -5 2 -12 12 -16 15 -6 14 -8 -6 -16 -29 -11 -26 -39
7 -56 21 -10 27 -9 43 9 15 17 20 18 33 8 8 -7 15 -8 15 -3 0 5 -16 18 -36 30
l-37 21 42 7 c22 4 41 11 41 16 0 12 -107 12 -114 0z"/>
<path d="M1125 1380 c21 -24 26 -25 19 -6 -3 8 -13 17 -22 21 -13 5 -13 2 3
-15z"/>
<path d="M1972 381 c-8 -5 -18 -42 -24 -90 -11 -91 -7 -85 -120 -204 -43 -45
-78 -83 -78 -84 0 -2 56 -3 125 -3 l125 0 0 195 c0 107 -3 195 -7 195 -5 0
-14 -4 -21 -9z"/>
</g>
</svg>
