<svg width="261" height="135" viewBox="0 0 261 135" fill="none" xmlns="http://www.w3.org/2000/svg">
<g filter="url(#filter0_dd_3207_678)">
<rect x="20" y="20" width="217.762" height="90" rx="20" fill="white" shape-rendering="crispEdges"/>
<g clip-path="url(#clip0_3207_678)">
<path d="M127.899 63.465C126.11 62.7465 123.925 62.1475 121.343 61.667H121.289C118.781 61.2249 116.899 60.819 115.646 60.4494C114.392 60.0819 113.405 59.5838 112.686 58.9563C111.966 58.33 111.608 57.4633 111.608 56.3565C111.608 54.734 112.216 53.4988 113.433 52.6508C114.651 51.8028 116.254 51.3783 118.245 51.3783C120.422 51.3783 122.181 51.9312 123.529 53.038C124.737 54.0319 125.478 55.2946 125.75 56.8238C125.804 57.1287 126.062 57.3536 126.371 57.3569L132.492 57.403C132.867 57.4063 133.168 57.0838 133.131 56.7097C132.925 54.6638 132.251 52.8033 131.108 51.1293C129.835 49.2677 128.083 47.8196 125.852 46.7863C123.621 45.754 121.086 45.2373 118.245 45.2373C115.553 45.2373 113.129 45.7353 110.971 46.7314C108.815 47.7275 107.136 49.1097 105.937 50.8803C104.738 52.6508 104.139 54.6419 104.139 56.8545C104.139 59.2887 104.673 61.2436 105.743 62.7179C106.813 64.1934 108.213 65.309 109.947 66.0649C111.68 66.8207 113.763 67.4197 116.197 67.8629L116.474 67.9177C119.054 68.3971 120.982 68.8216 122.255 69.1902C123.527 69.5599 124.531 70.0755 125.27 70.7392C126.007 71.4029 126.375 72.3068 126.375 73.4499C126.375 75.0734 125.712 76.3448 124.384 77.2663C123.057 78.1889 121.341 78.6496 119.239 78.6496C116.73 78.6496 114.703 78.0134 113.154 76.7409C111.745 75.5835 110.915 74.0971 110.666 72.2827C110.624 71.9689 110.362 71.7309 110.046 71.7265L103.933 71.6343C103.561 71.6288 103.26 71.9426 103.289 72.3134C103.462 74.5447 104.16 76.5555 105.382 78.3458C106.728 80.3193 108.581 81.8682 110.942 82.9926C113.301 84.1182 116.012 84.6798 119.074 84.6798C121.913 84.6798 124.458 84.1642 126.708 83.1309C128.957 82.0986 130.718 80.6692 131.991 78.8438C133.263 77.0184 133.9 74.9626 133.9 72.6754C133.9 70.2411 133.346 68.2775 132.24 66.7834C131.134 65.2904 129.686 64.1835 127.898 63.4639H127.899V63.465Z" fill="#76808D"/>
<path d="M165.49 78.3744H164.534C163.981 78.3744 163.547 78.2274 163.234 77.9312C162.921 77.6372 162.764 77.1567 162.764 76.493V65.9268C162.764 62.5711 161.694 60.0172 159.556 58.2653C157.417 56.5145 154.898 55.6216 150.952 55.6216C147.227 55.6216 144.317 56.4312 142.031 58.0163C139.946 59.4622 138.69 61.4422 138.26 63.9599C138.193 64.3515 138.489 64.7102 138.885 64.7102H144.508C144.79 64.7102 145.042 64.5248 145.116 64.2528C145.373 63.3214 145.939 62.5612 146.815 61.9721C147.828 61.2898 149.033 60.9486 150.619 60.9486C153.61 60.9486 155.738 62.7926 155.738 65.5395V66.3985C155.738 66.7495 155.453 67.0336 155.102 67.0336H150.01C145.88 67.0336 142.745 67.8454 140.607 69.4679C138.468 71.0914 137.398 73.3962 137.398 76.3822C137.398 78.9646 138.375 80.9929 140.33 82.4673C141.797 83.573 143.55 84.2115 145.354 84.4912C146.733 84.7052 148.15 84.783 149.532 84.5614C150.98 84.33 152.156 83.7332 153.333 82.8819C154.39 82.1184 155.272 81.1399 156.078 79.9464C156.47 79.2717 157.5 79.5427 157.5 80.3227V81.2606C157.499 82.9653 158.88 84.3475 160.585 84.3475H165.49C165.841 84.3475 166.125 84.0634 166.125 83.7124V79.0084C166.125 78.6574 165.841 78.3733 165.49 78.3733V78.3744ZM155.739 72.6777C155.739 74.0423 155.452 75.2315 154.881 76.2451C153.683 78.3711 151.539 79.4813 149.127 79.4813C147.725 79.4813 146.601 79.15 145.753 78.4863C144.904 77.8226 144.48 76.9373 144.48 75.8305C144.48 74.5777 144.951 73.609 145.891 72.9267C146.831 72.2455 148.167 71.9032 149.902 71.9032H155.103C155.455 71.9032 155.739 72.1873 155.739 72.5384V72.6777Z" fill="#76808D"/>
<path d="M185.985 45.6421H178.669C174.81 45.6421 171.681 48.7707 171.681 52.63V55.7004C171.681 56.0515 171.397 56.3356 171.046 56.3356H166.869C166.518 56.3356 166.233 56.6197 166.233 56.9708V61.7295C166.233 62.0806 166.518 62.3647 166.869 62.3647H171.046C171.397 62.3647 171.681 62.6488 171.681 62.9999V83.7134C171.681 84.0644 171.965 84.3485 172.316 84.3485H178.016C178.367 84.3485 178.651 84.0644 178.651 83.7134V62.9999C178.651 62.6488 178.936 62.3647 179.287 62.3647H185.929C186.28 62.3647 186.564 62.0806 186.564 61.7295V56.9708C186.564 56.6197 186.28 56.3356 185.929 56.3356H179.287C178.936 56.3356 178.651 56.0515 178.651 55.7004V52.9415C178.651 52.2394 179.221 51.6712 179.922 51.6712H185.984C186.335 51.6712 186.619 51.3871 186.619 51.036V46.2773C186.619 45.9262 186.335 45.6421 185.984 45.6421H185.985Z" fill="#76808D"/>
<path d="M213.91 62.0553C212.675 59.9908 210.987 58.4045 208.849 57.2977C206.71 56.1919 204.238 55.6226 201.436 55.6226C198.635 55.6226 196.217 56.238 194.079 57.4359C191.94 58.6349 190.28 60.3309 189.101 62.5249C187.92 64.7199 187.33 67.2913 187.33 70.2422C187.33 73.1931 187.939 75.6548 189.155 77.8488C190.373 80.0428 192.115 81.73 194.383 82.9103C196.65 84.0907 199.315 84.6809 202.376 84.6809C204.736 84.6809 206.848 84.2476 208.711 83.381C210.572 82.5154 212.075 81.3252 213.218 79.8135C214.197 78.5191 214.865 77.1017 215.222 75.5627C215.316 75.1634 215.014 74.7794 214.604 74.7794H208.877C208.603 74.7794 208.363 74.9571 208.275 75.2171C207.871 76.4095 207.159 77.3519 206.138 78.043C204.994 78.8174 203.574 79.2047 201.878 79.2047C200.476 79.2047 199.251 78.9096 198.2 78.3194C197.149 77.7303 196.32 76.8999 195.711 75.8303C195.471 75.408 195.275 74.9615 195.118 74.5019C194.95 74.0082 194.829 73.4992 194.746 72.9836C194.717 72.8037 194.691 72.6216 194.669 72.4395C194.626 72.0643 194.923 71.7363 195.301 71.7363H215.048C215.368 71.7363 215.642 71.4994 215.679 71.1802C215.706 70.9465 215.725 70.7085 215.735 70.4638C215.753 70.0217 215.762 69.6158 215.762 69.2473C215.762 66.519 215.144 64.1221 213.909 62.0564L213.91 62.0553ZM207.977 66.9216H195.609C195.203 66.9216 194.897 66.5454 194.987 66.1493C195.185 65.2816 195.527 64.4984 196.014 63.7963C196.64 62.8934 197.452 62.2012 198.448 61.7219C199.444 61.2425 200.531 61.0022 201.712 61.0022C203.629 61.0022 205.216 61.5189 206.469 62.5512C207.546 63.4376 208.254 64.6355 208.598 66.146C208.688 66.5432 208.384 66.9216 207.977 66.9216Z" fill="#76808D"/>
<path d="M89.0676 64.9854H83.6462C82.0271 64.9854 80.7151 66.2974 80.7151 67.9165V75.7853C80.7151 77.4044 79.4031 78.7165 77.7839 78.7165H56.2158C54.5967 78.7165 53.2847 80.0285 53.2847 81.6476V87.069C53.2847 88.6882 54.5967 90.0002 56.2158 90.0002H79.0323C80.6514 90.0002 81.9448 88.6882 81.9448 87.069V82.7194C81.9448 81.1002 83.2568 79.9517 84.876 79.9517H89.0665C90.6857 79.9517 91.9977 78.6397 91.9977 77.0205V67.8825C91.9977 66.2634 90.6857 64.9854 89.0665 64.9854H89.0676Z" fill="#76808D"/>
<path d="M53.2837 54.2149C53.2837 52.5957 54.5957 51.2837 56.2149 51.2837H77.7698C79.3889 51.2837 80.7009 49.9717 80.7009 48.3525V42.9312C80.7009 41.312 79.3889 40 77.7698 40H54.9654C53.3462 40 52.0342 41.312 52.0342 42.9312V47.1085C52.0342 48.7277 50.7222 50.0397 49.1031 50.0397H44.9312C43.312 50.0397 42 51.3517 42 52.9709V62.1187C42 63.7379 43.3175 64.9841 44.9367 64.9841H50.358C51.9772 64.9841 53.2892 63.6721 53.2892 62.0529L53.2837 54.216V54.2149Z" fill="#76808D"/>
<path d="M64.4478 59.2861H69.6552C71.3523 59.2861 72.729 60.664 72.729 62.3599V67.5674C72.729 69.2644 71.3512 70.6411 69.6552 70.6411H64.4478C62.7508 70.6411 61.374 69.2633 61.374 67.5674V62.3599C61.374 60.6629 62.7519 59.2861 64.4478 59.2861Z" fill="#76808D"/>
</g>
</g>
<defs>
<filter id="filter0_dd_3207_678" x="0" y="0" width="260.762" height="135" filterUnits="userSpaceOnUse" color-interpolation-filters="sRGB">
<feFlood flood-opacity="0" result="BackgroundImageFix"/>
<feColorMatrix in="SourceAlpha" type="matrix" values="0 0 0 0 0 0 0 0 0 0 0 0 0 0 0 0 0 0 127 0" result="hardAlpha"/>
<feOffset/>
<feGaussianBlur stdDeviation="10"/>
<feComposite in2="hardAlpha" operator="out"/>
<feColorMatrix type="matrix" values="0 0 0 0 0.788235 0 0 0 0 0.294118 0 0 0 0 0.196078 0 0 0 0.18 0"/>
<feBlend mode="normal" in2="BackgroundImageFix" result="effect1_dropShadow_3207_678"/>
<feColorMatrix in="SourceAlpha" type="matrix" values="0 0 0 0 0 0 0 0 0 0 0 0 0 0 0 0 0 0 127 0" result="hardAlpha"/>
<feOffset dx="3" dy="5"/>
<feGaussianBlur stdDeviation="10"/>
<feComposite in2="hardAlpha" operator="out"/>
<feColorMatrix type="matrix" values="0 0 0 0 0.105882 0 0 0 0 0.168627 0 0 0 0 0.254902 0 0 0 0.12 0"/>
<feBlend mode="normal" in2="effect1_dropShadow_3207_678" result="effect2_dropShadow_3207_678"/>
<feBlend mode="normal" in="SourceGraphic" in2="effect2_dropShadow_3207_678" result="shape"/>
</filter>
<clipPath id="clip0_3207_678">
<rect width="173.762" height="50" fill="white" transform="translate(42 40)"/>
</clipPath>
</defs>
</svg>
