<svg width="1280" height="262" viewBox="0 0 1280 262" fill="none" xmlns="http://www.w3.org/2000/svg">
<path d="M19 244C19 238.477 23.4772 234 29 234C34.5228 234 39 238.477 39 244V262H19V244Z" fill="#188C7C"/>
<path d="M59 254C59 248.477 63.4772 244 69 244C74.5228 244 79 248.477 79 254V262H59V254Z" fill="#FF8200"/>
<path d="M99 244C99 238.477 103.477 234 109 234C114.523 234 119 238.477 119 244V262H99V244Z" fill="#188C7C"/>
<path d="M139 244C139 238.477 143.477 234 149 234C154.523 234 159 238.477 159 244V262H139V244Z" fill="#188C7C"/>
<path d="M179 244C179 238.477 183.477 234 189 234C194.523 234 199 238.477 199 244V262H179V244Z" fill="#188C7C"/>
<path d="M219 108C219 102.477 223.477 98 229 98C234.523 98 239 102.477 239 108V262H219V108Z" fill="#E64460"/>
<path d="M259 244C259 238.477 263.477 234 269 234C274.523 234 279 238.477 279 244V262H259V244Z" fill="#188C7C"/>
<path d="M299 108C299 102.477 303.477 98 309 98C314.523 98 319 102.477 319 108V262H299V108Z" fill="#E64460"/>
<path d="M339 244C339 238.477 343.477 234 349 234C354.523 234 359 238.477 359 244V262H339V244Z" fill="#188C7C"/>
<path d="M379 108C379 102.477 383.477 98 389 98C394.523 98 399 102.477 399 108V262H379V108Z" fill="#E64460"/>
<path d="M419 108C419 102.477 423.477 98 429 98C434.523 98 439 102.477 439 108V262H419V108Z" fill="#E64460"/>
<path d="M459 10C459 4.47716 463.477 0 469 0C474.523 0 479 4.47715 479 10V262H459V10Z" fill="#188C7C"/>
<path d="M499 108C499 102.477 503.477 98 509 98C514.523 98 519 102.477 519 108V262H499V108Z" fill="#FF8200"/>
<path d="M539 108C539 102.477 543.477 98 549 98C554.523 98 559 102.477 559 108V262H539V108Z" fill="#FF8200"/>
<path d="M579 108C579 102.477 583.477 98 589 98C594.523 98 599 102.477 599 108V262H579V108Z" fill="#FF8200"/>
<path d="M619 161C619 155.477 623.477 151 629 151C634.523 151 639 155.477 639 161V262H619V161Z" fill="#1A385C"/>
<path d="M659 260C659 254.477 663.477 250 669 250C674.523 250 679 254.477 679 260V262H659V260Z" fill="#2A5F89"/>
<path d="M699 244C699 238.477 703.477 234 709 234C714.523 234 719 238.477 719 244V262H699V244Z" fill="#188C7C"/>
<path d="M739 254C739 248.477 743.477 244 749 244C754.523 244 759 248.477 759 254V262H739V254Z" fill="#FF8200"/>
<path d="M779 244C779 238.477 783.477 234 789 234C794.523 234 799 238.477 799 244V262H779V244Z" fill="#188C7C"/>
<path d="M819 151C819 145.477 823.477 141 829 141C834.523 141 839 145.477 839 151V262H819V151Z" fill="#CC2F22"/>
<path d="M859 108C859 102.477 863.477 98 869 98C874.523 98 879 102.477 879 108V262H859V108Z" fill="#FF8200"/>
<path d="M899 165C899 159.477 903.477 155 909 155C914.523 155 919 159.477 919 165V262H899V165Z" fill="#2A5F89"/>
<path d="M939 108C939 102.477 943.477 98 949 98C954.523 98 959 102.477 959 108V262H939V108Z" fill="#E64460"/>
<path d="M979 69C979 63.4772 983.477 59 989 59C994.523 59 999 63.4772 999 69V262H979V69Z" fill="#188C7C"/>
<path d="M1019 108C1019 102.477 1023.48 98 1029 98C1034.52 98 1039 102.477 1039 108V262H1019V108Z" fill="#FF8200"/>
<path d="M1059 161C1059 155.477 1063.48 151 1069 151C1074.52 151 1079 155.477 1079 161V262H1059V161Z" fill="#1A385C"/>
<path d="M1099 205C1099 199.477 1103.48 195 1109 195C1114.52 195 1119 199.477 1119 205V262H1099V205Z" fill="#FF8200"/>
<path d="M1139 260C1139 254.477 1143.48 250 1149 250C1154.52 250 1159 254.477 1159 260V262H1139V260Z" fill="#2A5F89"/>
<path d="M1179 244C1179 238.477 1183.48 234 1189 234C1194.52 234 1199 238.477 1199 244V262H1179V244Z" fill="#188C7C"/>
<path d="M1219 254C1219 248.477 1223.48 244 1229 244C1234.52 244 1239 248.477 1239 254V262H1219V254Z" fill="#FF8200"/>
<path d="M1259 244C1259 238.477 1263.48 234 1269 234C1274.52 234 1279 238.477 1279 244V262H1259V244Z" fill="#188C7C"/>
</svg>
