<?xml version="1.0" standalone="no"?>
<!DOCTYPE svg PUBLIC "-//W3C//DTD SVG 20010904//EN"
 "http://www.w3.org/TR/2001/REC-SVG-20010904/DTD/svg10.dtd">
<svg version="1.0" xmlns="http://www.w3.org/2000/svg"
 width="113.000000pt" height="200.000000pt" viewBox="0 0 113.000000 200.000000"
 preserveAspectRatio="xMidYMid meet">
<metadata>
Created by potrace 1.16, written by Peter Selinger 2001-2019
</metadata>
<g transform="translate(0.000000,200.000000) scale(0.100000,-0.100000)"
fill="#000000" stroke="none">
<path d="M388 1987 c22 -7 36 -7 43 0 6 6 -5 10 -33 10 l-43 1 33 -11z"/>
<path d="M835 1990 c7 -12 85 -14 85 -2 0 4 -20 9 -45 10 -28 1 -44 -2 -40 -8z"/>
<path d="M930 1988 c0 -4 3 -8 8 -8 145 -9 192 -7 192 6 0 13 -17 15 -100 12
-55 -1 -100 -6 -100 -10z"/>
<path d="M35 1950 c6 -10 3 -12 -11 -8 -14 4 -20 0 -21 -13 -1 -14 5 -19 25
-19 15 0 52 -2 82 -5 30 -2 46 -2 36 1 -14 5 -16 8 -6 14 8 5 -3 11 -31 18
-24 5 -53 13 -63 17 -15 6 -17 5 -11 -5z m85 -28 c0 -4 -16 -6 -35 -4 -19 2
-35 6 -35 8 0 2 16 4 35 4 19 0 35 -4 35 -8z"/>
<path d="M233 1946 c14 -14 53 -18 97 -8 25 5 25 5 -5 12 -16 4 -47 8 -68 9
-33 1 -36 -1 -24 -13z"/>
<path d="M810 1939 c0 -5 5 -7 10 -4 6 3 10 8 10 11 0 2 -4 4 -10 4 -5 0 -10
-5 -10 -11z"/>
<path d="M848 1933 c6 -2 18 -2 25 0 6 3 1 5 -13 5 -14 0 -19 -2 -12 -5z"/>
<path d="M510 1903 c0 -13 5 -23 10 -23 13 0 13 11 0 30 -8 12 -10 11 -10 -7z"/>
<path d="M210 1896 c0 -2 7 -6 15 -10 8 -3 15 -1 15 4 0 6 -7 10 -15 10 -8 0
-15 -2 -15 -4z"/>
<path d="M20 1883 c14 -2 29 -8 33 -13 5 -4 28 -5 53 -2 24 2 44 1 44 -4 0 -5
12 -10 26 -10 25 -2 25 -1 6 12 -12 8 -55 16 -104 18 -45 3 -72 2 -58 -1z"/>
<path d="M338 1876 c34 -7 68 -19 75 -26 10 -10 8 -12 -8 -6 -20 6 -20 6 -1
-9 24 -18 40 -19 33 -2 -3 9 5 12 32 9 27 -2 32 -1 21 7 -8 6 -24 11 -36 11
-11 0 -24 3 -28 7 -8 8 -19 10 -96 17 l-55 6 63 -14z"/>
<path d="M450 1880 c-12 -8 -11 -10 8 -10 12 0 41 -9 65 -19 53 -24 157 -38
157 -21 0 9 13 10 46 5 32 -4 44 -3 39 4 -3 6 0 11 7 12 7 0 4 4 -7 9 -28 12
-37 12 -30 0 4 -6 -5 -10 -19 -10 -14 0 -26 3 -26 8 0 4 -19 6 -43 4 -40 -3
-132 9 -167 22 -8 3 -22 1 -30 -4z"/>
<path d="M268 1825 c2 -15 9 -22 18 -18 19 7 18 16 -4 30 -17 10 -18 8 -14
-12z"/>
<path d="M838 1831 c-13 -4 -15 -10 -8 -21 8 -12 10 -12 10 -1 0 10 3 11 14 2
17 -15 29 0 12 15 -6 6 -19 8 -28 5z"/>
<path d="M905 1820 c3 -5 13 -10 21 -10 8 0 14 5 14 10 0 6 -9 10 -21 10 -11
0 -17 -4 -14 -10z"/>
<path d="M960 1811 c17 -10 163 -20 152 -10 -4 4 -43 9 -87 13 -49 4 -74 3
-65 -3z"/>
<path d="M185 1800 c3 -5 8 -10 11 -10 2 0 4 5 4 10 0 6 -5 10 -11 10 -5 0 -7
-4 -4 -10z"/>
<path d="M338 1773 c7 -3 16 -2 19 1 4 3 -2 6 -13 5 -11 0 -14 -3 -6 -6z"/>
<path d="M484 1761 c14 -21 -19 -40 -65 -37 -24 2 -82 6 -129 10 -200 14 -290
17 -290 8 0 -5 6 -9 13 -9 71 -1 357 -21 482 -34 99 -10 128 -17 87 -21 -12
-1 -35 -3 -52 -5 -16 -3 -43 -5 -59 -6 -16 -1 -29 -6 -28 -11 1 -5 -7 -14 -18
-20 -11 -6 -36 -23 -56 -38 -20 -16 -42 -28 -50 -28 -25 -1 -44 -24 -47 -57
-2 -18 1 -33 6 -33 15 0 9 -49 -6 -55 -7 -3 -10 -9 -7 -15 3 -5 2 -10 -3 -10
-10 0 -34 -79 -27 -89 1 -3 6 -24 9 -46 3 -22 9 -52 12 -66 4 -23 1 -29 -23
-37 l-28 -10 33 -1 c26 -1 35 -7 44 -28 l12 -28 4 28 c2 15 8 27 13 27 6 0 7
-6 3 -12 -4 -7 3 -4 15 7 31 27 160 35 184 11 18 -19 9 -66 -19 -97 -10 -11
-12 -19 -6 -19 7 0 24 23 38 52 26 51 27 52 43 31 9 -11 24 -35 33 -52 14 -26
23 -31 50 -30 29 2 30 3 7 6 -37 6 -59 33 -62 79 -2 38 -1 39 39 44 22 3 65 3
95 0 44 -4 56 -9 66 -30 7 -14 13 -19 13 -12 0 6 5 12 12 12 19 0 4 -261 -16
-276 -9 -6 -12 -15 -8 -19 4 -5 1 -5 -5 -1 -8 4 -13 1 -13 -8 0 -9 -5 -16 -10
-16 -6 0 -4 13 5 30 8 16 15 32 15 35 0 14 -31 -25 -41 -52 -11 -28 -11 -28
-20 -5 -5 12 -5 32 0 45 6 16 5 33 -6 54 -13 29 -17 31 -56 26 -23 -3 -54 -12
-69 -20 -24 -12 -32 -11 -58 2 -43 22 -117 20 -130 -4 -13 -25 -13 -64 0 -77
7 -7 7 -19 1 -35 l-9 -24 -12 33 c-7 17 -16 32 -22 32 -6 0 -8 -7 -4 -15 9
-23 -12 -18 -25 7 -6 12 -15 44 -19 72 l-8 51 -1 -61 c-1 -44 3 -65 14 -74 8
-7 15 -23 15 -37 0 -13 4 -22 9 -19 4 3 16 -12 26 -34 10 -22 22 -40 27 -40 4
0 7 -6 5 -12 -3 -17 95 -64 145 -71 21 -3 55 -1 75 5 19 5 45 11 56 14 24 4
57 33 57 49 0 6 6 19 13 29 11 15 13 1 12 -86 0 -121 -12 -152 -70 -186 -82
-47 -184 -16 -282 87 -55 57 -63 80 -56 153 5 54 3 66 -11 71 -13 5 -16 -1
-16 -32 0 -27 -4 -38 -15 -38 -10 0 -13 7 -10 21 3 12 1 44 -3 71 l-8 50 -8
-55 c-11 -88 -27 -140 -43 -140 -8 0 -11 -4 -8 -10 3 -5 -3 -10 -14 -10 -11 0
-28 -11 -39 -25 -11 -14 -29 -25 -39 -25 -11 0 -34 -13 -51 -30 -53 -51 -56
-45 -48 112 4 79 5 140 2 137 -7 -7 -17 -123 -20 -223 -1 -45 -6 -71 -14 -74
-9 -3 -12 -63 -12 -248 l0 -244 565 0 565 0 0 223 0 222 -34 27 c-19 16 -46
33 -60 40 -15 6 -26 20 -27 32 -1 17 -2 18 -6 3 -6 -22 -1 -22 -78 13 -58 26
-84 50 -55 50 6 0 10 5 10 11 0 5 -5 7 -10 4 -7 -5 -10 21 -8 77 2 45 -1 96
-5 111 -5 17 -4 26 1 23 5 -3 12 9 16 26 4 23 2 34 -8 40 -9 5 -13 15 -9 25 4
10 2 14 -5 10 -7 -5 -10 23 -10 93 0 55 4 100 8 100 4 0 11 10 15 23 24 76 28
220 7 267 -9 19 -16 40 -17 46 0 6 -6 19 -14 28 -12 14 -11 16 4 16 12 0 16 6
12 20 -3 10 0 21 7 23 6 3 -1 9 -16 15 -15 6 -37 21 -49 33 -12 12 -29 19 -40
16 -12 -3 -23 2 -29 13 -5 10 -25 21 -44 24 -50 10 -59 29 -9 21 l38 -7 -29
16 c-15 9 -32 13 -37 10 -5 -3 -9 5 -9 18 0 13 -4 18 -8 13 -8 -13 -18 -12
-52 3 -14 6 -18 11 -10 11 28 2 -5 19 -49 26 -31 5 -42 4 -37 -4z m66 -25 c0
-2 -7 -7 -16 -10 -8 -3 -12 -2 -9 4 6 10 25 14 25 6z m156 -337 c33 -15 66
-34 72 -41 8 -11 52 -162 52 -182 0 -3 -7 -6 -15 -6 -8 0 -15 4 -15 9 0 4 -10
6 -23 4 -13 -3 -39 0 -58 6 -32 10 -31 11 19 7 58 -3 64 4 27 28 -37 24 -106
12 -146 -25 -37 -35 -73 -37 -129 -8 -45 24 -70 21 -137 -14 -23 -12 -44 -19
-46 -17 -2 3 -1 38 4 77 7 64 13 78 46 119 59 71 91 84 198 77 70 -4 103 -11
151 -34z m-21 -498 c5 -3 -1 -8 -14 -11 -33 -8 -41 -33 -10 -28 21 3 24 -1 27
-35 4 -42 -15 -78 -29 -55 -5 7 -12 13 -16 14 -4 0 -29 4 -55 8 -57 10 -112 0
-104 -20 9 -25 -12 -24 -28 1 -18 28 -21 55 -5 55 5 0 7 5 4 10 -5 9 15 15 38
11 12 -2 8 16 -8 29 -8 7 -15 9 -15 6 0 -4 -5 -4 -11 0 -8 4 -7 9 2 15 15 9
208 9 224 0z m145 -123 c0 -16 4 -27 9 -24 12 8 19 -36 10 -60 -6 -16 -8 -14
-8 9 -1 16 -5 26 -10 23 -15 -10 -29 17 -29 56 0 27 4 35 14 31 8 -3 14 -18
14 -35z m2 -97 c2 -17 1 -28 -4 -25 -8 5 -12 54 -4 54 2 0 6 -13 8 -29z"/>
<path d="M1060 1760 c0 -5 5 -10 10 -10 6 0 10 5 10 10 0 6 -4 10 -10 10 -5 0
-10 -4 -10 -10z"/>
<path d="M348 1743 c7 -3 16 -2 19 1 4 3 -2 6 -13 5 -11 0 -14 -3 -6 -6z"/>
<path d="M388 1743 c7 -3 16 -2 19 1 4 3 -2 6 -13 5 -11 0 -14 -3 -6 -6z"/>
<path d="M674 1705 c11 -8 25 -15 30 -14 6 0 5 3 -2 6 -6 2 -10 9 -6 14 3 5
-5 9 -18 9 -22 -1 -22 -1 -4 -15z"/>
<path d="M220 1701 c10 -7 11 -11 3 -11 -7 0 -13 -4 -13 -10 0 -5 21 -10 46
-10 25 0 43 4 40 9 -3 5 -16 7 -28 3 -14 -3 -19 -2 -14 6 4 7 3 12 -3 12 -5 0
-18 3 -28 6 -15 5 -15 4 -3 -5z"/>
<path d="M978 1703 c7 -3 16 -2 19 1 4 3 -2 6 -13 5 -11 0 -14 -3 -6 -6z"/>
<path d="M726 1686 c3 -8 16 -15 27 -15 12 0 36 -2 52 -4 17 -3 75 -8 130 -12
55 -3 112 -8 127 -11 14 -3 29 -1 32 4 3 5 -31 12 -76 16 -45 4 -85 12 -89 18
-4 6 -8 6 -10 1 -4 -10 -151 0 -182 12 -13 6 -16 3 -11 -9z"/>
<path d="M370 1670 c0 -6 7 -10 15 -10 8 0 15 2 15 4 0 2 -7 6 -15 10 -8 3
-15 1 -15 -4z"/>
<path d="M900 1160 c0 -5 5 -10 10 -10 6 0 10 5 10 10 0 6 -4 10 -10 10 -5 0
-10 -4 -10 -10z"/>
<path d="M0 1151 c0 -5 14 -11 30 -13 17 -3 30 -1 30 3 0 4 17 10 38 12 22 2
11 4 -30 5 -38 1 -68 -2 -68 -7z"/>
<path d="M148 1153 c7 -3 16 -2 19 1 4 3 -2 6 -13 5 -11 0 -14 -3 -6 -6z"/>
<path d="M646 1138 c-20 -28 -6 -44 23 -28 12 6 26 8 31 5 12 -8 60 5 60 16 0
5 -11 11 -25 14 -14 3 -36 7 -49 10 -18 4 -29 -1 -40 -17z m28 -3 c3 -8 1 -15
-4 -15 -6 0 -10 7 -10 15 0 8 2 15 4 15 2 0 6 -7 10 -15z m66 1 c0 -3 -4 -8
-10 -11 -5 -3 -10 -1 -10 4 0 6 5 11 10 11 6 0 10 -2 10 -4z"/>
<path d="M930 1150 c0 -5 -9 -10 -20 -10 -11 0 -20 -4 -20 -9 0 -4 37 -9 83
-9 55 -1 76 2 62 8 -11 5 -35 9 -52 9 -18 1 -33 6 -33 11 0 6 -4 10 -10 10 -5
0 -10 -4 -10 -10z"/>
<path d="M410 1130 c-11 -7 -11 -10 -2 -10 7 0 10 -4 7 -10 -4 -6 10 -10 34
-10 39 0 53 11 31 25 -19 12 -55 14 -70 5z"/>
<path d="M1115 1120 c-3 -5 -1 -10 4 -10 6 0 11 5 11 10 0 6 -2 10 -4 10 -3 0
-8 -4 -11 -10z"/>
<path d="M788 1087 c-3 -19 -2 -25 4 -19 6 6 8 18 6 28 -3 14 -5 12 -10 -9z"/>
<path d="M303 1040 c0 -30 2 -43 4 -27 2 15 2 39 0 55 -2 15 -4 2 -4 -28z"/>
<path d="M1105 1080 c-3 -5 -1 -10 4 -10 6 0 11 5 11 10 0 6 -2 10 -4 10 -3 0
-8 -4 -11 -10z"/>
<path d="M245 999 c-11 -16 -1 -19 13 -3 7 8 8 14 3 14 -5 0 -13 -5 -16 -11z"/>
<path d="M41 962 c-1 -15 -5 -21 -13 -16 -7 5 -8 3 -3 -5 10 -18 28 2 22 25
-4 15 -5 14 -6 -4z"/>
<path d="M258 974 c-5 -4 -8 -16 -8 -28 0 -14 3 -17 11 -9 6 6 9 19 7 28 -1 9
-6 13 -10 9z"/>
<path d="M280 941 c0 -11 4 -22 9 -25 4 -3 6 6 3 19 -5 30 -12 33 -12 6z"/>
<path d="M790 909 c0 -5 5 -7 10 -4 6 3 10 8 10 11 0 2 -4 4 -10 4 -5 0 -10
-5 -10 -11z"/>
<path d="M945 721 c-8 -27 -4 -33 12 -16 6 6 7 18 3 25 -6 9 -10 7 -15 -9z"/>
</g>
</svg>
