<svg width="50" height="50" viewBox="0 0 50 50" fill="none" xmlns="http://www.w3.org/2000/svg">
<path d="M40.625 0H9.375C4.19688 0 0 4.19688 0 9.375V40.625C0 45.8031 4.19688 50 9.375 50H40.625C45.8031 50 50 45.8031 50 40.625V9.375C50 4.19688 45.8031 0 40.625 0ZM37.4375 19.3875C37.45 19.6531 37.4562 19.9188 37.4562 20.1844C37.4562 28.3188 31.2656 37.6969 19.9438 37.6969C16.4688 37.6969 13.2344 36.6781 10.5094 34.9313C10.9906 34.9875 11.4812 35.0187 11.9781 35.0187C14.8625 35.0187 17.5156 34.0344 19.6219 32.3844C16.9281 32.3344 14.6562 30.5531 13.8719 28.1094C14.25 28.1812 14.6312 28.2188 15.0312 28.2188C15.5938 28.2188 16.1375 28.1438 16.6531 28.0031C13.8375 27.4375 11.7156 24.95 11.7156 21.9688C11.7156 21.9438 11.7156 21.9188 11.7156 21.8906C12.5469 22.3531 13.4937 22.6281 14.5031 22.6625C12.8531 21.5594 11.7656 19.675 11.7656 17.5406C11.7656 16.4125 12.0688 15.3563 12.5969 14.4469C15.6313 18.1719 20.1687 20.6219 25.2844 20.8781C25.1781 20.4281 25.125 19.9562 25.125 19.475C25.125 16.0781 27.8813 13.3219 31.2812 13.3219C33.05 13.3219 34.65 14.0688 35.775 15.2656C37.1781 14.9875 38.4969 14.475 39.6844 13.7719C39.225 15.2094 38.25 16.4156 36.9781 17.1781C38.2219 17.0312 39.4094 16.6969 40.5125 16.2094C39.6875 17.4406 38.6406 18.525 37.4375 19.3875Z" fill="#C94B32"/>
</svg>
