<svg width="267" height="115" viewBox="0 0 267 115" fill="none" xmlns="http://www.w3.org/2000/svg">
<g filter="url(#filter0_dd_3804_2493)">
<rect x="20" y="20" width="223.929" height="70" rx="20" fill="white" shape-rendering="crispEdges"/>
<g clip-path="url(#clip0_3804_2493)">
<path fill-rule="evenodd" clip-rule="evenodd" d="M135.479 65.5998C136.408 66.0748 137.425 66.3123 138.542 66.3123C140.542 66.3123 142.229 65.529 143.613 63.9623C145.033 62.3956 145.746 60.4915 145.746 58.2415C145.746 55.9915 145.033 54.1081 143.613 52.5206C142.233 50.954 140.542 50.1706 138.542 50.1706C137.429 50.1706 136.408 50.4081 135.479 50.8831C134.954 51.1581 134.496 51.4831 134.108 51.8581C133.863 52.0956 133.367 51.9331 133.367 51.5915V44.0956C133.367 43.8665 133.179 43.679 132.95 43.679H130.954C130.725 43.679 130.538 43.8665 130.538 44.0956V65.3956C130.538 65.6248 130.725 65.8123 130.954 65.8123H132.963C133.192 65.8123 133.379 65.6248 133.379 65.3956V64.8873C133.379 64.5456 133.875 64.3831 134.117 64.6248C134.504 64.9998 134.958 65.3248 135.479 65.5998ZM141.508 62.1665C140.579 63.1956 139.438 63.7123 138.075 63.7123C136.713 63.7123 135.542 63.2081 134.613 62.1956C133.704 61.1665 133.254 59.8456 133.254 58.2373C133.254 56.629 133.708 55.3415 134.613 54.3123C135.542 53.2831 136.696 52.7665 138.075 52.7665C139.454 52.7665 140.579 53.2831 141.508 54.3123C142.438 55.3415 142.9 56.6498 142.9 58.2373C142.9 59.8248 142.438 61.154 141.508 62.1623V62.1665ZM115.258 64.0206C116.7 65.5456 118.538 66.3081 120.763 66.3081C122.288 66.3081 123.65 65.9456 124.842 65.2248C125.921 64.5831 126.788 63.7248 127.446 62.6498C127.583 62.4206 127.488 62.129 127.25 62.0123L125.55 61.1831C125.325 61.0748 125.058 61.1581 124.925 61.3665C123.917 62.929 122.571 63.7081 120.888 63.7081C119.567 63.7081 118.433 63.254 117.488 62.3498C116.65 61.5498 116.167 60.5248 116.038 59.2748C116.008 58.9956 116.238 58.7665 116.517 58.7665H127.433C127.7 58.7665 127.929 58.5623 127.942 58.2956C128.029 56.1998 127.35 53.8998 125.929 52.3665C124.608 50.904 122.825 50.1706 120.579 50.1706C118.333 50.1706 116.6 50.9415 115.2 52.4873C113.8 54.0123 113.1 55.929 113.1 58.2373C113.1 60.5456 113.821 62.4915 115.263 64.0165L115.258 64.0206ZM116.838 56.4165C116.521 56.4165 116.283 56.1206 116.383 55.8206C116.663 54.9831 117.113 54.2956 117.733 53.7581C118.517 53.0998 119.442 52.7706 120.517 52.7706C121.817 52.7706 122.846 53.1206 123.608 53.8206C124.254 54.3831 124.663 55.0706 124.833 55.8873C124.892 56.1706 124.663 56.4206 124.371 56.4206H116.842L116.838 56.4165ZM111.8 50.6665C112.1 50.6665 112.317 50.9623 112.221 51.2456L107.625 65.504C107.567 65.6873 107.396 65.8123 107.204 65.8123H104.946C104.754 65.8123 104.583 65.6873 104.525 65.504L101.254 55.4206C101.129 55.0331 100.583 55.0331 100.458 55.4206L97.2126 65.504C97.1543 65.6873 96.9835 65.8123 96.7876 65.8123H94.5585C94.3668 65.8123 94.196 65.6873 94.1376 65.504L89.5376 51.2456C89.446 50.9581 89.6585 50.6665 89.9585 50.6665H91.9835C92.1793 50.6665 92.3543 50.7956 92.4085 50.9873L95.3043 60.8206C95.421 61.2123 95.9751 61.2248 96.1043 60.8331L99.3543 50.9748C99.4126 50.7915 99.5835 50.6706 99.7751 50.6706H102.067C102.258 50.6706 102.429 50.7956 102.488 50.979L105.708 60.8331C105.838 61.2248 106.392 61.2165 106.508 60.8206L109.404 50.9915C109.458 50.804 109.633 50.6706 109.829 50.6706H111.792L111.8 50.6665ZM203.438 66.0623C202.2 66.0623 201.171 65.679 200.346 64.9165C199.542 64.154 199.129 63.0915 199.108 61.7331V53.679C199.108 53.4498 198.921 53.2623 198.692 53.2623H196.871C196.642 53.2623 196.454 53.0748 196.454 52.8456V51.0873C196.454 50.8581 196.642 50.6706 196.871 50.6706H198.692C198.921 50.6706 199.108 50.4831 199.108 50.254V44.104C199.108 43.8748 199.296 43.6873 199.525 43.6873H201.533C201.763 43.6873 201.95 43.8748 201.95 44.104V50.254C201.95 50.4831 202.138 50.6706 202.367 50.6706H205.238C205.467 50.6706 205.658 50.8581 205.658 51.0873V52.8456C205.658 53.0748 205.471 53.2623 205.238 53.2623H202.367C202.138 53.2623 201.95 53.4498 201.95 53.679V60.804C201.95 61.8123 202.146 62.504 202.538 62.8748C202.929 63.2248 203.371 63.3998 203.867 63.3998C204.092 63.3998 204.308 63.379 204.517 63.3373C204.583 63.3206 204.65 63.2998 204.713 63.279C204.946 63.204 205.204 63.3165 205.288 63.5456L205.896 65.2623C205.971 65.479 205.858 65.7206 205.638 65.7831C204.988 65.9665 204.254 66.0581 203.438 66.0581V66.0623ZM161.8 59.8165C161.8 61.6706 161.108 63.2165 159.729 64.454C158.367 65.6915 156.679 66.3081 154.658 66.3081C153.071 66.3081 151.638 65.8331 150.363 64.8873C149.175 63.9831 148.342 62.829 147.858 61.4206C147.783 61.1956 147.9 60.9498 148.121 60.8581L149.842 60.1415C150.104 60.0331 150.4 60.179 150.492 60.4456C150.825 61.379 151.308 62.1165 151.938 62.6581C152.7 63.2748 153.608 63.5873 154.658 63.5873C155.813 63.5873 156.813 63.2248 157.658 62.504C158.483 61.7623 158.896 60.8665 158.896 59.8123C158.896 58.7581 158.463 57.8748 157.596 57.154C156.75 56.4331 155.729 56.0706 154.533 56.0706H153.179C152.921 56.0706 152.708 55.8581 152.708 55.5998V53.8831C152.708 53.6248 152.921 53.4123 153.179 53.4123H154.317C155.45 53.4123 156.379 53.104 157.1 52.4831C157.821 51.8456 158.183 51.0206 158.183 50.0081C158.183 49.079 157.842 48.329 157.163 47.7498C156.483 47.1706 155.588 46.8831 154.471 46.8831C152.838 46.8831 151.671 47.6456 150.979 49.1748C150.867 49.4206 150.583 49.5456 150.333 49.4415L148.575 48.6956C148.346 48.5998 148.229 48.3373 148.329 48.104C148.813 46.9956 149.55 46.0831 150.542 45.3665C151.654 44.5623 152.963 44.1623 154.467 44.1623C156.342 44.1623 157.921 44.7206 159.196 45.8331C160.454 46.904 161.083 48.2956 161.083 50.0081C161.083 51.8123 160.342 53.3498 158.858 54.3665C158.613 54.5373 158.617 54.929 158.879 55.0748C160.117 55.7706 160.542 56.3165 160.833 56.7498C161.471 57.6581 161.792 58.6748 161.792 59.8123L161.8 59.8165ZM167.992 59.104C167.229 59.6623 166.85 60.3498 166.85 61.1748C166.85 61.9165 167.158 62.5331 167.779 63.029C168.417 63.5248 169.158 63.7706 170.004 63.7706C171.2 63.7706 172.263 63.329 173.188 62.4415C174.075 61.6123 174.546 60.6456 174.604 59.5456C174.613 59.3998 174.546 59.2623 174.429 59.1831C173.558 58.5748 172.383 58.2665 170.904 58.2665C169.75 58.2665 168.779 58.5456 167.996 59.0998L167.992 59.104ZM170.525 50.1706C172.629 50.1706 174.288 50.7373 175.504 51.8706C176.721 52.9831 177.329 54.5206 177.329 56.479V65.3956C177.329 65.6248 177.142 65.8123 176.908 65.8123H174.9C174.671 65.8123 174.483 65.6248 174.483 65.3956V63.7123C173.308 65.4456 171.742 66.3081 169.783 66.3081C168.113 66.3081 166.713 65.8123 165.579 64.8248C164.467 63.8373 163.908 62.5998 163.908 61.1165C163.908 59.5498 164.496 58.304 165.671 57.3748C166.867 56.4456 168.454 55.9831 170.433 55.9831C171.808 55.9831 172.983 56.1873 173.963 56.5956C174.258 56.7206 174.608 56.5123 174.579 56.1915C174.5 55.2623 174.221 54.4415 173.433 53.754C172.65 53.054 171.733 52.704 170.683 52.704C169.229 52.704 168.05 53.2665 167.15 54.3915C167.008 54.5665 166.763 54.6206 166.571 54.4998L164.775 53.3706C164.575 53.2415 164.517 52.9706 164.667 52.7831C166.038 51.0415 167.992 50.1665 170.525 50.1665V50.1706ZM193.383 65.8123C193.629 65.8123 193.829 65.6123 193.829 65.3665V51.1123C193.829 50.8665 193.629 50.6665 193.383 50.6665H191.429C191.183 50.6665 190.983 50.8665 190.983 51.1123V59.0456C190.983 60.3248 190.604 61.4248 189.842 62.354C189.079 63.2623 188.129 63.7123 186.996 63.7123C184.563 63.7123 183.317 62.4748 183.254 60.004V51.1123C183.254 50.8665 183.054 50.6665 182.808 50.6665H180.854C180.608 50.6665 180.408 50.8665 180.408 51.1123V60.1915C180.408 62.1498 180.904 63.6623 181.892 64.7373C182.9 65.7873 184.333 66.3123 186.188 66.3123C187.158 66.3123 188.083 66.0665 188.971 65.5706C189.475 65.2956 189.908 64.979 190.267 64.629C190.496 64.404 190.979 64.5581 190.979 64.879V65.3748C190.979 65.6206 191.179 65.8206 191.425 65.8206H193.379L193.383 65.8123ZM208.942 43.6748C208.713 43.6748 208.521 43.8623 208.521 44.0915V65.3915C208.521 65.6206 208.708 65.8081 208.942 65.8081H210.95C211.179 65.8081 211.367 65.6206 211.367 65.3915V57.554C211.367 56.2748 211.758 55.1623 212.542 54.2165C213.346 53.2498 214.325 52.7623 215.479 52.7623C217.892 52.7623 219.096 54.1206 219.096 56.8415V65.3873C219.096 65.6165 219.283 65.804 219.513 65.804H221.521C221.75 65.804 221.942 65.6165 221.942 65.3873V56.2831C221.942 54.3248 221.438 52.8206 220.425 51.7706C219.438 50.6998 218.013 50.1623 216.158 50.1623C215.188 50.1623 214.25 50.4081 213.346 50.904C212.854 51.179 212.429 51.4915 212.075 51.8456C211.85 52.0706 211.367 51.9206 211.367 51.5998V44.0956C211.367 43.8665 211.179 43.679 210.95 43.679H208.942V43.6748Z" fill="#76808D"/>
<path fill-rule="evenodd" clip-rule="evenodd" d="M74.1748 63.7584C73.954 64.5875 72.779 64.5875 72.5582 63.7584L69.9748 54.125C69.9248 53.9375 69.9248 53.7417 69.9748 53.5584L72.2623 45.0209C72.4665 44.2667 73.1498 43.7417 73.929 43.7417H77.2873C78.4207 43.7417 79.2498 44.8167 78.954 45.9167L74.1707 63.7625L74.1748 63.7584ZM52.029 54.1084C52.079 53.9209 52.079 53.725 52.029 53.5417L49.7457 45.0209C49.5415 44.2667 48.8582 43.7417 48.079 43.7417H44.7207C43.5873 43.7417 42.7582 44.8167 43.054 45.9167L47.8332 63.7459C48.054 64.575 49.229 64.575 49.4498 63.7459L52.0332 54.1125L52.029 54.1084Z" fill="#76808D"/>
<path fill-rule="evenodd" clip-rule="evenodd" d="M59.2998 65.7001C59.2248 65.9834 59.4373 66.2584 59.729 66.2584H62.2915C62.5832 66.2584 62.7957 65.9792 62.7207 65.7001L61.4415 60.9209C61.3248 60.4834 60.6998 60.4834 60.5832 60.9209L59.304 65.7001H59.2998Z" fill="#76808D"/>
<path fill-rule="evenodd" clip-rule="evenodd" d="M56.7501 68.7583C56.5543 69.4917 55.8918 70 55.1335 70H51.6668C50.5668 70 49.7668 68.9542 50.0501 67.8917L57.1626 41.3583C57.3751 40.5583 58.1043 40 58.9293 40H63.0543C63.8835 40 64.6085 40.5583 64.821 41.3583L71.9293 67.8958C72.2126 68.9583 71.4126 70.0042 70.3126 70.0042H66.846C66.0876 70.0042 65.4251 69.4958 65.2293 68.7625L61.771 55.8542C61.5543 55.0542 60.421 55.0542 60.2043 55.8542L56.746 68.7625L56.7501 68.7583Z" fill="#76808D"/>
<path fill-rule="evenodd" clip-rule="evenodd" d="M74.1831 63.7583C73.9623 64.5875 72.7873 64.5875 72.5664 63.7583L69.9831 54.125C69.9331 53.9375 69.9331 53.7417 69.9831 53.5583L73.2748 41.2792C73.4789 40.525 74.1623 40 74.9414 40H78.2998C79.4331 40 80.2623 41.075 79.9664 42.175L74.1831 63.7625V63.7583ZM52.0373 54.1083C52.0873 53.9208 52.0873 53.725 52.0373 53.5417L48.7539 41.2792C48.5498 40.525 47.8664 40 47.0873 40H43.7289C42.5914 40 41.7664 41.075 42.0581 42.175L47.8373 63.7458C48.0581 64.575 49.2331 64.575 49.4539 63.7458L52.0373 54.1125V54.1083Z" fill="#76808D"/>
</g>
</g>
<defs>
<filter id="filter0_dd_3804_2493" x="0" y="0" width="266.929" height="115" filterUnits="userSpaceOnUse" color-interpolation-filters="sRGB">
<feFlood flood-opacity="0" result="BackgroundImageFix"/>
<feColorMatrix in="SourceAlpha" type="matrix" values="0 0 0 0 0 0 0 0 0 0 0 0 0 0 0 0 0 0 127 0" result="hardAlpha"/>
<feOffset/>
<feGaussianBlur stdDeviation="10"/>
<feComposite in2="hardAlpha" operator="out"/>
<feColorMatrix type="matrix" values="0 0 0 0 0.788235 0 0 0 0 0.294118 0 0 0 0 0.196078 0 0 0 0.18 0"/>
<feBlend mode="normal" in2="BackgroundImageFix" result="effect1_dropShadow_3804_2493"/>
<feColorMatrix in="SourceAlpha" type="matrix" values="0 0 0 0 0 0 0 0 0 0 0 0 0 0 0 0 0 0 127 0" result="hardAlpha"/>
<feOffset dx="3" dy="5"/>
<feGaussianBlur stdDeviation="10"/>
<feComposite in2="hardAlpha" operator="out"/>
<feColorMatrix type="matrix" values="0 0 0 0 0.105882 0 0 0 0 0.168627 0 0 0 0 0.254902 0 0 0 0.12 0"/>
<feBlend mode="normal" in2="effect1_dropShadow_3804_2493" result="effect2_dropShadow_3804_2493"/>
<feBlend mode="normal" in="SourceGraphic" in2="effect2_dropShadow_3804_2493" result="shape"/>
</filter>
<clipPath id="clip0_3804_2493">
<rect width="179.929" height="30" fill="white" transform="translate(42 40)"/>
</clipPath>
</defs>
</svg>
