<?xml version="1.0" standalone="no"?>
<!DOCTYPE svg PUBLIC "-//W3C//DTD SVG 20010904//EN"
 "http://www.w3.org/TR/2001/REC-SVG-20010904/DTD/svg10.dtd">
<svg version="1.0" xmlns="http://www.w3.org/2000/svg"
 width="133.000000pt" height="200.000000pt" viewBox="0 0 133.000000 200.000000"
 preserveAspectRatio="xMidYMid meet">
<metadata>
Created by potrace 1.16, written by Peter Selinger 2001-2019
</metadata>
<g transform="translate(0.000000,200.000000) scale(0.100000,-0.100000)"
fill="#000000" stroke="none">
<path d="M0 1000 l0 -1000 665 0 665 0 0 1000 0 1000 -665 0 -665 0 0 -1000z
m874 544 c-1 -10 -4 -28 -8 -39 -7 -18 -6 -18 4 -2 15 24 45 21 63 -5 9 -13
34 -42 56 -66 50 -55 83 -121 89 -183 3 -30 8 -46 15 -42 6 4 8 -2 4 -16 -4
-17 -2 -21 9 -17 23 9 16 -8 -11 -25 -14 -8 -35 -35 -47 -59 -47 -91 -168
-144 -283 -123 -68 12 -63 -2 15 -41 37 -18 63 -25 72 -20 7 5 16 9 20 9 3 0
18 10 32 22 14 13 32 20 41 17 9 -4 15 0 15 9 0 16 24 30 34 20 3 -4 1 -12 -5
-20 -9 -10 -4 -13 27 -14 22 -1 42 -1 45 -1 4 1 5 -7 2 -16 -4 -17 -72 -56
-143 -83 -19 -7 -37 -15 -40 -19 -6 -6 -126 -59 -150 -65 -30 -7 -87 -29 -94
-36 -6 -5 -23 -9 -39 -9 -25 0 -28 -2 -17 -15 7 -8 18 -15 25 -15 8 0 30 -19
50 -42 20 -24 34 -37 29 -29 -5 11 -1 12 22 7 33 -9 44 -22 44 -54 0 -16 18
-40 52 -70 28 -26 59 -60 70 -77 10 -16 18 -24 18 -17 0 6 4 12 10 12 5 0 7
-6 4 -14 -3 -7 4 -29 16 -48 l20 -35 -39 -11 c-21 -7 -44 -19 -51 -27 -7 -8
-17 -15 -23 -15 -6 0 -26 -15 -44 -32 -28 -28 -35 -30 -44 -18 -8 12 -9 11 -7
-5 2 -12 -2 -19 -10 -17 -8 1 -11 -2 -7 -7 3 -6 -3 -15 -14 -21 -22 -11 -37 2
-25 22 4 7 3 8 -4 4 -13 -8 -145 162 -136 175 3 5 -3 6 -12 2 -13 -5 -16 -3
-11 10 4 11 -6 38 -28 72 -19 30 -35 63 -35 73 0 24 23 35 39 19 8 -8 11 -8
11 1 0 7 -8 15 -17 18 -10 4 -32 12 -50 20 -64 29 -94 3 -35 -31 51 -29 52
-45 3 -45 -34 0 -43 -4 -55 -27 -7 -16 -17 -43 -21 -62 -4 -19 -17 -43 -29
-53 -20 -17 -20 -18 -1 -11 18 6 18 5 6 -10 -29 -36 -71 -16 -81 39 -6 32 -8
24 -10 -46 -2 -47 -4 -89 -5 -95 -2 -5 -3 -20 -4 -33 -1 -16 -6 -22 -19 -20
-11 2 -17 -3 -16 -14 1 -10 -2 -16 -6 -13 -5 3 -11 -1 -13 -7 -3 -7 -6 19 -7
57 -1 64 -2 68 -13 42 l-12 -29 -19 21 c-15 16 -17 29 -12 62 8 48 42 103 58
93 6 -4 8 -3 5 3 -9 14 62 94 81 91 11 -2 24 16 41 57 25 58 37 73 110 137
l34 30 -29 23 c-16 13 -41 29 -56 36 -16 6 -28 18 -28 25 0 8 -6 13 -12 11 -7
-1 -14 7 -16 19 -2 16 5 24 30 33 18 7 48 19 66 27 33 14 45 3 15 -15 -10 -6
-12 -11 -5 -11 18 0 14 -28 -6 -34 -9 -3 6 -4 33 -2 28 2 59 7 70 12 12 5 8
-2 -11 -19 -18 -15 -37 -27 -44 -27 -10 0 -10 -3 0 -15 14 -17 40 -20 40 -5 0
5 7 6 17 3 11 -4 14 -3 9 5 -4 7 -1 12 8 12 9 0 15 -3 15 -7 -3 -19 2 -33 12
-33 5 0 7 4 4 10 -7 12 34 110 47 110 5 0 6 5 3 10 -3 6 -4 10 -1 10 2 0 11 2
19 6 11 4 9 -6 -7 -40 -11 -24 -23 -43 -27 -41 -3 2 -6 -9 -6 -26 0 -33 -4
-33 110 -7 38 8 47 14 42 27 -15 38 -27 115 -22 144 3 21 -5 47 -23 82 -35 67
-47 188 -27 290 12 60 16 70 33 67 14 -2 16 -1 6 6 -11 7 -7 18 20 48 41 48
60 63 118 91 51 25 65 24 64 -3z m183 -550 c-3 -3 -12 -4 -19 -1 -8 3 -5 6 6
6 11 1 17 -2 13 -5z m-82 -453 c3 -5 1 -12 -3 -15 -5 -3 -15 -27 -22 -53 -16
-58 -14 -55 -32 -48 -11 5 -12 16 -4 65 9 53 13 60 32 60 13 0 25 -4 29 -9z
m-85 -46 c-15 -39 -23 -25 -8 16 6 18 13 29 15 23 2 -6 -1 -24 -7 -39z m-533
-67 c-3 -8 -6 -5 -6 6 -1 11 2 17 5 13 3 -3 4 -12 1 -19z m130 -65 c-4 -3 1
-12 11 -19 16 -12 16 -13 0 -14 -9 0 -20 5 -23 10 -6 10 2 30 12 30 4 0 3 -3
0 -7z m33 -64 c0 -6 -4 -7 -10 -4 -5 3 -10 11 -10 16 0 6 5 7 10 4 6 -3 10
-11 10 -16z m-189 -51 c-11 -24 -20 -35 -20 -25 -1 10 -5 15 -11 12 -21 -13
-9 24 17 49 34 35 40 20 14 -36z m594 52 c3 -5 1 -10 -4 -10 -6 0 -11 5 -11
10 0 6 2 10 4 10 3 0 8 -4 11 -10z m-20 -70 c-3 -5 -1 -10 4 -10 6 0 11 -4 11
-10 0 -5 -7 -7 -15 -4 -17 7 -21 34 -4 34 5 0 7 -4 4 -10z m-330 -61 c-4 -5
-1 -9 5 -9 6 0 8 -5 4 -11 -4 -8 -9 -7 -15 2 -12 19 -11 42 1 34 6 -4 8 -11 5
-16z m-320 1 c3 -5 1 -10 -4 -10 -6 0 -11 5 -11 10 0 6 2 10 4 10 3 0 8 -4 11
-10z m-3 -65 c-2 -14 -6 -25 -8 -25 -2 0 -4 11 -4 25 0 14 4 25 9 25 4 0 6
-11 3 -25z"/>
<path d="M718 1413 c7 -3 16 -2 19 1 4 3 -2 6 -13 5 -11 0 -14 -3 -6 -6z"/>
<path d="M918 1403 c7 -3 16 -2 19 1 4 3 -2 6 -13 5 -11 0 -14 -3 -6 -6z"/>
<path d="M674 1335 c-17 -13 -17 -14 -1 -15 9 0 17 5 17 11 0 8 5 8 15 -1 16
-13 45 -7 45 10 0 15 -53 12 -76 -5z"/>
<path d="M913 1328 c2 -15 46 -30 59 -22 12 8 -22 33 -44 34 -10 0 -17 -6 -15
-12z"/>
<path d="M755 1210 c3 -5 8 -10 11 -10 2 0 4 5 4 10 0 6 -5 10 -11 10 -5 0 -7
-4 -4 -10z"/>
<path d="M820 1205 c7 -9 15 -13 17 -11 7 7 -7 26 -19 26 -6 0 -6 -6 2 -15z"/>
<path d="M720 1130 c0 -6 11 -8 28 -4 39 10 40 14 4 14 -18 0 -32 -5 -32 -10z"/>
<path d="M803 1133 c9 -2 25 -2 35 0 9 3 1 5 -18 5 -19 0 -27 -2 -17 -5z"/>
<path d="M865 1120 c3 -5 13 -10 21 -10 8 0 14 5 14 10 0 6 -9 10 -21 10 -11
0 -17 -4 -14 -10z"/>
<path d="M525 690 c3 -5 11 -10 16 -10 6 0 7 5 4 10 -3 6 -11 10 -16 10 -6 0
-7 -4 -4 -10z"/>
<path d="M849 313 c-13 -17 -13 -17 6 -3 11 8 22 16 24 17 2 2 0 3 -6 3 -6 0
-17 -8 -24 -17z"/>
</g>
</svg>
