<?xml version="1.0" standalone="no"?>
<!DOCTYPE svg PUBLIC "-//W3C//DTD SVG 20010904//EN"
 "http://www.w3.org/TR/2001/REC-SVG-20010904/DTD/svg10.dtd">
<svg version="1.0" xmlns="http://www.w3.org/2000/svg"
 width="148.000000pt" height="200.000000pt" viewBox="0 0 148.000000 200.000000"
 preserveAspectRatio="xMidYMid meet">
<metadata>
Created by potrace 1.16, written by Peter Selinger 2001-2019
</metadata>
<g transform="translate(0.000000,200.000000) scale(0.100000,-0.100000)"
fill="#000000" stroke="none">
<path d="M0 1964 c0 -36 1 -36 31 -30 17 3 35 6 40 6 5 0 9 14 9 30 0 28 -2
30 -40 30 -39 0 -40 -1 -40 -36z"/>
<path d="M436 1984 c-9 -24 -9 -24 34 -24 33 0 40 3 40 20 0 16 -7 20 -34 20
-22 0 -36 -6 -40 -16z"/>
<path d="M660 1989 c0 -7 50 -9 155 -7 85 2 155 6 155 11 0 4 -70 7 -155 7
-103 0 -155 -4 -155 -11z"/>
<path d="M1075 1950 c3 -5 8 -10 11 -10 2 0 4 5 4 10 0 6 -5 10 -11 10 -5 0
-7 -4 -4 -10z"/>
<path d="M1245 1946 c-6 -19 -23 -281 -19 -288 3 -4 26 -5 52 -3 26 3 82 7
125 11 l77 6 0 144 0 145 -116 -2 c-76 -1 -117 -5 -119 -13z"/>
<path d="M830 1924 c-52 -7 -112 -13 -133 -13 -33 -1 -38 -4 -43 -29 -5 -24
-10 -28 -35 -27 -17 1 -33 -3 -37 -10 -4 -6 -21 -17 -39 -23 -35 -12 -43 -3
-43 47 0 25 -3 27 -30 23 -17 -2 -30 -10 -30 -18 0 -8 -8 -14 -19 -14 -21 0
-32 -35 -20 -67 6 -17 -3 -32 -46 -76 -35 -36 -57 -67 -61 -89 -3 -18 -9 -44
-13 -58 -11 -44 -4 -389 8 -404 9 -11 6 -12 -13 -9 -27 6 -29 1 -41 -90 -8
-61 10 -148 37 -177 15 -16 29 -21 49 -18 16 3 29 1 29 -4 0 -4 -8 -9 -17 -10
-10 -1 -25 -2 -33 -3 -8 -1 -26 -5 -39 -9 -23 -8 -23 -9 -16 -104 8 -107 20
-128 62 -109 18 8 23 19 24 51 1 23 1 45 0 49 -4 22 45 -1 59 -28 8 -16 22
-35 31 -42 29 -22 43 -86 31 -144 -8 -44 -7 -63 8 -110 33 -101 56 -137 108
-163 30 -16 56 -39 72 -65 23 -38 40 -52 40 -32 0 4 16 29 35 54 23 30 59 59
109 86 80 45 246 194 297 267 51 75 34 148 -42 178 -32 13 -39 21 -39 43 -1
25 -2 24 -15 -11 -17 -48 -49 -92 -64 -89 -6 2 -11 -1 -11 -5 0 -19 -37 -51
-46 -42 -7 7 -18 2 -34 -12 -27 -26 -82 -36 -74 -14 4 10 0 13 -13 10 -10 -2
-31 -1 -47 4 l-29 8 44 41 c24 23 41 44 38 47 -5 6 -67 14 -124 16 -16 1 -24
4 -17 7 6 2 9 9 6 15 -4 6 0 14 7 19 10 6 5 12 -20 22 -29 12 -31 15 -15 22
28 12 44 14 104 16 84 3 102 0 97 -13 -2 -7 -12 -12 -21 -12 -9 1 -16 -2 -16
-6 0 -5 -8 -11 -17 -13 -10 -3 0 -4 22 -2 22 1 49 6 59 10 14 6 17 5 12 -3
-10 -16 22 -15 38 1 47 46 46 113 -1 159 -25 24 -33 28 -33 15 0 -9 4 -17 10
-17 11 0 40 -52 40 -72 0 -9 -3 -10 -8 -2 -4 6 -25 17 -47 24 -22 7 -46 20
-54 29 -10 12 -15 13 -18 4 -3 -10 -10 -10 -25 -2 -11 6 -22 8 -25 5 -4 -3
-18 7 -33 23 -26 27 -29 28 -64 16 -36 -13 -36 -13 -33 13 2 14 9 28 17 30 7
3 10 0 6 -6 -3 -6 7 -4 22 4 25 12 29 20 31 61 2 55 9 85 24 95 12 7 37 -15
37 -32 0 -7 10 -31 22 -54 29 -53 27 -50 33 -44 3 3 -3 21 -14 39 -33 57 -40
149 -11 149 6 0 5 -10 -1 -23 -15 -32 1 -89 26 -94 64 -14 72 -14 84 1 11 14
11 16 -3 16 -16 0 -16 1 -2 16 9 8 16 22 16 30 0 16 16 19 25 5 3 -6 -3 -14
-12 -20 -17 -10 -16 -10 2 -10 11 1 31 4 45 8 l25 7 -26 26 c-15 15 -43 30
-63 33 -30 6 -33 9 -21 21 7 8 26 14 42 13 24 0 25 -2 8 -8 -17 -7 -17 -8 8
-13 15 -3 27 -1 27 4 0 6 7 7 15 4 8 -3 22 -9 30 -12 26 -11 -3 52 -33 72 -25
16 -32 17 -104 2 -85 -18 -107 -33 -112 -75 -2 -16 -4 -32 -5 -38 -1 -12 -51
-16 -51 -4 0 5 8 10 18 10 9 1 4 4 -13 8 -20 4 -29 12 -27 23 3 17 -77 73
-114 80 -17 3 -19 11 -16 78 1 41 5 96 8 121 l6 47 62 7 c34 3 109 5 166 4
134 -3 170 -20 199 -94 11 -27 23 -63 26 -80 4 -16 13 -46 20 -65 17 -46 30
-136 26 -179 -2 -22 1 -31 8 -27 6 4 11 14 11 22 0 8 4 13 9 10 5 -3 15 2 22
11 12 14 12 16 -1 11 -13 -5 -15 19 -15 181 0 161 -2 189 -17 211 -10 13 -18
33 -18 42 0 10 -21 49 -46 87 l-46 69 7 86 7 86 -28 -1 c-16 -1 -72 -7 -124
-15z m-390 -134 c0 -5 -4 -10 -10 -10 -5 0 -10 5 -10 10 0 6 5 10 10 10 6 0
10 -4 10 -10z m387 -556 c-3 -3 -12 -4 -19 -1 -8 3 -5 6 6 6 11 1 17 -2 13 -5z
m-300 -10 c-3 -3 -12 -4 -19 -1 -8 3 -5 6 6 6 11 1 17 -2 13 -5z m-135 -68
c-2 -30 1 -62 7 -75 11 -20 14 -20 34 -6 27 19 47 19 47 0 0 -20 38 -19 80 1
25 13 34 14 40 4 6 -9 12 -4 24 16 8 16 15 25 16 19 1 -27 -40 -72 -70 -79
-54 -10 -145 -7 -163 7 -20 15 -39 124 -26 150 15 26 16 21 11 -37z m263 43
c11 -17 -1 -21 -15 -4 -8 9 -8 15 -2 15 6 0 14 -5 17 -11z m-70 -29 c3 -5 4
-10 1 -10 -2 0 -12 -3 -20 -6 -12 -5 -15 -2 -10 10 7 18 20 21 29 6z m260 0
c3 -5 2 -10 -4 -10 -5 0 -13 5 -16 10 -3 6 -2 10 4 10 5 0 13 -4 16 -10z
m-345 -10 c0 -5 -2 -10 -4 -10 -3 0 -8 5 -11 10 -3 6 -1 10 4 10 6 0 11 -4 11
-10z m70 -154 c0 -7 -8 -20 -17 -28 -10 -9 -33 -30 -51 -47 -29 -27 -36 -29
-58 -19 -24 11 -27 18 -38 83 l-5 30 85 -3 c59 -3 84 -7 84 -16z m120 -140 c0
-3 -4 -8 -10 -11 -5 -3 -10 -1 -10 4 0 6 5 11 10 11 6 0 10 -2 10 -4z m155
-18 c7 -8 0 -9 -24 -4 -18 3 -54 6 -80 6 -35 0 -42 3 -31 11 18 12 121 3 135
-13z m-495 -53 c0 -16 -35 -21 -44 -6 -8 12 4 21 26 21 10 0 18 -7 18 -15z
m750 -225 c8 -5 12 -11 9 -14 -3 -3 -14 1 -25 9 -21 16 -8 20 16 5z"/>
<path d="M12 1848 c-8 -8 -12 -52 -12 -130 l0 -118 24 0 c34 0 39 12 38 94 0
162 -1 166 -20 166 -10 0 -23 -5 -30 -12z"/>
<path d="M1353 1581 c-62 -3 -117 -11 -122 -16 -6 -6 -14 -73 -18 -148 l-6
-137 136 0 137 0 0 155 c0 85 -3 154 -7 153 -5 -1 -58 -4 -120 -7z"/>
<path d="M46 1502 c-4 -7 -16 -12 -27 -12 -16 0 -19 -7 -19 -40 0 -33 3 -40
20 -40 11 0 20 -4 20 -10 0 -25 20 -6 26 24 7 39 -8 97 -20 78z"/>
<path d="M0 1320 c0 -33 4 -40 19 -40 21 0 31 19 31 58 0 21 -2 24 -10 12 -6
-10 -10 -11 -10 -2 0 6 -7 12 -15 12 -11 0 -15 -11 -15 -40z"/>
<path d="M1202 1213 c3 -13 -13 -267 -18 -285 -5 -17 7 -18 145 -18 l151 0 0
155 0 155 -140 0 c-77 0 -139 -3 -138 -7z m207 -16 c13 -16 5 -27 -20 -27 -20
0 -33 27 -16 34 20 8 24 7 36 -7z"/>
<path d="M0 1175 c0 -28 4 -35 19 -35 12 0 20 9 24 27 6 34 1 43 -24 43 -15 0
-19 -7 -19 -35z"/>
<path d="M1022 1185 c0 -16 2 -22 5 -12 2 9 2 23 0 30 -3 6 -5 -1 -5 -18z"/>
<path d="M1040 1175 c0 -8 2 -15 4 -15 2 0 6 7 10 15 3 8 1 15 -4 15 -6 0 -10
-7 -10 -15z"/>
<path d="M1123 1129 c3 -19 10 -45 15 -59 9 -21 10 -16 8 29 -1 34 -7 56 -15
59 -9 3 -12 -5 -8 -29z"/>
<path d="M0 1059 c0 -29 21 -58 43 -59 5 0 7 19 5 43 -2 35 -7 43 -25 45 -20
3 -23 -1 -23 -29z"/>
<path d="M1075 1079 c-3 -9 -1 -28 4 -42 9 -23 7 -31 -9 -47 -26 -26 -26 -60
0 -60 22 0 26 10 9 27 -7 7 -2 17 20 32 37 27 38 37 6 76 -19 23 -25 26 -30
14z"/>
<path d="M829 1037 c5 -5 19 -7 32 -5 20 3 19 5 -9 9 -20 3 -29 2 -23 -4z"/>
<path d="M1124 976 c-10 -8 -15 -18 -11 -22 4 -4 15 0 24 9 22 21 12 31 -13
13z"/>
<path d="M753 973 c-24 -9 -13 -23 11 -13 15 5 27 5 35 -3 13 -13 26 -3 16 12
-6 11 -40 13 -62 4z"/>
<path d="M0 950 c0 -5 12 -10 26 -10 14 0 23 4 19 10 -3 6 -15 10 -26 10 -10
0 -19 -4 -19 -10z"/>
<path d="M1047 906 c-4 -10 -1 -13 8 -9 8 3 12 9 9 14 -7 12 -11 11 -17 -5z"/>
<path d="M0 745 c0 -99 3 -125 14 -125 18 0 26 45 26 156 0 87 -1 94 -20 94
-19 0 -20 -7 -20 -125z"/>
<path d="M1186 852 c-3 -6 -9 -43 -12 -84 -4 -57 -1 -85 14 -128 l19 -55 136
-3 137 -3 0 136 0 135 -122 0 c-68 0 -133 3 -144 6 -12 3 -25 1 -28 -4z"/>
<path d="M708 773 c7 -3 16 -2 19 1 4 3 -2 6 -13 5 -11 0 -14 -3 -6 -6z"/>
<path d="M670 750 c0 -5 5 -10 10 -10 6 0 10 5 10 10 0 6 -4 10 -10 10 -5 0
-10 -4 -10 -10z"/>
<path d="M299 488 c-9 -20 -23 -35 -39 -38 -19 -5 -26 -13 -28 -38 l-3 -32 49
0 c46 0 51 2 62 31 7 17 24 37 37 46 13 9 23 25 23 39 0 22 -4 24 -43 24 -39
0 -45 -3 -58 -32z"/>
<path d="M13 503 c-15 -5 -18 -89 -5 -97 12 -7 32 62 24 83 -4 10 -13 16 -19
14z"/>
<path d="M1446 481 c-3 -5 0 -11 8 -14 15 -6 26 1 26 15 0 11 -27 10 -34 -1z"/>
<path d="M0 345 c0 -45 12 -60 24 -29 12 31 7 74 -9 74 -11 0 -15 -12 -15 -45z"/>
<path d="M0 131 l0 -131 61 0 c51 0 60 3 55 16 -3 8 -10 44 -16 78 -9 57 -40
140 -40 109 0 -24 -17 -13 -30 17 -24 58 -30 40 -30 -89z"/>
</g>
</svg>
